<svg height="330" viewBox="0 0 60 330" width="60" xmlns="http://www.w3.org/2000/svg">
<line stroke="gray" stroke-width="1" x1="45" x2="45" y1="15" y2="30"/>
<circle cx="45" cy="15" fill="gray" r="4" stroke="gray" stroke-width="1"/>
<line stroke="gray" stroke-width="1" x1="45" x2="45" y1="30" y2="45"/>
<circle cx="45" cy="30" fill="gray" r="4" stroke="gray" stroke-width="1"/>
<line stroke="gray" stroke-width="1" x1="45" x2="45" y1="45" y2="60"/>
<circle cx="45" cy="45" fill="gray" r="4" stroke="gray" stroke-width="1"/>
<line stroke="gray" stroke-width="1" x1="45" x2="45" y1="60" y2="75"/>
<circle cx="45" cy="60" fill="gray" r="4" stroke="gray" stroke-width="1"/>
<line stroke="gray" stroke-width="1" x1="45" x2="45" y1="75" y2="135"/>
<path d="M45,75 L45,75 Q45,82.5,30,82.5 Q15,82.5,15,90 L15,90" fill="none" stroke="blue" stroke-width="1"/>
<circle cx="45" cy="75" fill="white" r="4" stroke="gray" stroke-width="1"/>
<line stroke="blue" stroke-width="1" x1="15" x2="15" y1="90" y2="105"/>
<circle cx="15" cy="90" fill="blue" r="4" stroke="blue" stroke-width="1"/>
<line stroke="blue" stroke-width="1" x1="15" x2="15" y1="105" y2="120"/>
<circle cx="15" cy="105" fill="blue" r="4" stroke="blue" stroke-width="1"/>
<line stroke="blue" stroke-width="1" x1="15" x2="15" y1="120" y2="180"/>
<circle cx="15" cy="120" fill="blue" r="4" stroke="blue" stroke-width="1"/>
<line stroke="gray" stroke-width="1" x1="45" x2="45" y1="135" y2="150"/>
<circle cx="45" cy="135" fill="gray" r="4" stroke="gray" stroke-width="1"/>
<line stroke="gray" stroke-width="1" x1="45" x2="45" y1="150" y2="165"/>
<circle cx="45" cy="150" fill="gray" r="4" stroke="gray" stroke-width="1"/>
<line stroke="gray" stroke-width="1" x1="45" x2="45" y1="165" y2="195"/>
<circle cx="45" cy="165" fill="gray" r="4" stroke="gray" stroke-width="1"/>
<line stroke="blue" stroke-width="1" x1="15" x2="15" y1="180" y2="210"/>
<circle cx="15" cy="180" fill="blue" r="4" stroke="blue" stroke-width="1"/>
<line stroke="gray" stroke-width="1" x1="45" x2="45" y1="195" y2="225"/>
<circle cx="45" cy="195" fill="gray" r="4" stroke="gray" stroke-width="1"/>
<circle cx="15" cy="210" fill="blue" r="4" stroke="blue" stroke-width="1"/>
<line stroke="gray" stroke-width="1" x1="45" x2="45" y1="225" y2="240"/>
<circle cx="45" cy="225" fill="gray" r="4" stroke="gray" stroke-width="1"/>
<line stroke="gray" stroke-width="1" x1="45" x2="45" y1="240" y2="255"/>
<path d="M45,240 L45,240 Q45,247.5,37.5,247.5 Q30,247.5,30,255 L30,285" fill="none" stroke="gray" stroke-width="1"/>
<circle cx="45" cy="240" fill="white" r="4" stroke="gray" stroke-width="1"/>
<line stroke="gray" stroke-width="1" x1="45" x2="45" y1="255" y2="270"/>
<circle cx="45" cy="255" fill="gray" r="4" stroke="gray" stroke-width="1"/>
<circle cx="45" cy="270" fill="gray" r="4" stroke="gray" stroke-width="1"/>
<line stroke="gray" stroke-width="1" x1="30" x2="30" y1="285" y2="300"/>
<circle cx="30" cy="285" fill="gray" r="4" stroke="gray" stroke-width="1"/>
<circle cx="30" cy="300" fill="gray" r="4" stroke="gray" stroke-width="1"/>
</svg>
