<svg height="2145" viewBox="0 0 150 2145" width="150" xmlns="http://www.w3.org/2000/svg">
<line stroke="purple" stroke-width="1" x1="75" x2="75" y1="15" y2="60"/>
<circle cx="75" cy="15" fill="purple" r="4" stroke="purple" stroke-width="1"/>
<line stroke="gray" stroke-width="1" x1="90" x2="90" y1="30" y2="45"/>
<circle cx="90" cy="30" fill="gray" r="4" stroke="gray" stroke-width="1"/>
<path d="M90,45 L90,45 Q90,52.5,75,52.5 Q60,52.5,60,60 L60,450" fill="none" stroke="turquoise" stroke-width="1"/>
<path d="M90,45 L90,45 Q90,52.5,82.5,52.5 Q75,52.5,75,60 L75,60" fill="none" stroke="purple" stroke-width="1"/>
<circle cx="90" cy="45" fill="white" r="4" stroke="gray" stroke-width="1"/>
<line stroke="purple" stroke-width="1" x1="75" x2="75" y1="60" y2="75"/>
<circle cx="75" cy="60" fill="purple" r="4" stroke="purple" stroke-width="1"/>
<line stroke="purple" stroke-width="1" x1="75" x2="75" y1="75" y2="90"/>
<circle cx="75" cy="75" fill="purple" r="4" stroke="purple" stroke-width="1"/>
<line stroke="purple" stroke-width="1" x1="75" x2="75" y1="90" y2="105"/>
<circle cx="75" cy="90" fill="purple" r="4" stroke="purple" stroke-width="1"/>
<line stroke="purple" stroke-width="1" x1="75" x2="75" y1="105" y2="120"/>
<circle cx="75" cy="105" fill="purple" r="4" stroke="purple" stroke-width="1"/>
<path d="M75,120 L75,165 Q75,172.5,52.5,172.5 Q30,172.5,30,180 L30,180" fill="none" stroke="purple" stroke-width="1"/>
<circle cx="75" cy="120" fill="purple" r="4" stroke="purple" stroke-width="1"/>
<line stroke="purple" stroke-width="1" x1="60" x2="60" y1="135" y2="150"/>
<circle cx="60" cy="135" fill="purple" r="4" stroke="purple" stroke-width="1"/>
<path d="M60,150 L60,165 Q60,172.5,45,172.5 Q30,172.5,30,180 L30,180" fill="none" stroke="purple" stroke-width="1"/>
<circle cx="60" cy="150" fill="purple" r="4" stroke="purple" stroke-width="1"/>
<line stroke="blue" stroke-width="1" x1="15" x2="15" y1="165" y2="1620"/>
<path d="M15,165 L15,165 Q15,172.5,22.5,172.5 Q30,172.5,30,180 L30,180" fill="none" stroke="orange" stroke-width="1"/>
<circle cx="15" cy="165" fill="white" r="4" stroke="blue" stroke-width="1"/>
<line stroke="orange" stroke-width="1" x1="30" x2="30" y1="180" y2="420"/>
<path d="M30,180 L30,180 Q30,187.5,45,187.5 Q60,187.5,60,195 L60,195" fill="none" stroke="purple" stroke-width="1"/>
<circle cx="30" cy="180" fill="white" r="4" stroke="orange" stroke-width="1"/>
<line stroke="purple" stroke-width="1" x1="60" x2="60" y1="195" y2="210"/>
<path d="M60,195 L60,195 Q60,202.5,82.5,202.5 Q105,202.5,105,210 L105,585" fill="none" stroke="gray" stroke-width="1"/>
<circle cx="60" cy="195" fill="white" r="4" stroke="purple" stroke-width="1"/>
<line stroke="purple" stroke-width="1" x1="60" x2="60" y1="210" y2="225"/>
<circle cx="60" cy="210" fill="purple" r="4" stroke="purple" stroke-width="1"/>
<line stroke="purple" stroke-width="1" x1="60" x2="60" y1="225" y2="240"/>
<circle cx="60" cy="225" fill="purple" r="4" stroke="purple" stroke-width="1"/>
<line stroke="purple" stroke-width="1" x1="60" x2="60" y1="240" y2="255"/>
<circle cx="60" cy="240" fill="purple" r="4" stroke="purple" stroke-width="1"/>
<line stroke="purple" stroke-width="1" x1="60" x2="60" y1="255" y2="270"/>
<circle cx="60" cy="255" fill="purple" r="4" stroke="purple" stroke-width="1"/>
<line stroke="purple" stroke-width="1" x1="60" x2="60" y1="270" y2="285"/>
<circle cx="60" cy="270" fill="purple" r="4" stroke="purple" stroke-width="1"/>
<line stroke="purple" stroke-width="1" x1="60" x2="60" y1="285" y2="300"/>
<circle cx="60" cy="285" fill="purple" r="4" stroke="purple" stroke-width="1"/>
<line stroke="purple" stroke-width="1" x1="60" x2="60" y1="300" y2="315"/>
<circle cx="60" cy="300" fill="purple" r="4" stroke="purple" stroke-width="1"/>
<line stroke="purple" stroke-width="1" x1="60" x2="60" y1="315" y2="330"/>
<circle cx="60" cy="315" fill="purple" r="4" stroke="purple" stroke-width="1"/>
<line stroke="purple" stroke-width="1" x1="60" x2="60" y1="330" y2="345"/>
<circle cx="60" cy="330" fill="purple" r="4" stroke="purple" stroke-width="1"/>
<line stroke="purple" stroke-width="1" x1="60" x2="60" y1="345" y2="360"/>
<circle cx="60" cy="345" fill="purple" r="4" stroke="purple" stroke-width="1"/>
<line stroke="purple" stroke-width="1" x1="60" x2="60" y1="360" y2="375"/>
<circle cx="60" cy="360" fill="purple" r="4" stroke="purple" stroke-width="1"/>
<line stroke="purple" stroke-width="1" x1="60" x2="60" y1="375" y2="390"/>
<circle cx="60" cy="375" fill="purple" r="4" stroke="purple" stroke-width="1"/>
<line stroke="purple" stroke-width="1" x1="60" x2="60" y1="390" y2="405"/>
<circle cx="60" cy="390" fill="purple" r="4" stroke="purple" stroke-width="1"/>
<path d="M60,405 L60,405 Q60,412.5,45,412.5 Q30,412.5,30,420 L30,420" fill="none" stroke="purple" stroke-width="1"/>
<circle cx="60" cy="405" fill="purple" r="4" stroke="purple" stroke-width="1"/>
<line stroke="orange" stroke-width="1" x1="30" x2="30" y1="420" y2="435"/>
<path d="M30,420 L30,420 Q30,427.5,82.5,427.5 Q135,427.5,135,435 L135,465" fill="none" stroke="purple" stroke-width="1"/>
<circle cx="30" cy="420" fill="white" r="4" stroke="orange" stroke-width="1"/>
<line stroke="orange" stroke-width="1" x1="30" x2="30" y1="435" y2="645"/>
<path d="M30,435 L30,435 Q30,442.5,45,442.5 Q60,442.5,60,450 L60,450" fill="none" stroke="turquoise" stroke-width="1"/>
<circle cx="30" cy="435" fill="white" r="4" stroke="orange" stroke-width="1"/>
<line stroke="turquoise" stroke-width="1" x1="60" x2="60" y1="450" y2="480"/>
<circle cx="60" cy="450" fill="turquoise" r="4" stroke="turquoise" stroke-width="1"/>
<line stroke="purple" stroke-width="1" x1="135" x2="135" y1="465" y2="540"/>
<circle cx="135" cy="465" fill="purple" r="4" stroke="purple" stroke-width="1"/>
<line stroke="turquoise" stroke-width="1" x1="60" x2="60" y1="480" y2="495"/>
<circle cx="60" cy="480" fill="turquoise" r="4" stroke="turquoise" stroke-width="1"/>
<line stroke="turquoise" stroke-width="1" x1="60" x2="60" y1="495" y2="510"/>
<circle cx="60" cy="495" fill="turquoise" r="4" stroke="turquoise" stroke-width="1"/>
<line stroke="turquoise" stroke-width="1" x1="60" x2="60" y1="510" y2="525"/>
<circle cx="60" cy="510" fill="turquoise" r="4" stroke="turquoise" stroke-width="1"/>
<line stroke="turquoise" stroke-width="1" x1="60" x2="60" y1="525" y2="615"/>
<circle cx="60" cy="525" fill="turquoise" r="4" stroke="turquoise" stroke-width="1"/>
<line stroke="purple" stroke-width="1" x1="135" x2="135" y1="540" y2="555"/>
<circle cx="135" cy="540" fill="purple" r="4" stroke="purple" stroke-width="1"/>
<line stroke="purple" stroke-width="1" x1="135" x2="135" y1="555" y2="570"/>
<circle cx="135" cy="555" fill="purple" r="4" stroke="purple" stroke-width="1"/>
<line stroke="purple" stroke-width="1" x1="135" x2="135" y1="570" y2="600"/>
<circle cx="135" cy="570" fill="purple" r="4" stroke="purple" stroke-width="1"/>
<line stroke="gray" stroke-width="1" x1="105" x2="105" y1="585" y2="690"/>
<circle cx="105" cy="585" fill="gray" r="4" stroke="gray" stroke-width="1"/>
<line stroke="purple" stroke-width="1" x1="135" x2="135" y1="600" y2="630"/>
<circle cx="135" cy="600" fill="purple" r="4" stroke="purple" stroke-width="1"/>
<path d="M60,615 L60,630 Q60,637.5,45,637.5 Q30,637.5,30,645 L30,645" fill="none" stroke="turquoise" stroke-width="1"/>
<circle cx="60" cy="615" fill="turquoise" r="4" stroke="turquoise" stroke-width="1"/>
<line stroke="purple" stroke-width="1" x1="135" x2="135" y1="630" y2="705"/>
<circle cx="135" cy="630" fill="purple" r="4" stroke="purple" stroke-width="1"/>
<line stroke="orange" stroke-width="1" x1="30" x2="30" y1="645" y2="675"/>
<path d="M30,645 L30,645 Q30,652.5,60,652.5 Q90,652.5,90,660 L90,660" fill="none" stroke="purple" stroke-width="1"/>
<circle cx="30" cy="645" fill="white" r="4" stroke="orange" stroke-width="1"/>
<line stroke="purple" stroke-width="1" x1="90" x2="90" y1="660" y2="885"/>
<path d="M90,660 L90,660 Q90,667.5,60,667.5 Q30,667.5,30,675 L30,675" fill="none" stroke="orange" stroke-width="1"/>
<circle cx="90" cy="660" fill="white" r="4" stroke="purple" stroke-width="1"/>
<line stroke="orange" stroke-width="1" x1="30" x2="30" y1="675" y2="810"/>
<path d="M30,675 L30,675 Q30,682.5,82.5,682.5 Q135,682.5,135,690 L135,705" fill="none" stroke="purple" stroke-width="1"/>
<circle cx="30" cy="675" fill="white" r="4" stroke="orange" stroke-width="1"/>
<line stroke="gray" stroke-width="1" x1="105" x2="105" y1="690" y2="765"/>
<circle cx="105" cy="690" fill="gray" r="4" stroke="gray" stroke-width="1"/>
<line stroke="purple" stroke-width="1" x1="135" x2="135" y1="705" y2="720"/>
<circle cx="135" cy="705" fill="purple" r="4" stroke="purple" stroke-width="1"/>
<line stroke="purple" stroke-width="1" x1="135" x2="135" y1="720" y2="735"/>
<circle cx="135" cy="720" fill="purple" r="4" stroke="purple" stroke-width="1"/>
<line stroke="purple" stroke-width="1" x1="135" x2="135" y1="735" y2="750"/>
<path d="M135,735 L135,735 Q135,742.5,82.5,742.5 Q30,742.5,30,750 L30,810" fill="none" stroke="orange" stroke-width="1"/>
<circle cx="135" cy="735" fill="white" r="4" stroke="purple" stroke-width="1"/>
<line stroke="purple" stroke-width="1" x1="135" x2="135" y1="750" y2="840"/>
<circle cx="135" cy="750" fill="purple" r="4" stroke="purple" stroke-width="1"/>
<line stroke="gray" stroke-width="1" x1="105" x2="105" y1="765" y2="780"/>
<path d="M105,765 L105,765 Q105,772.5,112.5,772.5 Q120,772.5,120,780 L120,1020" fill="none" stroke="turquoise" stroke-width="1"/>
<circle cx="105" cy="765" fill="white" r="4" stroke="gray" stroke-width="1"/>
<line stroke="gray" stroke-width="1" x1="105" x2="105" y1="780" y2="795"/>
<circle cx="105" cy="780" fill="gray" r="4" stroke="gray" stroke-width="1"/>
<line stroke="gray" stroke-width="1" x1="105" x2="105" y1="795" y2="855"/>
<circle cx="105" cy="795" fill="gray" r="4" stroke="gray" stroke-width="1"/>
<line stroke="orange" stroke-width="1" x1="30" x2="30" y1="810" y2="825"/>
<path d="M30,810 L30,810 Q30,817.5,52.5,817.5 Q75,817.5,75,825 L75,1005" fill="none" stroke="gray" stroke-width="1"/>
<circle cx="30" cy="810" fill="white" r="4" stroke="orange" stroke-width="1"/>
<line stroke="orange" stroke-width="1" x1="30" x2="30" y1="825" y2="870"/>
<circle cx="30" cy="825" fill="orange" r="4" stroke="orange" stroke-width="1"/>
<line stroke="purple" stroke-width="1" x1="135" x2="135" y1="840" y2="960"/>
<circle cx="135" cy="840" fill="purple" r="4" stroke="purple" stroke-width="1"/>
<line stroke="gray" stroke-width="1" x1="105" x2="105" y1="855" y2="1035"/>
<circle cx="105" cy="855" fill="gray" r="4" stroke="gray" stroke-width="1"/>
<line stroke="orange" stroke-width="1" x1="30" x2="30" y1="870" y2="1155"/>
<circle cx="30" cy="870" fill="orange" r="4" stroke="orange" stroke-width="1"/>
<line stroke="purple" stroke-width="1" x1="90" x2="90" y1="885" y2="1290"/>
<path d="M90,885 L90,885 Q90,892.5,75,892.5 Q60,892.5,60,900 L60,900" fill="none" stroke="gray" stroke-width="1"/>
<circle cx="90" cy="885" fill="white" r="4" stroke="purple" stroke-width="1"/>
<line stroke="gray" stroke-width="1" x1="60" x2="60" y1="900" y2="915"/>
<circle cx="60" cy="900" fill="gray" r="4" stroke="gray" stroke-width="1"/>
<line stroke="gray" stroke-width="1" x1="60" x2="60" y1="915" y2="930"/>
<circle cx="60" cy="915" fill="gray" r="4" stroke="gray" stroke-width="1"/>
<line stroke="gray" stroke-width="1" x1="60" x2="60" y1="930" y2="945"/>
<circle cx="60" cy="930" fill="gray" r="4" stroke="gray" stroke-width="1"/>
<path d="M60,945 L60,1275 Q60,1282.5,75,1282.5 Q90,1282.5,90,1290 L90,1290" fill="none" stroke="gray" stroke-width="1"/>
<circle cx="60" cy="945" fill="gray" r="4" stroke="gray" stroke-width="1"/>
<line stroke="purple" stroke-width="1" x1="135" x2="135" y1="960" y2="975"/>
<circle cx="135" cy="960" fill="purple" r="4" stroke="purple" stroke-width="1"/>
<line stroke="purple" stroke-width="1" x1="135" x2="135" y1="975" y2="990"/>
<circle cx="135" cy="975" fill="purple" r="4" stroke="purple" stroke-width="1"/>
<line stroke="purple" stroke-width="1" x1="135" x2="135" y1="990" y2="1380"/>
<circle cx="135" cy="990" fill="purple" r="4" stroke="purple" stroke-width="1"/>
<path d="M75,1005 L75,1260 Q75,1267.5,52.5,1267.5 Q30,1267.5,30,1275 L30,1275" fill="none" stroke="orange" stroke-width="1"/>
<path d="M75,1005 L75,1005 Q75,1012.5,97.5,1012.5 Q120,1012.5,120,1020 L120,1020" fill="none" stroke="turquoise" stroke-width="1"/>
<circle cx="75" cy="1005" fill="white" r="4" stroke="gray" stroke-width="1"/>
<line stroke="turquoise" stroke-width="1" x1="120" x2="120" y1="1020" y2="1170"/>
<path d="M120,1020 L120,1260 Q120,1267.5,75,1267.5 Q30,1267.5,30,1275 L30,1275" fill="none" stroke="orange" stroke-width="1"/>
<circle cx="120" cy="1020" fill="white" r="4" stroke="turquoise" stroke-width="1"/>
<line stroke="gray" stroke-width="1" x1="105" x2="105" y1="1035" y2="1050"/>
<circle cx="105" cy="1035" fill="gray" r="4" stroke="gray" stroke-width="1"/>
<line stroke="gray" stroke-width="1" x1="105" x2="105" y1="1050" y2="1065"/>
<circle cx="105" cy="1050" fill="gray" r="4" stroke="gray" stroke-width="1"/>
<line stroke="gray" stroke-width="1" x1="105" x2="105" y1="1065" y2="1080"/>
<circle cx="105" cy="1065" fill="gray" r="4" stroke="gray" stroke-width="1"/>
<line stroke="gray" stroke-width="1" x1="105" x2="105" y1="1080" y2="1095"/>
<circle cx="105" cy="1080" fill="gray" r="4" stroke="gray" stroke-width="1"/>
<line stroke="gray" stroke-width="1" x1="105" x2="105" y1="1095" y2="1110"/>
<circle cx="105" cy="1095" fill="gray" r="4" stroke="gray" stroke-width="1"/>
<line stroke="gray" stroke-width="1" x1="105" x2="105" y1="1110" y2="1125"/>
<circle cx="105" cy="1110" fill="gray" r="4" stroke="gray" stroke-width="1"/>
<line stroke="gray" stroke-width="1" x1="105" x2="105" y1="1125" y2="1140"/>
<circle cx="105" cy="1125" fill="gray" r="4" stroke="gray" stroke-width="1"/>
<path d="M105,1140 L105,1260 Q105,1267.5,67.5,1267.5 Q30,1267.5,30,1275 L30,1275" fill="none" stroke="gray" stroke-width="1"/>
<circle cx="105" cy="1140" fill="gray" r="4" stroke="gray" stroke-width="1"/>
<line stroke="orange" stroke-width="1" x1="30" x2="30" y1="1155" y2="1230"/>
<circle cx="30" cy="1155" fill="orange" r="4" stroke="orange" stroke-width="1"/>
<line stroke="turquoise" stroke-width="1" x1="120" x2="120" y1="1170" y2="1185"/>
<circle cx="120" cy="1170" fill="turquoise" r="4" stroke="turquoise" stroke-width="1"/>
<line stroke="turquoise" stroke-width="1" x1="120" x2="120" y1="1185" y2="1200"/>
<circle cx="120" cy="1185" fill="turquoise" r="4" stroke="turquoise" stroke-width="1"/>
<line stroke="turquoise" stroke-width="1" x1="120" x2="120" y1="1200" y2="1215"/>
<circle cx="120" cy="1200" fill="turquoise" r="4" stroke="turquoise" stroke-width="1"/>
<line stroke="turquoise" stroke-width="1" x1="120" x2="120" y1="1215" y2="1530"/>
<circle cx="120" cy="1215" fill="turquoise" r="4" stroke="turquoise" stroke-width="1"/>
<line stroke="orange" stroke-width="1" x1="30" x2="30" y1="1230" y2="1245"/>
<circle cx="30" cy="1230" fill="orange" r="4" stroke="orange" stroke-width="1"/>
<line stroke="orange" stroke-width="1" x1="30" x2="30" y1="1245" y2="1260"/>
<circle cx="30" cy="1245" fill="orange" r="4" stroke="orange" stroke-width="1"/>
<line stroke="orange" stroke-width="1" x1="30" x2="30" y1="1260" y2="1275"/>
<circle cx="30" cy="1260" fill="orange" r="4" stroke="orange" stroke-width="1"/>
<line stroke="orange" stroke-width="1" x1="30" x2="30" y1="1275" y2="1320"/>
<path d="M30,1275 L30,1275 Q30,1282.5,60,1282.5 Q90,1282.5,90,1290 L90,1290" fill="none" stroke="purple" stroke-width="1"/>
<circle cx="30" cy="1275" fill="white" r="4" stroke="orange" stroke-width="1"/>
<line stroke="purple" stroke-width="1" x1="90" x2="90" y1="1290" y2="1350"/>
<path d="M90,1290 L90,1290 Q90,1297.5,75,1297.5 Q60,1297.5,60,1305 L60,1305" fill="none" stroke="gray" stroke-width="1"/>
<circle cx="90" cy="1290" fill="white" r="4" stroke="purple" stroke-width="1"/>
<path d="M60,1305 L60,1335 Q60,1342.5,75,1342.5 Q90,1342.5,90,1350 L90,1350" fill="none" stroke="gray" stroke-width="1"/>
<circle cx="60" cy="1305" fill="gray" r="4" stroke="gray" stroke-width="1"/>
<line stroke="orange" stroke-width="1" x1="30" x2="30" y1="1320" y2="1335"/>
<circle cx="30" cy="1320" fill="orange" r="4" stroke="orange" stroke-width="1"/>
<line stroke="orange" stroke-width="1" x1="30" x2="30" y1="1335" y2="1590"/>
<path d="M30,1335 L30,1365 Q30,1372.5,60,1372.5 Q90,1372.5,90,1380 L90,1425" fill="none" stroke="purple" stroke-width="1"/>
<circle cx="30" cy="1335" fill="white" r="4" stroke="orange" stroke-width="1"/>
<line stroke="purple" stroke-width="1" x1="90" x2="90" y1="1350" y2="1365"/>
<circle cx="90" cy="1350" fill="purple" r="4" stroke="purple" stroke-width="1"/>
<line stroke="purple" stroke-width="1" x1="90" x2="90" y1="1365" y2="1425"/>
<circle cx="90" cy="1365" fill="purple" r="4" stroke="purple" stroke-width="1"/>
<line stroke="purple" stroke-width="1" x1="135" x2="135" y1="1380" y2="1395"/>
<circle cx="135" cy="1380" fill="purple" r="4" stroke="purple" stroke-width="1"/>
<line stroke="purple" stroke-width="1" x1="135" x2="135" y1="1395" y2="1470"/>
<circle cx="135" cy="1395" fill="purple" r="4" stroke="purple" stroke-width="1"/>
<line stroke="purple" stroke-width="1" x1="60" x2="60" y1="1410" y2="1440"/>
<circle cx="60" cy="1410" fill="purple" r="4" stroke="purple" stroke-width="1"/>
<line stroke="purple" stroke-width="1" x1="90" x2="90" y1="1425" y2="1455"/>
<circle cx="90" cy="1425" fill="purple" r="4" stroke="purple" stroke-width="1"/>
<path d="M60,1440 L60,1470 Q60,1477.5,82.5,1477.5 Q105,1477.5,105,1485 L105,1485" fill="none" stroke="purple" stroke-width="1"/>
<circle cx="60" cy="1440" fill="purple" r="4" stroke="purple" stroke-width="1"/>
<path d="M90,1455 L90,1455 Q90,1462.5,112.5,1462.5 Q135,1462.5,135,1470 L135,1470" fill="none" stroke="purple" stroke-width="1"/>
<circle cx="90" cy="1455" fill="purple" r="4" stroke="purple" stroke-width="1"/>
<path d="M135,1470 L135,1470 Q135,1477.5,90,1477.5 Q45,1477.5,45,1485 L45,1500" fill="none" stroke="orange" stroke-width="1"/>
<path d="M135,1470 L135,1470 Q135,1477.5,120,1477.5 Q105,1477.5,105,1485 L105,1485" fill="none" stroke="purple" stroke-width="1"/>
<circle cx="135" cy="1470" fill="white" r="4" stroke="purple" stroke-width="1"/>
<line stroke="purple" stroke-width="1" x1="105" x2="105" y1="1485" y2="1545"/>
<path d="M105,1485 L105,1485 Q105,1492.5,75,1492.5 Q45,1492.5,45,1500 L45,1500" fill="none" stroke="orange" stroke-width="1"/>
<circle cx="105" cy="1485" fill="white" r="4" stroke="purple" stroke-width="1"/>
<line stroke="orange" stroke-width="1" x1="45" x2="45" y1="1500" y2="1560"/>
<path d="M45,1500 L45,1500 Q45,1507.5,52.5,1507.5 Q60,1507.5,60,1515 L60,1515" fill="none" stroke="gray" stroke-width="1"/>
<circle cx="45" cy="1500" fill="white" r="4" stroke="orange" stroke-width="1"/>
<path d="M60,1515 L60,1545 Q60,1552.5,52.5,1552.5 Q45,1552.5,45,1560 L45,1560" fill="none" stroke="gray" stroke-width="1"/>
<circle cx="60" cy="1515" fill="gray" r="4" stroke="gray" stroke-width="1"/>
<line stroke="turquoise" stroke-width="1" x1="120" x2="120" y1="1530" y2="1695"/>
<circle cx="120" cy="1530" fill="turquoise" r="4" stroke="turquoise" stroke-width="1"/>
<line stroke="purple" stroke-width="1" x1="105" x2="105" y1="1545" y2="1740"/>
<circle cx="105" cy="1545" fill="purple" r="4" stroke="purple" stroke-width="1"/>
<line stroke="orange" stroke-width="1" x1="45" x2="45" y1="1560" y2="1605"/>
<path d="M45,1560 L45,1560 Q45,1567.5,52.5,1567.5 Q60,1567.5,60,1575 L60,1575" fill="none" stroke="gray" stroke-width="1"/>
<circle cx="45" cy="1560" fill="white" r="4" stroke="orange" stroke-width="1"/>
<path d="M60,1575 L60,1590 Q60,1597.5,52.5,1597.5 Q45,1597.5,45,1605 L45,1605" fill="none" stroke="gray" stroke-width="1"/>
<circle cx="60" cy="1575" fill="gray" r="4" stroke="gray" stroke-width="1"/>
<line stroke="orange" stroke-width="1" x1="30" x2="30" y1="1590" y2="1665"/>
<circle cx="30" cy="1590" fill="orange" r="4" stroke="orange" stroke-width="1"/>
<path d="M45,1605 L45,1665 Q45,1672.5,37.5,1672.5 Q30,1672.5,30,1680 L30,1785" fill="none" stroke="orange" stroke-width="1"/>
<path d="M45,1605 L45,1605 Q45,1612.5,60,1612.5 Q75,1612.5,75,1620 L75,1680" fill="none" stroke="gray" stroke-width="1"/>
<circle cx="45" cy="1605" fill="white" r="4" stroke="orange" stroke-width="1"/>
<line stroke="blue" stroke-width="1" x1="15" x2="15" y1="1620" y2="1650"/>
<path d="M15,1620 L15,1620 Q15,1627.5,37.5,1627.5 Q60,1627.5,60,1635 L60,1635" fill="none" stroke="gray" stroke-width="1"/>
<circle cx="15" cy="1620" fill="white" r="4" stroke="blue" stroke-width="1"/>
<path d="M60,1635 L60,1635 Q60,1642.5,37.5,1642.5 Q15,1642.5,15,1650 L15,1650" fill="none" stroke="gray" stroke-width="1"/>
<circle cx="60" cy="1635" fill="gray" r="4" stroke="gray" stroke-width="1"/>
<line stroke="blue" stroke-width="1" x1="15" x2="15" y1="1650" y2="1920"/>
<path d="M15,1650 L15,1650 Q15,1657.5,45,1657.5 Q75,1657.5,75,1665 L75,1680" fill="none" stroke="gray" stroke-width="1"/>
<circle cx="15" cy="1650" fill="white" r="4" stroke="blue" stroke-width="1"/>
<line stroke="orange" stroke-width="1" x1="30" x2="30" y1="1665" y2="1785"/>
<circle cx="30" cy="1665" fill="orange" r="4" stroke="orange" stroke-width="1"/>
<path d="M75,1680 L75,1770 Q75,1777.5,52.5,1777.5 Q30,1777.5,30,1785 L30,1785" fill="none" stroke="gray" stroke-width="1"/>
<circle cx="75" cy="1680" fill="gray" r="4" stroke="gray" stroke-width="1"/>
<line stroke="turquoise" stroke-width="1" x1="120" x2="120" y1="1695" y2="1710"/>
<circle cx="120" cy="1695" fill="turquoise" r="4" stroke="turquoise" stroke-width="1"/>
<line stroke="turquoise" stroke-width="1" x1="120" x2="120" y1="1710" y2="1725"/>
<circle cx="120" cy="1710" fill="turquoise" r="4" stroke="turquoise" stroke-width="1"/>
<path d="M120,1725 L120,1905 Q120,1912.5,67.5,1912.5 Q15,1912.5,15,1920 L15,1920" fill="none" stroke="turquoise" stroke-width="1"/>
<circle cx="120" cy="1725" fill="turquoise" r="4" stroke="turquoise" stroke-width="1"/>
<line stroke="purple" stroke-width="1" x1="105" x2="105" y1="1740" y2="1755"/>
<path d="M105,1740 L105,1740 Q105,1747.5,97.5,1747.5 Q90,1747.5,90,1755 L90,1815" fill="none" stroke="turquoise" stroke-width="1"/>
<circle cx="105" cy="1740" fill="white" r="4" stroke="purple" stroke-width="1"/>
<line stroke="purple" stroke-width="1" x1="105" x2="105" y1="1755" y2="1770"/>
<circle cx="105" cy="1755" fill="purple" r="4" stroke="purple" stroke-width="1"/>
<line stroke="purple" stroke-width="1" x1="105" x2="105" y1="1770" y2="1875"/>
<circle cx="105" cy="1770" fill="purple" r="4" stroke="purple" stroke-width="1"/>
<line stroke="orange" stroke-width="1" x1="30" x2="30" y1="1785" y2="1845"/>
<path d="M30,1785 L30,1785 Q30,1792.5,45,1792.5 Q60,1792.5,60,1800 L60,1800" fill="none" stroke="gray" stroke-width="1"/>
<circle cx="30" cy="1785" fill="white" r="4" stroke="orange" stroke-width="1"/>
<line stroke="gray" stroke-width="1" x1="60" x2="60" y1="1800" y2="1830"/>
<circle cx="60" cy="1800" fill="gray" r="4" stroke="gray" stroke-width="1"/>
<path d="M90,1815 L90,1860 Q90,1867.5,97.5,1867.5 Q105,1867.5,105,1875 L105,1875" fill="none" stroke="turquoise" stroke-width="1"/>
<circle cx="90" cy="1815" fill="turquoise" r="4" stroke="turquoise" stroke-width="1"/>
<path d="M60,1830 L60,1830 Q60,1837.5,45,1837.5 Q30,1837.5,30,1845 L30,1845" fill="none" stroke="gray" stroke-width="1"/>
<circle cx="60" cy="1830" fill="gray" r="4" stroke="gray" stroke-width="1"/>
<line stroke="orange" stroke-width="1" x1="30" x2="30" y1="1845" y2="1860"/>
<path d="M30,1845 L30,1845 Q30,1852.5,45,1852.5 Q60,1852.5,60,1860 L60,1890" fill="none" stroke="gray" stroke-width="1"/>
<circle cx="30" cy="1845" fill="white" r="4" stroke="orange" stroke-width="1"/>
<line stroke="orange" stroke-width="1" x1="30" x2="30" y1="1860" y2="1905"/>
<circle cx="30" cy="1860" fill="orange" r="4" stroke="orange" stroke-width="1"/>
<line stroke="purple" stroke-width="1" x1="105" x2="105" y1="1875" y2="1965"/>
<circle cx="105" cy="1875" fill="purple" r="4" stroke="purple" stroke-width="1"/>
<path d="M60,1890 L60,1890 Q60,1897.5,45,1897.5 Q30,1897.5,30,1905 L30,1905" fill="none" stroke="gray" stroke-width="1"/>
<circle cx="60" cy="1890" fill="gray" r="4" stroke="gray" stroke-width="1"/>
<line stroke="orange" stroke-width="1" x1="30" x2="30" y1="1905" y2="1935"/>
<circle cx="30" cy="1905" fill="orange" r="4" stroke="orange" stroke-width="1"/>
<line stroke="blue" stroke-width="1" x1="15" x2="15" y1="1920" y2="2070"/>
<path d="M15,1920 L15,1920 Q15,1927.5,22.5,1927.5 Q30,1927.5,30,1935 L30,1935" fill="none" stroke="orange" stroke-width="1"/>
<circle cx="15" cy="1920" fill="white" r="4" stroke="blue" stroke-width="1"/>
<line stroke="orange" stroke-width="1" x1="30" x2="30" y1="1935" y2="1980"/>
<path d="M30,1935 L30,1935 Q30,1942.5,45,1942.5 Q60,1942.5,60,1950 L60,1950" fill="none" stroke="gray" stroke-width="1"/>
<circle cx="30" cy="1935" fill="white" r="4" stroke="orange" stroke-width="1"/>
<path d="M60,1950 L60,1965 Q60,1972.5,45,1972.5 Q30,1972.5,30,1980 L30,1980" fill="none" stroke="gray" stroke-width="1"/>
<circle cx="60" cy="1950" fill="gray" r="4" stroke="gray" stroke-width="1"/>
<path d="M105,1965 L105,1965 Q105,1972.5,67.5,1972.5 Q30,1972.5,30,1980 L30,1980" fill="none" stroke="purple" stroke-width="1"/>
<circle cx="105" cy="1965" fill="purple" r="4" stroke="purple" stroke-width="1"/>
<line stroke="orange" stroke-width="1" x1="30" x2="30" y1="1980" y2="2010"/>
<path d="M30,1980 L30,1980 Q30,1987.5,52.5,1987.5 Q75,1987.5,75,1995 L75,1995" fill="none" stroke="gray" stroke-width="1"/>
<circle cx="30" cy="1980" fill="white" r="4" stroke="orange" stroke-width="1"/>
<line stroke="gray" stroke-width="1" x1="75" x2="75" y1="1995" y2="2040"/>
<circle cx="75" cy="1995" fill="gray" r="4" stroke="gray" stroke-width="1"/>
<line stroke="orange" stroke-width="1" x1="30" x2="30" y1="2010" y2="2085"/>
<path d="M30,2010 L30,2010 Q30,2017.5,45,2017.5 Q60,2017.5,60,2025 L60,2025" fill="none" stroke="gray" stroke-width="1"/>
<circle cx="30" cy="2010" fill="white" r="4" stroke="orange" stroke-width="1"/>
<path d="M60,2025 L60,2070 Q60,2077.5,45,2077.5 Q30,2077.5,30,2085 L30,2085" fill="none" stroke="gray" stroke-width="1"/>
<circle cx="60" cy="2025" fill="gray" r="4" stroke="gray" stroke-width="1"/>
<line stroke="gray" stroke-width="1" x1="75" x2="75" y1="2040" y2="2055"/>
<circle cx="75" cy="2040" fill="gray" r="4" stroke="gray" stroke-width="1"/>
<circle cx="75" cy="2055" fill="gray" r="4" stroke="gray" stroke-width="1"/>
<line stroke="blue" stroke-width="1" x1="15" x2="15" y1="2070" y2="2100"/>
<path d="M15,2070 L15,2070 Q15,2077.5,22.5,2077.5 Q30,2077.5,30,2085 L30,2085" fill="none" stroke="orange" stroke-width="1"/>
<circle cx="15" cy="2070" fill="white" r="4" stroke="blue" stroke-width="1"/>
<path d="M30,2085 L30,2085 Q30,2092.5,22.5,2092.5 Q15,2092.5,15,2100 L15,2100" fill="none" stroke="orange" stroke-width="1"/>
<circle cx="30" cy="2085" fill="orange" r="4" stroke="orange" stroke-width="1"/>
<line stroke="blue" stroke-width="1" x1="15" x2="15" y1="2100" y2="2115"/>
<circle cx="15" cy="2100" fill="blue" r="4" stroke="blue" stroke-width="1"/>
<circle cx="15" cy="2115" fill="blue" r="4" stroke="blue" stroke-width="1"/>
</svg>
