<svg height="1350" viewBox="0 0 75 1350" width="75" xmlns="http://www.w3.org/2000/svg">
<line stroke="blue" stroke-width="1" x1="15" x2="15" y1="15" y2="30"/>
<circle cx="15" cy="15" fill="blue" r="4" stroke="blue" stroke-width="1"/>
<line stroke="blue" stroke-width="1" x1="15" x2="15" y1="30" y2="45"/>
<path d="M15,30 L15,30 Q15,37.5,30,37.5 Q45,37.5,45,45 L45,60" fill="none" stroke="gray" stroke-width="1"/>
<circle cx="15" cy="30" fill="white" r="4" stroke="blue" stroke-width="1"/>
<path d="M15,45 L15,135 Q15,142.5,22.5,142.5 Q30,142.5,30,150 L30,150" fill="none" stroke="blue" stroke-width="1"/>
<circle cx="15" cy="45" fill="blue" r="4" stroke="blue" stroke-width="1"/>
<line stroke="gray" stroke-width="1" x1="45" x2="45" y1="60" y2="75"/>
<circle cx="45" cy="60" fill="gray" r="4" stroke="gray" stroke-width="1"/>
<line stroke="gray" stroke-width="1" x1="45" x2="45" y1="75" y2="90"/>
<circle cx="45" cy="75" fill="gray" r="4" stroke="gray" stroke-width="1"/>
<path d="M45,90 L45,90 Q45,97.5,37.5,97.5 Q30,97.5,30,105 L30,105" fill="none" stroke="gray" stroke-width="1"/>
<circle cx="45" cy="90" fill="gray" r="4" stroke="gray" stroke-width="1"/>
<line stroke="blue" stroke-width="1" x1="30" x2="30" y1="105" y2="120"/>
<path d="M30,105 L30,105 Q30,112.5,37.5,112.5 Q45,112.5,45,120 L45,135" fill="none" stroke="gray" stroke-width="1"/>
<circle cx="30" cy="105" fill="white" r="4" stroke="blue" stroke-width="1"/>
<line stroke="blue" stroke-width="1" x1="30" x2="30" y1="120" y2="150"/>
<circle cx="30" cy="120" fill="blue" r="4" stroke="blue" stroke-width="1"/>
<path d="M45,135 L45,135 Q45,142.5,37.5,142.5 Q30,142.5,30,150 L30,150" fill="none" stroke="gray" stroke-width="1"/>
<circle cx="45" cy="135" fill="gray" r="4" stroke="gray" stroke-width="1"/>
<line stroke="blue" stroke-width="1" x1="30" x2="30" y1="150" y2="165"/>
<circle cx="30" cy="150" fill="blue" r="4" stroke="blue" stroke-width="1"/>
<line stroke="blue" stroke-width="1" x1="30" x2="30" y1="165" y2="180"/>
<circle cx="30" cy="165" fill="blue" r="4" stroke="blue" stroke-width="1"/>
<line stroke="blue" stroke-width="1" x1="30" x2="30" y1="180" y2="195"/>
<circle cx="30" cy="180" fill="blue" r="4" stroke="blue" stroke-width="1"/>
<line stroke="blue" stroke-width="1" x1="30" x2="30" y1="195" y2="210"/>
<circle cx="30" cy="195" fill="blue" r="4" stroke="blue" stroke-width="1"/>
<line stroke="blue" stroke-width="1" x1="30" x2="30" y1="210" y2="225"/>
<circle cx="30" cy="210" fill="blue" r="4" stroke="blue" stroke-width="1"/>
<line stroke="blue" stroke-width="1" x1="30" x2="30" y1="225" y2="240"/>
<path d="M30,225 L30,225 Q30,232.5,37.5,232.5 Q45,232.5,45,240 L45,255" fill="none" stroke="purple" stroke-width="1"/>
<circle cx="30" cy="225" fill="white" r="4" stroke="blue" stroke-width="1"/>
<line stroke="blue" stroke-width="1" x1="30" x2="30" y1="240" y2="315"/>
<circle cx="30" cy="240" fill="blue" r="4" stroke="blue" stroke-width="1"/>
<line stroke="purple" stroke-width="1" x1="45" x2="45" y1="255" y2="270"/>
<path d="M45,255 L45,255 Q45,262.5,52.5,262.5 Q60,262.5,60,270 L60,285" fill="none" stroke="gray" stroke-width="1"/>
<circle cx="45" cy="255" fill="white" r="4" stroke="purple" stroke-width="1"/>
<line stroke="purple" stroke-width="1" x1="45" x2="45" y1="270" y2="300"/>
<circle cx="45" cy="270" fill="purple" r="4" stroke="purple" stroke-width="1"/>
<path d="M60,285 L60,285 Q60,292.5,52.5,292.5 Q45,292.5,45,300 L45,300" fill="none" stroke="purple" stroke-width="1"/>
<path d="M60,285 L60,285 Q60,292.5,45,292.5 Q30,292.5,30,300 L30,315" fill="none" stroke="blue" stroke-width="1"/>
<circle cx="60" cy="285" fill="white" r="4" stroke="gray" stroke-width="1"/>
<line stroke="purple" stroke-width="1" x1="45" x2="45" y1="300" y2="360"/>
<circle cx="45" cy="300" fill="purple" r="4" stroke="purple" stroke-width="1"/>
<line stroke="blue" stroke-width="1" x1="30" x2="30" y1="315" y2="330"/>
<circle cx="30" cy="315" fill="blue" r="4" stroke="blue" stroke-width="1"/>
<line stroke="blue" stroke-width="1" x1="30" x2="30" y1="330" y2="345"/>
<circle cx="30" cy="330" fill="blue" r="4" stroke="blue" stroke-width="1"/>
<line stroke="blue" stroke-width="1" x1="30" x2="30" y1="345" y2="510"/>
<circle cx="30" cy="345" fill="blue" r="4" stroke="blue" stroke-width="1"/>
<line stroke="purple" stroke-width="1" x1="45" x2="45" y1="360" y2="375"/>
<circle cx="45" cy="360" fill="purple" r="4" stroke="purple" stroke-width="1"/>
<line stroke="purple" stroke-width="1" x1="45" x2="45" y1="375" y2="390"/>
<circle cx="45" cy="375" fill="purple" r="4" stroke="purple" stroke-width="1"/>
<line stroke="purple" stroke-width="1" x1="45" x2="45" y1="390" y2="405"/>
<circle cx="45" cy="390" fill="purple" r="4" stroke="purple" stroke-width="1"/>
<line stroke="purple" stroke-width="1" x1="45" x2="45" y1="405" y2="420"/>
<path d="M45,405 L45,405 Q45,412.5,52.5,412.5 Q60,412.5,60,420 L60,435" fill="none" stroke="gray" stroke-width="1"/>
<circle cx="45" cy="405" fill="white" r="4" stroke="purple" stroke-width="1"/>
<line stroke="purple" stroke-width="1" x1="45" x2="45" y1="420" y2="450"/>
<circle cx="45" cy="420" fill="purple" r="4" stroke="purple" stroke-width="1"/>
<path d="M60,435 L60,435 Q60,442.5,52.5,442.5 Q45,442.5,45,450 L45,450" fill="none" stroke="gray" stroke-width="1"/>
<circle cx="60" cy="435" fill="gray" r="4" stroke="gray" stroke-width="1"/>
<line stroke="purple" stroke-width="1" x1="45" x2="45" y1="450" y2="465"/>
<path d="M45,450 L45,450 Q45,457.5,52.5,457.5 Q60,457.5,60,465 L60,480" fill="none" stroke="gray" stroke-width="1"/>
<circle cx="45" cy="450" fill="white" r="4" stroke="purple" stroke-width="1"/>
<line stroke="purple" stroke-width="1" x1="45" x2="45" y1="465" y2="495"/>
<circle cx="45" cy="465" fill="purple" r="4" stroke="purple" stroke-width="1"/>
<path d="M60,480 L60,480 Q60,487.5,52.5,487.5 Q45,487.5,45,495 L45,495" fill="none" stroke="gray" stroke-width="1"/>
<circle cx="60" cy="480" fill="gray" r="4" stroke="gray" stroke-width="1"/>
<line stroke="purple" stroke-width="1" x1="45" x2="45" y1="495" y2="585"/>
<path d="M45,495 L45,495 Q45,502.5,37.5,502.5 Q30,502.5,30,510 L30,510" fill="none" stroke="blue" stroke-width="1"/>
<circle cx="45" cy="495" fill="white" r="4" stroke="purple" stroke-width="1"/>
<line stroke="blue" stroke-width="1" x1="30" x2="30" y1="510" y2="525"/>
<circle cx="30" cy="510" fill="blue" r="4" stroke="blue" stroke-width="1"/>
<line stroke="blue" stroke-width="1" x1="30" x2="30" y1="525" y2="555"/>
<path d="M30,525 L30,525 Q30,532.5,37.5,532.5 Q45,532.5,45,540 L45,540" fill="none" stroke="gray" stroke-width="1"/>
<circle cx="30" cy="525" fill="white" r="4" stroke="blue" stroke-width="1"/>
<line stroke="gray" stroke-width="1" x1="45" x2="45" y1="540" y2="630"/>
<circle cx="45" cy="540" fill="gray" r="4" stroke="gray" stroke-width="1"/>
<line stroke="blue" stroke-width="1" x1="30" x2="30" y1="555" y2="570"/>
<circle cx="30" cy="555" fill="blue" r="4" stroke="blue" stroke-width="1"/>
<line stroke="blue" stroke-width="1" x1="30" x2="30" y1="570" y2="600"/>
<circle cx="30" cy="570" fill="blue" r="4" stroke="blue" stroke-width="1"/>
<line stroke="purple" stroke-width="1" x1="45" x2="45" y1="585" y2="675"/>
<path d="M45,585 L45,585 Q45,592.5,37.5,592.5 Q30,592.5,30,600 L30,600" fill="none" stroke="blue" stroke-width="1"/>
<circle cx="45" cy="585" fill="white" r="4" stroke="purple" stroke-width="1"/>
<line stroke="blue" stroke-width="1" x1="30" x2="30" y1="600" y2="615"/>
<circle cx="30" cy="600" fill="blue" r="4" stroke="blue" stroke-width="1"/>
<line stroke="blue" stroke-width="1" x1="30" x2="30" y1="615" y2="705"/>
<circle cx="30" cy="615" fill="blue" r="4" stroke="blue" stroke-width="1"/>
<line stroke="gray" stroke-width="1" x1="45" x2="45" y1="630" y2="660"/>
<line stroke="purple" stroke-width="1" x1="45" x2="45" y1="630" y2="675"/>
<circle cx="45" cy="630" fill="white" r="4" stroke="gray" stroke-width="1"/>
<path d="M60,645 L60,645 Q60,652.5,52.5,652.5 Q45,652.5,45,660 L45,660" fill="none" stroke="gray" stroke-width="1"/>
<circle cx="60" cy="645" fill="gray" r="4" stroke="gray" stroke-width="1"/>
<line stroke="gray" stroke-width="1" x1="45" x2="45" y1="660" y2="690"/>
<circle cx="45" cy="660" fill="gray" r="4" stroke="gray" stroke-width="1"/>
<line stroke="purple" stroke-width="1" x1="45" x2="45" y1="675" y2="690"/>
<circle cx="45" cy="675" fill="purple" r="4" stroke="purple" stroke-width="1"/>
<path d="M45,690 L45,705 Q45,712.5,37.5,712.5 Q30,712.5,30,720 L30,720" fill="none" stroke="purple" stroke-width="1"/>
<circle cx="45" cy="690" fill="purple" r="4" stroke="purple" stroke-width="1"/>
<line stroke="blue" stroke-width="1" x1="30" x2="30" y1="705" y2="720"/>
<circle cx="30" cy="705" fill="blue" r="4" stroke="blue" stroke-width="1"/>
<line stroke="blue" stroke-width="1" x1="30" x2="30" y1="720" y2="735"/>
<circle cx="30" cy="720" fill="blue" r="4" stroke="blue" stroke-width="1"/>
<line stroke="blue" stroke-width="1" x1="30" x2="30" y1="735" y2="750"/>
<circle cx="30" cy="735" fill="blue" r="4" stroke="blue" stroke-width="1"/>
<line stroke="blue" stroke-width="1" x1="30" x2="30" y1="750" y2="765"/>
<circle cx="30" cy="750" fill="blue" r="4" stroke="blue" stroke-width="1"/>
<line stroke="blue" stroke-width="1" x1="30" x2="30" y1="765" y2="780"/>
<path d="M30,765 L30,765 Q30,772.5,37.5,772.5 Q45,772.5,45,780 L45,795" fill="none" stroke="gray" stroke-width="1"/>
<circle cx="30" cy="765" fill="white" r="4" stroke="blue" stroke-width="1"/>
<line stroke="blue" stroke-width="1" x1="30" x2="30" y1="780" y2="840"/>
<circle cx="30" cy="780" fill="blue" r="4" stroke="blue" stroke-width="1"/>
<line stroke="gray" stroke-width="1" x1="45" x2="45" y1="795" y2="810"/>
<circle cx="45" cy="795" fill="gray" r="4" stroke="gray" stroke-width="1"/>
<line stroke="gray" stroke-width="1" x1="45" x2="45" y1="810" y2="825"/>
<circle cx="45" cy="810" fill="gray" r="4" stroke="gray" stroke-width="1"/>
<path d="M45,825 L45,840 Q45,847.5,37.5,847.5 Q30,847.5,30,855 L30,855" fill="none" stroke="gray" stroke-width="1"/>
<circle cx="45" cy="825" fill="gray" r="4" stroke="gray" stroke-width="1"/>
<line stroke="blue" stroke-width="1" x1="30" x2="30" y1="840" y2="855"/>
<path d="M30,840 L30,840 Q30,847.5,37.5,847.5 Q45,847.5,45,855 L45,870" fill="none" stroke="turquoise" stroke-width="1"/>
<circle cx="30" cy="840" fill="white" r="4" stroke="blue" stroke-width="1"/>
<line stroke="blue" stroke-width="1" x1="30" x2="30" y1="855" y2="915"/>
<circle cx="30" cy="855" fill="blue" r="4" stroke="blue" stroke-width="1"/>
<line stroke="turquoise" stroke-width="1" x1="45" x2="45" y1="870" y2="885"/>
<path d="M45,870 L45,870 Q45,877.5,30,877.5 Q15,877.5,15,885 L15,900" fill="none" stroke="blue" stroke-width="1"/>
<circle cx="45" cy="870" fill="white" r="4" stroke="turquoise" stroke-width="1"/>
<path d="M45,885 L45,900 Q45,907.5,37.5,907.5 Q30,907.5,30,915 L30,915" fill="none" stroke="turquoise" stroke-width="1"/>
<circle cx="45" cy="885" fill="turquoise" r="4" stroke="turquoise" stroke-width="1"/>
<path d="M15,900 L15,900 Q15,907.5,22.5,907.5 Q30,907.5,30,915 L30,915" fill="none" stroke="blue" stroke-width="1"/>
<circle cx="15" cy="900" fill="blue" r="4" stroke="blue" stroke-width="1"/>
<line stroke="blue" stroke-width="1" x1="30" x2="30" y1="915" y2="930"/>
<circle cx="30" cy="915" fill="blue" r="4" stroke="blue" stroke-width="1"/>
<line stroke="blue" stroke-width="1" x1="30" x2="30" y1="930" y2="945"/>
<circle cx="30" cy="930" fill="blue" r="4" stroke="blue" stroke-width="1"/>
<line stroke="blue" stroke-width="1" x1="30" x2="30" y1="945" y2="975"/>
<path d="M30,945 L30,945 Q30,952.5,37.5,952.5 Q45,952.5,45,960 L45,960" fill="none" stroke="turquoise" stroke-width="1"/>
<circle cx="30" cy="945" fill="white" r="4" stroke="blue" stroke-width="1"/>
<line stroke="turquoise" stroke-width="1" x1="45" x2="45" y1="960" y2="990"/>
<circle cx="45" cy="960" fill="turquoise" r="4" stroke="turquoise" stroke-width="1"/>
<line stroke="blue" stroke-width="1" x1="30" x2="30" y1="975" y2="1020"/>
<circle cx="30" cy="975" fill="blue" r="4" stroke="blue" stroke-width="1"/>
<line stroke="turquoise" stroke-width="1" x1="45" x2="45" y1="990" y2="1005"/>
<path d="M45,990 L45,990 Q45,997.5,37.5,997.5 Q30,997.5,30,1005 L30,1020" fill="none" stroke="blue" stroke-width="1"/>
<circle cx="45" cy="990" fill="white" r="4" stroke="turquoise" stroke-width="1"/>
<path d="M45,1005 L45,1035 Q45,1042.5,37.5,1042.5 Q30,1042.5,30,1050 L30,1050" fill="none" stroke="turquoise" stroke-width="1"/>
<circle cx="45" cy="1005" fill="turquoise" r="4" stroke="turquoise" stroke-width="1"/>
<line stroke="blue" stroke-width="1" x1="30" x2="30" y1="1020" y2="1035"/>
<circle cx="30" cy="1020" fill="blue" r="4" stroke="blue" stroke-width="1"/>
<line stroke="blue" stroke-width="1" x1="30" x2="30" y1="1035" y2="1050"/>
<circle cx="30" cy="1035" fill="blue" r="4" stroke="blue" stroke-width="1"/>
<line stroke="blue" stroke-width="1" x1="30" x2="30" y1="1050" y2="1065"/>
<circle cx="30" cy="1050" fill="blue" r="4" stroke="blue" stroke-width="1"/>
<line stroke="blue" stroke-width="1" x1="30" x2="30" y1="1065" y2="1080"/>
<circle cx="30" cy="1065" fill="blue" r="4" stroke="blue" stroke-width="1"/>
<line stroke="blue" stroke-width="1" x1="30" x2="30" y1="1080" y2="1095"/>
<circle cx="30" cy="1080" fill="blue" r="4" stroke="blue" stroke-width="1"/>
<line stroke="blue" stroke-width="1" x1="30" x2="30" y1="1095" y2="1110"/>
<circle cx="30" cy="1095" fill="blue" r="4" stroke="blue" stroke-width="1"/>
<line stroke="blue" stroke-width="1" x1="30" x2="30" y1="1110" y2="1125"/>
<circle cx="30" cy="1110" fill="blue" r="4" stroke="blue" stroke-width="1"/>
<line stroke="blue" stroke-width="1" x1="30" x2="30" y1="1125" y2="1140"/>
<circle cx="30" cy="1125" fill="blue" r="4" stroke="blue" stroke-width="1"/>
<line stroke="blue" stroke-width="1" x1="30" x2="30" y1="1140" y2="1155"/>
<circle cx="30" cy="1140" fill="blue" r="4" stroke="blue" stroke-width="1"/>
<line stroke="blue" stroke-width="1" x1="30" x2="30" y1="1155" y2="1170"/>
<circle cx="30" cy="1155" fill="blue" r="4" stroke="blue" stroke-width="1"/>
<line stroke="blue" stroke-width="1" x1="30" x2="30" y1="1170" y2="1185"/>
<circle cx="30" cy="1170" fill="blue" r="4" stroke="blue" stroke-width="1"/>
<line stroke="blue" stroke-width="1" x1="30" x2="30" y1="1185" y2="1200"/>
<circle cx="30" cy="1185" fill="blue" r="4" stroke="blue" stroke-width="1"/>
<line stroke="blue" stroke-width="1" x1="30" x2="30" y1="1200" y2="1215"/>
<circle cx="30" cy="1200" fill="blue" r="4" stroke="blue" stroke-width="1"/>
<line stroke="blue" stroke-width="1" x1="30" x2="30" y1="1215" y2="1230"/>
<circle cx="30" cy="1215" fill="blue" r="4" stroke="blue" stroke-width="1"/>
<line stroke="blue" stroke-width="1" x1="30" x2="30" y1="1230" y2="1245"/>
<circle cx="30" cy="1230" fill="blue" r="4" stroke="blue" stroke-width="1"/>
<line stroke="blue" stroke-width="1" x1="30" x2="30" y1="1245" y2="1260"/>
<circle cx="30" cy="1245" fill="blue" r="4" stroke="blue" stroke-width="1"/>
<line stroke="blue" stroke-width="1" x1="30" x2="30" y1="1260" y2="1275"/>
<circle cx="30" cy="1260" fill="blue" r="4" stroke="blue" stroke-width="1"/>
<line stroke="blue" stroke-width="1" x1="30" x2="30" y1="1275" y2="1290"/>
<circle cx="30" cy="1275" fill="blue" r="4" stroke="blue" stroke-width="1"/>
<line stroke="blue" stroke-width="1" x1="30" x2="30" y1="1290" y2="1305"/>
<circle cx="30" cy="1290" fill="blue" r="4" stroke="blue" stroke-width="1"/>
<line stroke="blue" stroke-width="1" x1="30" x2="30" y1="1305" y2="1320"/>
<circle cx="30" cy="1305" fill="blue" r="4" stroke="blue" stroke-width="1"/>
<circle cx="30" cy="1320" fill="blue" r="4" stroke="blue" stroke-width="1"/>
</svg>
