<svg height="435" viewBox="0 0 45 435" width="45" xmlns="http://www.w3.org/2000/svg">
<line stroke="blue" stroke-width="1" x1="15" x2="15" y1="15" y2="30"/>
<circle cx="15" cy="15" fill="blue" r="4" stroke="blue" stroke-width="1"/>
<line stroke="blue" stroke-width="1" x1="15" x2="15" y1="30" y2="45"/>
<circle cx="15" cy="30" fill="blue" r="4" stroke="blue" stroke-width="1"/>
<line stroke="blue" stroke-width="1" x1="15" x2="15" y1="45" y2="60"/>
<circle cx="15" cy="45" fill="blue" r="4" stroke="blue" stroke-width="1"/>
<line stroke="blue" stroke-width="1" x1="15" x2="15" y1="60" y2="75"/>
<circle cx="15" cy="60" fill="blue" r="4" stroke="blue" stroke-width="1"/>
<line stroke="blue" stroke-width="1" x1="15" x2="15" y1="75" y2="90"/>
<circle cx="15" cy="75" fill="blue" r="4" stroke="blue" stroke-width="1"/>
<line stroke="blue" stroke-width="1" x1="15" x2="15" y1="90" y2="105"/>
<circle cx="15" cy="90" fill="blue" r="4" stroke="blue" stroke-width="1"/>
<line stroke="blue" stroke-width="1" x1="15" x2="15" y1="105" y2="120"/>
<circle cx="15" cy="105" fill="blue" r="4" stroke="blue" stroke-width="1"/>
<line stroke="blue" stroke-width="1" x1="15" x2="15" y1="120" y2="135"/>
<circle cx="15" cy="120" fill="blue" r="4" stroke="blue" stroke-width="1"/>
<line stroke="blue" stroke-width="1" x1="15" x2="15" y1="135" y2="150"/>
<circle cx="15" cy="135" fill="blue" r="4" stroke="blue" stroke-width="1"/>
<line stroke="blue" stroke-width="1" x1="15" x2="15" y1="150" y2="165"/>
<circle cx="15" cy="150" fill="blue" r="4" stroke="blue" stroke-width="1"/>
<line stroke="blue" stroke-width="1" x1="15" x2="15" y1="165" y2="180"/>
<circle cx="15" cy="165" fill="blue" r="4" stroke="blue" stroke-width="1"/>
<line stroke="blue" stroke-width="1" x1="15" x2="15" y1="180" y2="195"/>
<circle cx="15" cy="180" fill="blue" r="4" stroke="blue" stroke-width="1"/>
<line stroke="blue" stroke-width="1" x1="15" x2="15" y1="195" y2="225"/>
<path d="M15,195 L15,195 Q15,202.5,22.5,202.5 Q30,202.5,30,210 L30,210" fill="none" stroke="gray" stroke-width="1"/>
<circle cx="15" cy="195" fill="white" r="4" stroke="blue" stroke-width="1"/>
<line stroke="gray" stroke-width="1" x1="30" x2="30" y1="210" y2="240"/>
<circle cx="30" cy="210" fill="gray" r="4" stroke="gray" stroke-width="1"/>
<line stroke="blue" stroke-width="1" x1="15" x2="15" y1="225" y2="255"/>
<path d="M15,225 L15,225 Q15,232.5,22.5,232.5 Q30,232.5,30,240 L30,240" fill="none" stroke="gray" stroke-width="1"/>
<circle cx="15" cy="225" fill="white" r="4" stroke="blue" stroke-width="1"/>
<path d="M30,240 L30,240 Q30,247.5,22.5,247.5 Q15,247.5,15,255 L15,255" fill="none" stroke="gray" stroke-width="1"/>
<circle cx="30" cy="240" fill="gray" r="4" stroke="gray" stroke-width="1"/>
<line stroke="blue" stroke-width="1" x1="15" x2="15" y1="255" y2="270"/>
<circle cx="15" cy="255" fill="blue" r="4" stroke="blue" stroke-width="1"/>
<line stroke="blue" stroke-width="1" x1="15" x2="15" y1="270" y2="285"/>
<circle cx="15" cy="270" fill="blue" r="4" stroke="blue" stroke-width="1"/>
<line stroke="blue" stroke-width="1" x1="15" x2="15" y1="285" y2="300"/>
<circle cx="15" cy="285" fill="blue" r="4" stroke="blue" stroke-width="1"/>
<line stroke="blue" stroke-width="1" x1="15" x2="15" y1="300" y2="315"/>
<circle cx="15" cy="300" fill="blue" r="4" stroke="blue" stroke-width="1"/>
<line stroke="blue" stroke-width="1" x1="15" x2="15" y1="315" y2="330"/>
<circle cx="15" cy="315" fill="blue" r="4" stroke="blue" stroke-width="1"/>
<line stroke="blue" stroke-width="1" x1="15" x2="15" y1="330" y2="360"/>
<circle cx="15" cy="330" fill="blue" r="4" stroke="blue" stroke-width="1"/>
<path d="M30,345 L30,345 Q30,352.5,22.5,352.5 Q15,352.5,15,360 L15,360" fill="none" stroke="gray" stroke-width="1"/>
<circle cx="30" cy="345" fill="gray" r="4" stroke="gray" stroke-width="1"/>
<line stroke="blue" stroke-width="1" x1="15" x2="15" y1="360" y2="390"/>
<path d="M15,360 L15,360 Q15,367.5,22.5,367.5 Q30,367.5,30,375 L30,375" fill="none" stroke="gray" stroke-width="1"/>
<circle cx="15" cy="360" fill="white" r="4" stroke="blue" stroke-width="1"/>
<path d="M30,375 L30,375 Q30,382.5,22.5,382.5 Q15,382.5,15,390 L15,390" fill="none" stroke="gray" stroke-width="1"/>
<circle cx="30" cy="375" fill="gray" r="4" stroke="gray" stroke-width="1"/>
<line stroke="blue" stroke-width="1" x1="15" x2="15" y1="390" y2="405"/>
<circle cx="15" cy="390" fill="blue" r="4" stroke="blue" stroke-width="1"/>
<circle cx="15" cy="405" fill="blue" r="4" stroke="blue" stroke-width="1"/>
</svg>
