<svg height="2865" viewBox="0 0 120 2865" width="120" xmlns="http://www.w3.org/2000/svg">
<line stroke="gray" stroke-width="1" x1="60" x2="60" y1="15" y2="180"/>
<circle cx="60" cy="15" fill="gray" r="4" stroke="gray" stroke-width="1"/>
<line stroke="gray" stroke-width="1" x1="105" x2="105" y1="30" y2="45"/>
<path d="M105,30 L105,30 Q105,37.5,97.5,37.5 Q90,37.5,90,45 L90,1695" fill="none" stroke="gray" stroke-width="1"/>
<circle cx="105" cy="30" fill="white" r="4" stroke="gray" stroke-width="1"/>
<path d="M105,45 L105,2820 Q105,2827.5,60,2827.5 Q15,2827.5,15,2835 L15,2835" fill="none" stroke="gray" stroke-width="1"/>
<circle cx="105" cy="45" fill="gray" r="4" stroke="gray" stroke-width="1"/>
<line stroke="gray" stroke-width="1" x1="30" x2="30" y1="60" y2="75"/>
<circle cx="30" cy="60" fill="gray" r="4" stroke="gray" stroke-width="1"/>
<line stroke="gray" stroke-width="1" x1="30" x2="30" y1="75" y2="90"/>
<path d="M30,75 L30,75 Q30,82.5,52.5,82.5 Q75,82.5,75,90 L75,105" fill="none" stroke="gray" stroke-width="1"/>
<circle cx="30" cy="75" fill="white" r="4" stroke="gray" stroke-width="1"/>
<path d="M30,90 L30,120 Q30,127.5,37.5,127.5 Q45,127.5,45,135 L45,135" fill="none" stroke="gray" stroke-width="1"/>
<circle cx="30" cy="90" fill="gray" r="4" stroke="gray" stroke-width="1"/>
<line stroke="gray" stroke-width="1" x1="75" x2="75" y1="105" y2="120"/>
<circle cx="75" cy="105" fill="gray" r="4" stroke="gray" stroke-width="1"/>
<line stroke="gray" stroke-width="1" x1="75" x2="75" y1="120" y2="150"/>
<path d="M75,120 L75,120 Q75,127.5,60,127.5 Q45,127.5,45,135 L45,135" fill="none" stroke="purple" stroke-width="1"/>
<circle cx="75" cy="120" fill="white" r="4" stroke="gray" stroke-width="1"/>
<line stroke="purple" stroke-width="1" x1="45" x2="45" y1="135" y2="210"/>
<circle cx="45" cy="135" fill="purple" r="4" stroke="purple" stroke-width="1"/>
<line stroke="gray" stroke-width="1" x1="75" x2="75" y1="150" y2="225"/>
<circle cx="75" cy="150" fill="gray" r="4" stroke="gray" stroke-width="1"/>
<line stroke="gray" stroke-width="1" x1="30" x2="30" y1="165" y2="345"/>
<path d="M30,165 L30,165 Q30,172.5,37.5,172.5 Q45,172.5,45,180 L45,210" fill="none" stroke="purple" stroke-width="1"/>
<circle cx="30" cy="165" fill="white" r="4" stroke="gray" stroke-width="1"/>
<line stroke="gray" stroke-width="1" x1="60" x2="60" y1="180" y2="195"/>
<path d="M60,180 L60,180 Q60,187.5,52.5,187.5 Q45,187.5,45,195 L45,210" fill="none" stroke="purple" stroke-width="1"/>
<circle cx="60" cy="180" fill="white" r="4" stroke="gray" stroke-width="1"/>
<path d="M60,195 L60,345 Q60,352.5,67.5,352.5 Q75,352.5,75,360 L75,360" fill="none" stroke="gray" stroke-width="1"/>
<circle cx="60" cy="195" fill="gray" r="4" stroke="gray" stroke-width="1"/>
<line stroke="purple" stroke-width="1" x1="45" x2="45" y1="210" y2="255"/>
<circle cx="45" cy="210" fill="purple" r="4" stroke="purple" stroke-width="1"/>
<line stroke="gray" stroke-width="1" x1="75" x2="75" y1="225" y2="240"/>
<circle cx="75" cy="225" fill="gray" r="4" stroke="gray" stroke-width="1"/>
<line stroke="gray" stroke-width="1" x1="75" x2="75" y1="240" y2="270"/>
<path d="M75,240 L75,240 Q75,247.5,60,247.5 Q45,247.5,45,255 L45,255" fill="none" stroke="purple" stroke-width="1"/>
<circle cx="75" cy="240" fill="white" r="4" stroke="gray" stroke-width="1"/>
<line stroke="purple" stroke-width="1" x1="45" x2="45" y1="255" y2="300"/>
<circle cx="45" cy="255" fill="purple" r="4" stroke="purple" stroke-width="1"/>
<line stroke="gray" stroke-width="1" x1="75" x2="75" y1="270" y2="285"/>
<path d="M75,270 L75,270 Q75,277.5,60,277.5 Q45,277.5,45,285 L45,300" fill="none" stroke="purple" stroke-width="1"/>
<circle cx="75" cy="270" fill="white" r="4" stroke="gray" stroke-width="1"/>
<line stroke="gray" stroke-width="1" x1="75" x2="75" y1="285" y2="360"/>
<circle cx="75" cy="285" fill="gray" r="4" stroke="gray" stroke-width="1"/>
<line stroke="purple" stroke-width="1" x1="45" x2="45" y1="300" y2="315"/>
<path d="M45,300 L45,300 Q45,307.5,60,307.5 Q75,307.5,75,315 L75,360" fill="none" stroke="gray" stroke-width="1"/>
<circle cx="45" cy="300" fill="white" r="4" stroke="purple" stroke-width="1"/>
<line stroke="purple" stroke-width="1" x1="45" x2="45" y1="315" y2="330"/>
<circle cx="45" cy="315" fill="purple" r="4" stroke="purple" stroke-width="1"/>
<line stroke="purple" stroke-width="1" x1="45" x2="45" y1="330" y2="375"/>
<circle cx="45" cy="330" fill="purple" r="4" stroke="purple" stroke-width="1"/>
<line stroke="gray" stroke-width="1" x1="30" x2="30" y1="345" y2="420"/>
<path d="M30,345 L30,345 Q30,352.5,52.5,352.5 Q75,352.5,75,360 L75,360" fill="none" stroke="gray" stroke-width="1"/>
<circle cx="30" cy="345" fill="white" r="4" stroke="gray" stroke-width="1"/>
<line stroke="gray" stroke-width="1" x1="75" x2="75" y1="360" y2="465"/>
<circle cx="75" cy="360" fill="gray" r="4" stroke="gray" stroke-width="1"/>
<line stroke="purple" stroke-width="1" x1="45" x2="45" y1="375" y2="390"/>
<circle cx="45" cy="375" fill="purple" r="4" stroke="purple" stroke-width="1"/>
<line stroke="purple" stroke-width="1" x1="45" x2="45" y1="390" y2="405"/>
<path d="M45,390 L45,390 Q45,397.5,37.5,397.5 Q30,397.5,30,405 L30,420" fill="none" stroke="gray" stroke-width="1"/>
<circle cx="45" cy="390" fill="white" r="4" stroke="purple" stroke-width="1"/>
<line stroke="purple" stroke-width="1" x1="45" x2="45" y1="405" y2="450"/>
<circle cx="45" cy="405" fill="purple" r="4" stroke="purple" stroke-width="1"/>
<line stroke="gray" stroke-width="1" x1="30" x2="30" y1="420" y2="435"/>
<circle cx="30" cy="420" fill="gray" r="4" stroke="gray" stroke-width="1"/>
<path d="M30,435 L30,480 Q30,487.5,37.5,487.5 Q45,487.5,45,495 L45,495" fill="none" stroke="gray" stroke-width="1"/>
<circle cx="30" cy="435" fill="gray" r="4" stroke="gray" stroke-width="1"/>
<line stroke="purple" stroke-width="1" x1="45" x2="45" y1="450" y2="495"/>
<path d="M45,450 L45,450 Q45,457.5,60,457.5 Q75,457.5,75,465 L75,465" fill="none" stroke="gray" stroke-width="1"/>
<circle cx="45" cy="450" fill="white" r="4" stroke="purple" stroke-width="1"/>
<line stroke="gray" stroke-width="1" x1="75" x2="75" y1="465" y2="480"/>
<circle cx="75" cy="465" fill="gray" r="4" stroke="gray" stroke-width="1"/>
<line stroke="gray" stroke-width="1" x1="75" x2="75" y1="480" y2="525"/>
<path d="M75,480 L75,480 Q75,487.5,67.5,487.5 Q60,487.5,60,495 L60,570" fill="none" stroke="purple" stroke-width="1"/>
<circle cx="75" cy="480" fill="white" r="4" stroke="gray" stroke-width="1"/>
<line stroke="purple" stroke-width="1" x1="45" x2="45" y1="495" y2="510"/>
<path d="M45,495 L45,495 Q45,502.5,60,502.5 Q75,502.5,75,510 L75,525" fill="none" stroke="gray" stroke-width="1"/>
<circle cx="45" cy="495" fill="white" r="4" stroke="purple" stroke-width="1"/>
<line stroke="purple" stroke-width="1" x1="45" x2="45" y1="510" y2="585"/>
<circle cx="45" cy="510" fill="purple" r="4" stroke="purple" stroke-width="1"/>
<line stroke="gray" stroke-width="1" x1="75" x2="75" y1="525" y2="540"/>
<circle cx="75" cy="525" fill="gray" r="4" stroke="gray" stroke-width="1"/>
<line stroke="gray" stroke-width="1" x1="75" x2="75" y1="540" y2="555"/>
<path d="M75,540 L75,540 Q75,547.5,60,547.5 Q45,547.5,45,555 L45,585" fill="none" stroke="purple" stroke-width="1"/>
<circle cx="75" cy="540" fill="white" r="4" stroke="gray" stroke-width="1"/>
<line stroke="gray" stroke-width="1" x1="75" x2="75" y1="555" y2="615"/>
<circle cx="75" cy="555" fill="gray" r="4" stroke="gray" stroke-width="1"/>
<line stroke="purple" stroke-width="1" x1="60" x2="60" y1="570" y2="600"/>
<circle cx="60" cy="570" fill="purple" r="4" stroke="purple" stroke-width="1"/>
<line stroke="purple" stroke-width="1" x1="45" x2="45" y1="585" y2="630"/>
<circle cx="45" cy="585" fill="purple" r="4" stroke="purple" stroke-width="1"/>
<line stroke="purple" stroke-width="1" x1="60" x2="60" y1="600" y2="675"/>
<path d="M60,600 L60,615 Q60,622.5,67.5,622.5 Q75,622.5,75,630 L75,660" fill="none" stroke="gray" stroke-width="1"/>
<circle cx="60" cy="600" fill="white" r="4" stroke="purple" stroke-width="1"/>
<line stroke="gray" stroke-width="1" x1="75" x2="75" y1="615" y2="660"/>
<path d="M75,615 L75,615 Q75,622.5,67.5,622.5 Q60,622.5,60,630 L60,675" fill="none" stroke="purple" stroke-width="1"/>
<circle cx="75" cy="615" fill="white" r="4" stroke="gray" stroke-width="1"/>
<line stroke="purple" stroke-width="1" x1="45" x2="45" y1="630" y2="645"/>
<path d="M45,630 L45,630 Q45,637.5,60,637.5 Q75,637.5,75,645 L75,660" fill="none" stroke="gray" stroke-width="1"/>
<circle cx="45" cy="630" fill="white" r="4" stroke="purple" stroke-width="1"/>
<line stroke="purple" stroke-width="1" x1="45" x2="45" y1="645" y2="915"/>
<path d="M45,645 L45,645 Q45,652.5,52.5,652.5 Q60,652.5,60,660 L60,675" fill="none" stroke="purple" stroke-width="1"/>
<circle cx="45" cy="645" fill="white" r="4" stroke="purple" stroke-width="1"/>
<line stroke="gray" stroke-width="1" x1="75" x2="75" y1="660" y2="765"/>
<circle cx="75" cy="660" fill="gray" r="4" stroke="gray" stroke-width="1"/>
<line stroke="purple" stroke-width="1" x1="60" x2="60" y1="675" y2="690"/>
<circle cx="60" cy="675" fill="purple" r="4" stroke="purple" stroke-width="1"/>
<line stroke="purple" stroke-width="1" x1="60" x2="60" y1="690" y2="705"/>
<path d="M60,690 L60,690 Q60,697.5,45,697.5 Q30,697.5,30,705 L30,720" fill="none" stroke="gray" stroke-width="1"/>
<circle cx="60" cy="690" fill="white" r="4" stroke="purple" stroke-width="1"/>
<line stroke="purple" stroke-width="1" x1="60" x2="60" y1="705" y2="735"/>
<circle cx="60" cy="705" fill="purple" r="4" stroke="purple" stroke-width="1"/>
<path d="M30,720 L30,720 Q30,727.5,45,727.5 Q60,727.5,60,735 L60,735" fill="none" stroke="gray" stroke-width="1"/>
<circle cx="30" cy="720" fill="gray" r="4" stroke="gray" stroke-width="1"/>
<line stroke="purple" stroke-width="1" x1="60" x2="60" y1="735" y2="750"/>
<path d="M60,735 L60,735 Q60,742.5,67.5,742.5 Q75,742.5,75,750 L75,765" fill="none" stroke="gray" stroke-width="1"/>
<circle cx="60" cy="735" fill="white" r="4" stroke="purple" stroke-width="1"/>
<line stroke="purple" stroke-width="1" x1="60" x2="60" y1="750" y2="780"/>
<circle cx="60" cy="750" fill="purple" r="4" stroke="purple" stroke-width="1"/>
<line stroke="gray" stroke-width="1" x1="75" x2="75" y1="765" y2="825"/>
<circle cx="75" cy="765" fill="gray" r="4" stroke="gray" stroke-width="1"/>
<line stroke="purple" stroke-width="1" x1="60" x2="60" y1="780" y2="795"/>
<circle cx="60" cy="780" fill="purple" r="4" stroke="purple" stroke-width="1"/>
<line stroke="purple" stroke-width="1" x1="60" x2="60" y1="795" y2="810"/>
<circle cx="60" cy="795" fill="purple" r="4" stroke="purple" stroke-width="1"/>
<line stroke="purple" stroke-width="1" x1="60" x2="60" y1="810" y2="945"/>
<path d="M60,810 L60,810 Q60,817.5,45,817.5 Q30,817.5,30,825 L30,840" fill="none" stroke="gray" stroke-width="1"/>
<circle cx="60" cy="810" fill="white" r="4" stroke="purple" stroke-width="1"/>
<line stroke="gray" stroke-width="1" x1="75" x2="75" y1="825" y2="930"/>
<path d="M75,825 L75,825 Q75,832.5,52.5,832.5 Q30,832.5,30,840 L30,840" fill="none" stroke="gray" stroke-width="1"/>
<circle cx="75" cy="825" fill="white" r="4" stroke="gray" stroke-width="1"/>
<line stroke="gray" stroke-width="1" x1="30" x2="30" y1="840" y2="855"/>
<circle cx="30" cy="840" fill="gray" r="4" stroke="gray" stroke-width="1"/>
<line stroke="gray" stroke-width="1" x1="30" x2="30" y1="855" y2="870"/>
<circle cx="30" cy="855" fill="gray" r="4" stroke="gray" stroke-width="1"/>
<line stroke="gray" stroke-width="1" x1="30" x2="30" y1="870" y2="885"/>
<circle cx="30" cy="870" fill="gray" r="4" stroke="gray" stroke-width="1"/>
<line stroke="gray" stroke-width="1" x1="30" x2="30" y1="885" y2="900"/>
<circle cx="30" cy="885" fill="gray" r="4" stroke="gray" stroke-width="1"/>
<path d="M30,900 L30,975 Q30,982.5,37.5,982.5 Q45,982.5,45,990 L45,990" fill="none" stroke="gray" stroke-width="1"/>
<circle cx="30" cy="900" fill="gray" r="4" stroke="gray" stroke-width="1"/>
<line stroke="purple" stroke-width="1" x1="45" x2="45" y1="915" y2="990"/>
<circle cx="45" cy="915" fill="purple" r="4" stroke="purple" stroke-width="1"/>
<line stroke="gray" stroke-width="1" x1="75" x2="75" y1="930" y2="975"/>
<path d="M75,930 L75,930 Q75,937.5,60,937.5 Q45,937.5,45,945 L45,990" fill="none" stroke="purple" stroke-width="1"/>
<circle cx="75" cy="930" fill="white" r="4" stroke="gray" stroke-width="1"/>
<line stroke="purple" stroke-width="1" x1="60" x2="60" y1="945" y2="960"/>
<circle cx="60" cy="945" fill="purple" r="4" stroke="purple" stroke-width="1"/>
<line stroke="purple" stroke-width="1" x1="60" x2="60" y1="960" y2="1005"/>
<path d="M60,960 L60,960 Q60,967.5,52.5,967.5 Q45,967.5,45,975 L45,990" fill="none" stroke="purple" stroke-width="1"/>
<circle cx="60" cy="960" fill="white" r="4" stroke="purple" stroke-width="1"/>
<line stroke="gray" stroke-width="1" x1="75" x2="75" y1="975" y2="1020"/>
<circle cx="75" cy="975" fill="gray" r="4" stroke="gray" stroke-width="1"/>
<line stroke="purple" stroke-width="1" x1="45" x2="45" y1="990" y2="1035"/>
<circle cx="45" cy="990" fill="purple" r="4" stroke="purple" stroke-width="1"/>
<line stroke="purple" stroke-width="1" x1="60" x2="60" y1="1005" y2="1065"/>
<path d="M60,1005 L60,1005 Q60,1012.5,52.5,1012.5 Q45,1012.5,45,1020 L45,1035" fill="none" stroke="purple" stroke-width="1"/>
<circle cx="60" cy="1005" fill="white" r="4" stroke="purple" stroke-width="1"/>
<line stroke="gray" stroke-width="1" x1="75" x2="75" y1="1020" y2="1050"/>
<path d="M75,1020 L75,1020 Q75,1027.5,60,1027.5 Q45,1027.5,45,1035 L45,1035" fill="none" stroke="purple" stroke-width="1"/>
<circle cx="75" cy="1020" fill="white" r="4" stroke="gray" stroke-width="1"/>
<path d="M45,1035 L45,1065 Q45,1072.5,60,1072.5 Q75,1072.5,75,1080 L75,1080" fill="none" stroke="purple" stroke-width="1"/>
<circle cx="45" cy="1035" fill="purple" r="4" stroke="purple" stroke-width="1"/>
<line stroke="gray" stroke-width="1" x1="75" x2="75" y1="1050" y2="1080"/>
<circle cx="75" cy="1050" fill="gray" r="4" stroke="gray" stroke-width="1"/>
<line stroke="purple" stroke-width="1" x1="60" x2="60" y1="1065" y2="1140"/>
<path d="M60,1065 L60,1065 Q60,1072.5,67.5,1072.5 Q75,1072.5,75,1080 L75,1080" fill="none" stroke="gray" stroke-width="1"/>
<circle cx="60" cy="1065" fill="white" r="4" stroke="purple" stroke-width="1"/>
<line stroke="gray" stroke-width="1" x1="75" x2="75" y1="1080" y2="1095"/>
<circle cx="75" cy="1080" fill="gray" r="4" stroke="gray" stroke-width="1"/>
<line stroke="gray" stroke-width="1" x1="75" x2="75" y1="1095" y2="1110"/>
<circle cx="75" cy="1095" fill="gray" r="4" stroke="gray" stroke-width="1"/>
<line stroke="gray" stroke-width="1" x1="75" x2="75" y1="1110" y2="1125"/>
<circle cx="75" cy="1110" fill="gray" r="4" stroke="gray" stroke-width="1"/>
<line stroke="gray" stroke-width="1" x1="75" x2="75" y1="1125" y2="1170"/>
<path d="M75,1125 L75,1140 Q75,1147.5,67.5,1147.5 Q60,1147.5,60,1155 L60,1155" fill="none" stroke="purple" stroke-width="1"/>
<circle cx="75" cy="1125" fill="white" r="4" stroke="gray" stroke-width="1"/>
<line stroke="purple" stroke-width="1" x1="60" x2="60" y1="1140" y2="1155"/>
<circle cx="60" cy="1140" fill="purple" r="4" stroke="purple" stroke-width="1"/>
<line stroke="purple" stroke-width="1" x1="60" x2="60" y1="1155" y2="1230"/>
<circle cx="60" cy="1155" fill="purple" r="4" stroke="purple" stroke-width="1"/>
<line stroke="gray" stroke-width="1" x1="75" x2="75" y1="1170" y2="1200"/>
<path d="M75,1170 L75,1170 Q75,1177.5,60,1177.5 Q45,1177.5,45,1185 L45,1185" fill="none" stroke="turquoise" stroke-width="1"/>
<circle cx="75" cy="1170" fill="white" r="4" stroke="gray" stroke-width="1"/>
<line stroke="turquoise" stroke-width="1" x1="45" x2="45" y1="1185" y2="1275"/>
<circle cx="45" cy="1185" fill="turquoise" r="4" stroke="turquoise" stroke-width="1"/>
<line stroke="gray" stroke-width="1" x1="75" x2="75" y1="1200" y2="1215"/>
<circle cx="75" cy="1200" fill="gray" r="4" stroke="gray" stroke-width="1"/>
<line stroke="gray" stroke-width="1" x1="75" x2="75" y1="1215" y2="1290"/>
<circle cx="75" cy="1215" fill="gray" r="4" stroke="gray" stroke-width="1"/>
<line stroke="purple" stroke-width="1" x1="60" x2="60" y1="1230" y2="1245"/>
<circle cx="60" cy="1230" fill="purple" r="4" stroke="purple" stroke-width="1"/>
<line stroke="purple" stroke-width="1" x1="60" x2="60" y1="1245" y2="1260"/>
<path d="M60,1245 L60,1290 Q60,1297.5,67.5,1297.5 Q75,1297.5,75,1305 L75,1305" fill="none" stroke="gray" stroke-width="1"/>
<circle cx="60" cy="1245" fill="white" r="4" stroke="purple" stroke-width="1"/>
<line stroke="purple" stroke-width="1" x1="60" x2="60" y1="1260" y2="1380"/>
<circle cx="60" cy="1260" fill="purple" r="4" stroke="purple" stroke-width="1"/>
<line stroke="turquoise" stroke-width="1" x1="45" x2="45" y1="1275" y2="1335"/>
<path d="M45,1275 L45,1290 Q45,1297.5,60,1297.5 Q75,1297.5,75,1305 L75,1305" fill="none" stroke="gray" stroke-width="1"/>
<circle cx="45" cy="1275" fill="white" r="4" stroke="turquoise" stroke-width="1"/>
<line stroke="gray" stroke-width="1" x1="75" x2="75" y1="1290" y2="1305"/>
<path d="M75,1290 L75,1290 Q75,1297.5,60,1297.5 Q45,1297.5,45,1305 L45,1335" fill="none" stroke="turquoise" stroke-width="1"/>
<circle cx="75" cy="1290" fill="white" r="4" stroke="gray" stroke-width="1"/>
<line stroke="gray" stroke-width="1" x1="75" x2="75" y1="1305" y2="1320"/>
<circle cx="75" cy="1305" fill="gray" r="4" stroke="gray" stroke-width="1"/>
<line stroke="gray" stroke-width="1" x1="75" x2="75" y1="1320" y2="1410"/>
<circle cx="75" cy="1320" fill="gray" r="4" stroke="gray" stroke-width="1"/>
<line stroke="turquoise" stroke-width="1" x1="45" x2="45" y1="1335" y2="1350"/>
<circle cx="45" cy="1335" fill="turquoise" r="4" stroke="turquoise" stroke-width="1"/>
<line stroke="turquoise" stroke-width="1" x1="45" x2="45" y1="1350" y2="1365"/>
<circle cx="45" cy="1350" fill="turquoise" r="4" stroke="turquoise" stroke-width="1"/>
<line stroke="turquoise" stroke-width="1" x1="45" x2="45" y1="1365" y2="1395"/>
<path d="M45,1365 L45,1365 Q45,1372.5,37.5,1372.5 Q30,1372.5,30,1380 L30,1440" fill="none" stroke="gray" stroke-width="1"/>
<circle cx="45" cy="1365" fill="white" r="4" stroke="turquoise" stroke-width="1"/>
<line stroke="purple" stroke-width="1" x1="60" x2="60" y1="1380" y2="1470"/>
<circle cx="60" cy="1380" fill="purple" r="4" stroke="purple" stroke-width="1"/>
<line stroke="turquoise" stroke-width="1" x1="45" x2="45" y1="1395" y2="1485"/>
<path d="M45,1395 L45,1395 Q45,1402.5,52.5,1402.5 Q60,1402.5,60,1410 L60,1470" fill="none" stroke="purple" stroke-width="1"/>
<circle cx="45" cy="1395" fill="white" r="4" stroke="turquoise" stroke-width="1"/>
<line stroke="gray" stroke-width="1" x1="75" x2="75" y1="1410" y2="1425"/>
<path d="M75,1410 L75,1410 Q75,1417.5,52.5,1417.5 Q30,1417.5,30,1425 L30,1440" fill="none" stroke="gray" stroke-width="1"/>
<circle cx="75" cy="1410" fill="white" r="4" stroke="gray" stroke-width="1"/>
<line stroke="gray" stroke-width="1" x1="75" x2="75" y1="1425" y2="1650"/>
<circle cx="75" cy="1425" fill="gray" r="4" stroke="gray" stroke-width="1"/>
<line stroke="gray" stroke-width="1" x1="30" x2="30" y1="1440" y2="1455"/>
<circle cx="30" cy="1440" fill="gray" r="4" stroke="gray" stroke-width="1"/>
<path d="M30,1455 L30,1455 Q30,1462.5,37.5,1462.5 Q45,1462.5,45,1470 L45,1485" fill="none" stroke="turquoise" stroke-width="1"/>
<path d="M30,1455 L30,1455 Q30,1462.5,45,1462.5 Q60,1462.5,60,1470 L60,1470" fill="none" stroke="purple" stroke-width="1"/>
<circle cx="30" cy="1455" fill="white" r="4" stroke="gray" stroke-width="1"/>
<line stroke="purple" stroke-width="1" x1="60" x2="60" y1="1470" y2="1515"/>
<circle cx="60" cy="1470" fill="purple" r="4" stroke="purple" stroke-width="1"/>
<line stroke="turquoise" stroke-width="1" x1="45" x2="45" y1="1485" y2="1500"/>
<circle cx="45" cy="1485" fill="turquoise" r="4" stroke="turquoise" stroke-width="1"/>
<line stroke="turquoise" stroke-width="1" x1="45" x2="45" y1="1500" y2="1530"/>
<path d="M45,1500 L45,1500 Q45,1507.5,52.5,1507.5 Q60,1507.5,60,1515 L60,1515" fill="none" stroke="purple" stroke-width="1"/>
<circle cx="45" cy="1500" fill="white" r="4" stroke="turquoise" stroke-width="1"/>
<line stroke="purple" stroke-width="1" x1="60" x2="60" y1="1515" y2="1590"/>
<circle cx="60" cy="1515" fill="purple" r="4" stroke="purple" stroke-width="1"/>
<line stroke="turquoise" stroke-width="1" x1="45" x2="45" y1="1530" y2="1545"/>
<circle cx="45" cy="1530" fill="turquoise" r="4" stroke="turquoise" stroke-width="1"/>
<line stroke="turquoise" stroke-width="1" x1="45" x2="45" y1="1545" y2="1560"/>
<circle cx="45" cy="1545" fill="turquoise" r="4" stroke="turquoise" stroke-width="1"/>
<line stroke="turquoise" stroke-width="1" x1="45" x2="45" y1="1560" y2="1575"/>
<circle cx="45" cy="1560" fill="turquoise" r="4" stroke="turquoise" stroke-width="1"/>
<path d="M45,1575 L45,1575 Q45,1582.5,52.5,1582.5 Q60,1582.5,60,1590 L60,1590" fill="none" stroke="turquoise" stroke-width="1"/>
<circle cx="45" cy="1575" fill="turquoise" r="4" stroke="turquoise" stroke-width="1"/>
<line stroke="purple" stroke-width="1" x1="60" x2="60" y1="1590" y2="1605"/>
<circle cx="60" cy="1590" fill="purple" r="4" stroke="purple" stroke-width="1"/>
<line stroke="purple" stroke-width="1" x1="60" x2="60" y1="1605" y2="1620"/>
<circle cx="60" cy="1605" fill="purple" r="4" stroke="purple" stroke-width="1"/>
<line stroke="purple" stroke-width="1" x1="60" x2="60" y1="1620" y2="1635"/>
<circle cx="60" cy="1620" fill="purple" r="4" stroke="purple" stroke-width="1"/>
<line stroke="purple" stroke-width="1" x1="60" x2="60" y1="1635" y2="1665"/>
<path d="M60,1635 L60,1635 Q60,1642.5,67.5,1642.5 Q75,1642.5,75,1650 L75,1650" fill="none" stroke="gray" stroke-width="1"/>
<circle cx="60" cy="1635" fill="white" r="4" stroke="purple" stroke-width="1"/>
<path d="M75,1650 L75,1680 Q75,1687.5,82.5,1687.5 Q90,1687.5,90,1695 L90,1695" fill="none" stroke="gray" stroke-width="1"/>
<circle cx="75" cy="1650" fill="gray" r="4" stroke="gray" stroke-width="1"/>
<line stroke="purple" stroke-width="1" x1="60" x2="60" y1="1665" y2="1680"/>
<path d="M60,1665 L60,1665 Q60,1672.5,52.5,1672.5 Q45,1672.5,45,1680 L45,1860" fill="none" stroke="gray" stroke-width="1"/>
<circle cx="60" cy="1665" fill="white" r="4" stroke="purple" stroke-width="1"/>
<line stroke="purple" stroke-width="1" x1="60" x2="60" y1="1680" y2="1890"/>
<circle cx="60" cy="1680" fill="purple" r="4" stroke="purple" stroke-width="1"/>
<line stroke="gray" stroke-width="1" x1="90" x2="90" y1="1695" y2="1710"/>
<circle cx="90" cy="1695" fill="gray" r="4" stroke="gray" stroke-width="1"/>
<line stroke="gray" stroke-width="1" x1="90" x2="90" y1="1710" y2="1725"/>
<path d="M90,1710 L90,1710 Q90,1717.5,60,1717.5 Q30,1717.5,30,1725 L30,1740" fill="none" stroke="purple" stroke-width="1"/>
<circle cx="90" cy="1710" fill="white" r="4" stroke="gray" stroke-width="1"/>
<line stroke="gray" stroke-width="1" x1="90" x2="90" y1="1725" y2="1755"/>
<circle cx="90" cy="1725" fill="gray" r="4" stroke="gray" stroke-width="1"/>
<path d="M30,1740 L30,1740 Q30,1747.5,60,1747.5 Q90,1747.5,90,1755 L90,1755" fill="none" stroke="purple" stroke-width="1"/>
<circle cx="30" cy="1740" fill="purple" r="4" stroke="purple" stroke-width="1"/>
<line stroke="gray" stroke-width="1" x1="90" x2="90" y1="1755" y2="1770"/>
<circle cx="90" cy="1755" fill="gray" r="4" stroke="gray" stroke-width="1"/>
<line stroke="gray" stroke-width="1" x1="90" x2="90" y1="1770" y2="1785"/>
<path d="M90,1770 L90,1770 Q90,1777.5,60,1777.5 Q30,1777.5,30,1785 L30,1800" fill="none" stroke="turquoise" stroke-width="1"/>
<circle cx="90" cy="1770" fill="white" r="4" stroke="gray" stroke-width="1"/>
<line stroke="gray" stroke-width="1" x1="90" x2="90" y1="1785" y2="1815"/>
<circle cx="90" cy="1785" fill="gray" r="4" stroke="gray" stroke-width="1"/>
<path d="M30,1800 L30,1815 Q30,1822.5,60,1822.5 Q90,1822.5,90,1830 L90,1830" fill="none" stroke="turquoise" stroke-width="1"/>
<circle cx="30" cy="1800" fill="turquoise" r="4" stroke="turquoise" stroke-width="1"/>
<line stroke="gray" stroke-width="1" x1="90" x2="90" y1="1815" y2="1830"/>
<circle cx="90" cy="1815" fill="gray" r="4" stroke="gray" stroke-width="1"/>
<line stroke="gray" stroke-width="1" x1="90" x2="90" y1="1830" y2="1845"/>
<circle cx="90" cy="1830" fill="gray" r="4" stroke="gray" stroke-width="1"/>
<line stroke="gray" stroke-width="1" x1="90" x2="90" y1="1845" y2="1875"/>
<path d="M90,1845 L90,1845 Q90,1852.5,67.5,1852.5 Q45,1852.5,45,1860 L45,1860" fill="none" stroke="gray" stroke-width="1"/>
<circle cx="90" cy="1845" fill="white" r="4" stroke="gray" stroke-width="1"/>
<path d="M45,1860 L45,1935 Q45,1942.5,67.5,1942.5 Q90,1942.5,90,1950 L90,1950" fill="none" stroke="gray" stroke-width="1"/>
<circle cx="45" cy="1860" fill="gray" r="4" stroke="gray" stroke-width="1"/>
<line stroke="gray" stroke-width="1" x1="90" x2="90" y1="1875" y2="1950"/>
<circle cx="90" cy="1875" fill="gray" r="4" stroke="gray" stroke-width="1"/>
<line stroke="purple" stroke-width="1" x1="60" x2="60" y1="1890" y2="1905"/>
<circle cx="60" cy="1890" fill="purple" r="4" stroke="purple" stroke-width="1"/>
<line stroke="purple" stroke-width="1" x1="60" x2="60" y1="1905" y2="1920"/>
<circle cx="60" cy="1905" fill="purple" r="4" stroke="purple" stroke-width="1"/>
<line stroke="purple" stroke-width="1" x1="60" x2="60" y1="1920" y2="1935"/>
<circle cx="60" cy="1920" fill="purple" r="4" stroke="purple" stroke-width="1"/>
<path d="M60,1935 L60,1935 Q60,1942.5,75,1942.5 Q90,1942.5,90,1950 L90,1950" fill="none" stroke="purple" stroke-width="1"/>
<circle cx="60" cy="1935" fill="purple" r="4" stroke="purple" stroke-width="1"/>
<line stroke="gray" stroke-width="1" x1="90" x2="90" y1="1950" y2="1965"/>
<circle cx="90" cy="1950" fill="gray" r="4" stroke="gray" stroke-width="1"/>
<line stroke="gray" stroke-width="1" x1="90" x2="90" y1="1965" y2="1980"/>
<path d="M90,1965 L90,1965 Q90,1972.5,75,1972.5 Q60,1972.5,60,1980 L60,2010" fill="none" stroke="purple" stroke-width="1"/>
<circle cx="90" cy="1965" fill="white" r="4" stroke="gray" stroke-width="1"/>
<line stroke="gray" stroke-width="1" x1="90" x2="90" y1="1980" y2="1995"/>
<path d="M90,1980 L90,2040 Q90,2047.5,75,2047.5 Q60,2047.5,60,2055 L60,2085" fill="none" stroke="purple" stroke-width="1"/>
<circle cx="90" cy="1980" fill="white" r="4" stroke="gray" stroke-width="1"/>
<line stroke="gray" stroke-width="1" x1="90" x2="90" y1="1995" y2="2175"/>
<circle cx="90" cy="1995" fill="gray" r="4" stroke="gray" stroke-width="1"/>
<line stroke="purple" stroke-width="1" x1="60" x2="60" y1="2010" y2="2025"/>
<circle cx="60" cy="2010" fill="purple" r="4" stroke="purple" stroke-width="1"/>
<line stroke="purple" stroke-width="1" x1="60" x2="60" y1="2025" y2="2040"/>
<circle cx="60" cy="2025" fill="purple" r="4" stroke="purple" stroke-width="1"/>
<line stroke="purple" stroke-width="1" x1="60" x2="60" y1="2040" y2="2085"/>
<circle cx="60" cy="2040" fill="purple" r="4" stroke="purple" stroke-width="1"/>
<line stroke="gray" stroke-width="1" x1="30" x2="30" y1="2055" y2="2070"/>
<circle cx="30" cy="2055" fill="gray" r="4" stroke="gray" stroke-width="1"/>
<path d="M30,2070 L30,2160 Q30,2167.5,60,2167.5 Q90,2167.5,90,2175 L90,2175" fill="none" stroke="gray" stroke-width="1"/>
<circle cx="30" cy="2070" fill="gray" r="4" stroke="gray" stroke-width="1"/>
<line stroke="purple" stroke-width="1" x1="60" x2="60" y1="2085" y2="2100"/>
<circle cx="60" cy="2085" fill="purple" r="4" stroke="purple" stroke-width="1"/>
<line stroke="purple" stroke-width="1" x1="60" x2="60" y1="2100" y2="2115"/>
<circle cx="60" cy="2100" fill="purple" r="4" stroke="purple" stroke-width="1"/>
<line stroke="purple" stroke-width="1" x1="60" x2="60" y1="2115" y2="2130"/>
<path d="M60,2115 L60,2115 Q60,2122.5,52.5,2122.5 Q45,2122.5,45,2130 L45,2145" fill="none" stroke="gray" stroke-width="1"/>
<circle cx="60" cy="2115" fill="white" r="4" stroke="purple" stroke-width="1"/>
<line stroke="purple" stroke-width="1" x1="60" x2="60" y1="2130" y2="2160"/>
<circle cx="60" cy="2130" fill="purple" r="4" stroke="purple" stroke-width="1"/>
<line stroke="gray" stroke-width="1" x1="45" x2="45" y1="2145" y2="2235"/>
<circle cx="45" cy="2145" fill="gray" r="4" stroke="gray" stroke-width="1"/>
<line stroke="purple" stroke-width="1" x1="60" x2="60" y1="2160" y2="2265"/>
<path d="M60,2160 L60,2250 Q60,2257.5,52.5,2257.5 Q45,2257.5,45,2265 L45,2475" fill="none" stroke="gray" stroke-width="1"/>
<circle cx="60" cy="2160" fill="white" r="4" stroke="purple" stroke-width="1"/>
<line stroke="gray" stroke-width="1" x1="90" x2="90" y1="2175" y2="2190"/>
<path d="M90,2175 L90,2175 Q90,2182.5,60,2182.5 Q30,2182.5,30,2190 L30,2220" fill="none" stroke="purple" stroke-width="1"/>
<circle cx="90" cy="2175" fill="white" r="4" stroke="gray" stroke-width="1"/>
<line stroke="gray" stroke-width="1" x1="90" x2="90" y1="2190" y2="2205"/>
<path d="M90,2190 L90,2190 Q90,2197.5,67.5,2197.5 Q45,2197.5,45,2205 L45,2235" fill="none" stroke="gray" stroke-width="1"/>
<circle cx="90" cy="2190" fill="white" r="4" stroke="gray" stroke-width="1"/>
<line stroke="gray" stroke-width="1" x1="90" x2="90" y1="2205" y2="2280"/>
<circle cx="90" cy="2205" fill="gray" r="4" stroke="gray" stroke-width="1"/>
<line stroke="purple" stroke-width="1" x1="30" x2="30" y1="2220" y2="2295"/>
<circle cx="30" cy="2220" fill="purple" r="4" stroke="purple" stroke-width="1"/>
<line stroke="gray" stroke-width="1" x1="45" x2="45" y1="2235" y2="2250"/>
<circle cx="45" cy="2235" fill="gray" r="4" stroke="gray" stroke-width="1"/>
<line stroke="gray" stroke-width="1" x1="45" x2="45" y1="2250" y2="2475"/>
<path d="M45,2250 L45,2250 Q45,2257.5,52.5,2257.5 Q60,2257.5,60,2265 L60,2265" fill="none" stroke="purple" stroke-width="1"/>
<circle cx="45" cy="2250" fill="white" r="4" stroke="gray" stroke-width="1"/>
<line stroke="purple" stroke-width="1" x1="60" x2="60" y1="2265" y2="2400"/>
<circle cx="60" cy="2265" fill="purple" r="4" stroke="purple" stroke-width="1"/>
<line stroke="gray" stroke-width="1" x1="90" x2="90" y1="2280" y2="2325"/>
<circle cx="90" cy="2280" fill="gray" r="4" stroke="gray" stroke-width="1"/>
<line stroke="purple" stroke-width="1" x1="30" x2="30" y1="2295" y2="2310"/>
<circle cx="30" cy="2295" fill="purple" r="4" stroke="purple" stroke-width="1"/>
<line stroke="purple" stroke-width="1" x1="30" x2="30" y1="2310" y2="2355"/>
<circle cx="30" cy="2310" fill="purple" r="4" stroke="purple" stroke-width="1"/>
<line stroke="gray" stroke-width="1" x1="90" x2="90" y1="2325" y2="2340"/>
<path d="M90,2325 L90,2325 Q90,2332.5,75,2332.5 Q60,2332.5,60,2340 L60,2400" fill="none" stroke="purple" stroke-width="1"/>
<circle cx="90" cy="2325" fill="white" r="4" stroke="gray" stroke-width="1"/>
<line stroke="gray" stroke-width="1" x1="90" x2="90" y1="2340" y2="2430"/>
<path d="M90,2340 L90,2520 Q90,2527.5,75,2527.5 Q60,2527.5,60,2535 L60,2565" fill="none" stroke="purple" stroke-width="1"/>
<circle cx="90" cy="2340" fill="white" r="4" stroke="gray" stroke-width="1"/>
<line stroke="purple" stroke-width="1" x1="30" x2="30" y1="2355" y2="2370"/>
<path d="M30,2355 L30,2355 Q30,2362.5,45,2362.5 Q60,2362.5,60,2370 L60,2400" fill="none" stroke="purple" stroke-width="1"/>
<circle cx="30" cy="2355" fill="white" r="4" stroke="purple" stroke-width="1"/>
<line stroke="purple" stroke-width="1" x1="30" x2="30" y1="2370" y2="2385"/>
<circle cx="30" cy="2370" fill="purple" r="4" stroke="purple" stroke-width="1"/>
<line stroke="purple" stroke-width="1" x1="30" x2="30" y1="2385" y2="2550"/>
<circle cx="30" cy="2385" fill="purple" r="4" stroke="purple" stroke-width="1"/>
<line stroke="purple" stroke-width="1" x1="60" x2="60" y1="2400" y2="2415"/>
<circle cx="60" cy="2400" fill="purple" r="4" stroke="purple" stroke-width="1"/>
<line stroke="purple" stroke-width="1" x1="60" x2="60" y1="2415" y2="2520"/>
<path d="M60,2415 L60,2460 Q60,2467.5,75,2467.5 Q90,2467.5,90,2475 L90,2505" fill="none" stroke="gray" stroke-width="1"/>
<circle cx="60" cy="2415" fill="white" r="4" stroke="purple" stroke-width="1"/>
<line stroke="gray" stroke-width="1" x1="90" x2="90" y1="2430" y2="2445"/>
<path d="M90,2430 L90,2430 Q90,2437.5,60,2437.5 Q30,2437.5,30,2445 L30,2550" fill="none" stroke="purple" stroke-width="1"/>
<circle cx="90" cy="2430" fill="white" r="4" stroke="gray" stroke-width="1"/>
<line stroke="gray" stroke-width="1" x1="90" x2="90" y1="2445" y2="2460"/>
<circle cx="90" cy="2445" fill="gray" r="4" stroke="gray" stroke-width="1"/>
<line stroke="gray" stroke-width="1" x1="90" x2="90" y1="2460" y2="2505"/>
<path d="M90,2460 L90,2475 Q90,2482.5,67.5,2482.5 Q45,2482.5,45,2490 L45,2490" fill="none" stroke="gray" stroke-width="1"/>
<circle cx="90" cy="2460" fill="white" r="4" stroke="gray" stroke-width="1"/>
<line stroke="gray" stroke-width="1" x1="45" x2="45" y1="2475" y2="2490"/>
<path d="M45,2475 L45,2475 Q45,2482.5,67.5,2482.5 Q90,2482.5,90,2490 L90,2505" fill="none" stroke="gray" stroke-width="1"/>
<circle cx="45" cy="2475" fill="white" r="4" stroke="gray" stroke-width="1"/>
<line stroke="gray" stroke-width="1" x1="45" x2="45" y1="2490" y2="2580"/>
<circle cx="45" cy="2490" fill="gray" r="4" stroke="gray" stroke-width="1"/>
<line stroke="gray" stroke-width="1" x1="90" x2="90" y1="2505" y2="2535"/>
<circle cx="90" cy="2505" fill="gray" r="4" stroke="gray" stroke-width="1"/>
<line stroke="purple" stroke-width="1" x1="60" x2="60" y1="2520" y2="2565"/>
<path d="M60,2520 L60,2520 Q60,2527.5,45,2527.5 Q30,2527.5,30,2535 L30,2550" fill="none" stroke="purple" stroke-width="1"/>
<circle cx="60" cy="2520" fill="white" r="4" stroke="purple" stroke-width="1"/>
<line stroke="gray" stroke-width="1" x1="90" x2="90" y1="2535" y2="2625"/>
<path d="M90,2535 L90,2565 Q90,2572.5,75,2572.5 Q60,2572.5,60,2580 L60,2610" fill="none" stroke="purple" stroke-width="1"/>
<circle cx="90" cy="2535" fill="white" r="4" stroke="gray" stroke-width="1"/>
<path d="M30,2550 L30,2595 Q30,2602.5,45,2602.5 Q60,2602.5,60,2610 L60,2610" fill="none" stroke="purple" stroke-width="1"/>
<circle cx="30" cy="2550" fill="purple" r="4" stroke="purple" stroke-width="1"/>
<line stroke="purple" stroke-width="1" x1="60" x2="60" y1="2565" y2="2610"/>
<path d="M60,2565 L60,2565 Q60,2572.5,75,2572.5 Q90,2572.5,90,2580 L90,2625" fill="none" stroke="gray" stroke-width="1"/>
<circle cx="60" cy="2565" fill="white" r="4" stroke="purple" stroke-width="1"/>
<line stroke="gray" stroke-width="1" x1="45" x2="45" y1="2580" y2="2595"/>
<path d="M45,2580 L45,2580 Q45,2587.5,52.5,2587.5 Q60,2587.5,60,2595 L60,2610" fill="none" stroke="purple" stroke-width="1"/>
<circle cx="45" cy="2580" fill="white" r="4" stroke="gray" stroke-width="1"/>
<path d="M45,2595 L45,2610 Q45,2617.5,67.5,2617.5 Q90,2617.5,90,2625 L90,2625" fill="none" stroke="gray" stroke-width="1"/>
<circle cx="45" cy="2595" fill="gray" r="4" stroke="gray" stroke-width="1"/>
<path d="M60,2610 L60,2625 Q60,2632.5,75,2632.5 Q90,2632.5,90,2640 L90,2640" fill="none" stroke="purple" stroke-width="1"/>
<circle cx="60" cy="2610" fill="purple" r="4" stroke="purple" stroke-width="1"/>
<line stroke="gray" stroke-width="1" x1="90" x2="90" y1="2625" y2="2640"/>
<circle cx="90" cy="2625" fill="gray" r="4" stroke="gray" stroke-width="1"/>
<line stroke="gray" stroke-width="1" x1="90" x2="90" y1="2640" y2="2655"/>
<circle cx="90" cy="2640" fill="gray" r="4" stroke="gray" stroke-width="1"/>
<line stroke="gray" stroke-width="1" x1="90" x2="90" y1="2655" y2="2670"/>
<circle cx="90" cy="2655" fill="gray" r="4" stroke="gray" stroke-width="1"/>
<line stroke="gray" stroke-width="1" x1="90" x2="90" y1="2670" y2="2685"/>
<circle cx="90" cy="2670" fill="gray" r="4" stroke="gray" stroke-width="1"/>
<line stroke="gray" stroke-width="1" x1="90" x2="90" y1="2685" y2="2700"/>
<path d="M90,2685 L90,2685 Q90,2692.5,60,2692.5 Q30,2692.5,30,2700 L30,2730" fill="none" stroke="turquoise" stroke-width="1"/>
<circle cx="90" cy="2685" fill="white" r="4" stroke="gray" stroke-width="1"/>
<line stroke="gray" stroke-width="1" x1="90" x2="90" y1="2700" y2="2715"/>
<circle cx="90" cy="2700" fill="gray" r="4" stroke="gray" stroke-width="1"/>
<line stroke="gray" stroke-width="1" x1="90" x2="90" y1="2715" y2="2775"/>
<path d="M90,2715 L90,2760 Q90,2767.5,60,2767.5 Q30,2767.5,30,2775 L30,2790" fill="none" stroke="turquoise" stroke-width="1"/>
<circle cx="90" cy="2715" fill="white" r="4" stroke="gray" stroke-width="1"/>
<line stroke="turquoise" stroke-width="1" x1="30" x2="30" y1="2730" y2="2745"/>
<circle cx="30" cy="2730" fill="turquoise" r="4" stroke="turquoise" stroke-width="1"/>
<line stroke="turquoise" stroke-width="1" x1="30" x2="30" y1="2745" y2="2760"/>
<path d="M30,2745 L30,2745 Q30,2752.5,60,2752.5 Q90,2752.5,90,2760 L90,2775" fill="none" stroke="gray" stroke-width="1"/>
<circle cx="30" cy="2745" fill="white" r="4" stroke="turquoise" stroke-width="1"/>
<line stroke="turquoise" stroke-width="1" x1="30" x2="30" y1="2760" y2="2790"/>
<circle cx="30" cy="2760" fill="turquoise" r="4" stroke="turquoise" stroke-width="1"/>
<line stroke="gray" stroke-width="1" x1="90" x2="90" y1="2775" y2="2805"/>
<circle cx="90" cy="2775" fill="gray" r="4" stroke="gray" stroke-width="1"/>
<path d="M30,2790 L30,2790 Q30,2797.5,60,2797.5 Q90,2797.5,90,2805 L90,2805" fill="none" stroke="turquoise" stroke-width="1"/>
<circle cx="30" cy="2790" fill="turquoise" r="4" stroke="turquoise" stroke-width="1"/>
<line stroke="gray" stroke-width="1" x1="90" x2="90" y1="2805" y2="2820"/>
<circle cx="90" cy="2805" fill="gray" r="4" stroke="gray" stroke-width="1"/>
<path d="M90,2820 L90,2820 Q90,2827.5,52.5,2827.5 Q15,2827.5,15,2835 L15,2835" fill="none" stroke="gray" stroke-width="1"/>
<circle cx="90" cy="2820" fill="gray" r="4" stroke="gray" stroke-width="1"/>
<circle cx="15" cy="2835" fill="blue" r="4" stroke="blue" stroke-width="1"/>
</svg>
