<svg height="2895" viewBox="0 0 120 2895" width="120" xmlns="http://www.w3.org/2000/svg">
<path d="M30,15 L30,120 Q30,127.5,52.5,127.5 Q75,127.5,75,135 L75,135" fill="none" stroke="gray" stroke-width="1"/>
<circle cx="30" cy="15" fill="gray" r="4" stroke="gray" stroke-width="1"/>
<line stroke="gray" stroke-width="1" x1="45" x2="45" y1="30" y2="90"/>
<circle cx="45" cy="30" fill="gray" r="4" stroke="gray" stroke-width="1"/>
<line stroke="gray" stroke-width="1" x1="60" x2="60" y1="45" y2="210"/>
<circle cx="60" cy="45" fill="gray" r="4" stroke="gray" stroke-width="1"/>
<line stroke="gray" stroke-width="1" x1="105" x2="105" y1="60" y2="75"/>
<path d="M105,60 L105,60 Q105,67.5,97.5,67.5 Q90,67.5,90,75 L90,1725" fill="none" stroke="gray" stroke-width="1"/>
<circle cx="105" cy="60" fill="white" r="4" stroke="gray" stroke-width="1"/>
<path d="M105,75 L105,2850 Q105,2857.5,60,2857.5 Q15,2857.5,15,2865 L15,2865" fill="none" stroke="gray" stroke-width="1"/>
<circle cx="105" cy="75" fill="gray" r="4" stroke="gray" stroke-width="1"/>
<line stroke="gray" stroke-width="1" x1="45" x2="45" y1="90" y2="105"/>
<circle cx="45" cy="90" fill="gray" r="4" stroke="gray" stroke-width="1"/>
<line stroke="gray" stroke-width="1" x1="45" x2="45" y1="105" y2="120"/>
<path d="M45,105 L45,105 Q45,112.5,60,112.5 Q75,112.5,75,120 L75,135" fill="none" stroke="gray" stroke-width="1"/>
<circle cx="45" cy="105" fill="white" r="4" stroke="gray" stroke-width="1"/>
<line stroke="gray" stroke-width="1" x1="45" x2="45" y1="120" y2="165"/>
<circle cx="45" cy="120" fill="gray" r="4" stroke="gray" stroke-width="1"/>
<line stroke="gray" stroke-width="1" x1="75" x2="75" y1="135" y2="150"/>
<circle cx="75" cy="135" fill="gray" r="4" stroke="gray" stroke-width="1"/>
<line stroke="gray" stroke-width="1" x1="75" x2="75" y1="150" y2="180"/>
<path d="M75,150 L75,150 Q75,157.5,60,157.5 Q45,157.5,45,165 L45,165" fill="none" stroke="purple" stroke-width="1"/>
<circle cx="75" cy="150" fill="white" r="4" stroke="gray" stroke-width="1"/>
<line stroke="purple" stroke-width="1" x1="45" x2="45" y1="165" y2="240"/>
<circle cx="45" cy="165" fill="purple" r="4" stroke="purple" stroke-width="1"/>
<line stroke="gray" stroke-width="1" x1="75" x2="75" y1="180" y2="255"/>
<circle cx="75" cy="180" fill="gray" r="4" stroke="gray" stroke-width="1"/>
<line stroke="gray" stroke-width="1" x1="30" x2="30" y1="195" y2="375"/>
<path d="M30,195 L30,195 Q30,202.5,37.5,202.5 Q45,202.5,45,210 L45,240" fill="none" stroke="purple" stroke-width="1"/>
<circle cx="30" cy="195" fill="white" r="4" stroke="gray" stroke-width="1"/>
<line stroke="gray" stroke-width="1" x1="60" x2="60" y1="210" y2="225"/>
<path d="M60,210 L60,210 Q60,217.5,52.5,217.5 Q45,217.5,45,225 L45,240" fill="none" stroke="purple" stroke-width="1"/>
<circle cx="60" cy="210" fill="white" r="4" stroke="gray" stroke-width="1"/>
<path d="M60,225 L60,375 Q60,382.5,67.5,382.5 Q75,382.5,75,390 L75,390" fill="none" stroke="gray" stroke-width="1"/>
<circle cx="60" cy="225" fill="gray" r="4" stroke="gray" stroke-width="1"/>
<line stroke="purple" stroke-width="1" x1="45" x2="45" y1="240" y2="285"/>
<circle cx="45" cy="240" fill="purple" r="4" stroke="purple" stroke-width="1"/>
<line stroke="gray" stroke-width="1" x1="75" x2="75" y1="255" y2="270"/>
<circle cx="75" cy="255" fill="gray" r="4" stroke="gray" stroke-width="1"/>
<line stroke="gray" stroke-width="1" x1="75" x2="75" y1="270" y2="300"/>
<path d="M75,270 L75,270 Q75,277.5,60,277.5 Q45,277.5,45,285 L45,285" fill="none" stroke="purple" stroke-width="1"/>
<circle cx="75" cy="270" fill="white" r="4" stroke="gray" stroke-width="1"/>
<line stroke="purple" stroke-width="1" x1="45" x2="45" y1="285" y2="330"/>
<circle cx="45" cy="285" fill="purple" r="4" stroke="purple" stroke-width="1"/>
<line stroke="gray" stroke-width="1" x1="75" x2="75" y1="300" y2="315"/>
<path d="M75,300 L75,300 Q75,307.5,60,307.5 Q45,307.5,45,315 L45,330" fill="none" stroke="purple" stroke-width="1"/>
<circle cx="75" cy="300" fill="white" r="4" stroke="gray" stroke-width="1"/>
<line stroke="gray" stroke-width="1" x1="75" x2="75" y1="315" y2="390"/>
<circle cx="75" cy="315" fill="gray" r="4" stroke="gray" stroke-width="1"/>
<line stroke="purple" stroke-width="1" x1="45" x2="45" y1="330" y2="345"/>
<path d="M45,330 L45,330 Q45,337.5,60,337.5 Q75,337.5,75,345 L75,390" fill="none" stroke="gray" stroke-width="1"/>
<circle cx="45" cy="330" fill="white" r="4" stroke="purple" stroke-width="1"/>
<line stroke="purple" stroke-width="1" x1="45" x2="45" y1="345" y2="360"/>
<circle cx="45" cy="345" fill="purple" r="4" stroke="purple" stroke-width="1"/>
<line stroke="purple" stroke-width="1" x1="45" x2="45" y1="360" y2="405"/>
<circle cx="45" cy="360" fill="purple" r="4" stroke="purple" stroke-width="1"/>
<line stroke="gray" stroke-width="1" x1="30" x2="30" y1="375" y2="450"/>
<path d="M30,375 L30,375 Q30,382.5,52.5,382.5 Q75,382.5,75,390 L75,390" fill="none" stroke="gray" stroke-width="1"/>
<circle cx="30" cy="375" fill="white" r="4" stroke="gray" stroke-width="1"/>
<line stroke="gray" stroke-width="1" x1="75" x2="75" y1="390" y2="495"/>
<circle cx="75" cy="390" fill="gray" r="4" stroke="gray" stroke-width="1"/>
<line stroke="purple" stroke-width="1" x1="45" x2="45" y1="405" y2="420"/>
<circle cx="45" cy="405" fill="purple" r="4" stroke="purple" stroke-width="1"/>
<line stroke="purple" stroke-width="1" x1="45" x2="45" y1="420" y2="435"/>
<path d="M45,420 L45,420 Q45,427.5,37.5,427.5 Q30,427.5,30,435 L30,450" fill="none" stroke="gray" stroke-width="1"/>
<circle cx="45" cy="420" fill="white" r="4" stroke="purple" stroke-width="1"/>
<line stroke="purple" stroke-width="1" x1="45" x2="45" y1="435" y2="480"/>
<circle cx="45" cy="435" fill="purple" r="4" stroke="purple" stroke-width="1"/>
<line stroke="gray" stroke-width="1" x1="30" x2="30" y1="450" y2="465"/>
<circle cx="30" cy="450" fill="gray" r="4" stroke="gray" stroke-width="1"/>
<path d="M30,465 L30,510 Q30,517.5,37.5,517.5 Q45,517.5,45,525 L45,525" fill="none" stroke="gray" stroke-width="1"/>
<circle cx="30" cy="465" fill="gray" r="4" stroke="gray" stroke-width="1"/>
<line stroke="purple" stroke-width="1" x1="45" x2="45" y1="480" y2="525"/>
<path d="M45,480 L45,480 Q45,487.5,60,487.5 Q75,487.5,75,495 L75,495" fill="none" stroke="gray" stroke-width="1"/>
<circle cx="45" cy="480" fill="white" r="4" stroke="purple" stroke-width="1"/>
<line stroke="gray" stroke-width="1" x1="75" x2="75" y1="495" y2="510"/>
<circle cx="75" cy="495" fill="gray" r="4" stroke="gray" stroke-width="1"/>
<line stroke="gray" stroke-width="1" x1="75" x2="75" y1="510" y2="555"/>
<path d="M75,510 L75,510 Q75,517.5,67.5,517.5 Q60,517.5,60,525 L60,600" fill="none" stroke="purple" stroke-width="1"/>
<circle cx="75" cy="510" fill="white" r="4" stroke="gray" stroke-width="1"/>
<line stroke="purple" stroke-width="1" x1="45" x2="45" y1="525" y2="540"/>
<path d="M45,525 L45,525 Q45,532.5,60,532.5 Q75,532.5,75,540 L75,555" fill="none" stroke="gray" stroke-width="1"/>
<circle cx="45" cy="525" fill="white" r="4" stroke="purple" stroke-width="1"/>
<line stroke="purple" stroke-width="1" x1="45" x2="45" y1="540" y2="615"/>
<circle cx="45" cy="540" fill="purple" r="4" stroke="purple" stroke-width="1"/>
<line stroke="gray" stroke-width="1" x1="75" x2="75" y1="555" y2="570"/>
<circle cx="75" cy="555" fill="gray" r="4" stroke="gray" stroke-width="1"/>
<line stroke="gray" stroke-width="1" x1="75" x2="75" y1="570" y2="585"/>
<path d="M75,570 L75,570 Q75,577.5,60,577.5 Q45,577.5,45,585 L45,615" fill="none" stroke="purple" stroke-width="1"/>
<circle cx="75" cy="570" fill="white" r="4" stroke="gray" stroke-width="1"/>
<line stroke="gray" stroke-width="1" x1="75" x2="75" y1="585" y2="645"/>
<circle cx="75" cy="585" fill="gray" r="4" stroke="gray" stroke-width="1"/>
<line stroke="purple" stroke-width="1" x1="60" x2="60" y1="600" y2="630"/>
<circle cx="60" cy="600" fill="purple" r="4" stroke="purple" stroke-width="1"/>
<line stroke="purple" stroke-width="1" x1="45" x2="45" y1="615" y2="660"/>
<circle cx="45" cy="615" fill="purple" r="4" stroke="purple" stroke-width="1"/>
<line stroke="purple" stroke-width="1" x1="60" x2="60" y1="630" y2="705"/>
<path d="M60,630 L60,645 Q60,652.5,67.5,652.5 Q75,652.5,75,660 L75,690" fill="none" stroke="gray" stroke-width="1"/>
<circle cx="60" cy="630" fill="white" r="4" stroke="purple" stroke-width="1"/>
<line stroke="gray" stroke-width="1" x1="75" x2="75" y1="645" y2="690"/>
<path d="M75,645 L75,645 Q75,652.5,67.5,652.5 Q60,652.5,60,660 L60,705" fill="none" stroke="purple" stroke-width="1"/>
<circle cx="75" cy="645" fill="white" r="4" stroke="gray" stroke-width="1"/>
<line stroke="purple" stroke-width="1" x1="45" x2="45" y1="660" y2="675"/>
<path d="M45,660 L45,660 Q45,667.5,60,667.5 Q75,667.5,75,675 L75,690" fill="none" stroke="gray" stroke-width="1"/>
<circle cx="45" cy="660" fill="white" r="4" stroke="purple" stroke-width="1"/>
<line stroke="purple" stroke-width="1" x1="45" x2="45" y1="675" y2="945"/>
<path d="M45,675 L45,675 Q45,682.5,52.5,682.5 Q60,682.5,60,690 L60,705" fill="none" stroke="purple" stroke-width="1"/>
<circle cx="45" cy="675" fill="white" r="4" stroke="purple" stroke-width="1"/>
<line stroke="gray" stroke-width="1" x1="75" x2="75" y1="690" y2="795"/>
<circle cx="75" cy="690" fill="gray" r="4" stroke="gray" stroke-width="1"/>
<line stroke="purple" stroke-width="1" x1="60" x2="60" y1="705" y2="720"/>
<circle cx="60" cy="705" fill="purple" r="4" stroke="purple" stroke-width="1"/>
<line stroke="purple" stroke-width="1" x1="60" x2="60" y1="720" y2="735"/>
<path d="M60,720 L60,720 Q60,727.5,45,727.5 Q30,727.5,30,735 L30,750" fill="none" stroke="gray" stroke-width="1"/>
<circle cx="60" cy="720" fill="white" r="4" stroke="purple" stroke-width="1"/>
<line stroke="purple" stroke-width="1" x1="60" x2="60" y1="735" y2="765"/>
<circle cx="60" cy="735" fill="purple" r="4" stroke="purple" stroke-width="1"/>
<path d="M30,750 L30,750 Q30,757.5,45,757.5 Q60,757.5,60,765 L60,765" fill="none" stroke="gray" stroke-width="1"/>
<circle cx="30" cy="750" fill="gray" r="4" stroke="gray" stroke-width="1"/>
<line stroke="purple" stroke-width="1" x1="60" x2="60" y1="765" y2="780"/>
<path d="M60,765 L60,765 Q60,772.5,67.5,772.5 Q75,772.5,75,780 L75,795" fill="none" stroke="gray" stroke-width="1"/>
<circle cx="60" cy="765" fill="white" r="4" stroke="purple" stroke-width="1"/>
<line stroke="purple" stroke-width="1" x1="60" x2="60" y1="780" y2="810"/>
<circle cx="60" cy="780" fill="purple" r="4" stroke="purple" stroke-width="1"/>
<line stroke="gray" stroke-width="1" x1="75" x2="75" y1="795" y2="855"/>
<circle cx="75" cy="795" fill="gray" r="4" stroke="gray" stroke-width="1"/>
<line stroke="purple" stroke-width="1" x1="60" x2="60" y1="810" y2="825"/>
<circle cx="60" cy="810" fill="purple" r="4" stroke="purple" stroke-width="1"/>
<line stroke="purple" stroke-width="1" x1="60" x2="60" y1="825" y2="840"/>
<circle cx="60" cy="825" fill="purple" r="4" stroke="purple" stroke-width="1"/>
<line stroke="purple" stroke-width="1" x1="60" x2="60" y1="840" y2="975"/>
<path d="M60,840 L60,840 Q60,847.5,45,847.5 Q30,847.5,30,855 L30,870" fill="none" stroke="gray" stroke-width="1"/>
<circle cx="60" cy="840" fill="white" r="4" stroke="purple" stroke-width="1"/>
<line stroke="gray" stroke-width="1" x1="75" x2="75" y1="855" y2="960"/>
<path d="M75,855 L75,855 Q75,862.5,52.5,862.5 Q30,862.5,30,870 L30,870" fill="none" stroke="gray" stroke-width="1"/>
<circle cx="75" cy="855" fill="white" r="4" stroke="gray" stroke-width="1"/>
<line stroke="gray" stroke-width="1" x1="30" x2="30" y1="870" y2="885"/>
<circle cx="30" cy="870" fill="gray" r="4" stroke="gray" stroke-width="1"/>
<line stroke="gray" stroke-width="1" x1="30" x2="30" y1="885" y2="900"/>
<circle cx="30" cy="885" fill="gray" r="4" stroke="gray" stroke-width="1"/>
<line stroke="gray" stroke-width="1" x1="30" x2="30" y1="900" y2="915"/>
<circle cx="30" cy="900" fill="gray" r="4" stroke="gray" stroke-width="1"/>
<line stroke="gray" stroke-width="1" x1="30" x2="30" y1="915" y2="930"/>
<circle cx="30" cy="915" fill="gray" r="4" stroke="gray" stroke-width="1"/>
<path d="M30,930 L30,1005 Q30,1012.5,37.5,1012.5 Q45,1012.5,45,1020 L45,1020" fill="none" stroke="gray" stroke-width="1"/>
<circle cx="30" cy="930" fill="gray" r="4" stroke="gray" stroke-width="1"/>
<line stroke="purple" stroke-width="1" x1="45" x2="45" y1="945" y2="1020"/>
<circle cx="45" cy="945" fill="purple" r="4" stroke="purple" stroke-width="1"/>
<line stroke="gray" stroke-width="1" x1="75" x2="75" y1="960" y2="1005"/>
<path d="M75,960 L75,960 Q75,967.5,60,967.5 Q45,967.5,45,975 L45,1020" fill="none" stroke="purple" stroke-width="1"/>
<circle cx="75" cy="960" fill="white" r="4" stroke="gray" stroke-width="1"/>
<line stroke="purple" stroke-width="1" x1="60" x2="60" y1="975" y2="990"/>
<circle cx="60" cy="975" fill="purple" r="4" stroke="purple" stroke-width="1"/>
<line stroke="purple" stroke-width="1" x1="60" x2="60" y1="990" y2="1035"/>
<path d="M60,990 L60,990 Q60,997.5,52.5,997.5 Q45,997.5,45,1005 L45,1020" fill="none" stroke="purple" stroke-width="1"/>
<circle cx="60" cy="990" fill="white" r="4" stroke="purple" stroke-width="1"/>
<line stroke="gray" stroke-width="1" x1="75" x2="75" y1="1005" y2="1050"/>
<circle cx="75" cy="1005" fill="gray" r="4" stroke="gray" stroke-width="1"/>
<line stroke="purple" stroke-width="1" x1="45" x2="45" y1="1020" y2="1065"/>
<circle cx="45" cy="1020" fill="purple" r="4" stroke="purple" stroke-width="1"/>
<line stroke="purple" stroke-width="1" x1="60" x2="60" y1="1035" y2="1095"/>
<path d="M60,1035 L60,1035 Q60,1042.5,52.5,1042.5 Q45,1042.5,45,1050 L45,1065" fill="none" stroke="purple" stroke-width="1"/>
<circle cx="60" cy="1035" fill="white" r="4" stroke="purple" stroke-width="1"/>
<line stroke="gray" stroke-width="1" x1="75" x2="75" y1="1050" y2="1080"/>
<path d="M75,1050 L75,1050 Q75,1057.5,60,1057.5 Q45,1057.5,45,1065 L45,1065" fill="none" stroke="purple" stroke-width="1"/>
<circle cx="75" cy="1050" fill="white" r="4" stroke="gray" stroke-width="1"/>
<path d="M45,1065 L45,1095 Q45,1102.5,60,1102.5 Q75,1102.5,75,1110 L75,1110" fill="none" stroke="purple" stroke-width="1"/>
<circle cx="45" cy="1065" fill="purple" r="4" stroke="purple" stroke-width="1"/>
<line stroke="gray" stroke-width="1" x1="75" x2="75" y1="1080" y2="1110"/>
<circle cx="75" cy="1080" fill="gray" r="4" stroke="gray" stroke-width="1"/>
<line stroke="purple" stroke-width="1" x1="60" x2="60" y1="1095" y2="1170"/>
<path d="M60,1095 L60,1095 Q60,1102.5,67.5,1102.5 Q75,1102.5,75,1110 L75,1110" fill="none" stroke="gray" stroke-width="1"/>
<circle cx="60" cy="1095" fill="white" r="4" stroke="purple" stroke-width="1"/>
<line stroke="gray" stroke-width="1" x1="75" x2="75" y1="1110" y2="1125"/>
<circle cx="75" cy="1110" fill="gray" r="4" stroke="gray" stroke-width="1"/>
<line stroke="gray" stroke-width="1" x1="75" x2="75" y1="1125" y2="1140"/>
<circle cx="75" cy="1125" fill="gray" r="4" stroke="gray" stroke-width="1"/>
<line stroke="gray" stroke-width="1" x1="75" x2="75" y1="1140" y2="1155"/>
<circle cx="75" cy="1140" fill="gray" r="4" stroke="gray" stroke-width="1"/>
<line stroke="gray" stroke-width="1" x1="75" x2="75" y1="1155" y2="1200"/>
<path d="M75,1155 L75,1170 Q75,1177.5,67.5,1177.5 Q60,1177.5,60,1185 L60,1185" fill="none" stroke="purple" stroke-width="1"/>
<circle cx="75" cy="1155" fill="white" r="4" stroke="gray" stroke-width="1"/>
<line stroke="purple" stroke-width="1" x1="60" x2="60" y1="1170" y2="1185"/>
<circle cx="60" cy="1170" fill="purple" r="4" stroke="purple" stroke-width="1"/>
<line stroke="purple" stroke-width="1" x1="60" x2="60" y1="1185" y2="1260"/>
<circle cx="60" cy="1185" fill="purple" r="4" stroke="purple" stroke-width="1"/>
<line stroke="gray" stroke-width="1" x1="75" x2="75" y1="1200" y2="1230"/>
<path d="M75,1200 L75,1200 Q75,1207.5,60,1207.5 Q45,1207.5,45,1215 L45,1215" fill="none" stroke="turquoise" stroke-width="1"/>
<circle cx="75" cy="1200" fill="white" r="4" stroke="gray" stroke-width="1"/>
<line stroke="turquoise" stroke-width="1" x1="45" x2="45" y1="1215" y2="1305"/>
<circle cx="45" cy="1215" fill="turquoise" r="4" stroke="turquoise" stroke-width="1"/>
<line stroke="gray" stroke-width="1" x1="75" x2="75" y1="1230" y2="1245"/>
<circle cx="75" cy="1230" fill="gray" r="4" stroke="gray" stroke-width="1"/>
<line stroke="gray" stroke-width="1" x1="75" x2="75" y1="1245" y2="1320"/>
<circle cx="75" cy="1245" fill="gray" r="4" stroke="gray" stroke-width="1"/>
<line stroke="purple" stroke-width="1" x1="60" x2="60" y1="1260" y2="1275"/>
<circle cx="60" cy="1260" fill="purple" r="4" stroke="purple" stroke-width="1"/>
<line stroke="purple" stroke-width="1" x1="60" x2="60" y1="1275" y2="1290"/>
<path d="M60,1275 L60,1320 Q60,1327.5,67.5,1327.5 Q75,1327.5,75,1335 L75,1335" fill="none" stroke="gray" stroke-width="1"/>
<circle cx="60" cy="1275" fill="white" r="4" stroke="purple" stroke-width="1"/>
<line stroke="purple" stroke-width="1" x1="60" x2="60" y1="1290" y2="1410"/>
<circle cx="60" cy="1290" fill="purple" r="4" stroke="purple" stroke-width="1"/>
<line stroke="turquoise" stroke-width="1" x1="45" x2="45" y1="1305" y2="1365"/>
<path d="M45,1305 L45,1320 Q45,1327.5,60,1327.5 Q75,1327.5,75,1335 L75,1335" fill="none" stroke="gray" stroke-width="1"/>
<circle cx="45" cy="1305" fill="white" r="4" stroke="turquoise" stroke-width="1"/>
<line stroke="gray" stroke-width="1" x1="75" x2="75" y1="1320" y2="1335"/>
<path d="M75,1320 L75,1320 Q75,1327.5,60,1327.5 Q45,1327.5,45,1335 L45,1365" fill="none" stroke="turquoise" stroke-width="1"/>
<circle cx="75" cy="1320" fill="white" r="4" stroke="gray" stroke-width="1"/>
<line stroke="gray" stroke-width="1" x1="75" x2="75" y1="1335" y2="1350"/>
<circle cx="75" cy="1335" fill="gray" r="4" stroke="gray" stroke-width="1"/>
<line stroke="gray" stroke-width="1" x1="75" x2="75" y1="1350" y2="1440"/>
<circle cx="75" cy="1350" fill="gray" r="4" stroke="gray" stroke-width="1"/>
<line stroke="turquoise" stroke-width="1" x1="45" x2="45" y1="1365" y2="1380"/>
<circle cx="45" cy="1365" fill="turquoise" r="4" stroke="turquoise" stroke-width="1"/>
<line stroke="turquoise" stroke-width="1" x1="45" x2="45" y1="1380" y2="1395"/>
<circle cx="45" cy="1380" fill="turquoise" r="4" stroke="turquoise" stroke-width="1"/>
<line stroke="turquoise" stroke-width="1" x1="45" x2="45" y1="1395" y2="1425"/>
<path d="M45,1395 L45,1395 Q45,1402.5,37.5,1402.5 Q30,1402.5,30,1410 L30,1470" fill="none" stroke="gray" stroke-width="1"/>
<circle cx="45" cy="1395" fill="white" r="4" stroke="turquoise" stroke-width="1"/>
<line stroke="purple" stroke-width="1" x1="60" x2="60" y1="1410" y2="1500"/>
<circle cx="60" cy="1410" fill="purple" r="4" stroke="purple" stroke-width="1"/>
<line stroke="turquoise" stroke-width="1" x1="45" x2="45" y1="1425" y2="1515"/>
<path d="M45,1425 L45,1425 Q45,1432.5,52.5,1432.5 Q60,1432.5,60,1440 L60,1500" fill="none" stroke="purple" stroke-width="1"/>
<circle cx="45" cy="1425" fill="white" r="4" stroke="turquoise" stroke-width="1"/>
<line stroke="gray" stroke-width="1" x1="75" x2="75" y1="1440" y2="1455"/>
<path d="M75,1440 L75,1440 Q75,1447.5,52.5,1447.5 Q30,1447.5,30,1455 L30,1470" fill="none" stroke="gray" stroke-width="1"/>
<circle cx="75" cy="1440" fill="white" r="4" stroke="gray" stroke-width="1"/>
<line stroke="gray" stroke-width="1" x1="75" x2="75" y1="1455" y2="1680"/>
<circle cx="75" cy="1455" fill="gray" r="4" stroke="gray" stroke-width="1"/>
<line stroke="gray" stroke-width="1" x1="30" x2="30" y1="1470" y2="1485"/>
<circle cx="30" cy="1470" fill="gray" r="4" stroke="gray" stroke-width="1"/>
<path d="M30,1485 L30,1485 Q30,1492.5,37.5,1492.5 Q45,1492.5,45,1500 L45,1515" fill="none" stroke="turquoise" stroke-width="1"/>
<path d="M30,1485 L30,1485 Q30,1492.5,45,1492.5 Q60,1492.5,60,1500 L60,1500" fill="none" stroke="purple" stroke-width="1"/>
<circle cx="30" cy="1485" fill="white" r="4" stroke="gray" stroke-width="1"/>
<line stroke="purple" stroke-width="1" x1="60" x2="60" y1="1500" y2="1545"/>
<circle cx="60" cy="1500" fill="purple" r="4" stroke="purple" stroke-width="1"/>
<line stroke="turquoise" stroke-width="1" x1="45" x2="45" y1="1515" y2="1530"/>
<circle cx="45" cy="1515" fill="turquoise" r="4" stroke="turquoise" stroke-width="1"/>
<line stroke="turquoise" stroke-width="1" x1="45" x2="45" y1="1530" y2="1560"/>
<path d="M45,1530 L45,1530 Q45,1537.5,52.5,1537.5 Q60,1537.5,60,1545 L60,1545" fill="none" stroke="purple" stroke-width="1"/>
<circle cx="45" cy="1530" fill="white" r="4" stroke="turquoise" stroke-width="1"/>
<line stroke="purple" stroke-width="1" x1="60" x2="60" y1="1545" y2="1620"/>
<circle cx="60" cy="1545" fill="purple" r="4" stroke="purple" stroke-width="1"/>
<line stroke="turquoise" stroke-width="1" x1="45" x2="45" y1="1560" y2="1575"/>
<circle cx="45" cy="1560" fill="turquoise" r="4" stroke="turquoise" stroke-width="1"/>
<line stroke="turquoise" stroke-width="1" x1="45" x2="45" y1="1575" y2="1590"/>
<circle cx="45" cy="1575" fill="turquoise" r="4" stroke="turquoise" stroke-width="1"/>
<line stroke="turquoise" stroke-width="1" x1="45" x2="45" y1="1590" y2="1605"/>
<circle cx="45" cy="1590" fill="turquoise" r="4" stroke="turquoise" stroke-width="1"/>
<path d="M45,1605 L45,1605 Q45,1612.5,52.5,1612.5 Q60,1612.5,60,1620 L60,1620" fill="none" stroke="turquoise" stroke-width="1"/>
<circle cx="45" cy="1605" fill="turquoise" r="4" stroke="turquoise" stroke-width="1"/>
<line stroke="purple" stroke-width="1" x1="60" x2="60" y1="1620" y2="1635"/>
<circle cx="60" cy="1620" fill="purple" r="4" stroke="purple" stroke-width="1"/>
<line stroke="purple" stroke-width="1" x1="60" x2="60" y1="1635" y2="1650"/>
<circle cx="60" cy="1635" fill="purple" r="4" stroke="purple" stroke-width="1"/>
<line stroke="purple" stroke-width="1" x1="60" x2="60" y1="1650" y2="1665"/>
<circle cx="60" cy="1650" fill="purple" r="4" stroke="purple" stroke-width="1"/>
<line stroke="purple" stroke-width="1" x1="60" x2="60" y1="1665" y2="1695"/>
<path d="M60,1665 L60,1665 Q60,1672.5,67.5,1672.5 Q75,1672.5,75,1680 L75,1680" fill="none" stroke="gray" stroke-width="1"/>
<circle cx="60" cy="1665" fill="white" r="4" stroke="purple" stroke-width="1"/>
<path d="M75,1680 L75,1710 Q75,1717.5,82.5,1717.5 Q90,1717.5,90,1725 L90,1725" fill="none" stroke="gray" stroke-width="1"/>
<circle cx="75" cy="1680" fill="gray" r="4" stroke="gray" stroke-width="1"/>
<line stroke="purple" stroke-width="1" x1="60" x2="60" y1="1695" y2="1710"/>
<path d="M60,1695 L60,1695 Q60,1702.5,52.5,1702.5 Q45,1702.5,45,1710 L45,1890" fill="none" stroke="gray" stroke-width="1"/>
<circle cx="60" cy="1695" fill="white" r="4" stroke="purple" stroke-width="1"/>
<line stroke="purple" stroke-width="1" x1="60" x2="60" y1="1710" y2="1920"/>
<circle cx="60" cy="1710" fill="purple" r="4" stroke="purple" stroke-width="1"/>
<line stroke="gray" stroke-width="1" x1="90" x2="90" y1="1725" y2="1740"/>
<circle cx="90" cy="1725" fill="gray" r="4" stroke="gray" stroke-width="1"/>
<line stroke="gray" stroke-width="1" x1="90" x2="90" y1="1740" y2="1755"/>
<path d="M90,1740 L90,1740 Q90,1747.5,60,1747.5 Q30,1747.5,30,1755 L30,1770" fill="none" stroke="purple" stroke-width="1"/>
<circle cx="90" cy="1740" fill="white" r="4" stroke="gray" stroke-width="1"/>
<line stroke="gray" stroke-width="1" x1="90" x2="90" y1="1755" y2="1785"/>
<circle cx="90" cy="1755" fill="gray" r="4" stroke="gray" stroke-width="1"/>
<path d="M30,1770 L30,1770 Q30,1777.5,60,1777.5 Q90,1777.5,90,1785 L90,1785" fill="none" stroke="purple" stroke-width="1"/>
<circle cx="30" cy="1770" fill="purple" r="4" stroke="purple" stroke-width="1"/>
<line stroke="gray" stroke-width="1" x1="90" x2="90" y1="1785" y2="1800"/>
<circle cx="90" cy="1785" fill="gray" r="4" stroke="gray" stroke-width="1"/>
<line stroke="gray" stroke-width="1" x1="90" x2="90" y1="1800" y2="1815"/>
<path d="M90,1800 L90,1800 Q90,1807.5,60,1807.5 Q30,1807.5,30,1815 L30,1830" fill="none" stroke="turquoise" stroke-width="1"/>
<circle cx="90" cy="1800" fill="white" r="4" stroke="gray" stroke-width="1"/>
<line stroke="gray" stroke-width="1" x1="90" x2="90" y1="1815" y2="1845"/>
<circle cx="90" cy="1815" fill="gray" r="4" stroke="gray" stroke-width="1"/>
<path d="M30,1830 L30,1845 Q30,1852.5,60,1852.5 Q90,1852.5,90,1860 L90,1860" fill="none" stroke="turquoise" stroke-width="1"/>
<circle cx="30" cy="1830" fill="turquoise" r="4" stroke="turquoise" stroke-width="1"/>
<line stroke="gray" stroke-width="1" x1="90" x2="90" y1="1845" y2="1860"/>
<circle cx="90" cy="1845" fill="gray" r="4" stroke="gray" stroke-width="1"/>
<line stroke="gray" stroke-width="1" x1="90" x2="90" y1="1860" y2="1875"/>
<circle cx="90" cy="1860" fill="gray" r="4" stroke="gray" stroke-width="1"/>
<line stroke="gray" stroke-width="1" x1="90" x2="90" y1="1875" y2="1905"/>
<path d="M90,1875 L90,1875 Q90,1882.5,67.5,1882.5 Q45,1882.5,45,1890 L45,1890" fill="none" stroke="gray" stroke-width="1"/>
<circle cx="90" cy="1875" fill="white" r="4" stroke="gray" stroke-width="1"/>
<path d="M45,1890 L45,1965 Q45,1972.5,67.5,1972.5 Q90,1972.5,90,1980 L90,1980" fill="none" stroke="gray" stroke-width="1"/>
<circle cx="45" cy="1890" fill="gray" r="4" stroke="gray" stroke-width="1"/>
<line stroke="gray" stroke-width="1" x1="90" x2="90" y1="1905" y2="1980"/>
<circle cx="90" cy="1905" fill="gray" r="4" stroke="gray" stroke-width="1"/>
<line stroke="purple" stroke-width="1" x1="60" x2="60" y1="1920" y2="1935"/>
<circle cx="60" cy="1920" fill="purple" r="4" stroke="purple" stroke-width="1"/>
<line stroke="purple" stroke-width="1" x1="60" x2="60" y1="1935" y2="1950"/>
<circle cx="60" cy="1935" fill="purple" r="4" stroke="purple" stroke-width="1"/>
<line stroke="purple" stroke-width="1" x1="60" x2="60" y1="1950" y2="1965"/>
<circle cx="60" cy="1950" fill="purple" r="4" stroke="purple" stroke-width="1"/>
<path d="M60,1965 L60,1965 Q60,1972.5,75,1972.5 Q90,1972.5,90,1980 L90,1980" fill="none" stroke="purple" stroke-width="1"/>
<circle cx="60" cy="1965" fill="purple" r="4" stroke="purple" stroke-width="1"/>
<line stroke="gray" stroke-width="1" x1="90" x2="90" y1="1980" y2="1995"/>
<circle cx="90" cy="1980" fill="gray" r="4" stroke="gray" stroke-width="1"/>
<line stroke="gray" stroke-width="1" x1="90" x2="90" y1="1995" y2="2010"/>
<path d="M90,1995 L90,1995 Q90,2002.5,75,2002.5 Q60,2002.5,60,2010 L60,2040" fill="none" stroke="purple" stroke-width="1"/>
<circle cx="90" cy="1995" fill="white" r="4" stroke="gray" stroke-width="1"/>
<line stroke="gray" stroke-width="1" x1="90" x2="90" y1="2010" y2="2025"/>
<path d="M90,2010 L90,2070 Q90,2077.5,75,2077.5 Q60,2077.5,60,2085 L60,2115" fill="none" stroke="purple" stroke-width="1"/>
<circle cx="90" cy="2010" fill="white" r="4" stroke="gray" stroke-width="1"/>
<line stroke="gray" stroke-width="1" x1="90" x2="90" y1="2025" y2="2205"/>
<circle cx="90" cy="2025" fill="gray" r="4" stroke="gray" stroke-width="1"/>
<line stroke="purple" stroke-width="1" x1="60" x2="60" y1="2040" y2="2055"/>
<circle cx="60" cy="2040" fill="purple" r="4" stroke="purple" stroke-width="1"/>
<line stroke="purple" stroke-width="1" x1="60" x2="60" y1="2055" y2="2070"/>
<circle cx="60" cy="2055" fill="purple" r="4" stroke="purple" stroke-width="1"/>
<line stroke="purple" stroke-width="1" x1="60" x2="60" y1="2070" y2="2115"/>
<circle cx="60" cy="2070" fill="purple" r="4" stroke="purple" stroke-width="1"/>
<line stroke="gray" stroke-width="1" x1="30" x2="30" y1="2085" y2="2100"/>
<circle cx="30" cy="2085" fill="gray" r="4" stroke="gray" stroke-width="1"/>
<path d="M30,2100 L30,2190 Q30,2197.5,60,2197.5 Q90,2197.5,90,2205 L90,2205" fill="none" stroke="gray" stroke-width="1"/>
<circle cx="30" cy="2100" fill="gray" r="4" stroke="gray" stroke-width="1"/>
<line stroke="purple" stroke-width="1" x1="60" x2="60" y1="2115" y2="2130"/>
<circle cx="60" cy="2115" fill="purple" r="4" stroke="purple" stroke-width="1"/>
<line stroke="purple" stroke-width="1" x1="60" x2="60" y1="2130" y2="2145"/>
<circle cx="60" cy="2130" fill="purple" r="4" stroke="purple" stroke-width="1"/>
<line stroke="purple" stroke-width="1" x1="60" x2="60" y1="2145" y2="2160"/>
<path d="M60,2145 L60,2145 Q60,2152.5,52.5,2152.5 Q45,2152.5,45,2160 L45,2175" fill="none" stroke="gray" stroke-width="1"/>
<circle cx="60" cy="2145" fill="white" r="4" stroke="purple" stroke-width="1"/>
<line stroke="purple" stroke-width="1" x1="60" x2="60" y1="2160" y2="2190"/>
<circle cx="60" cy="2160" fill="purple" r="4" stroke="purple" stroke-width="1"/>
<line stroke="gray" stroke-width="1" x1="45" x2="45" y1="2175" y2="2265"/>
<circle cx="45" cy="2175" fill="gray" r="4" stroke="gray" stroke-width="1"/>
<line stroke="purple" stroke-width="1" x1="60" x2="60" y1="2190" y2="2295"/>
<path d="M60,2190 L60,2280 Q60,2287.5,52.5,2287.5 Q45,2287.5,45,2295 L45,2505" fill="none" stroke="gray" stroke-width="1"/>
<circle cx="60" cy="2190" fill="white" r="4" stroke="purple" stroke-width="1"/>
<line stroke="gray" stroke-width="1" x1="90" x2="90" y1="2205" y2="2220"/>
<path d="M90,2205 L90,2205 Q90,2212.5,60,2212.5 Q30,2212.5,30,2220 L30,2250" fill="none" stroke="purple" stroke-width="1"/>
<circle cx="90" cy="2205" fill="white" r="4" stroke="gray" stroke-width="1"/>
<line stroke="gray" stroke-width="1" x1="90" x2="90" y1="2220" y2="2235"/>
<path d="M90,2220 L90,2220 Q90,2227.5,67.5,2227.5 Q45,2227.5,45,2235 L45,2265" fill="none" stroke="gray" stroke-width="1"/>
<circle cx="90" cy="2220" fill="white" r="4" stroke="gray" stroke-width="1"/>
<line stroke="gray" stroke-width="1" x1="90" x2="90" y1="2235" y2="2310"/>
<circle cx="90" cy="2235" fill="gray" r="4" stroke="gray" stroke-width="1"/>
<line stroke="purple" stroke-width="1" x1="30" x2="30" y1="2250" y2="2325"/>
<circle cx="30" cy="2250" fill="purple" r="4" stroke="purple" stroke-width="1"/>
<line stroke="gray" stroke-width="1" x1="45" x2="45" y1="2265" y2="2280"/>
<circle cx="45" cy="2265" fill="gray" r="4" stroke="gray" stroke-width="1"/>
<line stroke="gray" stroke-width="1" x1="45" x2="45" y1="2280" y2="2505"/>
<path d="M45,2280 L45,2280 Q45,2287.5,52.5,2287.5 Q60,2287.5,60,2295 L60,2295" fill="none" stroke="purple" stroke-width="1"/>
<circle cx="45" cy="2280" fill="white" r="4" stroke="gray" stroke-width="1"/>
<line stroke="purple" stroke-width="1" x1="60" x2="60" y1="2295" y2="2430"/>
<circle cx="60" cy="2295" fill="purple" r="4" stroke="purple" stroke-width="1"/>
<line stroke="gray" stroke-width="1" x1="90" x2="90" y1="2310" y2="2355"/>
<circle cx="90" cy="2310" fill="gray" r="4" stroke="gray" stroke-width="1"/>
<line stroke="purple" stroke-width="1" x1="30" x2="30" y1="2325" y2="2340"/>
<circle cx="30" cy="2325" fill="purple" r="4" stroke="purple" stroke-width="1"/>
<line stroke="purple" stroke-width="1" x1="30" x2="30" y1="2340" y2="2385"/>
<circle cx="30" cy="2340" fill="purple" r="4" stroke="purple" stroke-width="1"/>
<line stroke="gray" stroke-width="1" x1="90" x2="90" y1="2355" y2="2370"/>
<path d="M90,2355 L90,2355 Q90,2362.5,75,2362.5 Q60,2362.5,60,2370 L60,2430" fill="none" stroke="purple" stroke-width="1"/>
<circle cx="90" cy="2355" fill="white" r="4" stroke="gray" stroke-width="1"/>
<line stroke="gray" stroke-width="1" x1="90" x2="90" y1="2370" y2="2460"/>
<path d="M90,2370 L90,2550 Q90,2557.5,75,2557.5 Q60,2557.5,60,2565 L60,2595" fill="none" stroke="purple" stroke-width="1"/>
<circle cx="90" cy="2370" fill="white" r="4" stroke="gray" stroke-width="1"/>
<line stroke="purple" stroke-width="1" x1="30" x2="30" y1="2385" y2="2400"/>
<path d="M30,2385 L30,2385 Q30,2392.5,45,2392.5 Q60,2392.5,60,2400 L60,2430" fill="none" stroke="purple" stroke-width="1"/>
<circle cx="30" cy="2385" fill="white" r="4" stroke="purple" stroke-width="1"/>
<line stroke="purple" stroke-width="1" x1="30" x2="30" y1="2400" y2="2415"/>
<circle cx="30" cy="2400" fill="purple" r="4" stroke="purple" stroke-width="1"/>
<line stroke="purple" stroke-width="1" x1="30" x2="30" y1="2415" y2="2580"/>
<circle cx="30" cy="2415" fill="purple" r="4" stroke="purple" stroke-width="1"/>
<line stroke="purple" stroke-width="1" x1="60" x2="60" y1="2430" y2="2445"/>
<circle cx="60" cy="2430" fill="purple" r="4" stroke="purple" stroke-width="1"/>
<line stroke="purple" stroke-width="1" x1="60" x2="60" y1="2445" y2="2550"/>
<path d="M60,2445 L60,2490 Q60,2497.5,75,2497.5 Q90,2497.5,90,2505 L90,2535" fill="none" stroke="gray" stroke-width="1"/>
<circle cx="60" cy="2445" fill="white" r="4" stroke="purple" stroke-width="1"/>
<line stroke="gray" stroke-width="1" x1="90" x2="90" y1="2460" y2="2475"/>
<path d="M90,2460 L90,2460 Q90,2467.5,60,2467.5 Q30,2467.5,30,2475 L30,2580" fill="none" stroke="purple" stroke-width="1"/>
<circle cx="90" cy="2460" fill="white" r="4" stroke="gray" stroke-width="1"/>
<line stroke="gray" stroke-width="1" x1="90" x2="90" y1="2475" y2="2490"/>
<circle cx="90" cy="2475" fill="gray" r="4" stroke="gray" stroke-width="1"/>
<line stroke="gray" stroke-width="1" x1="90" x2="90" y1="2490" y2="2535"/>
<path d="M90,2490 L90,2505 Q90,2512.5,67.5,2512.5 Q45,2512.5,45,2520 L45,2520" fill="none" stroke="gray" stroke-width="1"/>
<circle cx="90" cy="2490" fill="white" r="4" stroke="gray" stroke-width="1"/>
<line stroke="gray" stroke-width="1" x1="45" x2="45" y1="2505" y2="2520"/>
<path d="M45,2505 L45,2505 Q45,2512.5,67.5,2512.5 Q90,2512.5,90,2520 L90,2535" fill="none" stroke="gray" stroke-width="1"/>
<circle cx="45" cy="2505" fill="white" r="4" stroke="gray" stroke-width="1"/>
<line stroke="gray" stroke-width="1" x1="45" x2="45" y1="2520" y2="2610"/>
<circle cx="45" cy="2520" fill="gray" r="4" stroke="gray" stroke-width="1"/>
<line stroke="gray" stroke-width="1" x1="90" x2="90" y1="2535" y2="2565"/>
<circle cx="90" cy="2535" fill="gray" r="4" stroke="gray" stroke-width="1"/>
<line stroke="purple" stroke-width="1" x1="60" x2="60" y1="2550" y2="2595"/>
<path d="M60,2550 L60,2550 Q60,2557.5,45,2557.5 Q30,2557.5,30,2565 L30,2580" fill="none" stroke="purple" stroke-width="1"/>
<circle cx="60" cy="2550" fill="white" r="4" stroke="purple" stroke-width="1"/>
<line stroke="gray" stroke-width="1" x1="90" x2="90" y1="2565" y2="2655"/>
<path d="M90,2565 L90,2595 Q90,2602.5,75,2602.5 Q60,2602.5,60,2610 L60,2640" fill="none" stroke="purple" stroke-width="1"/>
<circle cx="90" cy="2565" fill="white" r="4" stroke="gray" stroke-width="1"/>
<path d="M30,2580 L30,2625 Q30,2632.5,45,2632.5 Q60,2632.5,60,2640 L60,2640" fill="none" stroke="purple" stroke-width="1"/>
<circle cx="30" cy="2580" fill="purple" r="4" stroke="purple" stroke-width="1"/>
<line stroke="purple" stroke-width="1" x1="60" x2="60" y1="2595" y2="2640"/>
<path d="M60,2595 L60,2595 Q60,2602.5,75,2602.5 Q90,2602.5,90,2610 L90,2655" fill="none" stroke="gray" stroke-width="1"/>
<circle cx="60" cy="2595" fill="white" r="4" stroke="purple" stroke-width="1"/>
<line stroke="gray" stroke-width="1" x1="45" x2="45" y1="2610" y2="2625"/>
<path d="M45,2610 L45,2610 Q45,2617.5,52.5,2617.5 Q60,2617.5,60,2625 L60,2640" fill="none" stroke="purple" stroke-width="1"/>
<circle cx="45" cy="2610" fill="white" r="4" stroke="gray" stroke-width="1"/>
<path d="M45,2625 L45,2640 Q45,2647.5,67.5,2647.5 Q90,2647.5,90,2655 L90,2655" fill="none" stroke="gray" stroke-width="1"/>
<circle cx="45" cy="2625" fill="gray" r="4" stroke="gray" stroke-width="1"/>
<path d="M60,2640 L60,2655 Q60,2662.5,75,2662.5 Q90,2662.5,90,2670 L90,2670" fill="none" stroke="purple" stroke-width="1"/>
<circle cx="60" cy="2640" fill="purple" r="4" stroke="purple" stroke-width="1"/>
<line stroke="gray" stroke-width="1" x1="90" x2="90" y1="2655" y2="2670"/>
<circle cx="90" cy="2655" fill="gray" r="4" stroke="gray" stroke-width="1"/>
<line stroke="gray" stroke-width="1" x1="90" x2="90" y1="2670" y2="2685"/>
<circle cx="90" cy="2670" fill="gray" r="4" stroke="gray" stroke-width="1"/>
<line stroke="gray" stroke-width="1" x1="90" x2="90" y1="2685" y2="2700"/>
<circle cx="90" cy="2685" fill="gray" r="4" stroke="gray" stroke-width="1"/>
<line stroke="gray" stroke-width="1" x1="90" x2="90" y1="2700" y2="2715"/>
<circle cx="90" cy="2700" fill="gray" r="4" stroke="gray" stroke-width="1"/>
<line stroke="gray" stroke-width="1" x1="90" x2="90" y1="2715" y2="2730"/>
<path d="M90,2715 L90,2715 Q90,2722.5,60,2722.5 Q30,2722.5,30,2730 L30,2760" fill="none" stroke="turquoise" stroke-width="1"/>
<circle cx="90" cy="2715" fill="white" r="4" stroke="gray" stroke-width="1"/>
<line stroke="gray" stroke-width="1" x1="90" x2="90" y1="2730" y2="2745"/>
<circle cx="90" cy="2730" fill="gray" r="4" stroke="gray" stroke-width="1"/>
<line stroke="gray" stroke-width="1" x1="90" x2="90" y1="2745" y2="2805"/>
<path d="M90,2745 L90,2790 Q90,2797.5,60,2797.5 Q30,2797.5,30,2805 L30,2820" fill="none" stroke="turquoise" stroke-width="1"/>
<circle cx="90" cy="2745" fill="white" r="4" stroke="gray" stroke-width="1"/>
<line stroke="turquoise" stroke-width="1" x1="30" x2="30" y1="2760" y2="2775"/>
<circle cx="30" cy="2760" fill="turquoise" r="4" stroke="turquoise" stroke-width="1"/>
<line stroke="turquoise" stroke-width="1" x1="30" x2="30" y1="2775" y2="2790"/>
<path d="M30,2775 L30,2775 Q30,2782.5,60,2782.5 Q90,2782.5,90,2790 L90,2805" fill="none" stroke="gray" stroke-width="1"/>
<circle cx="30" cy="2775" fill="white" r="4" stroke="turquoise" stroke-width="1"/>
<line stroke="turquoise" stroke-width="1" x1="30" x2="30" y1="2790" y2="2820"/>
<circle cx="30" cy="2790" fill="turquoise" r="4" stroke="turquoise" stroke-width="1"/>
<line stroke="gray" stroke-width="1" x1="90" x2="90" y1="2805" y2="2835"/>
<circle cx="90" cy="2805" fill="gray" r="4" stroke="gray" stroke-width="1"/>
<path d="M30,2820 L30,2820 Q30,2827.5,60,2827.5 Q90,2827.5,90,2835 L90,2835" fill="none" stroke="turquoise" stroke-width="1"/>
<circle cx="30" cy="2820" fill="turquoise" r="4" stroke="turquoise" stroke-width="1"/>
<line stroke="gray" stroke-width="1" x1="90" x2="90" y1="2835" y2="2850"/>
<circle cx="90" cy="2835" fill="gray" r="4" stroke="gray" stroke-width="1"/>
<path d="M90,2850 L90,2850 Q90,2857.5,52.5,2857.5 Q15,2857.5,15,2865 L15,2865" fill="none" stroke="gray" stroke-width="1"/>
<circle cx="90" cy="2850" fill="gray" r="4" stroke="gray" stroke-width="1"/>
<circle cx="15" cy="2865" fill="blue" r="4" stroke="blue" stroke-width="1"/>
</svg>
