<svg height="2985" viewBox="0 0 150 2985" width="150" xmlns="http://www.w3.org/2000/svg">
<line stroke="blue" stroke-width="1" x1="15" x2="15" y1="15" y2="45"/>
<path d="M15,15 L15,15 Q15,22.5,30,22.5 Q45,22.5,45,30 L45,30" fill="none" stroke="gray" stroke-width="1"/>
<circle cx="15" cy="15" fill="white" r="4" stroke="blue" stroke-width="1"/>
<path d="M45,30 L45,30 Q45,37.5,30,37.5 Q15,37.5,15,45 L15,45" fill="none" stroke="gray" stroke-width="1"/>
<circle cx="45" cy="30" fill="gray" r="4" stroke="gray" stroke-width="1"/>
<path d="M15,45 L15,45 Q15,52.5,22.5,52.5 Q30,52.5,30,60 L30,90" fill="none" stroke="blue" stroke-width="1"/>
<path d="M15,45 L15,45 Q15,52.5,30,52.5 Q45,52.5,45,60 L45,60" fill="none" stroke="gray" stroke-width="1"/>
<circle cx="15" cy="45" fill="white" r="4" stroke="blue" stroke-width="1"/>
<line stroke="gray" stroke-width="1" x1="45" x2="45" y1="60" y2="75"/>
<circle cx="45" cy="60" fill="gray" r="4" stroke="gray" stroke-width="1"/>
<path d="M45,75 L45,75 Q45,82.5,37.5,82.5 Q30,82.5,30,90 L30,90" fill="none" stroke="gray" stroke-width="1"/>
<circle cx="45" cy="75" fill="gray" r="4" stroke="gray" stroke-width="1"/>
<line stroke="blue" stroke-width="1" x1="30" x2="30" y1="90" y2="150"/>
<path d="M30,90 L30,90 Q30,97.5,37.5,97.5 Q45,97.5,45,105 L45,105" fill="none" stroke="gray" stroke-width="1"/>
<circle cx="30" cy="90" fill="white" r="4" stroke="blue" stroke-width="1"/>
<line stroke="gray" stroke-width="1" x1="45" x2="45" y1="105" y2="120"/>
<circle cx="45" cy="105" fill="gray" r="4" stroke="gray" stroke-width="1"/>
<line stroke="gray" stroke-width="1" x1="45" x2="45" y1="120" y2="135"/>
<path d="M45,120 L45,120 Q45,127.5,37.5,127.5 Q30,127.5,30,135 L30,150" fill="none" stroke="blue" stroke-width="1"/>
<circle cx="45" cy="120" fill="white" r="4" stroke="gray" stroke-width="1"/>
<path d="M45,135 L45,240 Q45,247.5,37.5,247.5 Q30,247.5,30,255 L30,255" fill="none" stroke="gray" stroke-width="1"/>
<circle cx="45" cy="135" fill="gray" r="4" stroke="gray" stroke-width="1"/>
<line stroke="blue" stroke-width="1" x1="30" x2="30" y1="150" y2="180"/>
<path d="M30,150 L30,150 Q30,157.5,60,157.5 Q90,157.5,90,165 L90,165" fill="none" stroke="gray" stroke-width="1"/>
<circle cx="30" cy="150" fill="white" r="4" stroke="blue" stroke-width="1"/>
<line stroke="gray" stroke-width="1" x1="90" x2="90" y1="165" y2="195"/>
<path d="M90,165 L90,165 Q90,172.5,60,172.5 Q30,172.5,30,180 L30,180" fill="none" stroke="blue" stroke-width="1"/>
<circle cx="90" cy="165" fill="white" r="4" stroke="gray" stroke-width="1"/>
<line stroke="blue" stroke-width="1" x1="30" x2="30" y1="180" y2="255"/>
<path d="M30,180 L30,180 Q30,187.5,45,187.5 Q60,187.5,60,195 L60,210" fill="none" stroke="gray" stroke-width="1"/>
<circle cx="30" cy="180" fill="white" r="4" stroke="blue" stroke-width="1"/>
<line stroke="gray" stroke-width="1" x1="90" x2="90" y1="195" y2="270"/>
<circle cx="90" cy="195" fill="gray" r="4" stroke="gray" stroke-width="1"/>
<line stroke="gray" stroke-width="1" x1="60" x2="60" y1="210" y2="225"/>
<circle cx="60" cy="210" fill="gray" r="4" stroke="gray" stroke-width="1"/>
<line stroke="gray" stroke-width="1" x1="60" x2="60" y1="225" y2="240"/>
<path d="M60,225 L60,225 Q60,232.5,45,232.5 Q30,232.5,30,240 L30,255" fill="none" stroke="blue" stroke-width="1"/>
<circle cx="60" cy="225" fill="white" r="4" stroke="gray" stroke-width="1"/>
<line stroke="gray" stroke-width="1" x1="60" x2="60" y1="240" y2="390"/>
<circle cx="60" cy="240" fill="gray" r="4" stroke="gray" stroke-width="1"/>
<line stroke="blue" stroke-width="1" x1="30" x2="30" y1="255" y2="285"/>
<path d="M30,255 L30,255 Q30,262.5,60,262.5 Q90,262.5,90,270 L90,270" fill="none" stroke="gray" stroke-width="1"/>
<circle cx="30" cy="255" fill="white" r="4" stroke="blue" stroke-width="1"/>
<line stroke="gray" stroke-width="1" x1="90" x2="90" y1="270" y2="330"/>
<path d="M90,270 L90,270 Q90,277.5,60,277.5 Q30,277.5,30,285 L30,285" fill="none" stroke="blue" stroke-width="1"/>
<circle cx="90" cy="270" fill="white" r="4" stroke="gray" stroke-width="1"/>
<line stroke="blue" stroke-width="1" x1="30" x2="30" y1="285" y2="300"/>
<path d="M30,285 L30,285 Q30,292.5,45,292.5 Q60,292.5,60,300 L60,390" fill="none" stroke="gray" stroke-width="1"/>
<circle cx="30" cy="285" fill="white" r="4" stroke="blue" stroke-width="1"/>
<line stroke="blue" stroke-width="1" x1="30" x2="30" y1="300" y2="315"/>
<path d="M30,300 L30,300 Q30,307.5,52.5,307.5 Q75,307.5,75,315 L75,405" fill="none" stroke="gray" stroke-width="1"/>
<circle cx="30" cy="300" fill="white" r="4" stroke="blue" stroke-width="1"/>
<line stroke="blue" stroke-width="1" x1="30" x2="30" y1="315" y2="480"/>
<path d="M30,315 L30,315 Q30,322.5,37.5,322.5 Q45,322.5,45,330 L45,450" fill="none" stroke="gray" stroke-width="1"/>
<circle cx="30" cy="315" fill="white" r="4" stroke="blue" stroke-width="1"/>
<line stroke="gray" stroke-width="1" x1="90" x2="90" y1="330" y2="345"/>
<circle cx="90" cy="330" fill="gray" r="4" stroke="gray" stroke-width="1"/>
<line stroke="gray" stroke-width="1" x1="90" x2="90" y1="345" y2="360"/>
<path d="M90,345 L90,345 Q90,352.5,60,352.5 Q30,352.5,30,360 L30,480" fill="none" stroke="blue" stroke-width="1"/>
<circle cx="90" cy="345" fill="white" r="4" stroke="gray" stroke-width="1"/>
<line stroke="gray" stroke-width="1" x1="90" x2="90" y1="360" y2="375"/>
<circle cx="90" cy="360" fill="gray" r="4" stroke="gray" stroke-width="1"/>
<line stroke="gray" stroke-width="1" x1="90" x2="90" y1="375" y2="510"/>
<circle cx="90" cy="375" fill="gray" r="4" stroke="gray" stroke-width="1"/>
<line stroke="gray" stroke-width="1" x1="60" x2="60" y1="390" y2="435"/>
<path d="M60,390 L60,390 Q60,397.5,45,397.5 Q30,397.5,30,405 L30,480" fill="none" stroke="blue" stroke-width="1"/>
<circle cx="60" cy="390" fill="white" r="4" stroke="gray" stroke-width="1"/>
<line stroke="gray" stroke-width="1" x1="75" x2="75" y1="405" y2="420"/>
<path d="M75,405 L75,405 Q75,412.5,52.5,412.5 Q30,412.5,30,420 L30,480" fill="none" stroke="blue" stroke-width="1"/>
<circle cx="75" cy="405" fill="white" r="4" stroke="gray" stroke-width="1"/>
<line stroke="gray" stroke-width="1" x1="75" x2="75" y1="420" y2="600"/>
<circle cx="75" cy="420" fill="gray" r="4" stroke="gray" stroke-width="1"/>
<line stroke="gray" stroke-width="1" x1="60" x2="60" y1="435" y2="465"/>
<circle cx="60" cy="435" fill="gray" r="4" stroke="gray" stroke-width="1"/>
<path d="M45,450 L45,465 Q45,472.5,37.5,472.5 Q30,472.5,30,480 L30,480" fill="none" stroke="gray" stroke-width="1"/>
<circle cx="45" cy="450" fill="gray" r="4" stroke="gray" stroke-width="1"/>
<line stroke="gray" stroke-width="1" x1="60" x2="60" y1="465" y2="675"/>
<circle cx="60" cy="465" fill="gray" r="4" stroke="gray" stroke-width="1"/>
<line stroke="blue" stroke-width="1" x1="30" x2="30" y1="480" y2="495"/>
<path d="M30,480 L30,480 Q30,487.5,60,487.5 Q90,487.5,90,495 L90,510" fill="none" stroke="gray" stroke-width="1"/>
<circle cx="30" cy="480" fill="white" r="4" stroke="blue" stroke-width="1"/>
<line stroke="blue" stroke-width="1" x1="30" x2="30" y1="495" y2="585"/>
<path d="M30,495 L30,495 Q30,502.5,37.5,502.5 Q45,502.5,45,510 L45,555" fill="none" stroke="gray" stroke-width="1"/>
<circle cx="30" cy="495" fill="white" r="4" stroke="blue" stroke-width="1"/>
<line stroke="gray" stroke-width="1" x1="90" x2="90" y1="510" y2="525"/>
<circle cx="90" cy="510" fill="gray" r="4" stroke="gray" stroke-width="1"/>
<line stroke="gray" stroke-width="1" x1="90" x2="90" y1="525" y2="540"/>
<path d="M90,525 L90,525 Q90,532.5,60,532.5 Q30,532.5,30,540 L30,585" fill="none" stroke="blue" stroke-width="1"/>
<circle cx="90" cy="525" fill="white" r="4" stroke="gray" stroke-width="1"/>
<line stroke="gray" stroke-width="1" x1="90" x2="90" y1="540" y2="855"/>
<circle cx="90" cy="540" fill="gray" r="4" stroke="gray" stroke-width="1"/>
<line stroke="gray" stroke-width="1" x1="45" x2="45" y1="555" y2="570"/>
<path d="M45,555 L45,555 Q45,562.5,37.5,562.5 Q30,562.5,30,570 L30,585" fill="none" stroke="blue" stroke-width="1"/>
<circle cx="45" cy="555" fill="white" r="4" stroke="gray" stroke-width="1"/>
<line stroke="gray" stroke-width="1" x1="45" x2="45" y1="570" y2="630"/>
<circle cx="45" cy="570" fill="gray" r="4" stroke="gray" stroke-width="1"/>
<line stroke="blue" stroke-width="1" x1="30" x2="30" y1="585" y2="690"/>
<path d="M30,585 L30,585 Q30,592.5,52.5,592.5 Q75,592.5,75,600 L75,600" fill="none" stroke="gray" stroke-width="1"/>
<circle cx="30" cy="585" fill="white" r="4" stroke="blue" stroke-width="1"/>
<line stroke="gray" stroke-width="1" x1="75" x2="75" y1="600" y2="615"/>
<path d="M75,600 L75,600 Q75,607.5,52.5,607.5 Q30,607.5,30,615 L30,690" fill="none" stroke="blue" stroke-width="1"/>
<circle cx="75" cy="600" fill="white" r="4" stroke="gray" stroke-width="1"/>
<line stroke="gray" stroke-width="1" x1="75" x2="75" y1="615" y2="810"/>
<circle cx="75" cy="615" fill="gray" r="4" stroke="gray" stroke-width="1"/>
<line stroke="gray" stroke-width="1" x1="45" x2="45" y1="630" y2="645"/>
<circle cx="45" cy="630" fill="gray" r="4" stroke="gray" stroke-width="1"/>
<line stroke="gray" stroke-width="1" x1="45" x2="45" y1="645" y2="660"/>
<circle cx="45" cy="645" fill="gray" r="4" stroke="gray" stroke-width="1"/>
<line stroke="gray" stroke-width="1" x1="45" x2="45" y1="660" y2="720"/>
<path d="M45,660 L45,660 Q45,667.5,37.5,667.5 Q30,667.5,30,675 L30,690" fill="none" stroke="blue" stroke-width="1"/>
<circle cx="45" cy="660" fill="white" r="4" stroke="gray" stroke-width="1"/>
<path d="M60,675 L60,780 Q60,787.5,45,787.5 Q30,787.5,30,795 L30,795" fill="none" stroke="gray" stroke-width="1"/>
<circle cx="60" cy="675" fill="gray" r="4" stroke="gray" stroke-width="1"/>
<line stroke="blue" stroke-width="1" x1="30" x2="30" y1="690" y2="735"/>
<path d="M30,690 L30,690 Q30,697.5,67.5,697.5 Q105,697.5,105,705 L105,705" fill="none" stroke="gray" stroke-width="1"/>
<circle cx="30" cy="690" fill="white" r="4" stroke="blue" stroke-width="1"/>
<line stroke="gray" stroke-width="1" x1="105" x2="105" y1="705" y2="750"/>
<circle cx="105" cy="705" fill="gray" r="4" stroke="gray" stroke-width="1"/>
<path d="M45,720 L45,720 Q45,727.5,37.5,727.5 Q30,727.5,30,735 L30,735" fill="none" stroke="gray" stroke-width="1"/>
<circle cx="45" cy="720" fill="gray" r="4" stroke="gray" stroke-width="1"/>
<line stroke="blue" stroke-width="1" x1="30" x2="30" y1="735" y2="795"/>
<path d="M30,735 L30,735 Q30,742.5,67.5,742.5 Q105,742.5,105,750 L105,750" fill="none" stroke="gray" stroke-width="1"/>
<circle cx="30" cy="735" fill="white" r="4" stroke="blue" stroke-width="1"/>
<line stroke="gray" stroke-width="1" x1="105" x2="105" y1="750" y2="765"/>
<circle cx="105" cy="750" fill="gray" r="4" stroke="gray" stroke-width="1"/>
<line stroke="gray" stroke-width="1" x1="105" x2="105" y1="765" y2="780"/>
<path d="M105,765 L105,765 Q105,772.5,67.5,772.5 Q30,772.5,30,780 L30,795" fill="none" stroke="blue" stroke-width="1"/>
<circle cx="105" cy="765" fill="white" r="4" stroke="gray" stroke-width="1"/>
<line stroke="gray" stroke-width="1" x1="105" x2="105" y1="780" y2="1335"/>
<circle cx="105" cy="780" fill="gray" r="4" stroke="gray" stroke-width="1"/>
<line stroke="blue" stroke-width="1" x1="30" x2="30" y1="795" y2="825"/>
<path d="M30,795 L30,795 Q30,802.5,52.5,802.5 Q75,802.5,75,810 L75,810" fill="none" stroke="gray" stroke-width="1"/>
<circle cx="30" cy="795" fill="white" r="4" stroke="blue" stroke-width="1"/>
<line stroke="gray" stroke-width="1" x1="75" x2="75" y1="810" y2="840"/>
<path d="M75,810 L75,810 Q75,817.5,52.5,817.5 Q30,817.5,30,825 L30,825" fill="none" stroke="blue" stroke-width="1"/>
<circle cx="75" cy="810" fill="white" r="4" stroke="gray" stroke-width="1"/>
<line stroke="blue" stroke-width="1" x1="30" x2="30" y1="825" y2="885"/>
<path d="M30,825 L30,825 Q30,832.5,60,832.5 Q90,832.5,90,840 L90,855" fill="none" stroke="gray" stroke-width="1"/>
<circle cx="30" cy="825" fill="white" r="4" stroke="blue" stroke-width="1"/>
<line stroke="gray" stroke-width="1" x1="75" x2="75" y1="840" y2="1050"/>
<path d="M75,840 L75,840 Q75,847.5,52.5,847.5 Q30,847.5,30,855 L30,885" fill="none" stroke="blue" stroke-width="1"/>
<circle cx="75" cy="840" fill="white" r="4" stroke="gray" stroke-width="1"/>
<line stroke="gray" stroke-width="1" x1="90" x2="90" y1="855" y2="870"/>
<circle cx="90" cy="855" fill="gray" r="4" stroke="gray" stroke-width="1"/>
<line stroke="gray" stroke-width="1" x1="90" x2="90" y1="870" y2="975"/>
<path d="M90,870 L90,870 Q90,877.5,60,877.5 Q30,877.5,30,885 L30,885" fill="none" stroke="blue" stroke-width="1"/>
<circle cx="90" cy="870" fill="white" r="4" stroke="gray" stroke-width="1"/>
<line stroke="blue" stroke-width="1" x1="30" x2="30" y1="885" y2="1125"/>
<path d="M30,885 L30,885 Q30,892.5,45,892.5 Q60,892.5,60,900 L60,900" fill="none" stroke="gray" stroke-width="1"/>
<circle cx="30" cy="885" fill="white" r="4" stroke="blue" stroke-width="1"/>
<line stroke="gray" stroke-width="1" x1="60" x2="60" y1="900" y2="915"/>
<circle cx="60" cy="900" fill="gray" r="4" stroke="gray" stroke-width="1"/>
<line stroke="gray" stroke-width="1" x1="60" x2="60" y1="915" y2="930"/>
<path d="M60,915 L60,915 Q60,922.5,52.5,922.5 Q45,922.5,45,930 L45,945" fill="none" stroke="gray" stroke-width="1"/>
<circle cx="60" cy="915" fill="white" r="4" stroke="gray" stroke-width="1"/>
<line stroke="gray" stroke-width="1" x1="60" x2="60" y1="930" y2="960"/>
<circle cx="60" cy="930" fill="gray" r="4" stroke="gray" stroke-width="1"/>
<line stroke="gray" stroke-width="1" x1="45" x2="45" y1="945" y2="990"/>
<circle cx="45" cy="945" fill="gray" r="4" stroke="gray" stroke-width="1"/>
<line stroke="gray" stroke-width="1" x1="60" x2="60" y1="960" y2="1215"/>
<path d="M60,960 L60,960 Q60,967.5,45,967.5 Q30,967.5,30,975 L30,1125" fill="none" stroke="blue" stroke-width="1"/>
<circle cx="60" cy="960" fill="white" r="4" stroke="gray" stroke-width="1"/>
<line stroke="gray" stroke-width="1" x1="90" x2="90" y1="975" y2="1035"/>
<circle cx="90" cy="975" fill="gray" r="4" stroke="gray" stroke-width="1"/>
<line stroke="gray" stroke-width="1" x1="45" x2="45" y1="990" y2="1005"/>
<circle cx="45" cy="990" fill="gray" r="4" stroke="gray" stroke-width="1"/>
<line stroke="gray" stroke-width="1" x1="45" x2="45" y1="1005" y2="1020"/>
<path d="M45,1005 L45,1005 Q45,1012.5,37.5,1012.5 Q30,1012.5,30,1020 L30,1125" fill="none" stroke="blue" stroke-width="1"/>
<circle cx="45" cy="1005" fill="white" r="4" stroke="gray" stroke-width="1"/>
<line stroke="gray" stroke-width="1" x1="45" x2="45" y1="1020" y2="1065"/>
<circle cx="45" cy="1020" fill="gray" r="4" stroke="gray" stroke-width="1"/>
<line stroke="gray" stroke-width="1" x1="90" x2="90" y1="1035" y2="1095"/>
<circle cx="90" cy="1035" fill="gray" r="4" stroke="gray" stroke-width="1"/>
<path d="M75,1050 L75,1110 Q75,1117.5,52.5,1117.5 Q30,1117.5,30,1125 L30,1125" fill="none" stroke="gray" stroke-width="1"/>
<circle cx="75" cy="1050" fill="gray" r="4" stroke="gray" stroke-width="1"/>
<line stroke="gray" stroke-width="1" x1="45" x2="45" y1="1065" y2="1080"/>
<circle cx="45" cy="1065" fill="gray" r="4" stroke="gray" stroke-width="1"/>
<path d="M45,1080 L45,1080 Q45,1087.5,67.5,1087.5 Q90,1087.5,90,1095 L90,1095" fill="none" stroke="gray" stroke-width="1"/>
<circle cx="45" cy="1080" fill="gray" r="4" stroke="gray" stroke-width="1"/>
<line stroke="gray" stroke-width="1" x1="90" x2="90" y1="1095" y2="1110"/>
<circle cx="90" cy="1095" fill="gray" r="4" stroke="gray" stroke-width="1"/>
<path d="M90,1110 L90,1260 Q90,1267.5,60,1267.5 Q30,1267.5,30,1275 L30,1275" fill="none" stroke="gray" stroke-width="1"/>
<circle cx="90" cy="1110" fill="gray" r="4" stroke="gray" stroke-width="1"/>
<line stroke="blue" stroke-width="1" x1="30" x2="30" y1="1125" y2="1275"/>
<path d="M30,1125 L30,1125 Q30,1132.5,52.5,1132.5 Q75,1132.5,75,1140 L75,1140" fill="none" stroke="gray" stroke-width="1"/>
<circle cx="30" cy="1125" fill="white" r="4" stroke="blue" stroke-width="1"/>
<line stroke="gray" stroke-width="1" x1="75" x2="75" y1="1140" y2="1155"/>
<circle cx="75" cy="1140" fill="gray" r="4" stroke="gray" stroke-width="1"/>
<line stroke="gray" stroke-width="1" x1="75" x2="75" y1="1155" y2="1170"/>
<circle cx="75" cy="1155" fill="gray" r="4" stroke="gray" stroke-width="1"/>
<line stroke="gray" stroke-width="1" x1="75" x2="75" y1="1170" y2="1185"/>
<path d="M75,1170 L75,1170 Q75,1177.5,52.5,1177.5 Q30,1177.5,30,1185 L30,1275" fill="none" stroke="blue" stroke-width="1"/>
<circle cx="75" cy="1170" fill="white" r="4" stroke="gray" stroke-width="1"/>
<line stroke="gray" stroke-width="1" x1="75" x2="75" y1="1185" y2="1200"/>
<circle cx="75" cy="1185" fill="gray" r="4" stroke="gray" stroke-width="1"/>
<line stroke="gray" stroke-width="1" x1="75" x2="75" y1="1200" y2="1260"/>
<circle cx="75" cy="1200" fill="gray" r="4" stroke="gray" stroke-width="1"/>
<line stroke="gray" stroke-width="1" x1="60" x2="60" y1="1215" y2="1230"/>
<circle cx="60" cy="1215" fill="gray" r="4" stroke="gray" stroke-width="1"/>
<line stroke="gray" stroke-width="1" x1="60" x2="60" y1="1230" y2="1245"/>
<circle cx="60" cy="1230" fill="gray" r="4" stroke="gray" stroke-width="1"/>
<line stroke="gray" stroke-width="1" x1="60" x2="60" y1="1245" y2="1350"/>
<path d="M60,1245 L60,1245 Q60,1252.5,45,1252.5 Q30,1252.5,30,1260 L30,1275" fill="none" stroke="blue" stroke-width="1"/>
<circle cx="60" cy="1245" fill="white" r="4" stroke="gray" stroke-width="1"/>
<line stroke="gray" stroke-width="1" x1="75" x2="75" y1="1260" y2="1395"/>
<circle cx="75" cy="1260" fill="gray" r="4" stroke="gray" stroke-width="1"/>
<line stroke="blue" stroke-width="1" x1="30" x2="30" y1="1275" y2="1320"/>
<path d="M30,1275 L30,1275 Q30,1282.5,37.5,1282.5 Q45,1282.5,45,1290 L45,1290" fill="none" stroke="gray" stroke-width="1"/>
<circle cx="30" cy="1275" fill="white" r="4" stroke="blue" stroke-width="1"/>
<line stroke="gray" stroke-width="1" x1="45" x2="45" y1="1290" y2="1305"/>
<path d="M45,1290 L45,1290 Q45,1297.5,37.5,1297.5 Q30,1297.5,30,1305 L30,1320" fill="none" stroke="blue" stroke-width="1"/>
<circle cx="45" cy="1290" fill="white" r="4" stroke="gray" stroke-width="1"/>
<path d="M45,1305 L45,1425 Q45,1432.5,37.5,1432.5 Q30,1432.5,30,1440 L30,1440" fill="none" stroke="gray" stroke-width="1"/>
<circle cx="45" cy="1305" fill="gray" r="4" stroke="gray" stroke-width="1"/>
<line stroke="blue" stroke-width="1" x1="30" x2="30" y1="1320" y2="1440"/>
<path d="M30,1320 L30,1320 Q30,1327.5,67.5,1327.5 Q105,1327.5,105,1335 L105,1335" fill="none" stroke="gray" stroke-width="1"/>
<circle cx="30" cy="1320" fill="white" r="4" stroke="blue" stroke-width="1"/>
<line stroke="gray" stroke-width="1" x1="105" x2="105" y1="1335" y2="1410"/>
<circle cx="105" cy="1335" fill="gray" r="4" stroke="gray" stroke-width="1"/>
<line stroke="gray" stroke-width="1" x1="60" x2="60" y1="1350" y2="1365"/>
<path d="M60,1350 L60,1350 Q60,1357.5,45,1357.5 Q30,1357.5,30,1365 L30,1440" fill="none" stroke="blue" stroke-width="1"/>
<circle cx="60" cy="1350" fill="white" r="4" stroke="gray" stroke-width="1"/>
<line stroke="gray" stroke-width="1" x1="60" x2="60" y1="1365" y2="1380"/>
<circle cx="60" cy="1365" fill="gray" r="4" stroke="gray" stroke-width="1"/>
<line stroke="gray" stroke-width="1" x1="60" x2="60" y1="1380" y2="1680"/>
<circle cx="60" cy="1380" fill="gray" r="4" stroke="gray" stroke-width="1"/>
<line stroke="gray" stroke-width="1" x1="75" x2="75" y1="1395" y2="1425"/>
<circle cx="75" cy="1395" fill="gray" r="4" stroke="gray" stroke-width="1"/>
<line stroke="gray" stroke-width="1" x1="105" x2="105" y1="1410" y2="1470"/>
<path d="M105,1410 L105,1410 Q105,1417.5,67.5,1417.5 Q30,1417.5,30,1425 L30,1440" fill="none" stroke="blue" stroke-width="1"/>
<circle cx="105" cy="1410" fill="white" r="4" stroke="gray" stroke-width="1"/>
<line stroke="gray" stroke-width="1" x1="75" x2="75" y1="1425" y2="1575"/>
<circle cx="75" cy="1425" fill="gray" r="4" stroke="gray" stroke-width="1"/>
<line stroke="blue" stroke-width="1" x1="30" x2="30" y1="1440" y2="1455"/>
<path d="M30,1440 L30,1440 Q30,1447.5,37.5,1447.5 Q45,1447.5,45,1455 L45,1500" fill="none" stroke="purple" stroke-width="1"/>
<circle cx="30" cy="1440" fill="white" r="4" stroke="blue" stroke-width="1"/>
<line stroke="blue" stroke-width="1" x1="30" x2="30" y1="1455" y2="2055"/>
<circle cx="30" cy="1455" fill="blue" r="4" stroke="blue" stroke-width="1"/>
<line stroke="gray" stroke-width="1" x1="105" x2="105" y1="1470" y2="1485"/>
<circle cx="105" cy="1470" fill="gray" r="4" stroke="gray" stroke-width="1"/>
<line stroke="gray" stroke-width="1" x1="105" x2="105" y1="1485" y2="1530"/>
<circle cx="105" cy="1485" fill="gray" r="4" stroke="gray" stroke-width="1"/>
<line stroke="purple" stroke-width="1" x1="45" x2="45" y1="1500" y2="1515"/>
<circle cx="45" cy="1500" fill="purple" r="4" stroke="purple" stroke-width="1"/>
<line stroke="purple" stroke-width="1" x1="45" x2="45" y1="1515" y2="1545"/>
<path d="M45,1515 L45,1515 Q45,1522.5,75,1522.5 Q105,1522.5,105,1530 L105,1530" fill="none" stroke="gray" stroke-width="1"/>
<circle cx="45" cy="1515" fill="white" r="4" stroke="purple" stroke-width="1"/>
<path d="M105,1530 L105,1530 Q105,1537.5,75,1537.5 Q45,1537.5,45,1545 L45,1545" fill="none" stroke="gray" stroke-width="1"/>
<circle cx="105" cy="1530" fill="gray" r="4" stroke="gray" stroke-width="1"/>
<line stroke="purple" stroke-width="1" x1="45" x2="45" y1="1545" y2="1770"/>
<path d="M45,1545 L45,1545 Q45,1552.5,67.5,1552.5 Q90,1552.5,90,1560 L90,1560" fill="none" stroke="gray" stroke-width="1"/>
<circle cx="45" cy="1545" fill="white" r="4" stroke="purple" stroke-width="1"/>
<line stroke="gray" stroke-width="1" x1="90" x2="90" y1="1560" y2="1785"/>
<circle cx="90" cy="1560" fill="gray" r="4" stroke="gray" stroke-width="1"/>
<line stroke="gray" stroke-width="1" x1="75" x2="75" y1="1575" y2="1590"/>
<path d="M75,1575 L75,1575 Q75,1582.5,90,1582.5 Q105,1582.5,105,1590 L105,1605" fill="none" stroke="gray" stroke-width="1"/>
<circle cx="75" cy="1575" fill="white" r="4" stroke="gray" stroke-width="1"/>
<path d="M75,1590 L75,1755 Q75,1762.5,60,1762.5 Q45,1762.5,45,1770 L45,1770" fill="none" stroke="gray" stroke-width="1"/>
<circle cx="75" cy="1590" fill="gray" r="4" stroke="gray" stroke-width="1"/>
<line stroke="gray" stroke-width="1" x1="105" x2="105" y1="1605" y2="1620"/>
<circle cx="105" cy="1605" fill="gray" r="4" stroke="gray" stroke-width="1"/>
<line stroke="gray" stroke-width="1" x1="105" x2="105" y1="1620" y2="1635"/>
<circle cx="105" cy="1620" fill="gray" r="4" stroke="gray" stroke-width="1"/>
<line stroke="gray" stroke-width="1" x1="105" x2="105" y1="1635" y2="1665"/>
<path d="M105,1635 L105,1635 Q105,1642.5,97.5,1642.5 Q90,1642.5,90,1650 L90,1785" fill="none" stroke="gray" stroke-width="1"/>
<circle cx="105" cy="1635" fill="white" r="4" stroke="gray" stroke-width="1"/>
<line stroke="gray" stroke-width="1" x1="135" x2="135" y1="1650" y2="2370"/>
<circle cx="135" cy="1650" fill="gray" r="4" stroke="gray" stroke-width="1"/>
<line stroke="gray" stroke-width="1" x1="105" x2="105" y1="1665" y2="1815"/>
<circle cx="105" cy="1665" fill="gray" r="4" stroke="gray" stroke-width="1"/>
<line stroke="gray" stroke-width="1" x1="60" x2="60" y1="1680" y2="1695"/>
<circle cx="60" cy="1680" fill="gray" r="4" stroke="gray" stroke-width="1"/>
<line stroke="gray" stroke-width="1" x1="60" x2="60" y1="1695" y2="1980"/>
<path d="M60,1695 L60,1695 Q60,1702.5,52.5,1702.5 Q45,1702.5,45,1710 L45,1770" fill="none" stroke="purple" stroke-width="1"/>
<circle cx="60" cy="1695" fill="white" r="4" stroke="gray" stroke-width="1"/>
<line stroke="gray" stroke-width="1" x1="120" x2="120" y1="1710" y2="1725"/>
<circle cx="120" cy="1710" fill="gray" r="4" stroke="gray" stroke-width="1"/>
<line stroke="gray" stroke-width="1" x1="120" x2="120" y1="1725" y2="1740"/>
<path d="M120,1725 L120,1725 Q120,1732.5,82.5,1732.5 Q45,1732.5,45,1740 L45,1770" fill="none" stroke="purple" stroke-width="1"/>
<circle cx="120" cy="1725" fill="white" r="4" stroke="gray" stroke-width="1"/>
<line stroke="gray" stroke-width="1" x1="120" x2="120" y1="1740" y2="1755"/>
<circle cx="120" cy="1740" fill="gray" r="4" stroke="gray" stroke-width="1"/>
<line stroke="gray" stroke-width="1" x1="120" x2="120" y1="1755" y2="1905"/>
<path d="M120,1755 L120,1770 Q120,1777.5,82.5,1777.5 Q45,1777.5,45,1785 L45,1860" fill="none" stroke="purple" stroke-width="1"/>
<circle cx="120" cy="1755" fill="white" r="4" stroke="gray" stroke-width="1"/>
<line stroke="purple" stroke-width="1" x1="45" x2="45" y1="1770" y2="1860"/>
<path d="M45,1770 L45,1770 Q45,1777.5,67.5,1777.5 Q90,1777.5,90,1785 L90,1785" fill="none" stroke="gray" stroke-width="1"/>
<circle cx="45" cy="1770" fill="white" r="4" stroke="purple" stroke-width="1"/>
<line stroke="gray" stroke-width="1" x1="90" x2="90" y1="1785" y2="1800"/>
<path d="M90,1785 L90,1785 Q90,1792.5,67.5,1792.5 Q45,1792.5,45,1800 L45,1860" fill="none" stroke="purple" stroke-width="1"/>
<circle cx="90" cy="1785" fill="white" r="4" stroke="gray" stroke-width="1"/>
<line stroke="gray" stroke-width="1" x1="90" x2="90" y1="1800" y2="2430"/>
<path d="M90,1800 L90,1800 Q90,1807.5,97.5,1807.5 Q105,1807.5,105,1815 L105,1815" fill="none" stroke="gray" stroke-width="1"/>
<circle cx="90" cy="1800" fill="white" r="4" stroke="gray" stroke-width="1"/>
<line stroke="gray" stroke-width="1" x1="105" x2="105" y1="1815" y2="1830"/>
<circle cx="105" cy="1815" fill="gray" r="4" stroke="gray" stroke-width="1"/>
<line stroke="gray" stroke-width="1" x1="105" x2="105" y1="1830" y2="1950"/>
<path d="M105,1830 L105,1830 Q105,1837.5,60,1837.5 Q15,1837.5,15,1845 L15,1845" fill="none" stroke="blue" stroke-width="1"/>
<circle cx="105" cy="1830" fill="white" r="4" stroke="gray" stroke-width="1"/>
<line stroke="blue" stroke-width="1" x1="15" x2="15" y1="1845" y2="1935"/>
<circle cx="15" cy="1845" fill="blue" r="4" stroke="blue" stroke-width="1"/>
<path d="M45,1860 L45,1860 Q45,1867.5,37.5,1867.5 Q30,1867.5,30,1875 L30,2055" fill="none" stroke="blue" stroke-width="1"/>
<path d="M45,1860 L45,1860 Q45,1867.5,60,1867.5 Q75,1867.5,75,1875 L75,1875" fill="none" stroke="gray" stroke-width="1"/>
<circle cx="45" cy="1860" fill="white" r="4" stroke="purple" stroke-width="1"/>
<line stroke="gray" stroke-width="1" x1="75" x2="75" y1="1875" y2="1890"/>
<circle cx="75" cy="1875" fill="gray" r="4" stroke="gray" stroke-width="1"/>
<line stroke="gray" stroke-width="1" x1="75" x2="75" y1="1890" y2="2010"/>
<circle cx="75" cy="1890" fill="gray" r="4" stroke="gray" stroke-width="1"/>
<line stroke="gray" stroke-width="1" x1="120" x2="120" y1="1905" y2="1920"/>
<circle cx="120" cy="1905" fill="gray" r="4" stroke="gray" stroke-width="1"/>
<line stroke="gray" stroke-width="1" x1="120" x2="120" y1="1920" y2="1965"/>
<circle cx="120" cy="1920" fill="gray" r="4" stroke="gray" stroke-width="1"/>
<line stroke="blue" stroke-width="1" x1="15" x2="15" y1="1935" y2="2115"/>
<path d="M15,1935 L15,1935 Q15,1942.5,22.5,1942.5 Q30,1942.5,30,1950 L30,2055" fill="none" stroke="blue" stroke-width="1"/>
<circle cx="15" cy="1935" fill="white" r="4" stroke="blue" stroke-width="1"/>
<line stroke="gray" stroke-width="1" x1="105" x2="105" y1="1950" y2="2400"/>
<circle cx="105" cy="1950" fill="gray" r="4" stroke="gray" stroke-width="1"/>
<path d="M120,1965 L120,2040 Q120,2047.5,75,2047.5 Q30,2047.5,30,2055 L30,2055" fill="none" stroke="gray" stroke-width="1"/>
<circle cx="120" cy="1965" fill="gray" r="4" stroke="gray" stroke-width="1"/>
<line stroke="gray" stroke-width="1" x1="60" x2="60" y1="1980" y2="1995"/>
<path d="M60,1980 L60,1980 Q60,1987.5,45,1987.5 Q30,1987.5,30,1995 L30,2055" fill="none" stroke="blue" stroke-width="1"/>
<circle cx="60" cy="1980" fill="white" r="4" stroke="gray" stroke-width="1"/>
<line stroke="gray" stroke-width="1" x1="60" x2="60" y1="1995" y2="2220"/>
<circle cx="60" cy="1995" fill="gray" r="4" stroke="gray" stroke-width="1"/>
<line stroke="gray" stroke-width="1" x1="75" x2="75" y1="2010" y2="2025"/>
<path d="M75,2010 L75,2010 Q75,2017.5,52.5,2017.5 Q30,2017.5,30,2025 L30,2055" fill="none" stroke="blue" stroke-width="1"/>
<circle cx="75" cy="2010" fill="white" r="4" stroke="gray" stroke-width="1"/>
<line stroke="gray" stroke-width="1" x1="75" x2="75" y1="2025" y2="2040"/>
<circle cx="75" cy="2025" fill="gray" r="4" stroke="gray" stroke-width="1"/>
<line stroke="gray" stroke-width="1" x1="75" x2="75" y1="2040" y2="2070"/>
<circle cx="75" cy="2040" fill="gray" r="4" stroke="gray" stroke-width="1"/>
<line stroke="blue" stroke-width="1" x1="30" x2="30" y1="2055" y2="2265"/>
<path d="M30,2055 L30,2055 Q30,2062.5,52.5,2062.5 Q75,2062.5,75,2070 L75,2070" fill="none" stroke="gray" stroke-width="1"/>
<circle cx="30" cy="2055" fill="white" r="4" stroke="blue" stroke-width="1"/>
<line stroke="gray" stroke-width="1" x1="75" x2="75" y1="2070" y2="2085"/>
<circle cx="75" cy="2070" fill="gray" r="4" stroke="gray" stroke-width="1"/>
<line stroke="gray" stroke-width="1" x1="75" x2="75" y1="2085" y2="2100"/>
<circle cx="75" cy="2085" fill="gray" r="4" stroke="gray" stroke-width="1"/>
<path d="M75,2100 L75,2130 Q75,2137.5,60,2137.5 Q45,2137.5,45,2145 L45,2145" fill="none" stroke="gray" stroke-width="1"/>
<circle cx="75" cy="2100" fill="gray" r="4" stroke="gray" stroke-width="1"/>
<line stroke="blue" stroke-width="1" x1="15" x2="15" y1="2115" y2="2130"/>
<path d="M15,2115 L15,2115 Q15,2122.5,30,2122.5 Q45,2122.5,45,2130 L45,2145" fill="none" stroke="purple" stroke-width="1"/>
<circle cx="15" cy="2115" fill="white" r="4" stroke="blue" stroke-width="1"/>
<line stroke="blue" stroke-width="1" x1="15" x2="15" y1="2130" y2="2175"/>
<circle cx="15" cy="2130" fill="blue" r="4" stroke="blue" stroke-width="1"/>
<line stroke="purple" stroke-width="1" x1="45" x2="45" y1="2145" y2="2205"/>
<path d="M45,2145 L45,2145 Q45,2152.5,60,2152.5 Q75,2152.5,75,2160 L75,2160" fill="none" stroke="gray" stroke-width="1"/>
<circle cx="45" cy="2145" fill="white" r="4" stroke="purple" stroke-width="1"/>
<line stroke="gray" stroke-width="1" x1="75" x2="75" y1="2160" y2="2355"/>
<path d="M75,2160 L75,2160 Q75,2167.5,60,2167.5 Q45,2167.5,45,2175 L45,2205" fill="none" stroke="purple" stroke-width="1"/>
<circle cx="75" cy="2160" fill="white" r="4" stroke="gray" stroke-width="1"/>
<line stroke="blue" stroke-width="1" x1="15" x2="15" y1="2175" y2="2190"/>
<path d="M15,2175 L15,2175 Q15,2182.5,30,2182.5 Q45,2182.5,45,2190 L45,2205" fill="none" stroke="purple" stroke-width="1"/>
<circle cx="15" cy="2175" fill="white" r="4" stroke="blue" stroke-width="1"/>
<path d="M15,2190 L15,2250 Q15,2257.5,22.5,2257.5 Q30,2257.5,30,2265 L30,2265" fill="none" stroke="blue" stroke-width="1"/>
<circle cx="15" cy="2190" fill="blue" r="4" stroke="blue" stroke-width="1"/>
<path d="M45,2205 L45,2205 Q45,2212.5,37.5,2212.5 Q30,2212.5,30,2220 L30,2265" fill="none" stroke="blue" stroke-width="1"/>
<path d="M45,2205 L45,2205 Q45,2212.5,52.5,2212.5 Q60,2212.5,60,2220 L60,2220" fill="none" stroke="gray" stroke-width="1"/>
<circle cx="45" cy="2205" fill="white" r="4" stroke="purple" stroke-width="1"/>
<line stroke="gray" stroke-width="1" x1="60" x2="60" y1="2220" y2="2235"/>
<path d="M60,2220 L60,2220 Q60,2227.5,45,2227.5 Q30,2227.5,30,2235 L30,2265" fill="none" stroke="blue" stroke-width="1"/>
<circle cx="60" cy="2220" fill="white" r="4" stroke="gray" stroke-width="1"/>
<line stroke="gray" stroke-width="1" x1="60" x2="60" y1="2235" y2="2250"/>
<circle cx="60" cy="2235" fill="gray" r="4" stroke="gray" stroke-width="1"/>
<line stroke="gray" stroke-width="1" x1="60" x2="60" y1="2250" y2="2295"/>
<circle cx="60" cy="2250" fill="gray" r="4" stroke="gray" stroke-width="1"/>
<line stroke="blue" stroke-width="1" x1="30" x2="30" y1="2265" y2="2280"/>
<circle cx="30" cy="2265" fill="blue" r="4" stroke="blue" stroke-width="1"/>
<line stroke="blue" stroke-width="1" x1="30" x2="30" y1="2280" y2="2415"/>
<path d="M30,2280 L30,2280 Q30,2287.5,45,2287.5 Q60,2287.5,60,2295 L60,2295" fill="none" stroke="gray" stroke-width="1"/>
<circle cx="30" cy="2280" fill="white" r="4" stroke="blue" stroke-width="1"/>
<line stroke="gray" stroke-width="1" x1="60" x2="60" y1="2295" y2="2310"/>
<circle cx="60" cy="2295" fill="gray" r="4" stroke="gray" stroke-width="1"/>
<line stroke="gray" stroke-width="1" x1="60" x2="60" y1="2310" y2="2325"/>
<circle cx="60" cy="2310" fill="gray" r="4" stroke="gray" stroke-width="1"/>
<line stroke="gray" stroke-width="1" x1="60" x2="60" y1="2325" y2="2340"/>
<path d="M60,2325 L60,2325 Q60,2332.5,45,2332.5 Q30,2332.5,30,2340 L30,2415" fill="none" stroke="blue" stroke-width="1"/>
<circle cx="60" cy="2325" fill="white" r="4" stroke="gray" stroke-width="1"/>
<path d="M60,2340 L60,2520 Q60,2527.5,45,2527.5 Q30,2527.5,30,2535 L30,2535" fill="none" stroke="gray" stroke-width="1"/>
<circle cx="60" cy="2340" fill="gray" r="4" stroke="gray" stroke-width="1"/>
<line stroke="gray" stroke-width="1" x1="75" x2="75" y1="2355" y2="2385"/>
<circle cx="75" cy="2355" fill="gray" r="4" stroke="gray" stroke-width="1"/>
<path d="M135,2370 L135,2400 Q135,2407.5,82.5,2407.5 Q30,2407.5,30,2415 L30,2415" fill="none" stroke="gray" stroke-width="1"/>
<circle cx="135" cy="2370" fill="gray" r="4" stroke="gray" stroke-width="1"/>
<line stroke="gray" stroke-width="1" x1="75" x2="75" y1="2385" y2="2475"/>
<path d="M75,2385 L75,2385 Q75,2392.5,52.5,2392.5 Q30,2392.5,30,2400 L30,2415" fill="none" stroke="blue" stroke-width="1"/>
<circle cx="75" cy="2385" fill="white" r="4" stroke="gray" stroke-width="1"/>
<line stroke="gray" stroke-width="1" x1="105" x2="105" y1="2400" y2="2460"/>
<circle cx="105" cy="2400" fill="gray" r="4" stroke="gray" stroke-width="1"/>
<line stroke="blue" stroke-width="1" x1="30" x2="30" y1="2415" y2="2535"/>
<path d="M30,2415 L30,2430 Q30,2437.5,60,2437.5 Q90,2437.5,90,2445 L90,2445" fill="none" stroke="gray" stroke-width="1"/>
<circle cx="30" cy="2415" fill="white" r="4" stroke="blue" stroke-width="1"/>
<line stroke="gray" stroke-width="1" x1="90" x2="90" y1="2430" y2="2445"/>
<path d="M90,2430 L90,2430 Q90,2437.5,97.5,2437.5 Q105,2437.5,105,2445 L105,2460" fill="none" stroke="gray" stroke-width="1"/>
<circle cx="90" cy="2430" fill="white" r="4" stroke="gray" stroke-width="1"/>
<line stroke="gray" stroke-width="1" x1="90" x2="90" y1="2445" y2="2490"/>
<circle cx="90" cy="2445" fill="gray" r="4" stroke="gray" stroke-width="1"/>
<path d="M105,2460 L105,2940 Q105,2947.5,67.5,2947.5 Q30,2947.5,30,2955 L30,2955" fill="none" stroke="gray" stroke-width="1"/>
<circle cx="105" cy="2460" fill="gray" r="4" stroke="gray" stroke-width="1"/>
<line stroke="gray" stroke-width="1" x1="75" x2="75" y1="2475" y2="2520"/>
<circle cx="75" cy="2475" fill="gray" r="4" stroke="gray" stroke-width="1"/>
<line stroke="gray" stroke-width="1" x1="90" x2="90" y1="2490" y2="2505"/>
<circle cx="90" cy="2490" fill="gray" r="4" stroke="gray" stroke-width="1"/>
<line stroke="gray" stroke-width="1" x1="90" x2="90" y1="2505" y2="2550"/>
<circle cx="90" cy="2505" fill="gray" r="4" stroke="gray" stroke-width="1"/>
<path d="M75,2520 L75,2520 Q75,2527.5,52.5,2527.5 Q30,2527.5,30,2535 L30,2535" fill="none" stroke="gray" stroke-width="1"/>
<circle cx="75" cy="2520" fill="gray" r="4" stroke="gray" stroke-width="1"/>
<line stroke="blue" stroke-width="1" x1="30" x2="30" y1="2535" y2="2580"/>
<path d="M30,2535 L30,2535 Q30,2542.5,60,2542.5 Q90,2542.5,90,2550 L90,2550" fill="none" stroke="gray" stroke-width="1"/>
<circle cx="30" cy="2535" fill="white" r="4" stroke="blue" stroke-width="1"/>
<line stroke="gray" stroke-width="1" x1="90" x2="90" y1="2550" y2="2565"/>
<circle cx="90" cy="2550" fill="gray" r="4" stroke="gray" stroke-width="1"/>
<line stroke="gray" stroke-width="1" x1="90" x2="90" y1="2565" y2="2595"/>
<circle cx="90" cy="2565" fill="gray" r="4" stroke="gray" stroke-width="1"/>
<line stroke="blue" stroke-width="1" x1="30" x2="30" y1="2580" y2="2610"/>
<path d="M30,2580 L30,2580 Q30,2587.5,60,2587.5 Q90,2587.5,90,2595 L90,2595" fill="none" stroke="gray" stroke-width="1"/>
<circle cx="30" cy="2580" fill="white" r="4" stroke="blue" stroke-width="1"/>
<line stroke="gray" stroke-width="1" x1="90" x2="90" y1="2595" y2="2625"/>
<circle cx="90" cy="2595" fill="gray" r="4" stroke="gray" stroke-width="1"/>
<line stroke="blue" stroke-width="1" x1="30" x2="30" y1="2610" y2="2640"/>
<path d="M30,2610 L30,2610 Q30,2617.5,60,2617.5 Q90,2617.5,90,2625 L90,2625" fill="none" stroke="gray" stroke-width="1"/>
<circle cx="30" cy="2610" fill="white" r="4" stroke="blue" stroke-width="1"/>
<line stroke="gray" stroke-width="1" x1="90" x2="90" y1="2625" y2="2655"/>
<circle cx="90" cy="2625" fill="gray" r="4" stroke="gray" stroke-width="1"/>
<line stroke="blue" stroke-width="1" x1="30" x2="30" y1="2640" y2="2670"/>
<path d="M30,2640 L30,2640 Q30,2647.5,60,2647.5 Q90,2647.5,90,2655 L90,2655" fill="none" stroke="gray" stroke-width="1"/>
<circle cx="30" cy="2640" fill="white" r="4" stroke="blue" stroke-width="1"/>
<line stroke="gray" stroke-width="1" x1="90" x2="90" y1="2655" y2="2685"/>
<circle cx="90" cy="2655" fill="gray" r="4" stroke="gray" stroke-width="1"/>
<line stroke="blue" stroke-width="1" x1="30" x2="30" y1="2670" y2="2700"/>
<path d="M30,2670 L30,2670 Q30,2677.5,60,2677.5 Q90,2677.5,90,2685 L90,2685" fill="none" stroke="gray" stroke-width="1"/>
<circle cx="30" cy="2670" fill="white" r="4" stroke="blue" stroke-width="1"/>
<line stroke="gray" stroke-width="1" x1="90" x2="90" y1="2685" y2="2715"/>
<circle cx="90" cy="2685" fill="gray" r="4" stroke="gray" stroke-width="1"/>
<line stroke="blue" stroke-width="1" x1="30" x2="30" y1="2700" y2="2730"/>
<path d="M30,2700 L30,2700 Q30,2707.5,60,2707.5 Q90,2707.5,90,2715 L90,2715" fill="none" stroke="gray" stroke-width="1"/>
<circle cx="30" cy="2700" fill="white" r="4" stroke="blue" stroke-width="1"/>
<path d="M90,2715 L90,2715 Q90,2722.5,60,2722.5 Q30,2722.5,30,2730 L30,2730" fill="none" stroke="gray" stroke-width="1"/>
<circle cx="90" cy="2715" fill="gray" r="4" stroke="gray" stroke-width="1"/>
<line stroke="blue" stroke-width="1" x1="30" x2="30" y1="2730" y2="2745"/>
<path d="M30,2730 L30,2730 Q30,2737.5,37.5,2737.5 Q45,2737.5,45,2745 L45,2760" fill="none" stroke="gray" stroke-width="1"/>
<circle cx="30" cy="2730" fill="white" r="4" stroke="blue" stroke-width="1"/>
<line stroke="blue" stroke-width="1" x1="30" x2="30" y1="2745" y2="2880"/>
<path d="M30,2745 L30,2745 Q30,2752.5,45,2752.5 Q60,2752.5,60,2760 L60,2790" fill="none" stroke="gray" stroke-width="1"/>
<circle cx="30" cy="2745" fill="white" r="4" stroke="blue" stroke-width="1"/>
<line stroke="gray" stroke-width="1" x1="45" x2="45" y1="2760" y2="2775"/>
<path d="M45,2760 L45,2760 Q45,2767.5,52.5,2767.5 Q60,2767.5,60,2775 L60,2790" fill="none" stroke="gray" stroke-width="1"/>
<circle cx="45" cy="2760" fill="white" r="4" stroke="gray" stroke-width="1"/>
<path d="M45,2775 L45,2865 Q45,2872.5,37.5,2872.5 Q30,2872.5,30,2880 L30,2880" fill="none" stroke="gray" stroke-width="1"/>
<circle cx="45" cy="2775" fill="gray" r="4" stroke="gray" stroke-width="1"/>
<line stroke="gray" stroke-width="1" x1="60" x2="60" y1="2790" y2="2805"/>
<circle cx="60" cy="2790" fill="gray" r="4" stroke="gray" stroke-width="1"/>
<line stroke="gray" stroke-width="1" x1="60" x2="60" y1="2805" y2="2820"/>
<circle cx="60" cy="2805" fill="gray" r="4" stroke="gray" stroke-width="1"/>
<line stroke="gray" stroke-width="1" x1="60" x2="60" y1="2820" y2="2835"/>
<circle cx="60" cy="2820" fill="gray" r="4" stroke="gray" stroke-width="1"/>
<line stroke="gray" stroke-width="1" x1="60" x2="60" y1="2835" y2="2850"/>
<circle cx="60" cy="2835" fill="gray" r="4" stroke="gray" stroke-width="1"/>
<line stroke="gray" stroke-width="1" x1="60" x2="60" y1="2850" y2="2865"/>
<circle cx="60" cy="2850" fill="gray" r="4" stroke="gray" stroke-width="1"/>
<line stroke="gray" stroke-width="1" x1="60" x2="60" y1="2865" y2="2895"/>
<path d="M60,2865 L60,2865 Q60,2872.5,45,2872.5 Q30,2872.5,30,2880 L30,2880" fill="none" stroke="blue" stroke-width="1"/>
<circle cx="60" cy="2865" fill="white" r="4" stroke="gray" stroke-width="1"/>
<line stroke="blue" stroke-width="1" x1="30" x2="30" y1="2880" y2="2925"/>
<circle cx="30" cy="2880" fill="blue" r="4" stroke="blue" stroke-width="1"/>
<line stroke="gray" stroke-width="1" x1="60" x2="60" y1="2895" y2="2910"/>
<path d="M60,2895 L60,2895 Q60,2902.5,45,2902.5 Q30,2902.5,30,2910 L30,2925" fill="none" stroke="blue" stroke-width="1"/>
<circle cx="60" cy="2895" fill="white" r="4" stroke="gray" stroke-width="1"/>
<path d="M60,2910 L60,2925 Q60,2932.5,45,2932.5 Q30,2932.5,30,2940 L30,2940" fill="none" stroke="gray" stroke-width="1"/>
<circle cx="60" cy="2910" fill="gray" r="4" stroke="gray" stroke-width="1"/>
<line stroke="blue" stroke-width="1" x1="30" x2="30" y1="2925" y2="2940"/>
<circle cx="30" cy="2925" fill="blue" r="4" stroke="blue" stroke-width="1"/>
<line stroke="blue" stroke-width="1" x1="30" x2="30" y1="2940" y2="2955"/>
<circle cx="30" cy="2940" fill="blue" r="4" stroke="blue" stroke-width="1"/>
<circle cx="30" cy="2955" fill="blue" r="4" stroke="blue" stroke-width="1"/>
</svg>
