<svg height="945" viewBox="0 0 105 945" width="105" xmlns="http://www.w3.org/2000/svg">
<line stroke="gray" stroke-width="1" x1="90" x2="90" y1="15" y2="30"/>
<circle cx="90" cy="15" fill="gray" r="4" stroke="gray" stroke-width="1"/>
<line stroke="gray" stroke-width="1" x1="90" x2="90" y1="30" y2="75"/>
<path d="M90,30 L90,30 Q90,37.5,82.5,37.5 Q75,37.5,75,45 L75,180" fill="none" stroke="gray" stroke-width="1"/>
<circle cx="90" cy="30" fill="white" r="4" stroke="gray" stroke-width="1"/>
<line stroke="orange" stroke-width="1" x1="45" x2="45" y1="45" y2="60"/>
<circle cx="45" cy="45" fill="orange" r="4" stroke="orange" stroke-width="1"/>
<line stroke="orange" stroke-width="1" x1="45" x2="45" y1="60" y2="90"/>
<circle cx="45" cy="60" fill="orange" r="4" stroke="orange" stroke-width="1"/>
<path d="M90,75 L90,285 Q90,292.5,75,292.5 Q60,292.5,60,300 L60,300" fill="none" stroke="gray" stroke-width="1"/>
<circle cx="90" cy="75" fill="gray" r="4" stroke="gray" stroke-width="1"/>
<line stroke="orange" stroke-width="1" x1="45" x2="45" y1="90" y2="105"/>
<path d="M45,90 L45,90 Q45,97.5,52.5,97.5 Q60,97.5,60,105 L60,135" fill="none" stroke="turquoise" stroke-width="1"/>
<circle cx="45" cy="90" fill="white" r="4" stroke="orange" stroke-width="1"/>
<line stroke="orange" stroke-width="1" x1="45" x2="45" y1="105" y2="120"/>
<circle cx="45" cy="105" fill="orange" r="4" stroke="orange" stroke-width="1"/>
<line stroke="orange" stroke-width="1" x1="45" x2="45" y1="120" y2="165"/>
<circle cx="45" cy="120" fill="orange" r="4" stroke="orange" stroke-width="1"/>
<line stroke="turquoise" stroke-width="1" x1="60" x2="60" y1="135" y2="150"/>
<path d="M60,135 L60,165 Q60,172.5,52.5,172.5 Q45,172.5,45,180 L45,195" fill="none" stroke="orange" stroke-width="1"/>
<circle cx="60" cy="135" fill="white" r="4" stroke="turquoise" stroke-width="1"/>
<line stroke="turquoise" stroke-width="1" x1="60" x2="60" y1="150" y2="405"/>
<circle cx="60" cy="150" fill="turquoise" r="4" stroke="turquoise" stroke-width="1"/>
<line stroke="orange" stroke-width="1" x1="45" x2="45" y1="165" y2="195"/>
<circle cx="45" cy="165" fill="orange" r="4" stroke="orange" stroke-width="1"/>
<line stroke="gray" stroke-width="1" x1="75" x2="75" y1="180" y2="270"/>
<circle cx="75" cy="180" fill="gray" r="4" stroke="gray" stroke-width="1"/>
<line stroke="orange" stroke-width="1" x1="45" x2="45" y1="195" y2="210"/>
<circle cx="45" cy="195" fill="orange" r="4" stroke="orange" stroke-width="1"/>
<line stroke="orange" stroke-width="1" x1="45" x2="45" y1="210" y2="225"/>
<path d="M45,210 L45,210 Q45,217.5,52.5,217.5 Q60,217.5,60,225 L60,405" fill="none" stroke="turquoise" stroke-width="1"/>
<circle cx="45" cy="210" fill="white" r="4" stroke="orange" stroke-width="1"/>
<line stroke="orange" stroke-width="1" x1="45" x2="45" y1="225" y2="240"/>
<circle cx="45" cy="225" fill="orange" r="4" stroke="orange" stroke-width="1"/>
<line stroke="orange" stroke-width="1" x1="45" x2="45" y1="240" y2="255"/>
<circle cx="45" cy="240" fill="orange" r="4" stroke="orange" stroke-width="1"/>
<line stroke="orange" stroke-width="1" x1="45" x2="45" y1="255" y2="420"/>
<circle cx="45" cy="255" fill="orange" r="4" stroke="orange" stroke-width="1"/>
<line stroke="gray" stroke-width="1" x1="75" x2="75" y1="270" y2="285"/>
<path d="M75,270 L75,270 Q75,277.5,67.5,277.5 Q60,277.5,60,285 L60,300" fill="none" stroke="purple" stroke-width="1"/>
<circle cx="75" cy="270" fill="white" r="4" stroke="gray" stroke-width="1"/>
<line stroke="gray" stroke-width="1" x1="75" x2="75" y1="285" y2="345"/>
<circle cx="75" cy="285" fill="gray" r="4" stroke="gray" stroke-width="1"/>
<line stroke="purple" stroke-width="1" x1="60" x2="60" y1="300" y2="315"/>
<circle cx="60" cy="300" fill="purple" r="4" stroke="purple" stroke-width="1"/>
<line stroke="purple" stroke-width="1" x1="60" x2="60" y1="315" y2="330"/>
<path d="M60,315 L60,315 Q60,322.5,45,322.5 Q30,322.5,30,330 L30,360" fill="none" stroke="orange" stroke-width="1"/>
<circle cx="60" cy="315" fill="white" r="4" stroke="purple" stroke-width="1"/>
<path d="M60,330 L60,330 Q60,337.5,67.5,337.5 Q75,337.5,75,345 L75,345" fill="none" stroke="purple" stroke-width="1"/>
<circle cx="60" cy="330" fill="purple" r="4" stroke="purple" stroke-width="1"/>
<path d="M75,345 L75,570 Q75,577.5,60,577.5 Q45,577.5,45,585 L45,585" fill="none" stroke="gray" stroke-width="1"/>
<circle cx="75" cy="345" fill="gray" r="4" stroke="gray" stroke-width="1"/>
<line stroke="orange" stroke-width="1" x1="30" x2="30" y1="360" y2="375"/>
<circle cx="30" cy="360" fill="orange" r="4" stroke="orange" stroke-width="1"/>
<line stroke="orange" stroke-width="1" x1="30" x2="30" y1="375" y2="390"/>
<path d="M30,375 L30,375 Q30,382.5,45,382.5 Q60,382.5,60,390 L60,405" fill="none" stroke="turquoise" stroke-width="1"/>
<circle cx="30" cy="375" fill="white" r="4" stroke="orange" stroke-width="1"/>
<path d="M30,390 L30,420 Q30,427.5,37.5,427.5 Q45,427.5,45,435 L45,435" fill="none" stroke="orange" stroke-width="1"/>
<circle cx="30" cy="390" fill="orange" r="4" stroke="orange" stroke-width="1"/>
<path d="M60,405 L60,420 Q60,427.5,52.5,427.5 Q45,427.5,45,435 L45,435" fill="none" stroke="turquoise" stroke-width="1"/>
<circle cx="60" cy="405" fill="turquoise" r="4" stroke="turquoise" stroke-width="1"/>
<line stroke="orange" stroke-width="1" x1="45" x2="45" y1="420" y2="435"/>
<circle cx="45" cy="420" fill="orange" r="4" stroke="orange" stroke-width="1"/>
<line stroke="orange" stroke-width="1" x1="45" x2="45" y1="435" y2="450"/>
<path d="M45,435 L45,435 Q45,442.5,52.5,442.5 Q60,442.5,60,450 L60,480" fill="none" stroke="turquoise" stroke-width="1"/>
<circle cx="45" cy="435" fill="white" r="4" stroke="orange" stroke-width="1"/>
<line stroke="orange" stroke-width="1" x1="45" x2="45" y1="450" y2="465"/>
<circle cx="45" cy="450" fill="orange" r="4" stroke="orange" stroke-width="1"/>
<line stroke="orange" stroke-width="1" x1="45" x2="45" y1="465" y2="495"/>
<path d="M45,465 L45,480 Q45,487.5,52.5,487.5 Q60,487.5,60,495 L60,510" fill="none" stroke="turquoise" stroke-width="1"/>
<circle cx="45" cy="465" fill="white" r="4" stroke="orange" stroke-width="1"/>
<line stroke="turquoise" stroke-width="1" x1="60" x2="60" y1="480" y2="510"/>
<circle cx="60" cy="480" fill="turquoise" r="4" stroke="turquoise" stroke-width="1"/>
<line stroke="orange" stroke-width="1" x1="45" x2="45" y1="495" y2="540"/>
<circle cx="45" cy="495" fill="orange" r="4" stroke="orange" stroke-width="1"/>
<line stroke="turquoise" stroke-width="1" x1="60" x2="60" y1="510" y2="525"/>
<circle cx="60" cy="510" fill="turquoise" r="4" stroke="turquoise" stroke-width="1"/>
<path d="M60,525 L60,525 Q60,532.5,52.5,532.5 Q45,532.5,45,540 L45,540" fill="none" stroke="turquoise" stroke-width="1"/>
<circle cx="60" cy="525" fill="turquoise" r="4" stroke="turquoise" stroke-width="1"/>
<line stroke="orange" stroke-width="1" x1="45" x2="45" y1="540" y2="555"/>
<circle cx="45" cy="540" fill="orange" r="4" stroke="orange" stroke-width="1"/>
<line stroke="orange" stroke-width="1" x1="45" x2="45" y1="555" y2="570"/>
<circle cx="45" cy="555" fill="orange" r="4" stroke="orange" stroke-width="1"/>
<line stroke="orange" stroke-width="1" x1="45" x2="45" y1="570" y2="585"/>
<circle cx="45" cy="570" fill="orange" r="4" stroke="orange" stroke-width="1"/>
<line stroke="orange" stroke-width="1" x1="45" x2="45" y1="585" y2="600"/>
<circle cx="45" cy="585" fill="orange" r="4" stroke="orange" stroke-width="1"/>
<line stroke="orange" stroke-width="1" x1="45" x2="45" y1="600" y2="615"/>
<circle cx="45" cy="600" fill="orange" r="4" stroke="orange" stroke-width="1"/>
<line stroke="orange" stroke-width="1" x1="45" x2="45" y1="615" y2="630"/>
<circle cx="45" cy="615" fill="orange" r="4" stroke="orange" stroke-width="1"/>
<line stroke="orange" stroke-width="1" x1="45" x2="45" y1="630" y2="645"/>
<path d="M45,630 L45,630 Q45,637.5,52.5,637.5 Q60,637.5,60,645 L60,675" fill="none" stroke="gray" stroke-width="1"/>
<circle cx="45" cy="630" fill="white" r="4" stroke="orange" stroke-width="1"/>
<line stroke="orange" stroke-width="1" x1="45" x2="45" y1="645" y2="660"/>
<circle cx="45" cy="645" fill="orange" r="4" stroke="orange" stroke-width="1"/>
<line stroke="orange" stroke-width="1" x1="45" x2="45" y1="660" y2="795"/>
<circle cx="45" cy="660" fill="orange" r="4" stroke="orange" stroke-width="1"/>
<line stroke="gray" stroke-width="1" x1="60" x2="60" y1="675" y2="690"/>
<circle cx="60" cy="675" fill="gray" r="4" stroke="gray" stroke-width="1"/>
<line stroke="gray" stroke-width="1" x1="60" x2="60" y1="690" y2="705"/>
<circle cx="60" cy="690" fill="gray" r="4" stroke="gray" stroke-width="1"/>
<line stroke="gray" stroke-width="1" x1="60" x2="60" y1="705" y2="720"/>
<circle cx="60" cy="705" fill="gray" r="4" stroke="gray" stroke-width="1"/>
<line stroke="gray" stroke-width="1" x1="60" x2="60" y1="720" y2="735"/>
<circle cx="60" cy="720" fill="gray" r="4" stroke="gray" stroke-width="1"/>
<line stroke="gray" stroke-width="1" x1="60" x2="60" y1="735" y2="750"/>
<circle cx="60" cy="735" fill="gray" r="4" stroke="gray" stroke-width="1"/>
<line stroke="gray" stroke-width="1" x1="60" x2="60" y1="750" y2="765"/>
<path d="M60,750 L60,750 Q60,757.5,45,757.5 Q30,757.5,30,765 L30,780" fill="none" stroke="orange" stroke-width="1"/>
<circle cx="60" cy="750" fill="white" r="4" stroke="gray" stroke-width="1"/>
<path d="M60,765 L60,780 Q60,787.5,52.5,787.5 Q45,787.5,45,795 L45,795" fill="none" stroke="gray" stroke-width="1"/>
<circle cx="60" cy="765" fill="gray" r="4" stroke="gray" stroke-width="1"/>
<line stroke="orange" stroke-width="1" x1="30" x2="30" y1="780" y2="825"/>
<circle cx="30" cy="780" fill="orange" r="4" stroke="orange" stroke-width="1"/>
<line stroke="orange" stroke-width="1" x1="45" x2="45" y1="795" y2="810"/>
<path d="M45,795 L45,825 Q45,832.5,37.5,832.5 Q30,832.5,30,840 L30,840" fill="none" stroke="orange" stroke-width="1"/>
<circle cx="45" cy="795" fill="white" r="4" stroke="orange" stroke-width="1"/>
<path d="M45,810 L45,885 Q45,892.5,30,892.5 Q15,892.5,15,900 L15,900" fill="none" stroke="orange" stroke-width="1"/>
<circle cx="45" cy="810" fill="orange" r="4" stroke="orange" stroke-width="1"/>
<line stroke="orange" stroke-width="1" x1="30" x2="30" y1="825" y2="840"/>
<path d="M30,825 L30,825 Q30,832.5,22.5,832.5 Q15,832.5,15,840 L15,855" fill="none" stroke="blue" stroke-width="1"/>
<circle cx="30" cy="825" fill="white" r="4" stroke="orange" stroke-width="1"/>
<line stroke="orange" stroke-width="1" x1="30" x2="30" y1="840" y2="870"/>
<circle cx="30" cy="840" fill="orange" r="4" stroke="orange" stroke-width="1"/>
<line stroke="blue" stroke-width="1" x1="15" x2="15" y1="855" y2="900"/>
<path d="M15,855 L15,855 Q15,862.5,22.5,862.5 Q30,862.5,30,870 L30,870" fill="none" stroke="orange" stroke-width="1"/>
<circle cx="15" cy="855" fill="white" r="4" stroke="blue" stroke-width="1"/>
<line stroke="orange" stroke-width="1" x1="30" x2="30" y1="870" y2="885"/>
<circle cx="30" cy="870" fill="orange" r="4" stroke="orange" stroke-width="1"/>
<path d="M30,885 L30,885 Q30,892.5,22.5,892.5 Q15,892.5,15,900 L15,900" fill="none" stroke="orange" stroke-width="1"/>
<circle cx="30" cy="885" fill="orange" r="4" stroke="orange" stroke-width="1"/>
<line stroke="blue" stroke-width="1" x1="15" x2="15" y1="900" y2="915"/>
<circle cx="15" cy="900" fill="blue" r="4" stroke="blue" stroke-width="1"/>
<circle cx="15" cy="915" fill="blue" r="4" stroke="blue" stroke-width="1"/>
</svg>
