<svg height="3330" viewBox="0 0 75 3330" width="75" xmlns="http://www.w3.org/2000/svg">
<line stroke="blue" stroke-width="1" x1="15" x2="15" y1="15" y2="30"/>
<circle cx="15" cy="15" fill="blue" r="4" stroke="blue" stroke-width="1"/>
<line stroke="blue" stroke-width="1" x1="15" x2="15" y1="30" y2="60"/>
<path d="M15,30 L15,30 Q15,37.5,22.5,37.5 Q30,37.5,30,45 L30,45" fill="none" stroke="orange" stroke-width="1"/>
<circle cx="15" cy="30" fill="white" r="4" stroke="blue" stroke-width="1"/>
<line stroke="orange" stroke-width="1" x1="30" x2="30" y1="45" y2="75"/>
<circle cx="30" cy="45" fill="orange" r="4" stroke="orange" stroke-width="1"/>
<line stroke="blue" stroke-width="1" x1="15" x2="15" y1="60" y2="120"/>
<path d="M15,60 L15,60 Q15,67.5,22.5,67.5 Q30,67.5,30,75 L30,75" fill="none" stroke="orange" stroke-width="1"/>
<circle cx="15" cy="60" fill="white" r="4" stroke="blue" stroke-width="1"/>
<line stroke="orange" stroke-width="1" x1="30" x2="30" y1="75" y2="90"/>
<circle cx="30" cy="75" fill="orange" r="4" stroke="orange" stroke-width="1"/>
<line stroke="orange" stroke-width="1" x1="30" x2="30" y1="90" y2="105"/>
<circle cx="30" cy="90" fill="orange" r="4" stroke="orange" stroke-width="1"/>
<line stroke="orange" stroke-width="1" x1="30" x2="30" y1="105" y2="135"/>
<circle cx="30" cy="105" fill="orange" r="4" stroke="orange" stroke-width="1"/>
<line stroke="blue" stroke-width="1" x1="15" x2="15" y1="120" y2="195"/>
<path d="M15,120 L15,120 Q15,127.5,22.5,127.5 Q30,127.5,30,135 L30,135" fill="none" stroke="orange" stroke-width="1"/>
<circle cx="15" cy="120" fill="white" r="4" stroke="blue" stroke-width="1"/>
<line stroke="orange" stroke-width="1" x1="30" x2="30" y1="135" y2="150"/>
<circle cx="30" cy="135" fill="orange" r="4" stroke="orange" stroke-width="1"/>
<line stroke="orange" stroke-width="1" x1="30" x2="30" y1="150" y2="165"/>
<circle cx="30" cy="150" fill="orange" r="4" stroke="orange" stroke-width="1"/>
<line stroke="orange" stroke-width="1" x1="30" x2="30" y1="165" y2="180"/>
<circle cx="30" cy="165" fill="orange" r="4" stroke="orange" stroke-width="1"/>
<line stroke="orange" stroke-width="1" x1="30" x2="30" y1="180" y2="210"/>
<circle cx="30" cy="180" fill="orange" r="4" stroke="orange" stroke-width="1"/>
<line stroke="blue" stroke-width="1" x1="15" x2="15" y1="195" y2="420"/>
<path d="M15,195 L15,195 Q15,202.5,22.5,202.5 Q30,202.5,30,210 L30,210" fill="none" stroke="orange" stroke-width="1"/>
<circle cx="15" cy="195" fill="white" r="4" stroke="blue" stroke-width="1"/>
<line stroke="orange" stroke-width="1" x1="30" x2="30" y1="210" y2="225"/>
<circle cx="30" cy="210" fill="orange" r="4" stroke="orange" stroke-width="1"/>
<line stroke="orange" stroke-width="1" x1="30" x2="30" y1="225" y2="240"/>
<circle cx="30" cy="225" fill="orange" r="4" stroke="orange" stroke-width="1"/>
<line stroke="orange" stroke-width="1" x1="30" x2="30" y1="240" y2="255"/>
<circle cx="30" cy="240" fill="orange" r="4" stroke="orange" stroke-width="1"/>
<line stroke="orange" stroke-width="1" x1="30" x2="30" y1="255" y2="270"/>
<circle cx="30" cy="255" fill="orange" r="4" stroke="orange" stroke-width="1"/>
<line stroke="orange" stroke-width="1" x1="30" x2="30" y1="270" y2="285"/>
<circle cx="30" cy="270" fill="orange" r="4" stroke="orange" stroke-width="1"/>
<line stroke="orange" stroke-width="1" x1="30" x2="30" y1="285" y2="300"/>
<circle cx="30" cy="285" fill="orange" r="4" stroke="orange" stroke-width="1"/>
<line stroke="orange" stroke-width="1" x1="30" x2="30" y1="300" y2="315"/>
<circle cx="30" cy="300" fill="orange" r="4" stroke="orange" stroke-width="1"/>
<line stroke="orange" stroke-width="1" x1="30" x2="30" y1="315" y2="330"/>
<circle cx="30" cy="315" fill="orange" r="4" stroke="orange" stroke-width="1"/>
<line stroke="orange" stroke-width="1" x1="30" x2="30" y1="330" y2="345"/>
<circle cx="30" cy="330" fill="orange" r="4" stroke="orange" stroke-width="1"/>
<line stroke="orange" stroke-width="1" x1="30" x2="30" y1="345" y2="360"/>
<circle cx="30" cy="345" fill="orange" r="4" stroke="orange" stroke-width="1"/>
<line stroke="orange" stroke-width="1" x1="30" x2="30" y1="360" y2="375"/>
<circle cx="30" cy="360" fill="orange" r="4" stroke="orange" stroke-width="1"/>
<line stroke="orange" stroke-width="1" x1="30" x2="30" y1="375" y2="390"/>
<circle cx="30" cy="375" fill="orange" r="4" stroke="orange" stroke-width="1"/>
<line stroke="orange" stroke-width="1" x1="30" x2="30" y1="390" y2="405"/>
<circle cx="30" cy="390" fill="orange" r="4" stroke="orange" stroke-width="1"/>
<line stroke="orange" stroke-width="1" x1="30" x2="30" y1="405" y2="435"/>
<circle cx="30" cy="405" fill="orange" r="4" stroke="orange" stroke-width="1"/>
<line stroke="blue" stroke-width="1" x1="15" x2="15" y1="420" y2="465"/>
<path d="M15,420 L15,420 Q15,427.5,22.5,427.5 Q30,427.5,30,435 L30,435" fill="none" stroke="orange" stroke-width="1"/>
<circle cx="15" cy="420" fill="white" r="4" stroke="blue" stroke-width="1"/>
<line stroke="orange" stroke-width="1" x1="30" x2="30" y1="435" y2="450"/>
<circle cx="30" cy="435" fill="orange" r="4" stroke="orange" stroke-width="1"/>
<line stroke="orange" stroke-width="1" x1="30" x2="30" y1="450" y2="480"/>
<circle cx="30" cy="450" fill="orange" r="4" stroke="orange" stroke-width="1"/>
<line stroke="blue" stroke-width="1" x1="15" x2="15" y1="465" y2="495"/>
<path d="M15,465 L15,465 Q15,472.5,22.5,472.5 Q30,472.5,30,480 L30,480" fill="none" stroke="orange" stroke-width="1"/>
<circle cx="15" cy="465" fill="white" r="4" stroke="blue" stroke-width="1"/>
<line stroke="orange" stroke-width="1" x1="30" x2="30" y1="480" y2="510"/>
<circle cx="30" cy="480" fill="orange" r="4" stroke="orange" stroke-width="1"/>
<line stroke="blue" stroke-width="1" x1="15" x2="15" y1="495" y2="525"/>
<path d="M15,495 L15,495 Q15,502.5,22.5,502.5 Q30,502.5,30,510 L30,510" fill="none" stroke="orange" stroke-width="1"/>
<circle cx="15" cy="495" fill="white" r="4" stroke="blue" stroke-width="1"/>
<line stroke="orange" stroke-width="1" x1="30" x2="30" y1="510" y2="540"/>
<circle cx="30" cy="510" fill="orange" r="4" stroke="orange" stroke-width="1"/>
<line stroke="blue" stroke-width="1" x1="15" x2="15" y1="525" y2="555"/>
<path d="M15,525 L15,525 Q15,532.5,22.5,532.5 Q30,532.5,30,540 L30,540" fill="none" stroke="orange" stroke-width="1"/>
<circle cx="15" cy="525" fill="white" r="4" stroke="blue" stroke-width="1"/>
<line stroke="orange" stroke-width="1" x1="30" x2="30" y1="540" y2="570"/>
<circle cx="30" cy="540" fill="orange" r="4" stroke="orange" stroke-width="1"/>
<line stroke="blue" stroke-width="1" x1="15" x2="15" y1="555" y2="600"/>
<path d="M15,555 L15,555 Q15,562.5,22.5,562.5 Q30,562.5,30,570 L30,570" fill="none" stroke="orange" stroke-width="1"/>
<circle cx="15" cy="555" fill="white" r="4" stroke="blue" stroke-width="1"/>
<line stroke="orange" stroke-width="1" x1="30" x2="30" y1="570" y2="585"/>
<circle cx="30" cy="570" fill="orange" r="4" stroke="orange" stroke-width="1"/>
<line stroke="orange" stroke-width="1" x1="30" x2="30" y1="585" y2="615"/>
<circle cx="30" cy="585" fill="orange" r="4" stroke="orange" stroke-width="1"/>
<line stroke="blue" stroke-width="1" x1="15" x2="15" y1="600" y2="735"/>
<path d="M15,600 L15,600 Q15,607.5,22.5,607.5 Q30,607.5,30,615 L30,615" fill="none" stroke="orange" stroke-width="1"/>
<circle cx="15" cy="600" fill="white" r="4" stroke="blue" stroke-width="1"/>
<line stroke="orange" stroke-width="1" x1="30" x2="30" y1="615" y2="630"/>
<circle cx="30" cy="615" fill="orange" r="4" stroke="orange" stroke-width="1"/>
<line stroke="orange" stroke-width="1" x1="30" x2="30" y1="630" y2="645"/>
<circle cx="30" cy="630" fill="orange" r="4" stroke="orange" stroke-width="1"/>
<line stroke="orange" stroke-width="1" x1="30" x2="30" y1="645" y2="660"/>
<circle cx="30" cy="645" fill="orange" r="4" stroke="orange" stroke-width="1"/>
<line stroke="orange" stroke-width="1" x1="30" x2="30" y1="660" y2="675"/>
<circle cx="30" cy="660" fill="orange" r="4" stroke="orange" stroke-width="1"/>
<line stroke="orange" stroke-width="1" x1="30" x2="30" y1="675" y2="690"/>
<circle cx="30" cy="675" fill="orange" r="4" stroke="orange" stroke-width="1"/>
<line stroke="orange" stroke-width="1" x1="30" x2="30" y1="690" y2="705"/>
<circle cx="30" cy="690" fill="orange" r="4" stroke="orange" stroke-width="1"/>
<line stroke="orange" stroke-width="1" x1="30" x2="30" y1="705" y2="720"/>
<circle cx="30" cy="705" fill="orange" r="4" stroke="orange" stroke-width="1"/>
<line stroke="orange" stroke-width="1" x1="30" x2="30" y1="720" y2="750"/>
<circle cx="30" cy="720" fill="orange" r="4" stroke="orange" stroke-width="1"/>
<line stroke="blue" stroke-width="1" x1="15" x2="15" y1="735" y2="765"/>
<path d="M15,735 L15,735 Q15,742.5,22.5,742.5 Q30,742.5,30,750 L30,750" fill="none" stroke="orange" stroke-width="1"/>
<circle cx="15" cy="735" fill="white" r="4" stroke="blue" stroke-width="1"/>
<line stroke="orange" stroke-width="1" x1="30" x2="30" y1="750" y2="780"/>
<circle cx="30" cy="750" fill="orange" r="4" stroke="orange" stroke-width="1"/>
<line stroke="blue" stroke-width="1" x1="15" x2="15" y1="765" y2="855"/>
<path d="M15,765 L15,765 Q15,772.5,22.5,772.5 Q30,772.5,30,780 L30,780" fill="none" stroke="orange" stroke-width="1"/>
<circle cx="15" cy="765" fill="white" r="4" stroke="blue" stroke-width="1"/>
<line stroke="orange" stroke-width="1" x1="30" x2="30" y1="780" y2="795"/>
<circle cx="30" cy="780" fill="orange" r="4" stroke="orange" stroke-width="1"/>
<line stroke="orange" stroke-width="1" x1="30" x2="30" y1="795" y2="810"/>
<circle cx="30" cy="795" fill="orange" r="4" stroke="orange" stroke-width="1"/>
<line stroke="orange" stroke-width="1" x1="30" x2="30" y1="810" y2="825"/>
<path d="M30,810 L30,810 Q30,817.5,37.5,817.5 Q45,817.5,45,825 L45,840" fill="none" stroke="turquoise" stroke-width="1"/>
<circle cx="30" cy="810" fill="white" r="4" stroke="orange" stroke-width="1"/>
<line stroke="orange" stroke-width="1" x1="30" x2="30" y1="825" y2="900"/>
<circle cx="30" cy="825" fill="orange" r="4" stroke="orange" stroke-width="1"/>
<line stroke="turquoise" stroke-width="1" x1="45" x2="45" y1="840" y2="870"/>
<circle cx="45" cy="840" fill="turquoise" r="4" stroke="turquoise" stroke-width="1"/>
<line stroke="blue" stroke-width="1" x1="15" x2="15" y1="855" y2="885"/>
<path d="M15,855 L15,855 Q15,862.5,30,862.5 Q45,862.5,45,870 L45,870" fill="none" stroke="turquoise" stroke-width="1"/>
<circle cx="15" cy="855" fill="white" r="4" stroke="blue" stroke-width="1"/>
<path d="M45,870 L45,885 Q45,892.5,37.5,892.5 Q30,892.5,30,900 L30,900" fill="none" stroke="turquoise" stroke-width="1"/>
<circle cx="45" cy="870" fill="turquoise" r="4" stroke="turquoise" stroke-width="1"/>
<line stroke="blue" stroke-width="1" x1="15" x2="15" y1="885" y2="945"/>
<path d="M15,885 L15,885 Q15,892.5,22.5,892.5 Q30,892.5,30,900 L30,900" fill="none" stroke="orange" stroke-width="1"/>
<circle cx="15" cy="885" fill="white" r="4" stroke="blue" stroke-width="1"/>
<line stroke="orange" stroke-width="1" x1="30" x2="30" y1="900" y2="915"/>
<circle cx="30" cy="900" fill="orange" r="4" stroke="orange" stroke-width="1"/>
<line stroke="orange" stroke-width="1" x1="30" x2="30" y1="915" y2="930"/>
<circle cx="30" cy="915" fill="orange" r="4" stroke="orange" stroke-width="1"/>
<line stroke="orange" stroke-width="1" x1="30" x2="30" y1="930" y2="960"/>
<circle cx="30" cy="930" fill="orange" r="4" stroke="orange" stroke-width="1"/>
<line stroke="blue" stroke-width="1" x1="15" x2="15" y1="945" y2="975"/>
<path d="M15,945 L15,945 Q15,952.5,22.5,952.5 Q30,952.5,30,960 L30,960" fill="none" stroke="orange" stroke-width="1"/>
<circle cx="15" cy="945" fill="white" r="4" stroke="blue" stroke-width="1"/>
<line stroke="orange" stroke-width="1" x1="30" x2="30" y1="960" y2="990"/>
<circle cx="30" cy="960" fill="orange" r="4" stroke="orange" stroke-width="1"/>
<line stroke="blue" stroke-width="1" x1="15" x2="15" y1="975" y2="1185"/>
<path d="M15,975 L15,975 Q15,982.5,22.5,982.5 Q30,982.5,30,990 L30,990" fill="none" stroke="orange" stroke-width="1"/>
<circle cx="15" cy="975" fill="white" r="4" stroke="blue" stroke-width="1"/>
<line stroke="orange" stroke-width="1" x1="30" x2="30" y1="990" y2="1005"/>
<circle cx="30" cy="990" fill="orange" r="4" stroke="orange" stroke-width="1"/>
<line stroke="orange" stroke-width="1" x1="30" x2="30" y1="1005" y2="1020"/>
<circle cx="30" cy="1005" fill="orange" r="4" stroke="orange" stroke-width="1"/>
<line stroke="orange" stroke-width="1" x1="30" x2="30" y1="1020" y2="1035"/>
<circle cx="30" cy="1020" fill="orange" r="4" stroke="orange" stroke-width="1"/>
<line stroke="orange" stroke-width="1" x1="30" x2="30" y1="1035" y2="1050"/>
<circle cx="30" cy="1035" fill="orange" r="4" stroke="orange" stroke-width="1"/>
<line stroke="orange" stroke-width="1" x1="30" x2="30" y1="1050" y2="1065"/>
<circle cx="30" cy="1050" fill="orange" r="4" stroke="orange" stroke-width="1"/>
<line stroke="orange" stroke-width="1" x1="30" x2="30" y1="1065" y2="1080"/>
<circle cx="30" cy="1065" fill="orange" r="4" stroke="orange" stroke-width="1"/>
<line stroke="orange" stroke-width="1" x1="30" x2="30" y1="1080" y2="1095"/>
<circle cx="30" cy="1080" fill="orange" r="4" stroke="orange" stroke-width="1"/>
<line stroke="orange" stroke-width="1" x1="30" x2="30" y1="1095" y2="1110"/>
<circle cx="30" cy="1095" fill="orange" r="4" stroke="orange" stroke-width="1"/>
<line stroke="orange" stroke-width="1" x1="30" x2="30" y1="1110" y2="1125"/>
<circle cx="30" cy="1110" fill="orange" r="4" stroke="orange" stroke-width="1"/>
<line stroke="orange" stroke-width="1" x1="30" x2="30" y1="1125" y2="1140"/>
<circle cx="30" cy="1125" fill="orange" r="4" stroke="orange" stroke-width="1"/>
<line stroke="orange" stroke-width="1" x1="30" x2="30" y1="1140" y2="1155"/>
<circle cx="30" cy="1140" fill="orange" r="4" stroke="orange" stroke-width="1"/>
<line stroke="orange" stroke-width="1" x1="30" x2="30" y1="1155" y2="1170"/>
<circle cx="30" cy="1155" fill="orange" r="4" stroke="orange" stroke-width="1"/>
<line stroke="orange" stroke-width="1" x1="30" x2="30" y1="1170" y2="1200"/>
<circle cx="30" cy="1170" fill="orange" r="4" stroke="orange" stroke-width="1"/>
<line stroke="blue" stroke-width="1" x1="15" x2="15" y1="1185" y2="1275"/>
<path d="M15,1185 L15,1185 Q15,1192.5,22.5,1192.5 Q30,1192.5,30,1200 L30,1200" fill="none" stroke="orange" stroke-width="1"/>
<circle cx="15" cy="1185" fill="white" r="4" stroke="blue" stroke-width="1"/>
<line stroke="orange" stroke-width="1" x1="30" x2="30" y1="1200" y2="1245"/>
<circle cx="30" cy="1200" fill="orange" r="4" stroke="orange" stroke-width="1"/>
<line stroke="gray" stroke-width="1" x1="45" x2="45" y1="1215" y2="1230"/>
<circle cx="45" cy="1215" fill="gray" r="4" stroke="gray" stroke-width="1"/>
<line stroke="gray" stroke-width="1" x1="45" x2="45" y1="1230" y2="1260"/>
<path d="M45,1230 L45,1230 Q45,1237.5,37.5,1237.5 Q30,1237.5,30,1245 L30,1245" fill="none" stroke="orange" stroke-width="1"/>
<circle cx="45" cy="1230" fill="white" r="4" stroke="gray" stroke-width="1"/>
<line stroke="orange" stroke-width="1" x1="30" x2="30" y1="1245" y2="1290"/>
<circle cx="30" cy="1245" fill="orange" r="4" stroke="orange" stroke-width="1"/>
<path d="M45,1260 L45,1260 Q45,1267.5,52.5,1267.5 Q60,1267.5,60,1275 L60,1350" fill="none" stroke="gray" stroke-width="1"/>
<path d="M45,1260 L45,1260 Q45,1267.5,37.5,1267.5 Q30,1267.5,30,1275 L30,1290" fill="none" stroke="orange" stroke-width="1"/>
<circle cx="45" cy="1260" fill="white" r="4" stroke="gray" stroke-width="1"/>
<line stroke="blue" stroke-width="1" x1="15" x2="15" y1="1275" y2="1545"/>
<path d="M15,1275 L15,1275 Q15,1282.5,22.5,1282.5 Q30,1282.5,30,1290 L30,1290" fill="none" stroke="orange" stroke-width="1"/>
<circle cx="15" cy="1275" fill="white" r="4" stroke="blue" stroke-width="1"/>
<line stroke="orange" stroke-width="1" x1="30" x2="30" y1="1290" y2="1305"/>
<circle cx="30" cy="1290" fill="orange" r="4" stroke="orange" stroke-width="1"/>
<line stroke="orange" stroke-width="1" x1="30" x2="30" y1="1305" y2="1320"/>
<circle cx="30" cy="1305" fill="orange" r="4" stroke="orange" stroke-width="1"/>
<line stroke="orange" stroke-width="1" x1="30" x2="30" y1="1320" y2="1335"/>
<circle cx="30" cy="1320" fill="orange" r="4" stroke="orange" stroke-width="1"/>
<line stroke="orange" stroke-width="1" x1="30" x2="30" y1="1335" y2="1500"/>
<path d="M30,1335 L30,1335 Q30,1342.5,45,1342.5 Q60,1342.5,60,1350 L60,1350" fill="none" stroke="gray" stroke-width="1"/>
<circle cx="30" cy="1335" fill="white" r="4" stroke="orange" stroke-width="1"/>
<line stroke="gray" stroke-width="1" x1="60" x2="60" y1="1350" y2="1365"/>
<circle cx="60" cy="1350" fill="gray" r="4" stroke="gray" stroke-width="1"/>
<line stroke="gray" stroke-width="1" x1="60" x2="60" y1="1365" y2="1380"/>
<circle cx="60" cy="1365" fill="gray" r="4" stroke="gray" stroke-width="1"/>
<line stroke="gray" stroke-width="1" x1="60" x2="60" y1="1380" y2="1395"/>
<circle cx="60" cy="1380" fill="gray" r="4" stroke="gray" stroke-width="1"/>
<line stroke="gray" stroke-width="1" x1="60" x2="60" y1="1395" y2="1410"/>
<circle cx="60" cy="1395" fill="gray" r="4" stroke="gray" stroke-width="1"/>
<line stroke="gray" stroke-width="1" x1="60" x2="60" y1="1410" y2="1425"/>
<circle cx="60" cy="1410" fill="gray" r="4" stroke="gray" stroke-width="1"/>
<line stroke="gray" stroke-width="1" x1="60" x2="60" y1="1425" y2="1440"/>
<path d="M60,1425 L60,1425 Q60,1432.5,45,1432.5 Q30,1432.5,30,1440 L30,1500" fill="none" stroke="orange" stroke-width="1"/>
<circle cx="60" cy="1425" fill="white" r="4" stroke="gray" stroke-width="1"/>
<line stroke="gray" stroke-width="1" x1="60" x2="60" y1="1440" y2="1455"/>
<circle cx="60" cy="1440" fill="gray" r="4" stroke="gray" stroke-width="1"/>
<line stroke="gray" stroke-width="1" x1="60" x2="60" y1="1455" y2="1470"/>
<circle cx="60" cy="1455" fill="gray" r="4" stroke="gray" stroke-width="1"/>
<line stroke="gray" stroke-width="1" x1="60" x2="60" y1="1470" y2="1485"/>
<circle cx="60" cy="1470" fill="gray" r="4" stroke="gray" stroke-width="1"/>
<line stroke="gray" stroke-width="1" x1="60" x2="60" y1="1485" y2="1620"/>
<circle cx="60" cy="1485" fill="gray" r="4" stroke="gray" stroke-width="1"/>
<line stroke="orange" stroke-width="1" x1="30" x2="30" y1="1500" y2="1515"/>
<circle cx="30" cy="1500" fill="orange" r="4" stroke="orange" stroke-width="1"/>
<line stroke="orange" stroke-width="1" x1="30" x2="30" y1="1515" y2="1530"/>
<circle cx="30" cy="1515" fill="orange" r="4" stroke="orange" stroke-width="1"/>
<line stroke="orange" stroke-width="1" x1="30" x2="30" y1="1530" y2="1575"/>
<path d="M30,1530 L30,1530 Q30,1537.5,37.5,1537.5 Q45,1537.5,45,1545 L45,1560" fill="none" stroke="gray" stroke-width="1"/>
<circle cx="30" cy="1530" fill="white" r="4" stroke="orange" stroke-width="1"/>
<line stroke="blue" stroke-width="1" x1="15" x2="15" y1="1545" y2="1695"/>
<path d="M15,1545 L15,1545 Q15,1552.5,22.5,1552.5 Q30,1552.5,30,1560 L30,1575" fill="none" stroke="orange" stroke-width="1"/>
<circle cx="15" cy="1545" fill="white" r="4" stroke="blue" stroke-width="1"/>
<path d="M45,1560 L45,1725 Q45,1732.5,37.5,1732.5 Q30,1732.5,30,1740 L30,1740" fill="none" stroke="gray" stroke-width="1"/>
<circle cx="45" cy="1560" fill="gray" r="4" stroke="gray" stroke-width="1"/>
<line stroke="orange" stroke-width="1" x1="30" x2="30" y1="1575" y2="1590"/>
<circle cx="30" cy="1575" fill="orange" r="4" stroke="orange" stroke-width="1"/>
<line stroke="orange" stroke-width="1" x1="30" x2="30" y1="1590" y2="1605"/>
<circle cx="30" cy="1590" fill="orange" r="4" stroke="orange" stroke-width="1"/>
<line stroke="orange" stroke-width="1" x1="30" x2="30" y1="1605" y2="1740"/>
<path d="M30,1605 L30,1605 Q30,1612.5,45,1612.5 Q60,1612.5,60,1620 L60,1620" fill="none" stroke="gray" stroke-width="1"/>
<circle cx="30" cy="1605" fill="white" r="4" stroke="orange" stroke-width="1"/>
<line stroke="gray" stroke-width="1" x1="60" x2="60" y1="1620" y2="1635"/>
<circle cx="60" cy="1620" fill="gray" r="4" stroke="gray" stroke-width="1"/>
<line stroke="gray" stroke-width="1" x1="60" x2="60" y1="1635" y2="1650"/>
<circle cx="60" cy="1635" fill="gray" r="4" stroke="gray" stroke-width="1"/>
<line stroke="gray" stroke-width="1" x1="60" x2="60" y1="1650" y2="1665"/>
<circle cx="60" cy="1650" fill="gray" r="4" stroke="gray" stroke-width="1"/>
<line stroke="gray" stroke-width="1" x1="60" x2="60" y1="1665" y2="1680"/>
<circle cx="60" cy="1665" fill="gray" r="4" stroke="gray" stroke-width="1"/>
<line stroke="gray" stroke-width="1" x1="60" x2="60" y1="1680" y2="1935"/>
<circle cx="60" cy="1680" fill="gray" r="4" stroke="gray" stroke-width="1"/>
<line stroke="blue" stroke-width="1" x1="15" x2="15" y1="1695" y2="1710"/>
<circle cx="15" cy="1695" fill="blue" r="4" stroke="blue" stroke-width="1"/>
<line stroke="blue" stroke-width="1" x1="15" x2="15" y1="1710" y2="1725"/>
<circle cx="15" cy="1710" fill="blue" r="4" stroke="blue" stroke-width="1"/>
<line stroke="blue" stroke-width="1" x1="15" x2="15" y1="1725" y2="1980"/>
<path d="M15,1725 L15,1725 Q15,1732.5,22.5,1732.5 Q30,1732.5,30,1740 L30,1740" fill="none" stroke="orange" stroke-width="1"/>
<circle cx="15" cy="1725" fill="white" r="4" stroke="blue" stroke-width="1"/>
<line stroke="orange" stroke-width="1" x1="30" x2="30" y1="1740" y2="1755"/>
<circle cx="30" cy="1740" fill="orange" r="4" stroke="orange" stroke-width="1"/>
<line stroke="orange" stroke-width="1" x1="30" x2="30" y1="1755" y2="1770"/>
<circle cx="30" cy="1755" fill="orange" r="4" stroke="orange" stroke-width="1"/>
<line stroke="orange" stroke-width="1" x1="30" x2="30" y1="1770" y2="1785"/>
<circle cx="30" cy="1770" fill="orange" r="4" stroke="orange" stroke-width="1"/>
<line stroke="orange" stroke-width="1" x1="30" x2="30" y1="1785" y2="1800"/>
<circle cx="30" cy="1785" fill="orange" r="4" stroke="orange" stroke-width="1"/>
<line stroke="orange" stroke-width="1" x1="30" x2="30" y1="1800" y2="1815"/>
<circle cx="30" cy="1800" fill="orange" r="4" stroke="orange" stroke-width="1"/>
<line stroke="orange" stroke-width="1" x1="30" x2="30" y1="1815" y2="1830"/>
<circle cx="30" cy="1815" fill="orange" r="4" stroke="orange" stroke-width="1"/>
<line stroke="orange" stroke-width="1" x1="30" x2="30" y1="1830" y2="1845"/>
<circle cx="30" cy="1830" fill="orange" r="4" stroke="orange" stroke-width="1"/>
<line stroke="orange" stroke-width="1" x1="30" x2="30" y1="1845" y2="1860"/>
<circle cx="30" cy="1845" fill="orange" r="4" stroke="orange" stroke-width="1"/>
<line stroke="orange" stroke-width="1" x1="30" x2="30" y1="1860" y2="1875"/>
<circle cx="30" cy="1860" fill="orange" r="4" stroke="orange" stroke-width="1"/>
<line stroke="orange" stroke-width="1" x1="30" x2="30" y1="1875" y2="1890"/>
<circle cx="30" cy="1875" fill="orange" r="4" stroke="orange" stroke-width="1"/>
<line stroke="orange" stroke-width="1" x1="30" x2="30" y1="1890" y2="1905"/>
<circle cx="30" cy="1890" fill="orange" r="4" stroke="orange" stroke-width="1"/>
<line stroke="orange" stroke-width="1" x1="30" x2="30" y1="1905" y2="1920"/>
<circle cx="30" cy="1905" fill="orange" r="4" stroke="orange" stroke-width="1"/>
<line stroke="orange" stroke-width="1" x1="30" x2="30" y1="1920" y2="1950"/>
<circle cx="30" cy="1920" fill="orange" r="4" stroke="orange" stroke-width="1"/>
<path d="M60,1935 L60,1935 Q60,1942.5,45,1942.5 Q30,1942.5,30,1950 L30,1950" fill="none" stroke="gray" stroke-width="1"/>
<circle cx="60" cy="1935" fill="gray" r="4" stroke="gray" stroke-width="1"/>
<line stroke="orange" stroke-width="1" x1="30" x2="30" y1="1950" y2="1965"/>
<circle cx="30" cy="1950" fill="orange" r="4" stroke="orange" stroke-width="1"/>
<line stroke="orange" stroke-width="1" x1="30" x2="30" y1="1965" y2="1995"/>
<circle cx="30" cy="1965" fill="orange" r="4" stroke="orange" stroke-width="1"/>
<line stroke="blue" stroke-width="1" x1="15" x2="15" y1="1980" y2="2070"/>
<path d="M15,1980 L15,1980 Q15,1987.5,22.5,1987.5 Q30,1987.5,30,1995 L30,1995" fill="none" stroke="orange" stroke-width="1"/>
<circle cx="15" cy="1980" fill="white" r="4" stroke="blue" stroke-width="1"/>
<line stroke="orange" stroke-width="1" x1="30" x2="30" y1="1995" y2="2010"/>
<circle cx="30" cy="1995" fill="orange" r="4" stroke="orange" stroke-width="1"/>
<line stroke="orange" stroke-width="1" x1="30" x2="30" y1="2010" y2="2025"/>
<circle cx="30" cy="2010" fill="orange" r="4" stroke="orange" stroke-width="1"/>
<line stroke="orange" stroke-width="1" x1="30" x2="30" y1="2025" y2="2040"/>
<path d="M30,2025 L30,2025 Q30,2032.5,37.5,2032.5 Q45,2032.5,45,2040 L45,2055" fill="none" stroke="gray" stroke-width="1"/>
<circle cx="30" cy="2025" fill="white" r="4" stroke="orange" stroke-width="1"/>
<line stroke="orange" stroke-width="1" x1="30" x2="30" y1="2040" y2="2085"/>
<circle cx="30" cy="2040" fill="orange" r="4" stroke="orange" stroke-width="1"/>
<line stroke="gray" stroke-width="1" x1="45" x2="45" y1="2055" y2="2145"/>
<circle cx="45" cy="2055" fill="gray" r="4" stroke="gray" stroke-width="1"/>
<line stroke="blue" stroke-width="1" x1="15" x2="15" y1="2070" y2="2625"/>
<path d="M15,2070 L15,2070 Q15,2077.5,22.5,2077.5 Q30,2077.5,30,2085 L30,2085" fill="none" stroke="orange" stroke-width="1"/>
<circle cx="15" cy="2070" fill="white" r="4" stroke="blue" stroke-width="1"/>
<line stroke="orange" stroke-width="1" x1="30" x2="30" y1="2085" y2="2100"/>
<circle cx="30" cy="2085" fill="orange" r="4" stroke="orange" stroke-width="1"/>
<line stroke="orange" stroke-width="1" x1="30" x2="30" y1="2100" y2="2115"/>
<path d="M30,2100 L30,2100 Q30,2107.5,45,2107.5 Q60,2107.5,60,2115 L60,2130" fill="none" stroke="gray" stroke-width="1"/>
<circle cx="30" cy="2100" fill="white" r="4" stroke="orange" stroke-width="1"/>
<line stroke="orange" stroke-width="1" x1="30" x2="30" y1="2115" y2="2160"/>
<circle cx="30" cy="2115" fill="orange" r="4" stroke="orange" stroke-width="1"/>
<path d="M60,2130 L60,2130 Q60,2137.5,45,2137.5 Q30,2137.5,30,2145 L30,2160" fill="none" stroke="orange" stroke-width="1"/>
<path d="M60,2130 L60,2130 Q60,2137.5,52.5,2137.5 Q45,2137.5,45,2145 L45,2145" fill="none" stroke="gray" stroke-width="1"/>
<circle cx="60" cy="2130" fill="white" r="4" stroke="gray" stroke-width="1"/>
<line stroke="gray" stroke-width="1" x1="45" x2="45" y1="2145" y2="2175"/>
<circle cx="45" cy="2145" fill="gray" r="4" stroke="gray" stroke-width="1"/>
<line stroke="orange" stroke-width="1" x1="30" x2="30" y1="2160" y2="2280"/>
<path d="M30,2160 L30,2160 Q30,2167.5,37.5,2167.5 Q45,2167.5,45,2175 L45,2175" fill="none" stroke="gray" stroke-width="1"/>
<circle cx="30" cy="2160" fill="white" r="4" stroke="orange" stroke-width="1"/>
<line stroke="gray" stroke-width="1" x1="45" x2="45" y1="2175" y2="2190"/>
<circle cx="45" cy="2175" fill="gray" r="4" stroke="gray" stroke-width="1"/>
<line stroke="gray" stroke-width="1" x1="45" x2="45" y1="2190" y2="2205"/>
<path d="M45,2190 L45,2190 Q45,2197.5,52.5,2197.5 Q60,2197.5,60,2205 L60,2220" fill="none" stroke="turquoise" stroke-width="1"/>
<circle cx="45" cy="2190" fill="white" r="4" stroke="gray" stroke-width="1"/>
<line stroke="gray" stroke-width="1" x1="45" x2="45" y1="2205" y2="2235"/>
<circle cx="45" cy="2205" fill="gray" r="4" stroke="gray" stroke-width="1"/>
<path d="M60,2220 L60,2220 Q60,2227.5,52.5,2227.5 Q45,2227.5,45,2235 L45,2235" fill="none" stroke="turquoise" stroke-width="1"/>
<circle cx="60" cy="2220" fill="turquoise" r="4" stroke="turquoise" stroke-width="1"/>
<line stroke="gray" stroke-width="1" x1="45" x2="45" y1="2235" y2="2250"/>
<circle cx="45" cy="2235" fill="gray" r="4" stroke="gray" stroke-width="1"/>
<line stroke="gray" stroke-width="1" x1="45" x2="45" y1="2250" y2="2265"/>
<circle cx="45" cy="2250" fill="gray" r="4" stroke="gray" stroke-width="1"/>
<path d="M45,2265 L45,2265 Q45,2272.5,37.5,2272.5 Q30,2272.5,30,2280 L30,2280" fill="none" stroke="gray" stroke-width="1"/>
<circle cx="45" cy="2265" fill="gray" r="4" stroke="gray" stroke-width="1"/>
<line stroke="orange" stroke-width="1" x1="30" x2="30" y1="2280" y2="2370"/>
<path d="M30,2280 L30,2280 Q30,2287.5,37.5,2287.5 Q45,2287.5,45,2295 L45,2295" fill="none" stroke="gray" stroke-width="1"/>
<circle cx="30" cy="2280" fill="white" r="4" stroke="orange" stroke-width="1"/>
<line stroke="gray" stroke-width="1" x1="45" x2="45" y1="2295" y2="2310"/>
<circle cx="45" cy="2295" fill="gray" r="4" stroke="gray" stroke-width="1"/>
<line stroke="gray" stroke-width="1" x1="45" x2="45" y1="2310" y2="2325"/>
<circle cx="45" cy="2310" fill="gray" r="4" stroke="gray" stroke-width="1"/>
<line stroke="gray" stroke-width="1" x1="45" x2="45" y1="2325" y2="2340"/>
<circle cx="45" cy="2325" fill="gray" r="4" stroke="gray" stroke-width="1"/>
<line stroke="gray" stroke-width="1" x1="45" x2="45" y1="2340" y2="2355"/>
<circle cx="45" cy="2340" fill="gray" r="4" stroke="gray" stroke-width="1"/>
<line stroke="gray" stroke-width="1" x1="45" x2="45" y1="2355" y2="2400"/>
<circle cx="45" cy="2355" fill="gray" r="4" stroke="gray" stroke-width="1"/>
<line stroke="orange" stroke-width="1" x1="30" x2="30" y1="2370" y2="2505"/>
<path d="M30,2370 L30,2370 Q30,2377.5,45,2377.5 Q60,2377.5,60,2385 L60,2385" fill="none" stroke="gray" stroke-width="1"/>
<circle cx="30" cy="2370" fill="white" r="4" stroke="orange" stroke-width="1"/>
<line stroke="gray" stroke-width="1" x1="60" x2="60" y1="2385" y2="2415"/>
<path d="M60,2385 L60,2385 Q60,2392.5,52.5,2392.5 Q45,2392.5,45,2400 L45,2400" fill="none" stroke="gray" stroke-width="1"/>
<circle cx="60" cy="2385" fill="white" r="4" stroke="gray" stroke-width="1"/>
<line stroke="gray" stroke-width="1" x1="45" x2="45" y1="2400" y2="2430"/>
<circle cx="45" cy="2400" fill="gray" r="4" stroke="gray" stroke-width="1"/>
<line stroke="gray" stroke-width="1" x1="60" x2="60" y1="2415" y2="2535"/>
<path d="M60,2415 L60,2415 Q60,2422.5,52.5,2422.5 Q45,2422.5,45,2430 L45,2430" fill="none" stroke="gray" stroke-width="1"/>
<circle cx="60" cy="2415" fill="white" r="4" stroke="gray" stroke-width="1"/>
<line stroke="gray" stroke-width="1" x1="45" x2="45" y1="2430" y2="2445"/>
<circle cx="45" cy="2430" fill="gray" r="4" stroke="gray" stroke-width="1"/>
<line stroke="gray" stroke-width="1" x1="45" x2="45" y1="2445" y2="2460"/>
<circle cx="45" cy="2445" fill="gray" r="4" stroke="gray" stroke-width="1"/>
<line stroke="gray" stroke-width="1" x1="45" x2="45" y1="2460" y2="2475"/>
<circle cx="45" cy="2460" fill="gray" r="4" stroke="gray" stroke-width="1"/>
<line stroke="gray" stroke-width="1" x1="45" x2="45" y1="2475" y2="2490"/>
<circle cx="45" cy="2475" fill="gray" r="4" stroke="gray" stroke-width="1"/>
<line stroke="gray" stroke-width="1" x1="45" x2="45" y1="2490" y2="2520"/>
<circle cx="45" cy="2490" fill="gray" r="4" stroke="gray" stroke-width="1"/>
<line stroke="orange" stroke-width="1" x1="30" x2="30" y1="2505" y2="2640"/>
<circle cx="30" cy="2505" fill="orange" r="4" stroke="orange" stroke-width="1"/>
<line stroke="gray" stroke-width="1" x1="45" x2="45" y1="2520" y2="2550"/>
<circle cx="45" cy="2520" fill="gray" r="4" stroke="gray" stroke-width="1"/>
<line stroke="gray" stroke-width="1" x1="60" x2="60" y1="2535" y2="2565"/>
<circle cx="60" cy="2535" fill="gray" r="4" stroke="gray" stroke-width="1"/>
<line stroke="gray" stroke-width="1" x1="45" x2="45" y1="2550" y2="2580"/>
<circle cx="45" cy="2550" fill="gray" r="4" stroke="gray" stroke-width="1"/>
<path d="M60,2565 L60,2565 Q60,2572.5,52.5,2572.5 Q45,2572.5,45,2580 L45,2580" fill="none" stroke="gray" stroke-width="1"/>
<circle cx="60" cy="2565" fill="gray" r="4" stroke="gray" stroke-width="1"/>
<line stroke="gray" stroke-width="1" x1="45" x2="45" y1="2580" y2="2595"/>
<circle cx="45" cy="2580" fill="gray" r="4" stroke="gray" stroke-width="1"/>
<line stroke="gray" stroke-width="1" x1="45" x2="45" y1="2595" y2="2610"/>
<circle cx="45" cy="2595" fill="gray" r="4" stroke="gray" stroke-width="1"/>
<path d="M45,2610 L45,2625 Q45,2632.5,37.5,2632.5 Q30,2632.5,30,2640 L30,2640" fill="none" stroke="gray" stroke-width="1"/>
<circle cx="45" cy="2610" fill="gray" r="4" stroke="gray" stroke-width="1"/>
<line stroke="blue" stroke-width="1" x1="15" x2="15" y1="2625" y2="2655"/>
<path d="M15,2625 L15,2625 Q15,2632.5,22.5,2632.5 Q30,2632.5,30,2640 L30,2640" fill="none" stroke="orange" stroke-width="1"/>
<circle cx="15" cy="2625" fill="white" r="4" stroke="blue" stroke-width="1"/>
<line stroke="orange" stroke-width="1" x1="30" x2="30" y1="2640" y2="2670"/>
<circle cx="30" cy="2640" fill="orange" r="4" stroke="orange" stroke-width="1"/>
<line stroke="blue" stroke-width="1" x1="15" x2="15" y1="2655" y2="2700"/>
<path d="M15,2655 L15,2655 Q15,2662.5,22.5,2662.5 Q30,2662.5,30,2670 L30,2670" fill="none" stroke="orange" stroke-width="1"/>
<circle cx="15" cy="2655" fill="white" r="4" stroke="blue" stroke-width="1"/>
<line stroke="orange" stroke-width="1" x1="30" x2="30" y1="2670" y2="2685"/>
<circle cx="30" cy="2670" fill="orange" r="4" stroke="orange" stroke-width="1"/>
<path d="M30,2685 L30,2730 Q30,2737.5,22.5,2737.5 Q15,2737.5,15,2745 L15,2745" fill="none" stroke="orange" stroke-width="1"/>
<circle cx="30" cy="2685" fill="orange" r="4" stroke="orange" stroke-width="1"/>
<line stroke="blue" stroke-width="1" x1="15" x2="15" y1="2700" y2="2715"/>
<circle cx="15" cy="2700" fill="blue" r="4" stroke="blue" stroke-width="1"/>
<line stroke="blue" stroke-width="1" x1="15" x2="15" y1="2715" y2="2730"/>
<circle cx="15" cy="2715" fill="blue" r="4" stroke="blue" stroke-width="1"/>
<line stroke="blue" stroke-width="1" x1="15" x2="15" y1="2730" y2="2745"/>
<circle cx="15" cy="2730" fill="blue" r="4" stroke="blue" stroke-width="1"/>
<line stroke="blue" stroke-width="1" x1="15" x2="15" y1="2745" y2="2760"/>
<circle cx="15" cy="2745" fill="blue" r="4" stroke="blue" stroke-width="1"/>
<line stroke="blue" stroke-width="1" x1="15" x2="15" y1="2760" y2="2775"/>
<circle cx="15" cy="2760" fill="blue" r="4" stroke="blue" stroke-width="1"/>
<line stroke="blue" stroke-width="1" x1="15" x2="15" y1="2775" y2="2790"/>
<circle cx="15" cy="2775" fill="blue" r="4" stroke="blue" stroke-width="1"/>
<line stroke="blue" stroke-width="1" x1="15" x2="15" y1="2790" y2="2805"/>
<circle cx="15" cy="2790" fill="blue" r="4" stroke="blue" stroke-width="1"/>
<line stroke="blue" stroke-width="1" x1="15" x2="15" y1="2805" y2="2820"/>
<circle cx="15" cy="2805" fill="blue" r="4" stroke="blue" stroke-width="1"/>
<line stroke="blue" stroke-width="1" x1="15" x2="15" y1="2820" y2="2835"/>
<circle cx="15" cy="2820" fill="blue" r="4" stroke="blue" stroke-width="1"/>
<line stroke="blue" stroke-width="1" x1="15" x2="15" y1="2835" y2="2850"/>
<circle cx="15" cy="2835" fill="blue" r="4" stroke="blue" stroke-width="1"/>
<line stroke="blue" stroke-width="1" x1="15" x2="15" y1="2850" y2="2865"/>
<circle cx="15" cy="2850" fill="blue" r="4" stroke="blue" stroke-width="1"/>
<line stroke="blue" stroke-width="1" x1="15" x2="15" y1="2865" y2="2880"/>
<circle cx="15" cy="2865" fill="blue" r="4" stroke="blue" stroke-width="1"/>
<line stroke="blue" stroke-width="1" x1="15" x2="15" y1="2880" y2="2895"/>
<circle cx="15" cy="2880" fill="blue" r="4" stroke="blue" stroke-width="1"/>
<line stroke="blue" stroke-width="1" x1="15" x2="15" y1="2895" y2="2910"/>
<path d="M15,2895 L15,2895 Q15,2902.5,30,2902.5 Q45,2902.5,45,2910 L45,2940" fill="none" stroke="gray" stroke-width="1"/>
<circle cx="15" cy="2895" fill="white" r="4" stroke="blue" stroke-width="1"/>
<line stroke="blue" stroke-width="1" x1="15" x2="15" y1="2910" y2="2925"/>
<circle cx="15" cy="2910" fill="blue" r="4" stroke="blue" stroke-width="1"/>
<line stroke="blue" stroke-width="1" x1="15" x2="15" y1="2925" y2="2955"/>
<circle cx="15" cy="2925" fill="blue" r="4" stroke="blue" stroke-width="1"/>
<path d="M45,2940 L45,2940 Q45,2947.5,30,2947.5 Q15,2947.5,15,2955 L15,2955" fill="none" stroke="gray" stroke-width="1"/>
<circle cx="45" cy="2940" fill="gray" r="4" stroke="gray" stroke-width="1"/>
<line stroke="blue" stroke-width="1" x1="15" x2="15" y1="2955" y2="2970"/>
<circle cx="15" cy="2955" fill="blue" r="4" stroke="blue" stroke-width="1"/>
<line stroke="blue" stroke-width="1" x1="15" x2="15" y1="2970" y2="2985"/>
<circle cx="15" cy="2970" fill="blue" r="4" stroke="blue" stroke-width="1"/>
<line stroke="blue" stroke-width="1" x1="15" x2="15" y1="2985" y2="3000"/>
<circle cx="15" cy="2985" fill="blue" r="4" stroke="blue" stroke-width="1"/>
<line stroke="blue" stroke-width="1" x1="15" x2="15" y1="3000" y2="3015"/>
<circle cx="15" cy="3000" fill="blue" r="4" stroke="blue" stroke-width="1"/>
<line stroke="blue" stroke-width="1" x1="15" x2="15" y1="3015" y2="3030"/>
<circle cx="15" cy="3015" fill="blue" r="4" stroke="blue" stroke-width="1"/>
<line stroke="blue" stroke-width="1" x1="15" x2="15" y1="3030" y2="3045"/>
<circle cx="15" cy="3030" fill="blue" r="4" stroke="blue" stroke-width="1"/>
<line stroke="blue" stroke-width="1" x1="15" x2="15" y1="3045" y2="3060"/>
<path d="M15,3045 L15,3045 Q15,3052.5,30,3052.5 Q45,3052.5,45,3060 L45,3075" fill="none" stroke="gray" stroke-width="1"/>
<circle cx="15" cy="3045" fill="white" r="4" stroke="blue" stroke-width="1"/>
<line stroke="blue" stroke-width="1" x1="15" x2="15" y1="3060" y2="3105"/>
<circle cx="15" cy="3060" fill="blue" r="4" stroke="blue" stroke-width="1"/>
<line stroke="gray" stroke-width="1" x1="45" x2="45" y1="3075" y2="3090"/>
<circle cx="45" cy="3075" fill="gray" r="4" stroke="gray" stroke-width="1"/>
<path d="M45,3090 L45,3090 Q45,3097.5,30,3097.5 Q15,3097.5,15,3105 L15,3105" fill="none" stroke="gray" stroke-width="1"/>
<circle cx="45" cy="3090" fill="gray" r="4" stroke="gray" stroke-width="1"/>
<line stroke="blue" stroke-width="1" x1="15" x2="15" y1="3105" y2="3120"/>
<circle cx="15" cy="3105" fill="blue" r="4" stroke="blue" stroke-width="1"/>
<line stroke="blue" stroke-width="1" x1="15" x2="15" y1="3120" y2="3135"/>
<circle cx="15" cy="3120" fill="blue" r="4" stroke="blue" stroke-width="1"/>
<line stroke="blue" stroke-width="1" x1="15" x2="15" y1="3135" y2="3150"/>
<circle cx="15" cy="3135" fill="blue" r="4" stroke="blue" stroke-width="1"/>
<line stroke="blue" stroke-width="1" x1="15" x2="15" y1="3150" y2="3165"/>
<circle cx="15" cy="3150" fill="blue" r="4" stroke="blue" stroke-width="1"/>
<line stroke="blue" stroke-width="1" x1="15" x2="15" y1="3165" y2="3180"/>
<circle cx="15" cy="3165" fill="blue" r="4" stroke="blue" stroke-width="1"/>
<line stroke="blue" stroke-width="1" x1="15" x2="15" y1="3180" y2="3195"/>
<circle cx="15" cy="3180" fill="blue" r="4" stroke="blue" stroke-width="1"/>
<line stroke="blue" stroke-width="1" x1="15" x2="15" y1="3195" y2="3210"/>
<circle cx="15" cy="3195" fill="blue" r="4" stroke="blue" stroke-width="1"/>
<line stroke="blue" stroke-width="1" x1="15" x2="15" y1="3210" y2="3225"/>
<circle cx="15" cy="3210" fill="blue" r="4" stroke="blue" stroke-width="1"/>
<line stroke="blue" stroke-width="1" x1="15" x2="15" y1="3225" y2="3240"/>
<circle cx="15" cy="3225" fill="blue" r="4" stroke="blue" stroke-width="1"/>
<line stroke="blue" stroke-width="1" x1="15" x2="15" y1="3240" y2="3255"/>
<circle cx="15" cy="3240" fill="blue" r="4" stroke="blue" stroke-width="1"/>
<line stroke="blue" stroke-width="1" x1="15" x2="15" y1="3255" y2="3270"/>
<circle cx="15" cy="3255" fill="blue" r="4" stroke="blue" stroke-width="1"/>
<line stroke="blue" stroke-width="1" x1="15" x2="15" y1="3270" y2="3285"/>
<circle cx="15" cy="3270" fill="blue" r="4" stroke="blue" stroke-width="1"/>
<line stroke="blue" stroke-width="1" x1="15" x2="15" y1="3285" y2="3300"/>
<circle cx="15" cy="3285" fill="blue" r="4" stroke="blue" stroke-width="1"/>
<circle cx="15" cy="3300" fill="blue" r="4" stroke="blue" stroke-width="1"/>
</svg>
