<svg height="3420" viewBox="0 0 90 3420" width="90" xmlns="http://www.w3.org/2000/svg">
<line stroke="orange" stroke-width="1" x1="45" x2="45" y1="15" y2="30"/>
<path d="M45,15 L45,15 Q45,22.5,37.5,22.5 Q30,22.5,30,30 L30,60" fill="none" stroke="orange" stroke-width="1"/>
<circle cx="45" cy="15" fill="white" r="4" stroke="orange" stroke-width="1"/>
<path d="M45,30 L45,210 Q45,217.5,37.5,217.5 Q30,217.5,30,225 L30,225" fill="none" stroke="orange" stroke-width="1"/>
<circle cx="45" cy="30" fill="orange" r="4" stroke="orange" stroke-width="1"/>
<line stroke="blue" stroke-width="1" x1="15" x2="15" y1="45" y2="75"/>
<path d="M15,45 L15,45 Q15,52.5,22.5,52.5 Q30,52.5,30,60 L30,60" fill="none" stroke="orange" stroke-width="1"/>
<circle cx="15" cy="45" fill="white" r="4" stroke="blue" stroke-width="1"/>
<line stroke="orange" stroke-width="1" x1="30" x2="30" y1="60" y2="90"/>
<circle cx="30" cy="60" fill="orange" r="4" stroke="orange" stroke-width="1"/>
<line stroke="blue" stroke-width="1" x1="15" x2="15" y1="75" y2="105"/>
<path d="M15,75 L15,75 Q15,82.5,22.5,82.5 Q30,82.5,30,90 L30,90" fill="none" stroke="orange" stroke-width="1"/>
<circle cx="15" cy="75" fill="white" r="4" stroke="blue" stroke-width="1"/>
<line stroke="orange" stroke-width="1" x1="30" x2="30" y1="90" y2="135"/>
<circle cx="30" cy="90" fill="orange" r="4" stroke="orange" stroke-width="1"/>
<line stroke="blue" stroke-width="1" x1="15" x2="15" y1="105" y2="120"/>
<circle cx="15" cy="105" fill="blue" r="4" stroke="blue" stroke-width="1"/>
<line stroke="blue" stroke-width="1" x1="15" x2="15" y1="120" y2="150"/>
<path d="M15,120 L15,120 Q15,127.5,22.5,127.5 Q30,127.5,30,135 L30,135" fill="none" stroke="orange" stroke-width="1"/>
<circle cx="15" cy="120" fill="white" r="4" stroke="blue" stroke-width="1"/>
<line stroke="orange" stroke-width="1" x1="30" x2="30" y1="135" y2="165"/>
<circle cx="30" cy="135" fill="orange" r="4" stroke="orange" stroke-width="1"/>
<line stroke="blue" stroke-width="1" x1="15" x2="15" y1="150" y2="210"/>
<path d="M15,150 L15,150 Q15,157.5,22.5,157.5 Q30,157.5,30,165 L30,165" fill="none" stroke="orange" stroke-width="1"/>
<circle cx="15" cy="150" fill="white" r="4" stroke="blue" stroke-width="1"/>
<line stroke="orange" stroke-width="1" x1="30" x2="30" y1="165" y2="180"/>
<circle cx="30" cy="165" fill="orange" r="4" stroke="orange" stroke-width="1"/>
<line stroke="orange" stroke-width="1" x1="30" x2="30" y1="180" y2="195"/>
<circle cx="30" cy="180" fill="orange" r="4" stroke="orange" stroke-width="1"/>
<line stroke="orange" stroke-width="1" x1="30" x2="30" y1="195" y2="225"/>
<circle cx="30" cy="195" fill="orange" r="4" stroke="orange" stroke-width="1"/>
<line stroke="blue" stroke-width="1" x1="15" x2="15" y1="210" y2="285"/>
<path d="M15,210 L15,210 Q15,217.5,22.5,217.5 Q30,217.5,30,225 L30,225" fill="none" stroke="orange" stroke-width="1"/>
<circle cx="15" cy="210" fill="white" r="4" stroke="blue" stroke-width="1"/>
<line stroke="orange" stroke-width="1" x1="30" x2="30" y1="225" y2="240"/>
<circle cx="30" cy="225" fill="orange" r="4" stroke="orange" stroke-width="1"/>
<line stroke="orange" stroke-width="1" x1="30" x2="30" y1="240" y2="255"/>
<circle cx="30" cy="240" fill="orange" r="4" stroke="orange" stroke-width="1"/>
<line stroke="orange" stroke-width="1" x1="30" x2="30" y1="255" y2="270"/>
<circle cx="30" cy="255" fill="orange" r="4" stroke="orange" stroke-width="1"/>
<line stroke="orange" stroke-width="1" x1="30" x2="30" y1="270" y2="300"/>
<circle cx="30" cy="270" fill="orange" r="4" stroke="orange" stroke-width="1"/>
<line stroke="blue" stroke-width="1" x1="15" x2="15" y1="285" y2="510"/>
<path d="M15,285 L15,285 Q15,292.5,22.5,292.5 Q30,292.5,30,300 L30,300" fill="none" stroke="orange" stroke-width="1"/>
<circle cx="15" cy="285" fill="white" r="4" stroke="blue" stroke-width="1"/>
<line stroke="orange" stroke-width="1" x1="30" x2="30" y1="300" y2="315"/>
<circle cx="30" cy="300" fill="orange" r="4" stroke="orange" stroke-width="1"/>
<line stroke="orange" stroke-width="1" x1="30" x2="30" y1="315" y2="330"/>
<circle cx="30" cy="315" fill="orange" r="4" stroke="orange" stroke-width="1"/>
<line stroke="orange" stroke-width="1" x1="30" x2="30" y1="330" y2="345"/>
<circle cx="30" cy="330" fill="orange" r="4" stroke="orange" stroke-width="1"/>
<line stroke="orange" stroke-width="1" x1="30" x2="30" y1="345" y2="360"/>
<circle cx="30" cy="345" fill="orange" r="4" stroke="orange" stroke-width="1"/>
<line stroke="orange" stroke-width="1" x1="30" x2="30" y1="360" y2="375"/>
<circle cx="30" cy="360" fill="orange" r="4" stroke="orange" stroke-width="1"/>
<line stroke="orange" stroke-width="1" x1="30" x2="30" y1="375" y2="390"/>
<circle cx="30" cy="375" fill="orange" r="4" stroke="orange" stroke-width="1"/>
<line stroke="orange" stroke-width="1" x1="30" x2="30" y1="390" y2="405"/>
<circle cx="30" cy="390" fill="orange" r="4" stroke="orange" stroke-width="1"/>
<line stroke="orange" stroke-width="1" x1="30" x2="30" y1="405" y2="420"/>
<circle cx="30" cy="405" fill="orange" r="4" stroke="orange" stroke-width="1"/>
<line stroke="orange" stroke-width="1" x1="30" x2="30" y1="420" y2="435"/>
<circle cx="30" cy="420" fill="orange" r="4" stroke="orange" stroke-width="1"/>
<line stroke="orange" stroke-width="1" x1="30" x2="30" y1="435" y2="450"/>
<circle cx="30" cy="435" fill="orange" r="4" stroke="orange" stroke-width="1"/>
<line stroke="orange" stroke-width="1" x1="30" x2="30" y1="450" y2="465"/>
<circle cx="30" cy="450" fill="orange" r="4" stroke="orange" stroke-width="1"/>
<line stroke="orange" stroke-width="1" x1="30" x2="30" y1="465" y2="480"/>
<circle cx="30" cy="465" fill="orange" r="4" stroke="orange" stroke-width="1"/>
<line stroke="orange" stroke-width="1" x1="30" x2="30" y1="480" y2="495"/>
<circle cx="30" cy="480" fill="orange" r="4" stroke="orange" stroke-width="1"/>
<line stroke="orange" stroke-width="1" x1="30" x2="30" y1="495" y2="525"/>
<circle cx="30" cy="495" fill="orange" r="4" stroke="orange" stroke-width="1"/>
<line stroke="blue" stroke-width="1" x1="15" x2="15" y1="510" y2="555"/>
<path d="M15,510 L15,510 Q15,517.5,22.5,517.5 Q30,517.5,30,525 L30,525" fill="none" stroke="orange" stroke-width="1"/>
<circle cx="15" cy="510" fill="white" r="4" stroke="blue" stroke-width="1"/>
<line stroke="orange" stroke-width="1" x1="30" x2="30" y1="525" y2="540"/>
<circle cx="30" cy="525" fill="orange" r="4" stroke="orange" stroke-width="1"/>
<line stroke="orange" stroke-width="1" x1="30" x2="30" y1="540" y2="570"/>
<circle cx="30" cy="540" fill="orange" r="4" stroke="orange" stroke-width="1"/>
<line stroke="blue" stroke-width="1" x1="15" x2="15" y1="555" y2="585"/>
<path d="M15,555 L15,555 Q15,562.5,22.5,562.5 Q30,562.5,30,570 L30,570" fill="none" stroke="orange" stroke-width="1"/>
<circle cx="15" cy="555" fill="white" r="4" stroke="blue" stroke-width="1"/>
<line stroke="orange" stroke-width="1" x1="30" x2="30" y1="570" y2="600"/>
<circle cx="30" cy="570" fill="orange" r="4" stroke="orange" stroke-width="1"/>
<line stroke="blue" stroke-width="1" x1="15" x2="15" y1="585" y2="615"/>
<path d="M15,585 L15,585 Q15,592.5,22.5,592.5 Q30,592.5,30,600 L30,600" fill="none" stroke="orange" stroke-width="1"/>
<circle cx="15" cy="585" fill="white" r="4" stroke="blue" stroke-width="1"/>
<line stroke="orange" stroke-width="1" x1="30" x2="30" y1="600" y2="630"/>
<circle cx="30" cy="600" fill="orange" r="4" stroke="orange" stroke-width="1"/>
<line stroke="blue" stroke-width="1" x1="15" x2="15" y1="615" y2="645"/>
<path d="M15,615 L15,615 Q15,622.5,22.5,622.5 Q30,622.5,30,630 L30,630" fill="none" stroke="orange" stroke-width="1"/>
<circle cx="15" cy="615" fill="white" r="4" stroke="blue" stroke-width="1"/>
<line stroke="orange" stroke-width="1" x1="30" x2="30" y1="630" y2="660"/>
<circle cx="30" cy="630" fill="orange" r="4" stroke="orange" stroke-width="1"/>
<line stroke="blue" stroke-width="1" x1="15" x2="15" y1="645" y2="690"/>
<path d="M15,645 L15,645 Q15,652.5,22.5,652.5 Q30,652.5,30,660 L30,660" fill="none" stroke="orange" stroke-width="1"/>
<circle cx="15" cy="645" fill="white" r="4" stroke="blue" stroke-width="1"/>
<line stroke="orange" stroke-width="1" x1="30" x2="30" y1="660" y2="675"/>
<circle cx="30" cy="660" fill="orange" r="4" stroke="orange" stroke-width="1"/>
<line stroke="orange" stroke-width="1" x1="30" x2="30" y1="675" y2="705"/>
<circle cx="30" cy="675" fill="orange" r="4" stroke="orange" stroke-width="1"/>
<line stroke="blue" stroke-width="1" x1="15" x2="15" y1="690" y2="825"/>
<path d="M15,690 L15,690 Q15,697.5,22.5,697.5 Q30,697.5,30,705 L30,705" fill="none" stroke="orange" stroke-width="1"/>
<circle cx="15" cy="690" fill="white" r="4" stroke="blue" stroke-width="1"/>
<line stroke="orange" stroke-width="1" x1="30" x2="30" y1="705" y2="720"/>
<circle cx="30" cy="705" fill="orange" r="4" stroke="orange" stroke-width="1"/>
<line stroke="orange" stroke-width="1" x1="30" x2="30" y1="720" y2="735"/>
<circle cx="30" cy="720" fill="orange" r="4" stroke="orange" stroke-width="1"/>
<line stroke="orange" stroke-width="1" x1="30" x2="30" y1="735" y2="750"/>
<circle cx="30" cy="735" fill="orange" r="4" stroke="orange" stroke-width="1"/>
<line stroke="orange" stroke-width="1" x1="30" x2="30" y1="750" y2="765"/>
<circle cx="30" cy="750" fill="orange" r="4" stroke="orange" stroke-width="1"/>
<line stroke="orange" stroke-width="1" x1="30" x2="30" y1="765" y2="780"/>
<circle cx="30" cy="765" fill="orange" r="4" stroke="orange" stroke-width="1"/>
<line stroke="orange" stroke-width="1" x1="30" x2="30" y1="780" y2="795"/>
<circle cx="30" cy="780" fill="orange" r="4" stroke="orange" stroke-width="1"/>
<line stroke="orange" stroke-width="1" x1="30" x2="30" y1="795" y2="810"/>
<circle cx="30" cy="795" fill="orange" r="4" stroke="orange" stroke-width="1"/>
<line stroke="orange" stroke-width="1" x1="30" x2="30" y1="810" y2="840"/>
<circle cx="30" cy="810" fill="orange" r="4" stroke="orange" stroke-width="1"/>
<line stroke="blue" stroke-width="1" x1="15" x2="15" y1="825" y2="855"/>
<path d="M15,825 L15,825 Q15,832.5,22.5,832.5 Q30,832.5,30,840 L30,840" fill="none" stroke="orange" stroke-width="1"/>
<circle cx="15" cy="825" fill="white" r="4" stroke="blue" stroke-width="1"/>
<line stroke="orange" stroke-width="1" x1="30" x2="30" y1="840" y2="870"/>
<circle cx="30" cy="840" fill="orange" r="4" stroke="orange" stroke-width="1"/>
<line stroke="blue" stroke-width="1" x1="15" x2="15" y1="855" y2="945"/>
<path d="M15,855 L15,855 Q15,862.5,22.5,862.5 Q30,862.5,30,870 L30,870" fill="none" stroke="orange" stroke-width="1"/>
<circle cx="15" cy="855" fill="white" r="4" stroke="blue" stroke-width="1"/>
<line stroke="orange" stroke-width="1" x1="30" x2="30" y1="870" y2="885"/>
<circle cx="30" cy="870" fill="orange" r="4" stroke="orange" stroke-width="1"/>
<line stroke="orange" stroke-width="1" x1="30" x2="30" y1="885" y2="900"/>
<circle cx="30" cy="885" fill="orange" r="4" stroke="orange" stroke-width="1"/>
<line stroke="orange" stroke-width="1" x1="30" x2="30" y1="900" y2="915"/>
<path d="M30,900 L30,900 Q30,907.5,45,907.5 Q60,907.5,60,915 L60,930" fill="none" stroke="turquoise" stroke-width="1"/>
<circle cx="30" cy="900" fill="white" r="4" stroke="orange" stroke-width="1"/>
<line stroke="orange" stroke-width="1" x1="30" x2="30" y1="915" y2="990"/>
<circle cx="30" cy="915" fill="orange" r="4" stroke="orange" stroke-width="1"/>
<line stroke="turquoise" stroke-width="1" x1="60" x2="60" y1="930" y2="960"/>
<circle cx="60" cy="930" fill="turquoise" r="4" stroke="turquoise" stroke-width="1"/>
<line stroke="blue" stroke-width="1" x1="15" x2="15" y1="945" y2="975"/>
<path d="M15,945 L15,945 Q15,952.5,37.5,952.5 Q60,952.5,60,960 L60,960" fill="none" stroke="turquoise" stroke-width="1"/>
<circle cx="15" cy="945" fill="white" r="4" stroke="blue" stroke-width="1"/>
<path d="M60,960 L60,975 Q60,982.5,45,982.5 Q30,982.5,30,990 L30,990" fill="none" stroke="turquoise" stroke-width="1"/>
<circle cx="60" cy="960" fill="turquoise" r="4" stroke="turquoise" stroke-width="1"/>
<line stroke="blue" stroke-width="1" x1="15" x2="15" y1="975" y2="1035"/>
<path d="M15,975 L15,975 Q15,982.5,22.5,982.5 Q30,982.5,30,990 L30,990" fill="none" stroke="orange" stroke-width="1"/>
<circle cx="15" cy="975" fill="white" r="4" stroke="blue" stroke-width="1"/>
<line stroke="orange" stroke-width="1" x1="30" x2="30" y1="990" y2="1005"/>
<circle cx="30" cy="990" fill="orange" r="4" stroke="orange" stroke-width="1"/>
<line stroke="orange" stroke-width="1" x1="30" x2="30" y1="1005" y2="1020"/>
<circle cx="30" cy="1005" fill="orange" r="4" stroke="orange" stroke-width="1"/>
<line stroke="orange" stroke-width="1" x1="30" x2="30" y1="1020" y2="1050"/>
<circle cx="30" cy="1020" fill="orange" r="4" stroke="orange" stroke-width="1"/>
<line stroke="blue" stroke-width="1" x1="15" x2="15" y1="1035" y2="1065"/>
<path d="M15,1035 L15,1035 Q15,1042.5,22.5,1042.5 Q30,1042.5,30,1050 L30,1050" fill="none" stroke="orange" stroke-width="1"/>
<circle cx="15" cy="1035" fill="white" r="4" stroke="blue" stroke-width="1"/>
<line stroke="orange" stroke-width="1" x1="30" x2="30" y1="1050" y2="1080"/>
<circle cx="30" cy="1050" fill="orange" r="4" stroke="orange" stroke-width="1"/>
<line stroke="blue" stroke-width="1" x1="15" x2="15" y1="1065" y2="1275"/>
<path d="M15,1065 L15,1065 Q15,1072.5,22.5,1072.5 Q30,1072.5,30,1080 L30,1080" fill="none" stroke="orange" stroke-width="1"/>
<circle cx="15" cy="1065" fill="white" r="4" stroke="blue" stroke-width="1"/>
<line stroke="orange" stroke-width="1" x1="30" x2="30" y1="1080" y2="1095"/>
<circle cx="30" cy="1080" fill="orange" r="4" stroke="orange" stroke-width="1"/>
<line stroke="orange" stroke-width="1" x1="30" x2="30" y1="1095" y2="1110"/>
<circle cx="30" cy="1095" fill="orange" r="4" stroke="orange" stroke-width="1"/>
<line stroke="orange" stroke-width="1" x1="30" x2="30" y1="1110" y2="1125"/>
<circle cx="30" cy="1110" fill="orange" r="4" stroke="orange" stroke-width="1"/>
<line stroke="orange" stroke-width="1" x1="30" x2="30" y1="1125" y2="1140"/>
<circle cx="30" cy="1125" fill="orange" r="4" stroke="orange" stroke-width="1"/>
<line stroke="orange" stroke-width="1" x1="30" x2="30" y1="1140" y2="1155"/>
<circle cx="30" cy="1140" fill="orange" r="4" stroke="orange" stroke-width="1"/>
<line stroke="orange" stroke-width="1" x1="30" x2="30" y1="1155" y2="1170"/>
<circle cx="30" cy="1155" fill="orange" r="4" stroke="orange" stroke-width="1"/>
<line stroke="orange" stroke-width="1" x1="30" x2="30" y1="1170" y2="1185"/>
<circle cx="30" cy="1170" fill="orange" r="4" stroke="orange" stroke-width="1"/>
<line stroke="orange" stroke-width="1" x1="30" x2="30" y1="1185" y2="1200"/>
<circle cx="30" cy="1185" fill="orange" r="4" stroke="orange" stroke-width="1"/>
<line stroke="orange" stroke-width="1" x1="30" x2="30" y1="1200" y2="1215"/>
<circle cx="30" cy="1200" fill="orange" r="4" stroke="orange" stroke-width="1"/>
<line stroke="orange" stroke-width="1" x1="30" x2="30" y1="1215" y2="1230"/>
<circle cx="30" cy="1215" fill="orange" r="4" stroke="orange" stroke-width="1"/>
<line stroke="orange" stroke-width="1" x1="30" x2="30" y1="1230" y2="1245"/>
<circle cx="30" cy="1230" fill="orange" r="4" stroke="orange" stroke-width="1"/>
<line stroke="orange" stroke-width="1" x1="30" x2="30" y1="1245" y2="1260"/>
<circle cx="30" cy="1245" fill="orange" r="4" stroke="orange" stroke-width="1"/>
<line stroke="orange" stroke-width="1" x1="30" x2="30" y1="1260" y2="1290"/>
<circle cx="30" cy="1260" fill="orange" r="4" stroke="orange" stroke-width="1"/>
<line stroke="blue" stroke-width="1" x1="15" x2="15" y1="1275" y2="1365"/>
<path d="M15,1275 L15,1275 Q15,1282.5,22.5,1282.5 Q30,1282.5,30,1290 L30,1290" fill="none" stroke="orange" stroke-width="1"/>
<circle cx="15" cy="1275" fill="white" r="4" stroke="blue" stroke-width="1"/>
<line stroke="orange" stroke-width="1" x1="30" x2="30" y1="1290" y2="1335"/>
<circle cx="30" cy="1290" fill="orange" r="4" stroke="orange" stroke-width="1"/>
<line stroke="gray" stroke-width="1" x1="60" x2="60" y1="1305" y2="1320"/>
<circle cx="60" cy="1305" fill="gray" r="4" stroke="gray" stroke-width="1"/>
<line stroke="gray" stroke-width="1" x1="60" x2="60" y1="1320" y2="1350"/>
<path d="M60,1320 L60,1320 Q60,1327.5,45,1327.5 Q30,1327.5,30,1335 L30,1335" fill="none" stroke="orange" stroke-width="1"/>
<circle cx="60" cy="1320" fill="white" r="4" stroke="gray" stroke-width="1"/>
<line stroke="orange" stroke-width="1" x1="30" x2="30" y1="1335" y2="1380"/>
<circle cx="30" cy="1335" fill="orange" r="4" stroke="orange" stroke-width="1"/>
<path d="M60,1350 L60,1350 Q60,1357.5,67.5,1357.5 Q75,1357.5,75,1365 L75,1440" fill="none" stroke="gray" stroke-width="1"/>
<path d="M60,1350 L60,1350 Q60,1357.5,45,1357.5 Q30,1357.5,30,1365 L30,1380" fill="none" stroke="orange" stroke-width="1"/>
<circle cx="60" cy="1350" fill="white" r="4" stroke="gray" stroke-width="1"/>
<line stroke="blue" stroke-width="1" x1="15" x2="15" y1="1365" y2="1635"/>
<path d="M15,1365 L15,1365 Q15,1372.5,22.5,1372.5 Q30,1372.5,30,1380 L30,1380" fill="none" stroke="orange" stroke-width="1"/>
<circle cx="15" cy="1365" fill="white" r="4" stroke="blue" stroke-width="1"/>
<line stroke="orange" stroke-width="1" x1="30" x2="30" y1="1380" y2="1395"/>
<circle cx="30" cy="1380" fill="orange" r="4" stroke="orange" stroke-width="1"/>
<line stroke="orange" stroke-width="1" x1="30" x2="30" y1="1395" y2="1410"/>
<circle cx="30" cy="1395" fill="orange" r="4" stroke="orange" stroke-width="1"/>
<line stroke="orange" stroke-width="1" x1="30" x2="30" y1="1410" y2="1425"/>
<circle cx="30" cy="1410" fill="orange" r="4" stroke="orange" stroke-width="1"/>
<line stroke="orange" stroke-width="1" x1="30" x2="30" y1="1425" y2="1590"/>
<path d="M30,1425 L30,1425 Q30,1432.5,52.5,1432.5 Q75,1432.5,75,1440 L75,1440" fill="none" stroke="gray" stroke-width="1"/>
<circle cx="30" cy="1425" fill="white" r="4" stroke="orange" stroke-width="1"/>
<line stroke="gray" stroke-width="1" x1="75" x2="75" y1="1440" y2="1455"/>
<circle cx="75" cy="1440" fill="gray" r="4" stroke="gray" stroke-width="1"/>
<line stroke="gray" stroke-width="1" x1="75" x2="75" y1="1455" y2="1470"/>
<circle cx="75" cy="1455" fill="gray" r="4" stroke="gray" stroke-width="1"/>
<line stroke="gray" stroke-width="1" x1="75" x2="75" y1="1470" y2="1485"/>
<circle cx="75" cy="1470" fill="gray" r="4" stroke="gray" stroke-width="1"/>
<line stroke="gray" stroke-width="1" x1="75" x2="75" y1="1485" y2="1500"/>
<circle cx="75" cy="1485" fill="gray" r="4" stroke="gray" stroke-width="1"/>
<line stroke="gray" stroke-width="1" x1="75" x2="75" y1="1500" y2="1515"/>
<circle cx="75" cy="1500" fill="gray" r="4" stroke="gray" stroke-width="1"/>
<line stroke="gray" stroke-width="1" x1="75" x2="75" y1="1515" y2="1530"/>
<path d="M75,1515 L75,1515 Q75,1522.5,52.5,1522.5 Q30,1522.5,30,1530 L30,1590" fill="none" stroke="orange" stroke-width="1"/>
<circle cx="75" cy="1515" fill="white" r="4" stroke="gray" stroke-width="1"/>
<line stroke="gray" stroke-width="1" x1="75" x2="75" y1="1530" y2="1545"/>
<circle cx="75" cy="1530" fill="gray" r="4" stroke="gray" stroke-width="1"/>
<line stroke="gray" stroke-width="1" x1="75" x2="75" y1="1545" y2="1560"/>
<circle cx="75" cy="1545" fill="gray" r="4" stroke="gray" stroke-width="1"/>
<line stroke="gray" stroke-width="1" x1="75" x2="75" y1="1560" y2="1575"/>
<circle cx="75" cy="1560" fill="gray" r="4" stroke="gray" stroke-width="1"/>
<line stroke="gray" stroke-width="1" x1="75" x2="75" y1="1575" y2="1710"/>
<circle cx="75" cy="1575" fill="gray" r="4" stroke="gray" stroke-width="1"/>
<line stroke="orange" stroke-width="1" x1="30" x2="30" y1="1590" y2="1605"/>
<circle cx="30" cy="1590" fill="orange" r="4" stroke="orange" stroke-width="1"/>
<line stroke="orange" stroke-width="1" x1="30" x2="30" y1="1605" y2="1620"/>
<circle cx="30" cy="1605" fill="orange" r="4" stroke="orange" stroke-width="1"/>
<line stroke="orange" stroke-width="1" x1="30" x2="30" y1="1620" y2="1665"/>
<path d="M30,1620 L30,1620 Q30,1627.5,45,1627.5 Q60,1627.5,60,1635 L60,1650" fill="none" stroke="gray" stroke-width="1"/>
<circle cx="30" cy="1620" fill="white" r="4" stroke="orange" stroke-width="1"/>
<line stroke="blue" stroke-width="1" x1="15" x2="15" y1="1635" y2="1785"/>
<path d="M15,1635 L15,1635 Q15,1642.5,22.5,1642.5 Q30,1642.5,30,1650 L30,1665" fill="none" stroke="orange" stroke-width="1"/>
<circle cx="15" cy="1635" fill="white" r="4" stroke="blue" stroke-width="1"/>
<path d="M60,1650 L60,1815 Q60,1822.5,45,1822.5 Q30,1822.5,30,1830 L30,1830" fill="none" stroke="gray" stroke-width="1"/>
<circle cx="60" cy="1650" fill="gray" r="4" stroke="gray" stroke-width="1"/>
<line stroke="orange" stroke-width="1" x1="30" x2="30" y1="1665" y2="1680"/>
<circle cx="30" cy="1665" fill="orange" r="4" stroke="orange" stroke-width="1"/>
<line stroke="orange" stroke-width="1" x1="30" x2="30" y1="1680" y2="1695"/>
<circle cx="30" cy="1680" fill="orange" r="4" stroke="orange" stroke-width="1"/>
<line stroke="orange" stroke-width="1" x1="30" x2="30" y1="1695" y2="1830"/>
<path d="M30,1695 L30,1695 Q30,1702.5,52.5,1702.5 Q75,1702.5,75,1710 L75,1710" fill="none" stroke="gray" stroke-width="1"/>
<circle cx="30" cy="1695" fill="white" r="4" stroke="orange" stroke-width="1"/>
<line stroke="gray" stroke-width="1" x1="75" x2="75" y1="1710" y2="1725"/>
<circle cx="75" cy="1710" fill="gray" r="4" stroke="gray" stroke-width="1"/>
<line stroke="gray" stroke-width="1" x1="75" x2="75" y1="1725" y2="1740"/>
<circle cx="75" cy="1725" fill="gray" r="4" stroke="gray" stroke-width="1"/>
<line stroke="gray" stroke-width="1" x1="75" x2="75" y1="1740" y2="1755"/>
<circle cx="75" cy="1740" fill="gray" r="4" stroke="gray" stroke-width="1"/>
<line stroke="gray" stroke-width="1" x1="75" x2="75" y1="1755" y2="1770"/>
<circle cx="75" cy="1755" fill="gray" r="4" stroke="gray" stroke-width="1"/>
<line stroke="gray" stroke-width="1" x1="75" x2="75" y1="1770" y2="2025"/>
<circle cx="75" cy="1770" fill="gray" r="4" stroke="gray" stroke-width="1"/>
<line stroke="blue" stroke-width="1" x1="15" x2="15" y1="1785" y2="1800"/>
<circle cx="15" cy="1785" fill="blue" r="4" stroke="blue" stroke-width="1"/>
<line stroke="blue" stroke-width="1" x1="15" x2="15" y1="1800" y2="1815"/>
<circle cx="15" cy="1800" fill="blue" r="4" stroke="blue" stroke-width="1"/>
<line stroke="blue" stroke-width="1" x1="15" x2="15" y1="1815" y2="2070"/>
<path d="M15,1815 L15,1815 Q15,1822.5,22.5,1822.5 Q30,1822.5,30,1830 L30,1830" fill="none" stroke="orange" stroke-width="1"/>
<circle cx="15" cy="1815" fill="white" r="4" stroke="blue" stroke-width="1"/>
<line stroke="orange" stroke-width="1" x1="30" x2="30" y1="1830" y2="1845"/>
<circle cx="30" cy="1830" fill="orange" r="4" stroke="orange" stroke-width="1"/>
<line stroke="orange" stroke-width="1" x1="30" x2="30" y1="1845" y2="1860"/>
<circle cx="30" cy="1845" fill="orange" r="4" stroke="orange" stroke-width="1"/>
<line stroke="orange" stroke-width="1" x1="30" x2="30" y1="1860" y2="1875"/>
<circle cx="30" cy="1860" fill="orange" r="4" stroke="orange" stroke-width="1"/>
<line stroke="orange" stroke-width="1" x1="30" x2="30" y1="1875" y2="1890"/>
<circle cx="30" cy="1875" fill="orange" r="4" stroke="orange" stroke-width="1"/>
<line stroke="orange" stroke-width="1" x1="30" x2="30" y1="1890" y2="1905"/>
<circle cx="30" cy="1890" fill="orange" r="4" stroke="orange" stroke-width="1"/>
<line stroke="orange" stroke-width="1" x1="30" x2="30" y1="1905" y2="1920"/>
<circle cx="30" cy="1905" fill="orange" r="4" stroke="orange" stroke-width="1"/>
<line stroke="orange" stroke-width="1" x1="30" x2="30" y1="1920" y2="1935"/>
<circle cx="30" cy="1920" fill="orange" r="4" stroke="orange" stroke-width="1"/>
<line stroke="orange" stroke-width="1" x1="30" x2="30" y1="1935" y2="1950"/>
<circle cx="30" cy="1935" fill="orange" r="4" stroke="orange" stroke-width="1"/>
<line stroke="orange" stroke-width="1" x1="30" x2="30" y1="1950" y2="1965"/>
<circle cx="30" cy="1950" fill="orange" r="4" stroke="orange" stroke-width="1"/>
<line stroke="orange" stroke-width="1" x1="30" x2="30" y1="1965" y2="1980"/>
<circle cx="30" cy="1965" fill="orange" r="4" stroke="orange" stroke-width="1"/>
<line stroke="orange" stroke-width="1" x1="30" x2="30" y1="1980" y2="1995"/>
<circle cx="30" cy="1980" fill="orange" r="4" stroke="orange" stroke-width="1"/>
<line stroke="orange" stroke-width="1" x1="30" x2="30" y1="1995" y2="2010"/>
<circle cx="30" cy="1995" fill="orange" r="4" stroke="orange" stroke-width="1"/>
<line stroke="orange" stroke-width="1" x1="30" x2="30" y1="2010" y2="2040"/>
<circle cx="30" cy="2010" fill="orange" r="4" stroke="orange" stroke-width="1"/>
<path d="M75,2025 L75,2025 Q75,2032.5,52.5,2032.5 Q30,2032.5,30,2040 L30,2040" fill="none" stroke="gray" stroke-width="1"/>
<circle cx="75" cy="2025" fill="gray" r="4" stroke="gray" stroke-width="1"/>
<line stroke="orange" stroke-width="1" x1="30" x2="30" y1="2040" y2="2055"/>
<circle cx="30" cy="2040" fill="orange" r="4" stroke="orange" stroke-width="1"/>
<line stroke="orange" stroke-width="1" x1="30" x2="30" y1="2055" y2="2085"/>
<circle cx="30" cy="2055" fill="orange" r="4" stroke="orange" stroke-width="1"/>
<line stroke="blue" stroke-width="1" x1="15" x2="15" y1="2070" y2="2160"/>
<path d="M15,2070 L15,2070 Q15,2077.5,22.5,2077.5 Q30,2077.5,30,2085 L30,2085" fill="none" stroke="orange" stroke-width="1"/>
<circle cx="15" cy="2070" fill="white" r="4" stroke="blue" stroke-width="1"/>
<line stroke="orange" stroke-width="1" x1="30" x2="30" y1="2085" y2="2100"/>
<circle cx="30" cy="2085" fill="orange" r="4" stroke="orange" stroke-width="1"/>
<line stroke="orange" stroke-width="1" x1="30" x2="30" y1="2100" y2="2115"/>
<circle cx="30" cy="2100" fill="orange" r="4" stroke="orange" stroke-width="1"/>
<line stroke="orange" stroke-width="1" x1="30" x2="30" y1="2115" y2="2130"/>
<path d="M30,2115 L30,2115 Q30,2122.5,45,2122.5 Q60,2122.5,60,2130 L60,2145" fill="none" stroke="gray" stroke-width="1"/>
<circle cx="30" cy="2115" fill="white" r="4" stroke="orange" stroke-width="1"/>
<line stroke="orange" stroke-width="1" x1="30" x2="30" y1="2130" y2="2175"/>
<circle cx="30" cy="2130" fill="orange" r="4" stroke="orange" stroke-width="1"/>
<line stroke="gray" stroke-width="1" x1="60" x2="60" y1="2145" y2="2235"/>
<circle cx="60" cy="2145" fill="gray" r="4" stroke="gray" stroke-width="1"/>
<line stroke="blue" stroke-width="1" x1="15" x2="15" y1="2160" y2="2715"/>
<path d="M15,2160 L15,2160 Q15,2167.5,22.5,2167.5 Q30,2167.5,30,2175 L30,2175" fill="none" stroke="orange" stroke-width="1"/>
<circle cx="15" cy="2160" fill="white" r="4" stroke="blue" stroke-width="1"/>
<line stroke="orange" stroke-width="1" x1="30" x2="30" y1="2175" y2="2190"/>
<circle cx="30" cy="2175" fill="orange" r="4" stroke="orange" stroke-width="1"/>
<line stroke="orange" stroke-width="1" x1="30" x2="30" y1="2190" y2="2205"/>
<path d="M30,2190 L30,2190 Q30,2197.5,52.5,2197.5 Q75,2197.5,75,2205 L75,2220" fill="none" stroke="gray" stroke-width="1"/>
<circle cx="30" cy="2190" fill="white" r="4" stroke="orange" stroke-width="1"/>
<line stroke="orange" stroke-width="1" x1="30" x2="30" y1="2205" y2="2250"/>
<circle cx="30" cy="2205" fill="orange" r="4" stroke="orange" stroke-width="1"/>
<path d="M75,2220 L75,2220 Q75,2227.5,52.5,2227.5 Q30,2227.5,30,2235 L30,2250" fill="none" stroke="orange" stroke-width="1"/>
<path d="M75,2220 L75,2220 Q75,2227.5,67.5,2227.5 Q60,2227.5,60,2235 L60,2235" fill="none" stroke="gray" stroke-width="1"/>
<circle cx="75" cy="2220" fill="white" r="4" stroke="gray" stroke-width="1"/>
<line stroke="gray" stroke-width="1" x1="60" x2="60" y1="2235" y2="2265"/>
<circle cx="60" cy="2235" fill="gray" r="4" stroke="gray" stroke-width="1"/>
<line stroke="orange" stroke-width="1" x1="30" x2="30" y1="2250" y2="2370"/>
<path d="M30,2250 L30,2250 Q30,2257.5,45,2257.5 Q60,2257.5,60,2265 L60,2265" fill="none" stroke="gray" stroke-width="1"/>
<circle cx="30" cy="2250" fill="white" r="4" stroke="orange" stroke-width="1"/>
<line stroke="gray" stroke-width="1" x1="60" x2="60" y1="2265" y2="2280"/>
<circle cx="60" cy="2265" fill="gray" r="4" stroke="gray" stroke-width="1"/>
<line stroke="gray" stroke-width="1" x1="60" x2="60" y1="2280" y2="2295"/>
<path d="M60,2280 L60,2280 Q60,2287.5,67.5,2287.5 Q75,2287.5,75,2295 L75,2310" fill="none" stroke="turquoise" stroke-width="1"/>
<circle cx="60" cy="2280" fill="white" r="4" stroke="gray" stroke-width="1"/>
<line stroke="gray" stroke-width="1" x1="60" x2="60" y1="2295" y2="2325"/>
<circle cx="60" cy="2295" fill="gray" r="4" stroke="gray" stroke-width="1"/>
<path d="M75,2310 L75,2310 Q75,2317.5,67.5,2317.5 Q60,2317.5,60,2325 L60,2325" fill="none" stroke="turquoise" stroke-width="1"/>
<circle cx="75" cy="2310" fill="turquoise" r="4" stroke="turquoise" stroke-width="1"/>
<line stroke="gray" stroke-width="1" x1="60" x2="60" y1="2325" y2="2340"/>
<circle cx="60" cy="2325" fill="gray" r="4" stroke="gray" stroke-width="1"/>
<line stroke="gray" stroke-width="1" x1="60" x2="60" y1="2340" y2="2355"/>
<circle cx="60" cy="2340" fill="gray" r="4" stroke="gray" stroke-width="1"/>
<path d="M60,2355 L60,2355 Q60,2362.5,45,2362.5 Q30,2362.5,30,2370 L30,2370" fill="none" stroke="gray" stroke-width="1"/>
<circle cx="60" cy="2355" fill="gray" r="4" stroke="gray" stroke-width="1"/>
<line stroke="orange" stroke-width="1" x1="30" x2="30" y1="2370" y2="2460"/>
<path d="M30,2370 L30,2370 Q30,2377.5,45,2377.5 Q60,2377.5,60,2385 L60,2385" fill="none" stroke="gray" stroke-width="1"/>
<circle cx="30" cy="2370" fill="white" r="4" stroke="orange" stroke-width="1"/>
<line stroke="gray" stroke-width="1" x1="60" x2="60" y1="2385" y2="2400"/>
<circle cx="60" cy="2385" fill="gray" r="4" stroke="gray" stroke-width="1"/>
<line stroke="gray" stroke-width="1" x1="60" x2="60" y1="2400" y2="2415"/>
<circle cx="60" cy="2400" fill="gray" r="4" stroke="gray" stroke-width="1"/>
<line stroke="gray" stroke-width="1" x1="60" x2="60" y1="2415" y2="2430"/>
<circle cx="60" cy="2415" fill="gray" r="4" stroke="gray" stroke-width="1"/>
<line stroke="gray" stroke-width="1" x1="60" x2="60" y1="2430" y2="2445"/>
<circle cx="60" cy="2430" fill="gray" r="4" stroke="gray" stroke-width="1"/>
<line stroke="gray" stroke-width="1" x1="60" x2="60" y1="2445" y2="2490"/>
<circle cx="60" cy="2445" fill="gray" r="4" stroke="gray" stroke-width="1"/>
<line stroke="orange" stroke-width="1" x1="30" x2="30" y1="2460" y2="2595"/>
<path d="M30,2460 L30,2460 Q30,2467.5,52.5,2467.5 Q75,2467.5,75,2475 L75,2475" fill="none" stroke="gray" stroke-width="1"/>
<circle cx="30" cy="2460" fill="white" r="4" stroke="orange" stroke-width="1"/>
<line stroke="gray" stroke-width="1" x1="75" x2="75" y1="2475" y2="2505"/>
<path d="M75,2475 L75,2475 Q75,2482.5,67.5,2482.5 Q60,2482.5,60,2490 L60,2490" fill="none" stroke="gray" stroke-width="1"/>
<circle cx="75" cy="2475" fill="white" r="4" stroke="gray" stroke-width="1"/>
<line stroke="gray" stroke-width="1" x1="60" x2="60" y1="2490" y2="2520"/>
<circle cx="60" cy="2490" fill="gray" r="4" stroke="gray" stroke-width="1"/>
<line stroke="gray" stroke-width="1" x1="75" x2="75" y1="2505" y2="2625"/>
<path d="M75,2505 L75,2505 Q75,2512.5,67.5,2512.5 Q60,2512.5,60,2520 L60,2520" fill="none" stroke="gray" stroke-width="1"/>
<circle cx="75" cy="2505" fill="white" r="4" stroke="gray" stroke-width="1"/>
<line stroke="gray" stroke-width="1" x1="60" x2="60" y1="2520" y2="2535"/>
<circle cx="60" cy="2520" fill="gray" r="4" stroke="gray" stroke-width="1"/>
<line stroke="gray" stroke-width="1" x1="60" x2="60" y1="2535" y2="2550"/>
<circle cx="60" cy="2535" fill="gray" r="4" stroke="gray" stroke-width="1"/>
<line stroke="gray" stroke-width="1" x1="60" x2="60" y1="2550" y2="2565"/>
<circle cx="60" cy="2550" fill="gray" r="4" stroke="gray" stroke-width="1"/>
<line stroke="gray" stroke-width="1" x1="60" x2="60" y1="2565" y2="2580"/>
<circle cx="60" cy="2565" fill="gray" r="4" stroke="gray" stroke-width="1"/>
<line stroke="gray" stroke-width="1" x1="60" x2="60" y1="2580" y2="2610"/>
<circle cx="60" cy="2580" fill="gray" r="4" stroke="gray" stroke-width="1"/>
<line stroke="orange" stroke-width="1" x1="30" x2="30" y1="2595" y2="2730"/>
<circle cx="30" cy="2595" fill="orange" r="4" stroke="orange" stroke-width="1"/>
<line stroke="gray" stroke-width="1" x1="60" x2="60" y1="2610" y2="2640"/>
<circle cx="60" cy="2610" fill="gray" r="4" stroke="gray" stroke-width="1"/>
<line stroke="gray" stroke-width="1" x1="75" x2="75" y1="2625" y2="2655"/>
<circle cx="75" cy="2625" fill="gray" r="4" stroke="gray" stroke-width="1"/>
<line stroke="gray" stroke-width="1" x1="60" x2="60" y1="2640" y2="2670"/>
<circle cx="60" cy="2640" fill="gray" r="4" stroke="gray" stroke-width="1"/>
<path d="M75,2655 L75,2655 Q75,2662.5,67.5,2662.5 Q60,2662.5,60,2670 L60,2670" fill="none" stroke="gray" stroke-width="1"/>
<circle cx="75" cy="2655" fill="gray" r="4" stroke="gray" stroke-width="1"/>
<line stroke="gray" stroke-width="1" x1="60" x2="60" y1="2670" y2="2685"/>
<circle cx="60" cy="2670" fill="gray" r="4" stroke="gray" stroke-width="1"/>
<line stroke="gray" stroke-width="1" x1="60" x2="60" y1="2685" y2="2700"/>
<circle cx="60" cy="2685" fill="gray" r="4" stroke="gray" stroke-width="1"/>
<path d="M60,2700 L60,2715 Q60,2722.5,45,2722.5 Q30,2722.5,30,2730 L30,2730" fill="none" stroke="gray" stroke-width="1"/>
<circle cx="60" cy="2700" fill="gray" r="4" stroke="gray" stroke-width="1"/>
<line stroke="blue" stroke-width="1" x1="15" x2="15" y1="2715" y2="2745"/>
<path d="M15,2715 L15,2715 Q15,2722.5,22.5,2722.5 Q30,2722.5,30,2730 L30,2730" fill="none" stroke="orange" stroke-width="1"/>
<circle cx="15" cy="2715" fill="white" r="4" stroke="blue" stroke-width="1"/>
<line stroke="orange" stroke-width="1" x1="30" x2="30" y1="2730" y2="2760"/>
<circle cx="30" cy="2730" fill="orange" r="4" stroke="orange" stroke-width="1"/>
<line stroke="blue" stroke-width="1" x1="15" x2="15" y1="2745" y2="2790"/>
<path d="M15,2745 L15,2745 Q15,2752.5,22.5,2752.5 Q30,2752.5,30,2760 L30,2760" fill="none" stroke="orange" stroke-width="1"/>
<circle cx="15" cy="2745" fill="white" r="4" stroke="blue" stroke-width="1"/>
<line stroke="orange" stroke-width="1" x1="30" x2="30" y1="2760" y2="2775"/>
<circle cx="30" cy="2760" fill="orange" r="4" stroke="orange" stroke-width="1"/>
<path d="M30,2775 L30,2820 Q30,2827.5,22.5,2827.5 Q15,2827.5,15,2835 L15,2835" fill="none" stroke="orange" stroke-width="1"/>
<circle cx="30" cy="2775" fill="orange" r="4" stroke="orange" stroke-width="1"/>
<line stroke="blue" stroke-width="1" x1="15" x2="15" y1="2790" y2="2805"/>
<circle cx="15" cy="2790" fill="blue" r="4" stroke="blue" stroke-width="1"/>
<line stroke="blue" stroke-width="1" x1="15" x2="15" y1="2805" y2="2820"/>
<circle cx="15" cy="2805" fill="blue" r="4" stroke="blue" stroke-width="1"/>
<line stroke="blue" stroke-width="1" x1="15" x2="15" y1="2820" y2="2835"/>
<circle cx="15" cy="2820" fill="blue" r="4" stroke="blue" stroke-width="1"/>
<line stroke="blue" stroke-width="1" x1="15" x2="15" y1="2835" y2="2850"/>
<circle cx="15" cy="2835" fill="blue" r="4" stroke="blue" stroke-width="1"/>
<line stroke="blue" stroke-width="1" x1="15" x2="15" y1="2850" y2="2865"/>
<circle cx="15" cy="2850" fill="blue" r="4" stroke="blue" stroke-width="1"/>
<line stroke="blue" stroke-width="1" x1="15" x2="15" y1="2865" y2="2880"/>
<circle cx="15" cy="2865" fill="blue" r="4" stroke="blue" stroke-width="1"/>
<line stroke="blue" stroke-width="1" x1="15" x2="15" y1="2880" y2="2895"/>
<circle cx="15" cy="2880" fill="blue" r="4" stroke="blue" stroke-width="1"/>
<line stroke="blue" stroke-width="1" x1="15" x2="15" y1="2895" y2="2910"/>
<circle cx="15" cy="2895" fill="blue" r="4" stroke="blue" stroke-width="1"/>
<line stroke="blue" stroke-width="1" x1="15" x2="15" y1="2910" y2="2925"/>
<circle cx="15" cy="2910" fill="blue" r="4" stroke="blue" stroke-width="1"/>
<line stroke="blue" stroke-width="1" x1="15" x2="15" y1="2925" y2="2940"/>
<circle cx="15" cy="2925" fill="blue" r="4" stroke="blue" stroke-width="1"/>
<line stroke="blue" stroke-width="1" x1="15" x2="15" y1="2940" y2="2955"/>
<circle cx="15" cy="2940" fill="blue" r="4" stroke="blue" stroke-width="1"/>
<line stroke="blue" stroke-width="1" x1="15" x2="15" y1="2955" y2="2970"/>
<circle cx="15" cy="2955" fill="blue" r="4" stroke="blue" stroke-width="1"/>
<line stroke="blue" stroke-width="1" x1="15" x2="15" y1="2970" y2="2985"/>
<circle cx="15" cy="2970" fill="blue" r="4" stroke="blue" stroke-width="1"/>
<line stroke="blue" stroke-width="1" x1="15" x2="15" y1="2985" y2="3000"/>
<path d="M15,2985 L15,2985 Q15,2992.5,37.5,2992.5 Q60,2992.5,60,3000 L60,3030" fill="none" stroke="gray" stroke-width="1"/>
<circle cx="15" cy="2985" fill="white" r="4" stroke="blue" stroke-width="1"/>
<line stroke="blue" stroke-width="1" x1="15" x2="15" y1="3000" y2="3015"/>
<circle cx="15" cy="3000" fill="blue" r="4" stroke="blue" stroke-width="1"/>
<line stroke="blue" stroke-width="1" x1="15" x2="15" y1="3015" y2="3045"/>
<circle cx="15" cy="3015" fill="blue" r="4" stroke="blue" stroke-width="1"/>
<path d="M60,3030 L60,3030 Q60,3037.5,37.5,3037.5 Q15,3037.5,15,3045 L15,3045" fill="none" stroke="gray" stroke-width="1"/>
<circle cx="60" cy="3030" fill="gray" r="4" stroke="gray" stroke-width="1"/>
<line stroke="blue" stroke-width="1" x1="15" x2="15" y1="3045" y2="3060"/>
<circle cx="15" cy="3045" fill="blue" r="4" stroke="blue" stroke-width="1"/>
<line stroke="blue" stroke-width="1" x1="15" x2="15" y1="3060" y2="3075"/>
<circle cx="15" cy="3060" fill="blue" r="4" stroke="blue" stroke-width="1"/>
<line stroke="blue" stroke-width="1" x1="15" x2="15" y1="3075" y2="3090"/>
<circle cx="15" cy="3075" fill="blue" r="4" stroke="blue" stroke-width="1"/>
<line stroke="blue" stroke-width="1" x1="15" x2="15" y1="3090" y2="3105"/>
<circle cx="15" cy="3090" fill="blue" r="4" stroke="blue" stroke-width="1"/>
<line stroke="blue" stroke-width="1" x1="15" x2="15" y1="3105" y2="3120"/>
<circle cx="15" cy="3105" fill="blue" r="4" stroke="blue" stroke-width="1"/>
<line stroke="blue" stroke-width="1" x1="15" x2="15" y1="3120" y2="3135"/>
<circle cx="15" cy="3120" fill="blue" r="4" stroke="blue" stroke-width="1"/>
<line stroke="blue" stroke-width="1" x1="15" x2="15" y1="3135" y2="3150"/>
<path d="M15,3135 L15,3135 Q15,3142.5,37.5,3142.5 Q60,3142.5,60,3150 L60,3165" fill="none" stroke="gray" stroke-width="1"/>
<circle cx="15" cy="3135" fill="white" r="4" stroke="blue" stroke-width="1"/>
<line stroke="blue" stroke-width="1" x1="15" x2="15" y1="3150" y2="3195"/>
<circle cx="15" cy="3150" fill="blue" r="4" stroke="blue" stroke-width="1"/>
<line stroke="gray" stroke-width="1" x1="60" x2="60" y1="3165" y2="3180"/>
<circle cx="60" cy="3165" fill="gray" r="4" stroke="gray" stroke-width="1"/>
<path d="M60,3180 L60,3180 Q60,3187.5,37.5,3187.5 Q15,3187.5,15,3195 L15,3195" fill="none" stroke="gray" stroke-width="1"/>
<circle cx="60" cy="3180" fill="gray" r="4" stroke="gray" stroke-width="1"/>
<line stroke="blue" stroke-width="1" x1="15" x2="15" y1="3195" y2="3210"/>
<circle cx="15" cy="3195" fill="blue" r="4" stroke="blue" stroke-width="1"/>
<line stroke="blue" stroke-width="1" x1="15" x2="15" y1="3210" y2="3225"/>
<circle cx="15" cy="3210" fill="blue" r="4" stroke="blue" stroke-width="1"/>
<line stroke="blue" stroke-width="1" x1="15" x2="15" y1="3225" y2="3240"/>
<circle cx="15" cy="3225" fill="blue" r="4" stroke="blue" stroke-width="1"/>
<line stroke="blue" stroke-width="1" x1="15" x2="15" y1="3240" y2="3255"/>
<circle cx="15" cy="3240" fill="blue" r="4" stroke="blue" stroke-width="1"/>
<line stroke="blue" stroke-width="1" x1="15" x2="15" y1="3255" y2="3270"/>
<circle cx="15" cy="3255" fill="blue" r="4" stroke="blue" stroke-width="1"/>
<line stroke="blue" stroke-width="1" x1="15" x2="15" y1="3270" y2="3285"/>
<circle cx="15" cy="3270" fill="blue" r="4" stroke="blue" stroke-width="1"/>
<line stroke="blue" stroke-width="1" x1="15" x2="15" y1="3285" y2="3300"/>
<circle cx="15" cy="3285" fill="blue" r="4" stroke="blue" stroke-width="1"/>
<line stroke="blue" stroke-width="1" x1="15" x2="15" y1="3300" y2="3315"/>
<circle cx="15" cy="3300" fill="blue" r="4" stroke="blue" stroke-width="1"/>
<line stroke="blue" stroke-width="1" x1="15" x2="15" y1="3315" y2="3330"/>
<circle cx="15" cy="3315" fill="blue" r="4" stroke="blue" stroke-width="1"/>
<line stroke="blue" stroke-width="1" x1="15" x2="15" y1="3330" y2="3345"/>
<circle cx="15" cy="3330" fill="blue" r="4" stroke="blue" stroke-width="1"/>
<line stroke="blue" stroke-width="1" x1="15" x2="15" y1="3345" y2="3360"/>
<circle cx="15" cy="3345" fill="blue" r="4" stroke="blue" stroke-width="1"/>
<line stroke="blue" stroke-width="1" x1="15" x2="15" y1="3360" y2="3375"/>
<circle cx="15" cy="3360" fill="blue" r="4" stroke="blue" stroke-width="1"/>
<line stroke="blue" stroke-width="1" x1="15" x2="15" y1="3375" y2="3390"/>
<circle cx="15" cy="3375" fill="blue" r="4" stroke="blue" stroke-width="1"/>
<circle cx="15" cy="3390" fill="blue" r="4" stroke="blue" stroke-width="1"/>
</svg>
