<svg height="3360" viewBox="0 0 75 3360" width="75" xmlns="http://www.w3.org/2000/svg">
<line stroke="blue" stroke-width="1" x1="15" x2="15" y1="15" y2="45"/>
<path d="M15,15 L15,15 Q15,22.5,22.5,22.5 Q30,22.5,30,30 L30,30" fill="none" stroke="orange" stroke-width="1"/>
<circle cx="15" cy="15" fill="white" r="4" stroke="blue" stroke-width="1"/>
<line stroke="orange" stroke-width="1" x1="30" x2="30" y1="30" y2="75"/>
<circle cx="30" cy="30" fill="orange" r="4" stroke="orange" stroke-width="1"/>
<line stroke="blue" stroke-width="1" x1="15" x2="15" y1="45" y2="60"/>
<circle cx="15" cy="45" fill="blue" r="4" stroke="blue" stroke-width="1"/>
<line stroke="blue" stroke-width="1" x1="15" x2="15" y1="60" y2="90"/>
<path d="M15,60 L15,60 Q15,67.5,22.5,67.5 Q30,67.5,30,75 L30,75" fill="none" stroke="orange" stroke-width="1"/>
<circle cx="15" cy="60" fill="white" r="4" stroke="blue" stroke-width="1"/>
<line stroke="orange" stroke-width="1" x1="30" x2="30" y1="75" y2="105"/>
<circle cx="30" cy="75" fill="orange" r="4" stroke="orange" stroke-width="1"/>
<line stroke="blue" stroke-width="1" x1="15" x2="15" y1="90" y2="150"/>
<path d="M15,90 L15,90 Q15,97.5,22.5,97.5 Q30,97.5,30,105 L30,105" fill="none" stroke="orange" stroke-width="1"/>
<circle cx="15" cy="90" fill="white" r="4" stroke="blue" stroke-width="1"/>
<line stroke="orange" stroke-width="1" x1="30" x2="30" y1="105" y2="120"/>
<circle cx="30" cy="105" fill="orange" r="4" stroke="orange" stroke-width="1"/>
<line stroke="orange" stroke-width="1" x1="30" x2="30" y1="120" y2="135"/>
<circle cx="30" cy="120" fill="orange" r="4" stroke="orange" stroke-width="1"/>
<line stroke="orange" stroke-width="1" x1="30" x2="30" y1="135" y2="165"/>
<circle cx="30" cy="135" fill="orange" r="4" stroke="orange" stroke-width="1"/>
<line stroke="blue" stroke-width="1" x1="15" x2="15" y1="150" y2="225"/>
<path d="M15,150 L15,150 Q15,157.5,22.5,157.5 Q30,157.5,30,165 L30,165" fill="none" stroke="orange" stroke-width="1"/>
<circle cx="15" cy="150" fill="white" r="4" stroke="blue" stroke-width="1"/>
<line stroke="orange" stroke-width="1" x1="30" x2="30" y1="165" y2="180"/>
<circle cx="30" cy="165" fill="orange" r="4" stroke="orange" stroke-width="1"/>
<line stroke="orange" stroke-width="1" x1="30" x2="30" y1="180" y2="195"/>
<circle cx="30" cy="180" fill="orange" r="4" stroke="orange" stroke-width="1"/>
<line stroke="orange" stroke-width="1" x1="30" x2="30" y1="195" y2="210"/>
<circle cx="30" cy="195" fill="orange" r="4" stroke="orange" stroke-width="1"/>
<line stroke="orange" stroke-width="1" x1="30" x2="30" y1="210" y2="240"/>
<circle cx="30" cy="210" fill="orange" r="4" stroke="orange" stroke-width="1"/>
<line stroke="blue" stroke-width="1" x1="15" x2="15" y1="225" y2="450"/>
<path d="M15,225 L15,225 Q15,232.5,22.5,232.5 Q30,232.5,30,240 L30,240" fill="none" stroke="orange" stroke-width="1"/>
<circle cx="15" cy="225" fill="white" r="4" stroke="blue" stroke-width="1"/>
<line stroke="orange" stroke-width="1" x1="30" x2="30" y1="240" y2="255"/>
<circle cx="30" cy="240" fill="orange" r="4" stroke="orange" stroke-width="1"/>
<line stroke="orange" stroke-width="1" x1="30" x2="30" y1="255" y2="270"/>
<circle cx="30" cy="255" fill="orange" r="4" stroke="orange" stroke-width="1"/>
<line stroke="orange" stroke-width="1" x1="30" x2="30" y1="270" y2="285"/>
<circle cx="30" cy="270" fill="orange" r="4" stroke="orange" stroke-width="1"/>
<line stroke="orange" stroke-width="1" x1="30" x2="30" y1="285" y2="300"/>
<circle cx="30" cy="285" fill="orange" r="4" stroke="orange" stroke-width="1"/>
<line stroke="orange" stroke-width="1" x1="30" x2="30" y1="300" y2="315"/>
<circle cx="30" cy="300" fill="orange" r="4" stroke="orange" stroke-width="1"/>
<line stroke="orange" stroke-width="1" x1="30" x2="30" y1="315" y2="330"/>
<circle cx="30" cy="315" fill="orange" r="4" stroke="orange" stroke-width="1"/>
<line stroke="orange" stroke-width="1" x1="30" x2="30" y1="330" y2="345"/>
<circle cx="30" cy="330" fill="orange" r="4" stroke="orange" stroke-width="1"/>
<line stroke="orange" stroke-width="1" x1="30" x2="30" y1="345" y2="360"/>
<circle cx="30" cy="345" fill="orange" r="4" stroke="orange" stroke-width="1"/>
<line stroke="orange" stroke-width="1" x1="30" x2="30" y1="360" y2="375"/>
<circle cx="30" cy="360" fill="orange" r="4" stroke="orange" stroke-width="1"/>
<line stroke="orange" stroke-width="1" x1="30" x2="30" y1="375" y2="390"/>
<circle cx="30" cy="375" fill="orange" r="4" stroke="orange" stroke-width="1"/>
<line stroke="orange" stroke-width="1" x1="30" x2="30" y1="390" y2="405"/>
<circle cx="30" cy="390" fill="orange" r="4" stroke="orange" stroke-width="1"/>
<line stroke="orange" stroke-width="1" x1="30" x2="30" y1="405" y2="420"/>
<circle cx="30" cy="405" fill="orange" r="4" stroke="orange" stroke-width="1"/>
<line stroke="orange" stroke-width="1" x1="30" x2="30" y1="420" y2="435"/>
<circle cx="30" cy="420" fill="orange" r="4" stroke="orange" stroke-width="1"/>
<line stroke="orange" stroke-width="1" x1="30" x2="30" y1="435" y2="465"/>
<circle cx="30" cy="435" fill="orange" r="4" stroke="orange" stroke-width="1"/>
<line stroke="blue" stroke-width="1" x1="15" x2="15" y1="450" y2="495"/>
<path d="M15,450 L15,450 Q15,457.5,22.5,457.5 Q30,457.5,30,465 L30,465" fill="none" stroke="orange" stroke-width="1"/>
<circle cx="15" cy="450" fill="white" r="4" stroke="blue" stroke-width="1"/>
<line stroke="orange" stroke-width="1" x1="30" x2="30" y1="465" y2="480"/>
<circle cx="30" cy="465" fill="orange" r="4" stroke="orange" stroke-width="1"/>
<line stroke="orange" stroke-width="1" x1="30" x2="30" y1="480" y2="510"/>
<circle cx="30" cy="480" fill="orange" r="4" stroke="orange" stroke-width="1"/>
<line stroke="blue" stroke-width="1" x1="15" x2="15" y1="495" y2="525"/>
<path d="M15,495 L15,495 Q15,502.5,22.5,502.5 Q30,502.5,30,510 L30,510" fill="none" stroke="orange" stroke-width="1"/>
<circle cx="15" cy="495" fill="white" r="4" stroke="blue" stroke-width="1"/>
<line stroke="orange" stroke-width="1" x1="30" x2="30" y1="510" y2="540"/>
<circle cx="30" cy="510" fill="orange" r="4" stroke="orange" stroke-width="1"/>
<line stroke="blue" stroke-width="1" x1="15" x2="15" y1="525" y2="555"/>
<path d="M15,525 L15,525 Q15,532.5,22.5,532.5 Q30,532.5,30,540 L30,540" fill="none" stroke="orange" stroke-width="1"/>
<circle cx="15" cy="525" fill="white" r="4" stroke="blue" stroke-width="1"/>
<line stroke="orange" stroke-width="1" x1="30" x2="30" y1="540" y2="570"/>
<circle cx="30" cy="540" fill="orange" r="4" stroke="orange" stroke-width="1"/>
<line stroke="blue" stroke-width="1" x1="15" x2="15" y1="555" y2="585"/>
<path d="M15,555 L15,555 Q15,562.5,22.5,562.5 Q30,562.5,30,570 L30,570" fill="none" stroke="orange" stroke-width="1"/>
<circle cx="15" cy="555" fill="white" r="4" stroke="blue" stroke-width="1"/>
<line stroke="orange" stroke-width="1" x1="30" x2="30" y1="570" y2="600"/>
<circle cx="30" cy="570" fill="orange" r="4" stroke="orange" stroke-width="1"/>
<line stroke="blue" stroke-width="1" x1="15" x2="15" y1="585" y2="630"/>
<path d="M15,585 L15,585 Q15,592.5,22.5,592.5 Q30,592.5,30,600 L30,600" fill="none" stroke="orange" stroke-width="1"/>
<circle cx="15" cy="585" fill="white" r="4" stroke="blue" stroke-width="1"/>
<line stroke="orange" stroke-width="1" x1="30" x2="30" y1="600" y2="615"/>
<circle cx="30" cy="600" fill="orange" r="4" stroke="orange" stroke-width="1"/>
<line stroke="orange" stroke-width="1" x1="30" x2="30" y1="615" y2="645"/>
<circle cx="30" cy="615" fill="orange" r="4" stroke="orange" stroke-width="1"/>
<line stroke="blue" stroke-width="1" x1="15" x2="15" y1="630" y2="765"/>
<path d="M15,630 L15,630 Q15,637.5,22.5,637.5 Q30,637.5,30,645 L30,645" fill="none" stroke="orange" stroke-width="1"/>
<circle cx="15" cy="630" fill="white" r="4" stroke="blue" stroke-width="1"/>
<line stroke="orange" stroke-width="1" x1="30" x2="30" y1="645" y2="660"/>
<circle cx="30" cy="645" fill="orange" r="4" stroke="orange" stroke-width="1"/>
<line stroke="orange" stroke-width="1" x1="30" x2="30" y1="660" y2="675"/>
<circle cx="30" cy="660" fill="orange" r="4" stroke="orange" stroke-width="1"/>
<line stroke="orange" stroke-width="1" x1="30" x2="30" y1="675" y2="690"/>
<circle cx="30" cy="675" fill="orange" r="4" stroke="orange" stroke-width="1"/>
<line stroke="orange" stroke-width="1" x1="30" x2="30" y1="690" y2="705"/>
<circle cx="30" cy="690" fill="orange" r="4" stroke="orange" stroke-width="1"/>
<line stroke="orange" stroke-width="1" x1="30" x2="30" y1="705" y2="720"/>
<circle cx="30" cy="705" fill="orange" r="4" stroke="orange" stroke-width="1"/>
<line stroke="orange" stroke-width="1" x1="30" x2="30" y1="720" y2="735"/>
<circle cx="30" cy="720" fill="orange" r="4" stroke="orange" stroke-width="1"/>
<line stroke="orange" stroke-width="1" x1="30" x2="30" y1="735" y2="750"/>
<circle cx="30" cy="735" fill="orange" r="4" stroke="orange" stroke-width="1"/>
<line stroke="orange" stroke-width="1" x1="30" x2="30" y1="750" y2="780"/>
<circle cx="30" cy="750" fill="orange" r="4" stroke="orange" stroke-width="1"/>
<line stroke="blue" stroke-width="1" x1="15" x2="15" y1="765" y2="795"/>
<path d="M15,765 L15,765 Q15,772.5,22.5,772.5 Q30,772.5,30,780 L30,780" fill="none" stroke="orange" stroke-width="1"/>
<circle cx="15" cy="765" fill="white" r="4" stroke="blue" stroke-width="1"/>
<line stroke="orange" stroke-width="1" x1="30" x2="30" y1="780" y2="810"/>
<circle cx="30" cy="780" fill="orange" r="4" stroke="orange" stroke-width="1"/>
<line stroke="blue" stroke-width="1" x1="15" x2="15" y1="795" y2="885"/>
<path d="M15,795 L15,795 Q15,802.5,22.5,802.5 Q30,802.5,30,810 L30,810" fill="none" stroke="orange" stroke-width="1"/>
<circle cx="15" cy="795" fill="white" r="4" stroke="blue" stroke-width="1"/>
<line stroke="orange" stroke-width="1" x1="30" x2="30" y1="810" y2="825"/>
<circle cx="30" cy="810" fill="orange" r="4" stroke="orange" stroke-width="1"/>
<line stroke="orange" stroke-width="1" x1="30" x2="30" y1="825" y2="840"/>
<circle cx="30" cy="825" fill="orange" r="4" stroke="orange" stroke-width="1"/>
<line stroke="orange" stroke-width="1" x1="30" x2="30" y1="840" y2="855"/>
<path d="M30,840 L30,840 Q30,847.5,37.5,847.5 Q45,847.5,45,855 L45,870" fill="none" stroke="turquoise" stroke-width="1"/>
<circle cx="30" cy="840" fill="white" r="4" stroke="orange" stroke-width="1"/>
<line stroke="orange" stroke-width="1" x1="30" x2="30" y1="855" y2="930"/>
<circle cx="30" cy="855" fill="orange" r="4" stroke="orange" stroke-width="1"/>
<line stroke="turquoise" stroke-width="1" x1="45" x2="45" y1="870" y2="900"/>
<circle cx="45" cy="870" fill="turquoise" r="4" stroke="turquoise" stroke-width="1"/>
<line stroke="blue" stroke-width="1" x1="15" x2="15" y1="885" y2="915"/>
<path d="M15,885 L15,885 Q15,892.5,30,892.5 Q45,892.5,45,900 L45,900" fill="none" stroke="turquoise" stroke-width="1"/>
<circle cx="15" cy="885" fill="white" r="4" stroke="blue" stroke-width="1"/>
<path d="M45,900 L45,915 Q45,922.5,37.5,922.5 Q30,922.5,30,930 L30,930" fill="none" stroke="turquoise" stroke-width="1"/>
<circle cx="45" cy="900" fill="turquoise" r="4" stroke="turquoise" stroke-width="1"/>
<line stroke="blue" stroke-width="1" x1="15" x2="15" y1="915" y2="975"/>
<path d="M15,915 L15,915 Q15,922.5,22.5,922.5 Q30,922.5,30,930 L30,930" fill="none" stroke="orange" stroke-width="1"/>
<circle cx="15" cy="915" fill="white" r="4" stroke="blue" stroke-width="1"/>
<line stroke="orange" stroke-width="1" x1="30" x2="30" y1="930" y2="945"/>
<circle cx="30" cy="930" fill="orange" r="4" stroke="orange" stroke-width="1"/>
<line stroke="orange" stroke-width="1" x1="30" x2="30" y1="945" y2="960"/>
<circle cx="30" cy="945" fill="orange" r="4" stroke="orange" stroke-width="1"/>
<line stroke="orange" stroke-width="1" x1="30" x2="30" y1="960" y2="990"/>
<circle cx="30" cy="960" fill="orange" r="4" stroke="orange" stroke-width="1"/>
<line stroke="blue" stroke-width="1" x1="15" x2="15" y1="975" y2="1005"/>
<path d="M15,975 L15,975 Q15,982.5,22.5,982.5 Q30,982.5,30,990 L30,990" fill="none" stroke="orange" stroke-width="1"/>
<circle cx="15" cy="975" fill="white" r="4" stroke="blue" stroke-width="1"/>
<line stroke="orange" stroke-width="1" x1="30" x2="30" y1="990" y2="1020"/>
<circle cx="30" cy="990" fill="orange" r="4" stroke="orange" stroke-width="1"/>
<line stroke="blue" stroke-width="1" x1="15" x2="15" y1="1005" y2="1215"/>
<path d="M15,1005 L15,1005 Q15,1012.5,22.5,1012.5 Q30,1012.5,30,1020 L30,1020" fill="none" stroke="orange" stroke-width="1"/>
<circle cx="15" cy="1005" fill="white" r="4" stroke="blue" stroke-width="1"/>
<line stroke="orange" stroke-width="1" x1="30" x2="30" y1="1020" y2="1035"/>
<circle cx="30" cy="1020" fill="orange" r="4" stroke="orange" stroke-width="1"/>
<line stroke="orange" stroke-width="1" x1="30" x2="30" y1="1035" y2="1050"/>
<circle cx="30" cy="1035" fill="orange" r="4" stroke="orange" stroke-width="1"/>
<line stroke="orange" stroke-width="1" x1="30" x2="30" y1="1050" y2="1065"/>
<circle cx="30" cy="1050" fill="orange" r="4" stroke="orange" stroke-width="1"/>
<line stroke="orange" stroke-width="1" x1="30" x2="30" y1="1065" y2="1080"/>
<circle cx="30" cy="1065" fill="orange" r="4" stroke="orange" stroke-width="1"/>
<line stroke="orange" stroke-width="1" x1="30" x2="30" y1="1080" y2="1095"/>
<circle cx="30" cy="1080" fill="orange" r="4" stroke="orange" stroke-width="1"/>
<line stroke="orange" stroke-width="1" x1="30" x2="30" y1="1095" y2="1110"/>
<circle cx="30" cy="1095" fill="orange" r="4" stroke="orange" stroke-width="1"/>
<line stroke="orange" stroke-width="1" x1="30" x2="30" y1="1110" y2="1125"/>
<circle cx="30" cy="1110" fill="orange" r="4" stroke="orange" stroke-width="1"/>
<line stroke="orange" stroke-width="1" x1="30" x2="30" y1="1125" y2="1140"/>
<circle cx="30" cy="1125" fill="orange" r="4" stroke="orange" stroke-width="1"/>
<line stroke="orange" stroke-width="1" x1="30" x2="30" y1="1140" y2="1155"/>
<circle cx="30" cy="1140" fill="orange" r="4" stroke="orange" stroke-width="1"/>
<line stroke="orange" stroke-width="1" x1="30" x2="30" y1="1155" y2="1170"/>
<circle cx="30" cy="1155" fill="orange" r="4" stroke="orange" stroke-width="1"/>
<line stroke="orange" stroke-width="1" x1="30" x2="30" y1="1170" y2="1185"/>
<circle cx="30" cy="1170" fill="orange" r="4" stroke="orange" stroke-width="1"/>
<line stroke="orange" stroke-width="1" x1="30" x2="30" y1="1185" y2="1200"/>
<circle cx="30" cy="1185" fill="orange" r="4" stroke="orange" stroke-width="1"/>
<line stroke="orange" stroke-width="1" x1="30" x2="30" y1="1200" y2="1230"/>
<circle cx="30" cy="1200" fill="orange" r="4" stroke="orange" stroke-width="1"/>
<line stroke="blue" stroke-width="1" x1="15" x2="15" y1="1215" y2="1305"/>
<path d="M15,1215 L15,1215 Q15,1222.5,22.5,1222.5 Q30,1222.5,30,1230 L30,1230" fill="none" stroke="orange" stroke-width="1"/>
<circle cx="15" cy="1215" fill="white" r="4" stroke="blue" stroke-width="1"/>
<line stroke="orange" stroke-width="1" x1="30" x2="30" y1="1230" y2="1275"/>
<circle cx="30" cy="1230" fill="orange" r="4" stroke="orange" stroke-width="1"/>
<line stroke="gray" stroke-width="1" x1="45" x2="45" y1="1245" y2="1260"/>
<circle cx="45" cy="1245" fill="gray" r="4" stroke="gray" stroke-width="1"/>
<line stroke="gray" stroke-width="1" x1="45" x2="45" y1="1260" y2="1290"/>
<path d="M45,1260 L45,1260 Q45,1267.5,37.5,1267.5 Q30,1267.5,30,1275 L30,1275" fill="none" stroke="orange" stroke-width="1"/>
<circle cx="45" cy="1260" fill="white" r="4" stroke="gray" stroke-width="1"/>
<line stroke="orange" stroke-width="1" x1="30" x2="30" y1="1275" y2="1320"/>
<circle cx="30" cy="1275" fill="orange" r="4" stroke="orange" stroke-width="1"/>
<path d="M45,1290 L45,1290 Q45,1297.5,52.5,1297.5 Q60,1297.5,60,1305 L60,1380" fill="none" stroke="gray" stroke-width="1"/>
<path d="M45,1290 L45,1290 Q45,1297.5,37.5,1297.5 Q30,1297.5,30,1305 L30,1320" fill="none" stroke="orange" stroke-width="1"/>
<circle cx="45" cy="1290" fill="white" r="4" stroke="gray" stroke-width="1"/>
<line stroke="blue" stroke-width="1" x1="15" x2="15" y1="1305" y2="1575"/>
<path d="M15,1305 L15,1305 Q15,1312.5,22.5,1312.5 Q30,1312.5,30,1320 L30,1320" fill="none" stroke="orange" stroke-width="1"/>
<circle cx="15" cy="1305" fill="white" r="4" stroke="blue" stroke-width="1"/>
<line stroke="orange" stroke-width="1" x1="30" x2="30" y1="1320" y2="1335"/>
<circle cx="30" cy="1320" fill="orange" r="4" stroke="orange" stroke-width="1"/>
<line stroke="orange" stroke-width="1" x1="30" x2="30" y1="1335" y2="1350"/>
<circle cx="30" cy="1335" fill="orange" r="4" stroke="orange" stroke-width="1"/>
<line stroke="orange" stroke-width="1" x1="30" x2="30" y1="1350" y2="1365"/>
<circle cx="30" cy="1350" fill="orange" r="4" stroke="orange" stroke-width="1"/>
<line stroke="orange" stroke-width="1" x1="30" x2="30" y1="1365" y2="1530"/>
<path d="M30,1365 L30,1365 Q30,1372.5,45,1372.5 Q60,1372.5,60,1380 L60,1380" fill="none" stroke="gray" stroke-width="1"/>
<circle cx="30" cy="1365" fill="white" r="4" stroke="orange" stroke-width="1"/>
<line stroke="gray" stroke-width="1" x1="60" x2="60" y1="1380" y2="1395"/>
<circle cx="60" cy="1380" fill="gray" r="4" stroke="gray" stroke-width="1"/>
<line stroke="gray" stroke-width="1" x1="60" x2="60" y1="1395" y2="1410"/>
<circle cx="60" cy="1395" fill="gray" r="4" stroke="gray" stroke-width="1"/>
<line stroke="gray" stroke-width="1" x1="60" x2="60" y1="1410" y2="1425"/>
<circle cx="60" cy="1410" fill="gray" r="4" stroke="gray" stroke-width="1"/>
<line stroke="gray" stroke-width="1" x1="60" x2="60" y1="1425" y2="1440"/>
<circle cx="60" cy="1425" fill="gray" r="4" stroke="gray" stroke-width="1"/>
<line stroke="gray" stroke-width="1" x1="60" x2="60" y1="1440" y2="1455"/>
<circle cx="60" cy="1440" fill="gray" r="4" stroke="gray" stroke-width="1"/>
<line stroke="gray" stroke-width="1" x1="60" x2="60" y1="1455" y2="1470"/>
<path d="M60,1455 L60,1455 Q60,1462.5,45,1462.5 Q30,1462.5,30,1470 L30,1530" fill="none" stroke="orange" stroke-width="1"/>
<circle cx="60" cy="1455" fill="white" r="4" stroke="gray" stroke-width="1"/>
<line stroke="gray" stroke-width="1" x1="60" x2="60" y1="1470" y2="1485"/>
<circle cx="60" cy="1470" fill="gray" r="4" stroke="gray" stroke-width="1"/>
<line stroke="gray" stroke-width="1" x1="60" x2="60" y1="1485" y2="1500"/>
<circle cx="60" cy="1485" fill="gray" r="4" stroke="gray" stroke-width="1"/>
<line stroke="gray" stroke-width="1" x1="60" x2="60" y1="1500" y2="1515"/>
<circle cx="60" cy="1500" fill="gray" r="4" stroke="gray" stroke-width="1"/>
<line stroke="gray" stroke-width="1" x1="60" x2="60" y1="1515" y2="1650"/>
<circle cx="60" cy="1515" fill="gray" r="4" stroke="gray" stroke-width="1"/>
<line stroke="orange" stroke-width="1" x1="30" x2="30" y1="1530" y2="1545"/>
<circle cx="30" cy="1530" fill="orange" r="4" stroke="orange" stroke-width="1"/>
<line stroke="orange" stroke-width="1" x1="30" x2="30" y1="1545" y2="1560"/>
<circle cx="30" cy="1545" fill="orange" r="4" stroke="orange" stroke-width="1"/>
<line stroke="orange" stroke-width="1" x1="30" x2="30" y1="1560" y2="1605"/>
<path d="M30,1560 L30,1560 Q30,1567.5,37.5,1567.5 Q45,1567.5,45,1575 L45,1590" fill="none" stroke="gray" stroke-width="1"/>
<circle cx="30" cy="1560" fill="white" r="4" stroke="orange" stroke-width="1"/>
<line stroke="blue" stroke-width="1" x1="15" x2="15" y1="1575" y2="1725"/>
<path d="M15,1575 L15,1575 Q15,1582.5,22.5,1582.5 Q30,1582.5,30,1590 L30,1605" fill="none" stroke="orange" stroke-width="1"/>
<circle cx="15" cy="1575" fill="white" r="4" stroke="blue" stroke-width="1"/>
<path d="M45,1590 L45,1755 Q45,1762.5,37.5,1762.5 Q30,1762.5,30,1770 L30,1770" fill="none" stroke="gray" stroke-width="1"/>
<circle cx="45" cy="1590" fill="gray" r="4" stroke="gray" stroke-width="1"/>
<line stroke="orange" stroke-width="1" x1="30" x2="30" y1="1605" y2="1620"/>
<circle cx="30" cy="1605" fill="orange" r="4" stroke="orange" stroke-width="1"/>
<line stroke="orange" stroke-width="1" x1="30" x2="30" y1="1620" y2="1635"/>
<circle cx="30" cy="1620" fill="orange" r="4" stroke="orange" stroke-width="1"/>
<line stroke="orange" stroke-width="1" x1="30" x2="30" y1="1635" y2="1770"/>
<path d="M30,1635 L30,1635 Q30,1642.5,45,1642.5 Q60,1642.5,60,1650 L60,1650" fill="none" stroke="gray" stroke-width="1"/>
<circle cx="30" cy="1635" fill="white" r="4" stroke="orange" stroke-width="1"/>
<line stroke="gray" stroke-width="1" x1="60" x2="60" y1="1650" y2="1665"/>
<circle cx="60" cy="1650" fill="gray" r="4" stroke="gray" stroke-width="1"/>
<line stroke="gray" stroke-width="1" x1="60" x2="60" y1="1665" y2="1680"/>
<circle cx="60" cy="1665" fill="gray" r="4" stroke="gray" stroke-width="1"/>
<line stroke="gray" stroke-width="1" x1="60" x2="60" y1="1680" y2="1695"/>
<circle cx="60" cy="1680" fill="gray" r="4" stroke="gray" stroke-width="1"/>
<line stroke="gray" stroke-width="1" x1="60" x2="60" y1="1695" y2="1710"/>
<circle cx="60" cy="1695" fill="gray" r="4" stroke="gray" stroke-width="1"/>
<line stroke="gray" stroke-width="1" x1="60" x2="60" y1="1710" y2="1965"/>
<circle cx="60" cy="1710" fill="gray" r="4" stroke="gray" stroke-width="1"/>
<line stroke="blue" stroke-width="1" x1="15" x2="15" y1="1725" y2="1740"/>
<circle cx="15" cy="1725" fill="blue" r="4" stroke="blue" stroke-width="1"/>
<line stroke="blue" stroke-width="1" x1="15" x2="15" y1="1740" y2="1755"/>
<circle cx="15" cy="1740" fill="blue" r="4" stroke="blue" stroke-width="1"/>
<line stroke="blue" stroke-width="1" x1="15" x2="15" y1="1755" y2="2010"/>
<path d="M15,1755 L15,1755 Q15,1762.5,22.5,1762.5 Q30,1762.5,30,1770 L30,1770" fill="none" stroke="orange" stroke-width="1"/>
<circle cx="15" cy="1755" fill="white" r="4" stroke="blue" stroke-width="1"/>
<line stroke="orange" stroke-width="1" x1="30" x2="30" y1="1770" y2="1785"/>
<circle cx="30" cy="1770" fill="orange" r="4" stroke="orange" stroke-width="1"/>
<line stroke="orange" stroke-width="1" x1="30" x2="30" y1="1785" y2="1800"/>
<circle cx="30" cy="1785" fill="orange" r="4" stroke="orange" stroke-width="1"/>
<line stroke="orange" stroke-width="1" x1="30" x2="30" y1="1800" y2="1815"/>
<circle cx="30" cy="1800" fill="orange" r="4" stroke="orange" stroke-width="1"/>
<line stroke="orange" stroke-width="1" x1="30" x2="30" y1="1815" y2="1830"/>
<circle cx="30" cy="1815" fill="orange" r="4" stroke="orange" stroke-width="1"/>
<line stroke="orange" stroke-width="1" x1="30" x2="30" y1="1830" y2="1845"/>
<circle cx="30" cy="1830" fill="orange" r="4" stroke="orange" stroke-width="1"/>
<line stroke="orange" stroke-width="1" x1="30" x2="30" y1="1845" y2="1860"/>
<circle cx="30" cy="1845" fill="orange" r="4" stroke="orange" stroke-width="1"/>
<line stroke="orange" stroke-width="1" x1="30" x2="30" y1="1860" y2="1875"/>
<circle cx="30" cy="1860" fill="orange" r="4" stroke="orange" stroke-width="1"/>
<line stroke="orange" stroke-width="1" x1="30" x2="30" y1="1875" y2="1890"/>
<circle cx="30" cy="1875" fill="orange" r="4" stroke="orange" stroke-width="1"/>
<line stroke="orange" stroke-width="1" x1="30" x2="30" y1="1890" y2="1905"/>
<circle cx="30" cy="1890" fill="orange" r="4" stroke="orange" stroke-width="1"/>
<line stroke="orange" stroke-width="1" x1="30" x2="30" y1="1905" y2="1920"/>
<circle cx="30" cy="1905" fill="orange" r="4" stroke="orange" stroke-width="1"/>
<line stroke="orange" stroke-width="1" x1="30" x2="30" y1="1920" y2="1935"/>
<circle cx="30" cy="1920" fill="orange" r="4" stroke="orange" stroke-width="1"/>
<line stroke="orange" stroke-width="1" x1="30" x2="30" y1="1935" y2="1950"/>
<circle cx="30" cy="1935" fill="orange" r="4" stroke="orange" stroke-width="1"/>
<line stroke="orange" stroke-width="1" x1="30" x2="30" y1="1950" y2="1980"/>
<circle cx="30" cy="1950" fill="orange" r="4" stroke="orange" stroke-width="1"/>
<path d="M60,1965 L60,1965 Q60,1972.5,45,1972.5 Q30,1972.5,30,1980 L30,1980" fill="none" stroke="gray" stroke-width="1"/>
<circle cx="60" cy="1965" fill="gray" r="4" stroke="gray" stroke-width="1"/>
<line stroke="orange" stroke-width="1" x1="30" x2="30" y1="1980" y2="1995"/>
<circle cx="30" cy="1980" fill="orange" r="4" stroke="orange" stroke-width="1"/>
<line stroke="orange" stroke-width="1" x1="30" x2="30" y1="1995" y2="2025"/>
<circle cx="30" cy="1995" fill="orange" r="4" stroke="orange" stroke-width="1"/>
<line stroke="blue" stroke-width="1" x1="15" x2="15" y1="2010" y2="2100"/>
<path d="M15,2010 L15,2010 Q15,2017.5,22.5,2017.5 Q30,2017.5,30,2025 L30,2025" fill="none" stroke="orange" stroke-width="1"/>
<circle cx="15" cy="2010" fill="white" r="4" stroke="blue" stroke-width="1"/>
<line stroke="orange" stroke-width="1" x1="30" x2="30" y1="2025" y2="2040"/>
<circle cx="30" cy="2025" fill="orange" r="4" stroke="orange" stroke-width="1"/>
<line stroke="orange" stroke-width="1" x1="30" x2="30" y1="2040" y2="2055"/>
<circle cx="30" cy="2040" fill="orange" r="4" stroke="orange" stroke-width="1"/>
<line stroke="orange" stroke-width="1" x1="30" x2="30" y1="2055" y2="2070"/>
<path d="M30,2055 L30,2055 Q30,2062.5,37.5,2062.5 Q45,2062.5,45,2070 L45,2085" fill="none" stroke="gray" stroke-width="1"/>
<circle cx="30" cy="2055" fill="white" r="4" stroke="orange" stroke-width="1"/>
<line stroke="orange" stroke-width="1" x1="30" x2="30" y1="2070" y2="2115"/>
<circle cx="30" cy="2070" fill="orange" r="4" stroke="orange" stroke-width="1"/>
<line stroke="gray" stroke-width="1" x1="45" x2="45" y1="2085" y2="2175"/>
<circle cx="45" cy="2085" fill="gray" r="4" stroke="gray" stroke-width="1"/>
<line stroke="blue" stroke-width="1" x1="15" x2="15" y1="2100" y2="2655"/>
<path d="M15,2100 L15,2100 Q15,2107.5,22.5,2107.5 Q30,2107.5,30,2115 L30,2115" fill="none" stroke="orange" stroke-width="1"/>
<circle cx="15" cy="2100" fill="white" r="4" stroke="blue" stroke-width="1"/>
<line stroke="orange" stroke-width="1" x1="30" x2="30" y1="2115" y2="2130"/>
<circle cx="30" cy="2115" fill="orange" r="4" stroke="orange" stroke-width="1"/>
<line stroke="orange" stroke-width="1" x1="30" x2="30" y1="2130" y2="2145"/>
<path d="M30,2130 L30,2130 Q30,2137.5,45,2137.5 Q60,2137.5,60,2145 L60,2160" fill="none" stroke="gray" stroke-width="1"/>
<circle cx="30" cy="2130" fill="white" r="4" stroke="orange" stroke-width="1"/>
<line stroke="orange" stroke-width="1" x1="30" x2="30" y1="2145" y2="2190"/>
<circle cx="30" cy="2145" fill="orange" r="4" stroke="orange" stroke-width="1"/>
<path d="M60,2160 L60,2160 Q60,2167.5,45,2167.5 Q30,2167.5,30,2175 L30,2190" fill="none" stroke="orange" stroke-width="1"/>
<path d="M60,2160 L60,2160 Q60,2167.5,52.5,2167.5 Q45,2167.5,45,2175 L45,2175" fill="none" stroke="gray" stroke-width="1"/>
<circle cx="60" cy="2160" fill="white" r="4" stroke="gray" stroke-width="1"/>
<line stroke="gray" stroke-width="1" x1="45" x2="45" y1="2175" y2="2205"/>
<circle cx="45" cy="2175" fill="gray" r="4" stroke="gray" stroke-width="1"/>
<line stroke="orange" stroke-width="1" x1="30" x2="30" y1="2190" y2="2310"/>
<path d="M30,2190 L30,2190 Q30,2197.5,37.5,2197.5 Q45,2197.5,45,2205 L45,2205" fill="none" stroke="gray" stroke-width="1"/>
<circle cx="30" cy="2190" fill="white" r="4" stroke="orange" stroke-width="1"/>
<line stroke="gray" stroke-width="1" x1="45" x2="45" y1="2205" y2="2220"/>
<circle cx="45" cy="2205" fill="gray" r="4" stroke="gray" stroke-width="1"/>
<line stroke="gray" stroke-width="1" x1="45" x2="45" y1="2220" y2="2235"/>
<path d="M45,2220 L45,2220 Q45,2227.5,52.5,2227.5 Q60,2227.5,60,2235 L60,2250" fill="none" stroke="turquoise" stroke-width="1"/>
<circle cx="45" cy="2220" fill="white" r="4" stroke="gray" stroke-width="1"/>
<line stroke="gray" stroke-width="1" x1="45" x2="45" y1="2235" y2="2265"/>
<circle cx="45" cy="2235" fill="gray" r="4" stroke="gray" stroke-width="1"/>
<path d="M60,2250 L60,2250 Q60,2257.5,52.5,2257.5 Q45,2257.5,45,2265 L45,2265" fill="none" stroke="turquoise" stroke-width="1"/>
<circle cx="60" cy="2250" fill="turquoise" r="4" stroke="turquoise" stroke-width="1"/>
<line stroke="gray" stroke-width="1" x1="45" x2="45" y1="2265" y2="2280"/>
<circle cx="45" cy="2265" fill="gray" r="4" stroke="gray" stroke-width="1"/>
<line stroke="gray" stroke-width="1" x1="45" x2="45" y1="2280" y2="2295"/>
<circle cx="45" cy="2280" fill="gray" r="4" stroke="gray" stroke-width="1"/>
<path d="M45,2295 L45,2295 Q45,2302.5,37.5,2302.5 Q30,2302.5,30,2310 L30,2310" fill="none" stroke="gray" stroke-width="1"/>
<circle cx="45" cy="2295" fill="gray" r="4" stroke="gray" stroke-width="1"/>
<line stroke="orange" stroke-width="1" x1="30" x2="30" y1="2310" y2="2400"/>
<path d="M30,2310 L30,2310 Q30,2317.5,37.5,2317.5 Q45,2317.5,45,2325 L45,2325" fill="none" stroke="gray" stroke-width="1"/>
<circle cx="30" cy="2310" fill="white" r="4" stroke="orange" stroke-width="1"/>
<line stroke="gray" stroke-width="1" x1="45" x2="45" y1="2325" y2="2340"/>
<circle cx="45" cy="2325" fill="gray" r="4" stroke="gray" stroke-width="1"/>
<line stroke="gray" stroke-width="1" x1="45" x2="45" y1="2340" y2="2355"/>
<circle cx="45" cy="2340" fill="gray" r="4" stroke="gray" stroke-width="1"/>
<line stroke="gray" stroke-width="1" x1="45" x2="45" y1="2355" y2="2370"/>
<circle cx="45" cy="2355" fill="gray" r="4" stroke="gray" stroke-width="1"/>
<line stroke="gray" stroke-width="1" x1="45" x2="45" y1="2370" y2="2385"/>
<circle cx="45" cy="2370" fill="gray" r="4" stroke="gray" stroke-width="1"/>
<line stroke="gray" stroke-width="1" x1="45" x2="45" y1="2385" y2="2430"/>
<circle cx="45" cy="2385" fill="gray" r="4" stroke="gray" stroke-width="1"/>
<line stroke="orange" stroke-width="1" x1="30" x2="30" y1="2400" y2="2535"/>
<path d="M30,2400 L30,2400 Q30,2407.5,45,2407.5 Q60,2407.5,60,2415 L60,2415" fill="none" stroke="gray" stroke-width="1"/>
<circle cx="30" cy="2400" fill="white" r="4" stroke="orange" stroke-width="1"/>
<line stroke="gray" stroke-width="1" x1="60" x2="60" y1="2415" y2="2445"/>
<path d="M60,2415 L60,2415 Q60,2422.5,52.5,2422.5 Q45,2422.5,45,2430 L45,2430" fill="none" stroke="gray" stroke-width="1"/>
<circle cx="60" cy="2415" fill="white" r="4" stroke="gray" stroke-width="1"/>
<line stroke="gray" stroke-width="1" x1="45" x2="45" y1="2430" y2="2460"/>
<circle cx="45" cy="2430" fill="gray" r="4" stroke="gray" stroke-width="1"/>
<line stroke="gray" stroke-width="1" x1="60" x2="60" y1="2445" y2="2565"/>
<path d="M60,2445 L60,2445 Q60,2452.5,52.5,2452.5 Q45,2452.5,45,2460 L45,2460" fill="none" stroke="gray" stroke-width="1"/>
<circle cx="60" cy="2445" fill="white" r="4" stroke="gray" stroke-width="1"/>
<line stroke="gray" stroke-width="1" x1="45" x2="45" y1="2460" y2="2475"/>
<circle cx="45" cy="2460" fill="gray" r="4" stroke="gray" stroke-width="1"/>
<line stroke="gray" stroke-width="1" x1="45" x2="45" y1="2475" y2="2490"/>
<circle cx="45" cy="2475" fill="gray" r="4" stroke="gray" stroke-width="1"/>
<line stroke="gray" stroke-width="1" x1="45" x2="45" y1="2490" y2="2505"/>
<circle cx="45" cy="2490" fill="gray" r="4" stroke="gray" stroke-width="1"/>
<line stroke="gray" stroke-width="1" x1="45" x2="45" y1="2505" y2="2520"/>
<circle cx="45" cy="2505" fill="gray" r="4" stroke="gray" stroke-width="1"/>
<line stroke="gray" stroke-width="1" x1="45" x2="45" y1="2520" y2="2550"/>
<circle cx="45" cy="2520" fill="gray" r="4" stroke="gray" stroke-width="1"/>
<line stroke="orange" stroke-width="1" x1="30" x2="30" y1="2535" y2="2670"/>
<circle cx="30" cy="2535" fill="orange" r="4" stroke="orange" stroke-width="1"/>
<line stroke="gray" stroke-width="1" x1="45" x2="45" y1="2550" y2="2580"/>
<circle cx="45" cy="2550" fill="gray" r="4" stroke="gray" stroke-width="1"/>
<line stroke="gray" stroke-width="1" x1="60" x2="60" y1="2565" y2="2595"/>
<circle cx="60" cy="2565" fill="gray" r="4" stroke="gray" stroke-width="1"/>
<line stroke="gray" stroke-width="1" x1="45" x2="45" y1="2580" y2="2610"/>
<circle cx="45" cy="2580" fill="gray" r="4" stroke="gray" stroke-width="1"/>
<path d="M60,2595 L60,2595 Q60,2602.5,52.5,2602.5 Q45,2602.5,45,2610 L45,2610" fill="none" stroke="gray" stroke-width="1"/>
<circle cx="60" cy="2595" fill="gray" r="4" stroke="gray" stroke-width="1"/>
<line stroke="gray" stroke-width="1" x1="45" x2="45" y1="2610" y2="2625"/>
<circle cx="45" cy="2610" fill="gray" r="4" stroke="gray" stroke-width="1"/>
<line stroke="gray" stroke-width="1" x1="45" x2="45" y1="2625" y2="2640"/>
<circle cx="45" cy="2625" fill="gray" r="4" stroke="gray" stroke-width="1"/>
<path d="M45,2640 L45,2655 Q45,2662.5,37.5,2662.5 Q30,2662.5,30,2670 L30,2670" fill="none" stroke="gray" stroke-width="1"/>
<circle cx="45" cy="2640" fill="gray" r="4" stroke="gray" stroke-width="1"/>
<line stroke="blue" stroke-width="1" x1="15" x2="15" y1="2655" y2="2685"/>
<path d="M15,2655 L15,2655 Q15,2662.5,22.5,2662.5 Q30,2662.5,30,2670 L30,2670" fill="none" stroke="orange" stroke-width="1"/>
<circle cx="15" cy="2655" fill="white" r="4" stroke="blue" stroke-width="1"/>
<line stroke="orange" stroke-width="1" x1="30" x2="30" y1="2670" y2="2700"/>
<circle cx="30" cy="2670" fill="orange" r="4" stroke="orange" stroke-width="1"/>
<line stroke="blue" stroke-width="1" x1="15" x2="15" y1="2685" y2="2730"/>
<path d="M15,2685 L15,2685 Q15,2692.5,22.5,2692.5 Q30,2692.5,30,2700 L30,2700" fill="none" stroke="orange" stroke-width="1"/>
<circle cx="15" cy="2685" fill="white" r="4" stroke="blue" stroke-width="1"/>
<line stroke="orange" stroke-width="1" x1="30" x2="30" y1="2700" y2="2715"/>
<circle cx="30" cy="2700" fill="orange" r="4" stroke="orange" stroke-width="1"/>
<path d="M30,2715 L30,2760 Q30,2767.5,22.5,2767.5 Q15,2767.5,15,2775 L15,2775" fill="none" stroke="orange" stroke-width="1"/>
<circle cx="30" cy="2715" fill="orange" r="4" stroke="orange" stroke-width="1"/>
<line stroke="blue" stroke-width="1" x1="15" x2="15" y1="2730" y2="2745"/>
<circle cx="15" cy="2730" fill="blue" r="4" stroke="blue" stroke-width="1"/>
<line stroke="blue" stroke-width="1" x1="15" x2="15" y1="2745" y2="2760"/>
<circle cx="15" cy="2745" fill="blue" r="4" stroke="blue" stroke-width="1"/>
<line stroke="blue" stroke-width="1" x1="15" x2="15" y1="2760" y2="2775"/>
<circle cx="15" cy="2760" fill="blue" r="4" stroke="blue" stroke-width="1"/>
<line stroke="blue" stroke-width="1" x1="15" x2="15" y1="2775" y2="2790"/>
<circle cx="15" cy="2775" fill="blue" r="4" stroke="blue" stroke-width="1"/>
<line stroke="blue" stroke-width="1" x1="15" x2="15" y1="2790" y2="2805"/>
<circle cx="15" cy="2790" fill="blue" r="4" stroke="blue" stroke-width="1"/>
<line stroke="blue" stroke-width="1" x1="15" x2="15" y1="2805" y2="2820"/>
<circle cx="15" cy="2805" fill="blue" r="4" stroke="blue" stroke-width="1"/>
<line stroke="blue" stroke-width="1" x1="15" x2="15" y1="2820" y2="2835"/>
<circle cx="15" cy="2820" fill="blue" r="4" stroke="blue" stroke-width="1"/>
<line stroke="blue" stroke-width="1" x1="15" x2="15" y1="2835" y2="2850"/>
<circle cx="15" cy="2835" fill="blue" r="4" stroke="blue" stroke-width="1"/>
<line stroke="blue" stroke-width="1" x1="15" x2="15" y1="2850" y2="2865"/>
<circle cx="15" cy="2850" fill="blue" r="4" stroke="blue" stroke-width="1"/>
<line stroke="blue" stroke-width="1" x1="15" x2="15" y1="2865" y2="2880"/>
<circle cx="15" cy="2865" fill="blue" r="4" stroke="blue" stroke-width="1"/>
<line stroke="blue" stroke-width="1" x1="15" x2="15" y1="2880" y2="2895"/>
<circle cx="15" cy="2880" fill="blue" r="4" stroke="blue" stroke-width="1"/>
<line stroke="blue" stroke-width="1" x1="15" x2="15" y1="2895" y2="2910"/>
<circle cx="15" cy="2895" fill="blue" r="4" stroke="blue" stroke-width="1"/>
<line stroke="blue" stroke-width="1" x1="15" x2="15" y1="2910" y2="2925"/>
<circle cx="15" cy="2910" fill="blue" r="4" stroke="blue" stroke-width="1"/>
<line stroke="blue" stroke-width="1" x1="15" x2="15" y1="2925" y2="2940"/>
<path d="M15,2925 L15,2925 Q15,2932.5,30,2932.5 Q45,2932.5,45,2940 L45,2970" fill="none" stroke="gray" stroke-width="1"/>
<circle cx="15" cy="2925" fill="white" r="4" stroke="blue" stroke-width="1"/>
<line stroke="blue" stroke-width="1" x1="15" x2="15" y1="2940" y2="2955"/>
<circle cx="15" cy="2940" fill="blue" r="4" stroke="blue" stroke-width="1"/>
<line stroke="blue" stroke-width="1" x1="15" x2="15" y1="2955" y2="2985"/>
<circle cx="15" cy="2955" fill="blue" r="4" stroke="blue" stroke-width="1"/>
<path d="M45,2970 L45,2970 Q45,2977.5,30,2977.5 Q15,2977.5,15,2985 L15,2985" fill="none" stroke="gray" stroke-width="1"/>
<circle cx="45" cy="2970" fill="gray" r="4" stroke="gray" stroke-width="1"/>
<line stroke="blue" stroke-width="1" x1="15" x2="15" y1="2985" y2="3000"/>
<circle cx="15" cy="2985" fill="blue" r="4" stroke="blue" stroke-width="1"/>
<line stroke="blue" stroke-width="1" x1="15" x2="15" y1="3000" y2="3015"/>
<circle cx="15" cy="3000" fill="blue" r="4" stroke="blue" stroke-width="1"/>
<line stroke="blue" stroke-width="1" x1="15" x2="15" y1="3015" y2="3030"/>
<circle cx="15" cy="3015" fill="blue" r="4" stroke="blue" stroke-width="1"/>
<line stroke="blue" stroke-width="1" x1="15" x2="15" y1="3030" y2="3045"/>
<circle cx="15" cy="3030" fill="blue" r="4" stroke="blue" stroke-width="1"/>
<line stroke="blue" stroke-width="1" x1="15" x2="15" y1="3045" y2="3060"/>
<circle cx="15" cy="3045" fill="blue" r="4" stroke="blue" stroke-width="1"/>
<line stroke="blue" stroke-width="1" x1="15" x2="15" y1="3060" y2="3075"/>
<circle cx="15" cy="3060" fill="blue" r="4" stroke="blue" stroke-width="1"/>
<line stroke="blue" stroke-width="1" x1="15" x2="15" y1="3075" y2="3090"/>
<path d="M15,3075 L15,3075 Q15,3082.5,30,3082.5 Q45,3082.5,45,3090 L45,3105" fill="none" stroke="gray" stroke-width="1"/>
<circle cx="15" cy="3075" fill="white" r="4" stroke="blue" stroke-width="1"/>
<line stroke="blue" stroke-width="1" x1="15" x2="15" y1="3090" y2="3135"/>
<circle cx="15" cy="3090" fill="blue" r="4" stroke="blue" stroke-width="1"/>
<line stroke="gray" stroke-width="1" x1="45" x2="45" y1="3105" y2="3120"/>
<circle cx="45" cy="3105" fill="gray" r="4" stroke="gray" stroke-width="1"/>
<path d="M45,3120 L45,3120 Q45,3127.5,30,3127.5 Q15,3127.5,15,3135 L15,3135" fill="none" stroke="gray" stroke-width="1"/>
<circle cx="45" cy="3120" fill="gray" r="4" stroke="gray" stroke-width="1"/>
<line stroke="blue" stroke-width="1" x1="15" x2="15" y1="3135" y2="3150"/>
<circle cx="15" cy="3135" fill="blue" r="4" stroke="blue" stroke-width="1"/>
<line stroke="blue" stroke-width="1" x1="15" x2="15" y1="3150" y2="3165"/>
<circle cx="15" cy="3150" fill="blue" r="4" stroke="blue" stroke-width="1"/>
<line stroke="blue" stroke-width="1" x1="15" x2="15" y1="3165" y2="3180"/>
<circle cx="15" cy="3165" fill="blue" r="4" stroke="blue" stroke-width="1"/>
<line stroke="blue" stroke-width="1" x1="15" x2="15" y1="3180" y2="3195"/>
<circle cx="15" cy="3180" fill="blue" r="4" stroke="blue" stroke-width="1"/>
<line stroke="blue" stroke-width="1" x1="15" x2="15" y1="3195" y2="3210"/>
<circle cx="15" cy="3195" fill="blue" r="4" stroke="blue" stroke-width="1"/>
<line stroke="blue" stroke-width="1" x1="15" x2="15" y1="3210" y2="3225"/>
<circle cx="15" cy="3210" fill="blue" r="4" stroke="blue" stroke-width="1"/>
<line stroke="blue" stroke-width="1" x1="15" x2="15" y1="3225" y2="3240"/>
<circle cx="15" cy="3225" fill="blue" r="4" stroke="blue" stroke-width="1"/>
<line stroke="blue" stroke-width="1" x1="15" x2="15" y1="3240" y2="3255"/>
<circle cx="15" cy="3240" fill="blue" r="4" stroke="blue" stroke-width="1"/>
<line stroke="blue" stroke-width="1" x1="15" x2="15" y1="3255" y2="3270"/>
<circle cx="15" cy="3255" fill="blue" r="4" stroke="blue" stroke-width="1"/>
<line stroke="blue" stroke-width="1" x1="15" x2="15" y1="3270" y2="3285"/>
<circle cx="15" cy="3270" fill="blue" r="4" stroke="blue" stroke-width="1"/>
<line stroke="blue" stroke-width="1" x1="15" x2="15" y1="3285" y2="3300"/>
<circle cx="15" cy="3285" fill="blue" r="4" stroke="blue" stroke-width="1"/>
<line stroke="blue" stroke-width="1" x1="15" x2="15" y1="3300" y2="3315"/>
<circle cx="15" cy="3300" fill="blue" r="4" stroke="blue" stroke-width="1"/>
<line stroke="blue" stroke-width="1" x1="15" x2="15" y1="3315" y2="3330"/>
<circle cx="15" cy="3315" fill="blue" r="4" stroke="blue" stroke-width="1"/>
<circle cx="15" cy="3330" fill="blue" r="4" stroke="blue" stroke-width="1"/>
</svg>
