<svg height="1155" viewBox="0 0 75 1155" width="75" xmlns="http://www.w3.org/2000/svg">
<line stroke="orange" stroke-width="1" x1="30" x2="30" y1="15" y2="30"/>
<circle cx="30" cy="15" fill="orange" r="4" stroke="orange" stroke-width="1"/>
<line stroke="orange" stroke-width="1" x1="30" x2="30" y1="30" y2="45"/>
<circle cx="30" cy="30" fill="orange" r="4" stroke="orange" stroke-width="1"/>
<line stroke="orange" stroke-width="1" x1="30" x2="30" y1="45" y2="60"/>
<circle cx="30" cy="45" fill="orange" r="4" stroke="orange" stroke-width="1"/>
<line stroke="orange" stroke-width="1" x1="30" x2="30" y1="60" y2="90"/>
<circle cx="30" cy="60" fill="orange" r="4" stroke="orange" stroke-width="1"/>
<line stroke="gray" stroke-width="1" x1="45" x2="45" y1="75" y2="105"/>
<circle cx="45" cy="75" fill="gray" r="4" stroke="gray" stroke-width="1"/>
<line stroke="orange" stroke-width="1" x1="30" x2="30" y1="90" y2="135"/>
<path d="M30,90 L30,90 Q30,97.5,37.5,97.5 Q45,97.5,45,105 L45,105" fill="none" stroke="gray" stroke-width="1"/>
<circle cx="30" cy="90" fill="white" r="4" stroke="orange" stroke-width="1"/>
<line stroke="gray" stroke-width="1" x1="45" x2="45" y1="105" y2="150"/>
<circle cx="45" cy="105" fill="gray" r="4" stroke="gray" stroke-width="1"/>
<line stroke="blue" stroke-width="1" x1="15" x2="15" y1="120" y2="225"/>
<path d="M15,120 L15,120 Q15,127.5,22.5,127.5 Q30,127.5,30,135 L30,135" fill="none" stroke="orange" stroke-width="1"/>
<circle cx="15" cy="120" fill="white" r="4" stroke="blue" stroke-width="1"/>
<line stroke="orange" stroke-width="1" x1="30" x2="30" y1="135" y2="240"/>
<path d="M30,135 L30,135 Q30,142.5,37.5,142.5 Q45,142.5,45,150 L45,150" fill="none" stroke="gray" stroke-width="1"/>
<circle cx="30" cy="135" fill="white" r="4" stroke="orange" stroke-width="1"/>
<line stroke="gray" stroke-width="1" x1="45" x2="45" y1="150" y2="165"/>
<path d="M45,150 L45,150 Q45,157.5,52.5,157.5 Q60,157.5,60,165 L60,195" fill="none" stroke="gray" stroke-width="1"/>
<circle cx="45" cy="150" fill="white" r="4" stroke="gray" stroke-width="1"/>
<line stroke="gray" stroke-width="1" x1="45" x2="45" y1="165" y2="180"/>
<circle cx="45" cy="165" fill="gray" r="4" stroke="gray" stroke-width="1"/>
<line stroke="gray" stroke-width="1" x1="45" x2="45" y1="180" y2="210"/>
<circle cx="45" cy="180" fill="gray" r="4" stroke="gray" stroke-width="1"/>
<path d="M60,195 L60,195 Q60,202.5,52.5,202.5 Q45,202.5,45,210 L45,210" fill="none" stroke="gray" stroke-width="1"/>
<circle cx="60" cy="195" fill="gray" r="4" stroke="gray" stroke-width="1"/>
<line stroke="gray" stroke-width="1" x1="45" x2="45" y1="210" y2="345"/>
<path d="M45,210 L45,210 Q45,217.5,37.5,217.5 Q30,217.5,30,225 L30,240" fill="none" stroke="orange" stroke-width="1"/>
<circle cx="45" cy="210" fill="white" r="4" stroke="gray" stroke-width="1"/>
<line stroke="blue" stroke-width="1" x1="15" x2="15" y1="225" y2="420"/>
<path d="M15,225 L15,225 Q15,232.5,22.5,232.5 Q30,232.5,30,240 L30,240" fill="none" stroke="orange" stroke-width="1"/>
<circle cx="15" cy="225" fill="white" r="4" stroke="blue" stroke-width="1"/>
<line stroke="orange" stroke-width="1" x1="30" x2="30" y1="240" y2="255"/>
<circle cx="30" cy="240" fill="orange" r="4" stroke="orange" stroke-width="1"/>
<line stroke="orange" stroke-width="1" x1="30" x2="30" y1="255" y2="270"/>
<circle cx="30" cy="255" fill="orange" r="4" stroke="orange" stroke-width="1"/>
<line stroke="orange" stroke-width="1" x1="30" x2="30" y1="270" y2="285"/>
<circle cx="30" cy="270" fill="orange" r="4" stroke="orange" stroke-width="1"/>
<line stroke="orange" stroke-width="1" x1="30" x2="30" y1="285" y2="300"/>
<circle cx="30" cy="285" fill="orange" r="4" stroke="orange" stroke-width="1"/>
<line stroke="orange" stroke-width="1" x1="30" x2="30" y1="300" y2="315"/>
<circle cx="30" cy="300" fill="orange" r="4" stroke="orange" stroke-width="1"/>
<line stroke="orange" stroke-width="1" x1="30" x2="30" y1="315" y2="330"/>
<path d="M30,315 L30,315 Q30,322.5,37.5,322.5 Q45,322.5,45,330 L45,345" fill="none" stroke="gray" stroke-width="1"/>
<circle cx="30" cy="315" fill="white" r="4" stroke="orange" stroke-width="1"/>
<line stroke="orange" stroke-width="1" x1="30" x2="30" y1="330" y2="405"/>
<circle cx="30" cy="330" fill="orange" r="4" stroke="orange" stroke-width="1"/>
<line stroke="gray" stroke-width="1" x1="45" x2="45" y1="345" y2="360"/>
<circle cx="45" cy="345" fill="gray" r="4" stroke="gray" stroke-width="1"/>
<line stroke="gray" stroke-width="1" x1="45" x2="45" y1="360" y2="375"/>
<circle cx="45" cy="360" fill="gray" r="4" stroke="gray" stroke-width="1"/>
<line stroke="gray" stroke-width="1" x1="45" x2="45" y1="375" y2="390"/>
<path d="M45,375 L45,375 Q45,382.5,37.5,382.5 Q30,382.5,30,390 L30,405" fill="none" stroke="orange" stroke-width="1"/>
<circle cx="45" cy="375" fill="white" r="4" stroke="gray" stroke-width="1"/>
<line stroke="gray" stroke-width="1" x1="45" x2="45" y1="390" y2="450"/>
<circle cx="45" cy="390" fill="gray" r="4" stroke="gray" stroke-width="1"/>
<line stroke="orange" stroke-width="1" x1="30" x2="30" y1="405" y2="435"/>
<circle cx="30" cy="405" fill="orange" r="4" stroke="orange" stroke-width="1"/>
<line stroke="blue" stroke-width="1" x1="15" x2="15" y1="420" y2="480"/>
<path d="M15,420 L15,420 Q15,427.5,22.5,427.5 Q30,427.5,30,435 L30,435" fill="none" stroke="orange" stroke-width="1"/>
<circle cx="15" cy="420" fill="white" r="4" stroke="blue" stroke-width="1"/>
<line stroke="orange" stroke-width="1" x1="30" x2="30" y1="435" y2="495"/>
<path d="M30,435 L30,435 Q30,442.5,37.5,442.5 Q45,442.5,45,450 L45,450" fill="none" stroke="gray" stroke-width="1"/>
<circle cx="30" cy="435" fill="white" r="4" stroke="orange" stroke-width="1"/>
<line stroke="gray" stroke-width="1" x1="45" x2="45" y1="450" y2="465"/>
<circle cx="45" cy="450" fill="gray" r="4" stroke="gray" stroke-width="1"/>
<path d="M45,465 L45,480 Q45,487.5,37.5,487.5 Q30,487.5,30,495 L30,495" fill="none" stroke="gray" stroke-width="1"/>
<circle cx="45" cy="465" fill="gray" r="4" stroke="gray" stroke-width="1"/>
<line stroke="blue" stroke-width="1" x1="15" x2="15" y1="480" y2="525"/>
<path d="M15,480 L15,480 Q15,487.5,22.5,487.5 Q30,487.5,30,495 L30,495" fill="none" stroke="orange" stroke-width="1"/>
<circle cx="15" cy="480" fill="white" r="4" stroke="blue" stroke-width="1"/>
<line stroke="orange" stroke-width="1" x1="30" x2="30" y1="495" y2="510"/>
<circle cx="30" cy="495" fill="orange" r="4" stroke="orange" stroke-width="1"/>
<line stroke="orange" stroke-width="1" x1="30" x2="30" y1="510" y2="540"/>
<circle cx="30" cy="510" fill="orange" r="4" stroke="orange" stroke-width="1"/>
<line stroke="blue" stroke-width="1" x1="15" x2="15" y1="525" y2="675"/>
<path d="M15,525 L15,525 Q15,532.5,22.5,532.5 Q30,532.5,30,540 L30,540" fill="none" stroke="orange" stroke-width="1"/>
<circle cx="15" cy="525" fill="white" r="4" stroke="blue" stroke-width="1"/>
<line stroke="orange" stroke-width="1" x1="30" x2="30" y1="540" y2="570"/>
<path d="M30,540 L30,540 Q30,547.5,37.5,547.5 Q45,547.5,45,555 L45,555" fill="none" stroke="gray" stroke-width="1"/>
<circle cx="30" cy="540" fill="white" r="4" stroke="orange" stroke-width="1"/>
<path d="M45,555 L45,555 Q45,562.5,37.5,562.5 Q30,562.5,30,570 L30,570" fill="none" stroke="gray" stroke-width="1"/>
<circle cx="45" cy="555" fill="gray" r="4" stroke="gray" stroke-width="1"/>
<line stroke="orange" stroke-width="1" x1="30" x2="30" y1="570" y2="615"/>
<path d="M30,570 L30,570 Q30,577.5,37.5,577.5 Q45,577.5,45,585 L45,585" fill="none" stroke="gray" stroke-width="1"/>
<circle cx="30" cy="570" fill="white" r="4" stroke="orange" stroke-width="1"/>
<line stroke="gray" stroke-width="1" x1="45" x2="45" y1="585" y2="600"/>
<circle cx="45" cy="585" fill="gray" r="4" stroke="gray" stroke-width="1"/>
<path d="M45,600 L45,675 Q45,682.5,37.5,682.5 Q30,682.5,30,690 L30,690" fill="none" stroke="gray" stroke-width="1"/>
<circle cx="45" cy="600" fill="gray" r="4" stroke="gray" stroke-width="1"/>
<line stroke="orange" stroke-width="1" x1="30" x2="30" y1="615" y2="630"/>
<circle cx="30" cy="615" fill="orange" r="4" stroke="orange" stroke-width="1"/>
<line stroke="orange" stroke-width="1" x1="30" x2="30" y1="630" y2="645"/>
<circle cx="30" cy="630" fill="orange" r="4" stroke="orange" stroke-width="1"/>
<line stroke="orange" stroke-width="1" x1="30" x2="30" y1="645" y2="660"/>
<circle cx="30" cy="645" fill="orange" r="4" stroke="orange" stroke-width="1"/>
<line stroke="orange" stroke-width="1" x1="30" x2="30" y1="660" y2="690"/>
<circle cx="30" cy="660" fill="orange" r="4" stroke="orange" stroke-width="1"/>
<line stroke="blue" stroke-width="1" x1="15" x2="15" y1="675" y2="990"/>
<path d="M15,675 L15,675 Q15,682.5,22.5,682.5 Q30,682.5,30,690 L30,690" fill="none" stroke="orange" stroke-width="1"/>
<circle cx="15" cy="675" fill="white" r="4" stroke="blue" stroke-width="1"/>
<line stroke="orange" stroke-width="1" x1="30" x2="30" y1="690" y2="705"/>
<circle cx="30" cy="690" fill="orange" r="4" stroke="orange" stroke-width="1"/>
<line stroke="orange" stroke-width="1" x1="30" x2="30" y1="705" y2="720"/>
<circle cx="30" cy="705" fill="orange" r="4" stroke="orange" stroke-width="1"/>
<line stroke="orange" stroke-width="1" x1="30" x2="30" y1="720" y2="735"/>
<circle cx="30" cy="720" fill="orange" r="4" stroke="orange" stroke-width="1"/>
<line stroke="orange" stroke-width="1" x1="30" x2="30" y1="735" y2="780"/>
<path d="M30,735 L30,735 Q30,742.5,37.5,742.5 Q45,742.5,45,750 L45,750" fill="none" stroke="gray" stroke-width="1"/>
<circle cx="30" cy="735" fill="white" r="4" stroke="orange" stroke-width="1"/>
<line stroke="gray" stroke-width="1" x1="45" x2="45" y1="750" y2="765"/>
<circle cx="45" cy="750" fill="gray" r="4" stroke="gray" stroke-width="1"/>
<path d="M45,765 L45,810 Q45,817.5,37.5,817.5 Q30,817.5,30,825 L30,825" fill="none" stroke="gray" stroke-width="1"/>
<circle cx="45" cy="765" fill="gray" r="4" stroke="gray" stroke-width="1"/>
<line stroke="orange" stroke-width="1" x1="30" x2="30" y1="780" y2="795"/>
<circle cx="30" cy="780" fill="orange" r="4" stroke="orange" stroke-width="1"/>
<line stroke="orange" stroke-width="1" x1="30" x2="30" y1="795" y2="810"/>
<circle cx="30" cy="795" fill="orange" r="4" stroke="orange" stroke-width="1"/>
<line stroke="orange" stroke-width="1" x1="30" x2="30" y1="810" y2="825"/>
<circle cx="30" cy="810" fill="orange" r="4" stroke="orange" stroke-width="1"/>
<line stroke="orange" stroke-width="1" x1="30" x2="30" y1="825" y2="840"/>
<circle cx="30" cy="825" fill="orange" r="4" stroke="orange" stroke-width="1"/>
<line stroke="orange" stroke-width="1" x1="30" x2="30" y1="840" y2="855"/>
<circle cx="30" cy="840" fill="orange" r="4" stroke="orange" stroke-width="1"/>
<line stroke="orange" stroke-width="1" x1="30" x2="30" y1="855" y2="915"/>
<path d="M30,855 L30,855 Q30,862.5,37.5,862.5 Q45,862.5,45,870 L45,870" fill="none" stroke="gray" stroke-width="1"/>
<circle cx="30" cy="855" fill="white" r="4" stroke="orange" stroke-width="1"/>
<line stroke="gray" stroke-width="1" x1="45" x2="45" y1="870" y2="885"/>
<circle cx="45" cy="870" fill="gray" r="4" stroke="gray" stroke-width="1"/>
<line stroke="gray" stroke-width="1" x1="45" x2="45" y1="885" y2="900"/>
<circle cx="45" cy="885" fill="gray" r="4" stroke="gray" stroke-width="1"/>
<path d="M45,900 L45,900 Q45,907.5,37.5,907.5 Q30,907.5,30,915 L30,915" fill="none" stroke="gray" stroke-width="1"/>
<circle cx="45" cy="900" fill="gray" r="4" stroke="gray" stroke-width="1"/>
<line stroke="orange" stroke-width="1" x1="30" x2="30" y1="915" y2="930"/>
<circle cx="30" cy="915" fill="orange" r="4" stroke="orange" stroke-width="1"/>
<line stroke="orange" stroke-width="1" x1="30" x2="30" y1="930" y2="945"/>
<circle cx="30" cy="930" fill="orange" r="4" stroke="orange" stroke-width="1"/>
<line stroke="orange" stroke-width="1" x1="30" x2="30" y1="945" y2="960"/>
<circle cx="30" cy="945" fill="orange" r="4" stroke="orange" stroke-width="1"/>
<line stroke="orange" stroke-width="1" x1="30" x2="30" y1="960" y2="975"/>
<circle cx="30" cy="960" fill="orange" r="4" stroke="orange" stroke-width="1"/>
<path d="M30,975 L30,1005 Q30,1012.5,22.5,1012.5 Q15,1012.5,15,1020 L15,1020" fill="none" stroke="orange" stroke-width="1"/>
<circle cx="30" cy="975" fill="orange" r="4" stroke="orange" stroke-width="1"/>
<line stroke="blue" stroke-width="1" x1="15" x2="15" y1="990" y2="1005"/>
<circle cx="15" cy="990" fill="blue" r="4" stroke="blue" stroke-width="1"/>
<line stroke="blue" stroke-width="1" x1="15" x2="15" y1="1005" y2="1020"/>
<circle cx="15" cy="1005" fill="blue" r="4" stroke="blue" stroke-width="1"/>
<line stroke="blue" stroke-width="1" x1="15" x2="15" y1="1020" y2="1035"/>
<circle cx="15" cy="1020" fill="blue" r="4" stroke="blue" stroke-width="1"/>
<line stroke="blue" stroke-width="1" x1="15" x2="15" y1="1035" y2="1050"/>
<circle cx="15" cy="1035" fill="blue" r="4" stroke="blue" stroke-width="1"/>
<line stroke="blue" stroke-width="1" x1="15" x2="15" y1="1050" y2="1065"/>
<circle cx="15" cy="1050" fill="blue" r="4" stroke="blue" stroke-width="1"/>
<line stroke="blue" stroke-width="1" x1="15" x2="15" y1="1065" y2="1080"/>
<circle cx="15" cy="1065" fill="blue" r="4" stroke="blue" stroke-width="1"/>
<line stroke="blue" stroke-width="1" x1="15" x2="15" y1="1080" y2="1095"/>
<circle cx="15" cy="1080" fill="blue" r="4" stroke="blue" stroke-width="1"/>
<line stroke="blue" stroke-width="1" x1="15" x2="15" y1="1095" y2="1110"/>
<circle cx="15" cy="1095" fill="blue" r="4" stroke="blue" stroke-width="1"/>
<line stroke="blue" stroke-width="1" x1="15" x2="15" y1="1110" y2="1125"/>
<circle cx="15" cy="1110" fill="blue" r="4" stroke="blue" stroke-width="1"/>
<circle cx="15" cy="1125" fill="blue" r="4" stroke="blue" stroke-width="1"/>
</svg>
