<svg height="1095" viewBox="0 0 75 1095" width="75" xmlns="http://www.w3.org/2000/svg">
<line stroke="gray" stroke-width="1" x1="45" x2="45" y1="15" y2="45"/>
<circle cx="45" cy="15" fill="gray" r="4" stroke="gray" stroke-width="1"/>
<line stroke="orange" stroke-width="1" x1="30" x2="30" y1="30" y2="75"/>
<path d="M30,30 L30,30 Q30,37.5,37.5,37.5 Q45,37.5,45,45 L45,45" fill="none" stroke="gray" stroke-width="1"/>
<circle cx="30" cy="30" fill="white" r="4" stroke="orange" stroke-width="1"/>
<line stroke="gray" stroke-width="1" x1="45" x2="45" y1="45" y2="90"/>
<circle cx="45" cy="45" fill="gray" r="4" stroke="gray" stroke-width="1"/>
<line stroke="blue" stroke-width="1" x1="15" x2="15" y1="60" y2="165"/>
<path d="M15,60 L15,60 Q15,67.5,22.5,67.5 Q30,67.5,30,75 L30,75" fill="none" stroke="orange" stroke-width="1"/>
<circle cx="15" cy="60" fill="white" r="4" stroke="blue" stroke-width="1"/>
<line stroke="orange" stroke-width="1" x1="30" x2="30" y1="75" y2="180"/>
<path d="M30,75 L30,75 Q30,82.5,37.5,82.5 Q45,82.5,45,90 L45,90" fill="none" stroke="gray" stroke-width="1"/>
<circle cx="30" cy="75" fill="white" r="4" stroke="orange" stroke-width="1"/>
<line stroke="gray" stroke-width="1" x1="45" x2="45" y1="90" y2="105"/>
<path d="M45,90 L45,90 Q45,97.5,52.5,97.5 Q60,97.5,60,105 L60,135" fill="none" stroke="gray" stroke-width="1"/>
<circle cx="45" cy="90" fill="white" r="4" stroke="gray" stroke-width="1"/>
<line stroke="gray" stroke-width="1" x1="45" x2="45" y1="105" y2="120"/>
<circle cx="45" cy="105" fill="gray" r="4" stroke="gray" stroke-width="1"/>
<line stroke="gray" stroke-width="1" x1="45" x2="45" y1="120" y2="150"/>
<circle cx="45" cy="120" fill="gray" r="4" stroke="gray" stroke-width="1"/>
<path d="M60,135 L60,135 Q60,142.5,52.5,142.5 Q45,142.5,45,150 L45,150" fill="none" stroke="gray" stroke-width="1"/>
<circle cx="60" cy="135" fill="gray" r="4" stroke="gray" stroke-width="1"/>
<line stroke="gray" stroke-width="1" x1="45" x2="45" y1="150" y2="285"/>
<path d="M45,150 L45,150 Q45,157.5,37.5,157.5 Q30,157.5,30,165 L30,180" fill="none" stroke="orange" stroke-width="1"/>
<circle cx="45" cy="150" fill="white" r="4" stroke="gray" stroke-width="1"/>
<line stroke="blue" stroke-width="1" x1="15" x2="15" y1="165" y2="360"/>
<path d="M15,165 L15,165 Q15,172.5,22.5,172.5 Q30,172.5,30,180 L30,180" fill="none" stroke="orange" stroke-width="1"/>
<circle cx="15" cy="165" fill="white" r="4" stroke="blue" stroke-width="1"/>
<line stroke="orange" stroke-width="1" x1="30" x2="30" y1="180" y2="195"/>
<circle cx="30" cy="180" fill="orange" r="4" stroke="orange" stroke-width="1"/>
<line stroke="orange" stroke-width="1" x1="30" x2="30" y1="195" y2="210"/>
<circle cx="30" cy="195" fill="orange" r="4" stroke="orange" stroke-width="1"/>
<line stroke="orange" stroke-width="1" x1="30" x2="30" y1="210" y2="225"/>
<circle cx="30" cy="210" fill="orange" r="4" stroke="orange" stroke-width="1"/>
<line stroke="orange" stroke-width="1" x1="30" x2="30" y1="225" y2="240"/>
<circle cx="30" cy="225" fill="orange" r="4" stroke="orange" stroke-width="1"/>
<line stroke="orange" stroke-width="1" x1="30" x2="30" y1="240" y2="255"/>
<circle cx="30" cy="240" fill="orange" r="4" stroke="orange" stroke-width="1"/>
<line stroke="orange" stroke-width="1" x1="30" x2="30" y1="255" y2="270"/>
<path d="M30,255 L30,255 Q30,262.5,37.5,262.5 Q45,262.5,45,270 L45,285" fill="none" stroke="gray" stroke-width="1"/>
<circle cx="30" cy="255" fill="white" r="4" stroke="orange" stroke-width="1"/>
<line stroke="orange" stroke-width="1" x1="30" x2="30" y1="270" y2="345"/>
<circle cx="30" cy="270" fill="orange" r="4" stroke="orange" stroke-width="1"/>
<line stroke="gray" stroke-width="1" x1="45" x2="45" y1="285" y2="300"/>
<circle cx="45" cy="285" fill="gray" r="4" stroke="gray" stroke-width="1"/>
<line stroke="gray" stroke-width="1" x1="45" x2="45" y1="300" y2="315"/>
<circle cx="45" cy="300" fill="gray" r="4" stroke="gray" stroke-width="1"/>
<line stroke="gray" stroke-width="1" x1="45" x2="45" y1="315" y2="330"/>
<path d="M45,315 L45,315 Q45,322.5,37.5,322.5 Q30,322.5,30,330 L30,345" fill="none" stroke="orange" stroke-width="1"/>
<circle cx="45" cy="315" fill="white" r="4" stroke="gray" stroke-width="1"/>
<line stroke="gray" stroke-width="1" x1="45" x2="45" y1="330" y2="390"/>
<circle cx="45" cy="330" fill="gray" r="4" stroke="gray" stroke-width="1"/>
<line stroke="orange" stroke-width="1" x1="30" x2="30" y1="345" y2="375"/>
<circle cx="30" cy="345" fill="orange" r="4" stroke="orange" stroke-width="1"/>
<line stroke="blue" stroke-width="1" x1="15" x2="15" y1="360" y2="420"/>
<path d="M15,360 L15,360 Q15,367.5,22.5,367.5 Q30,367.5,30,375 L30,375" fill="none" stroke="orange" stroke-width="1"/>
<circle cx="15" cy="360" fill="white" r="4" stroke="blue" stroke-width="1"/>
<line stroke="orange" stroke-width="1" x1="30" x2="30" y1="375" y2="435"/>
<path d="M30,375 L30,375 Q30,382.5,37.5,382.5 Q45,382.5,45,390 L45,390" fill="none" stroke="gray" stroke-width="1"/>
<circle cx="30" cy="375" fill="white" r="4" stroke="orange" stroke-width="1"/>
<line stroke="gray" stroke-width="1" x1="45" x2="45" y1="390" y2="405"/>
<circle cx="45" cy="390" fill="gray" r="4" stroke="gray" stroke-width="1"/>
<path d="M45,405 L45,420 Q45,427.5,37.5,427.5 Q30,427.5,30,435 L30,435" fill="none" stroke="gray" stroke-width="1"/>
<circle cx="45" cy="405" fill="gray" r="4" stroke="gray" stroke-width="1"/>
<line stroke="blue" stroke-width="1" x1="15" x2="15" y1="420" y2="465"/>
<path d="M15,420 L15,420 Q15,427.5,22.5,427.5 Q30,427.5,30,435 L30,435" fill="none" stroke="orange" stroke-width="1"/>
<circle cx="15" cy="420" fill="white" r="4" stroke="blue" stroke-width="1"/>
<line stroke="orange" stroke-width="1" x1="30" x2="30" y1="435" y2="450"/>
<circle cx="30" cy="435" fill="orange" r="4" stroke="orange" stroke-width="1"/>
<line stroke="orange" stroke-width="1" x1="30" x2="30" y1="450" y2="480"/>
<circle cx="30" cy="450" fill="orange" r="4" stroke="orange" stroke-width="1"/>
<line stroke="blue" stroke-width="1" x1="15" x2="15" y1="465" y2="615"/>
<path d="M15,465 L15,465 Q15,472.5,22.5,472.5 Q30,472.5,30,480 L30,480" fill="none" stroke="orange" stroke-width="1"/>
<circle cx="15" cy="465" fill="white" r="4" stroke="blue" stroke-width="1"/>
<line stroke="orange" stroke-width="1" x1="30" x2="30" y1="480" y2="510"/>
<path d="M30,480 L30,480 Q30,487.5,37.5,487.5 Q45,487.5,45,495 L45,495" fill="none" stroke="gray" stroke-width="1"/>
<circle cx="30" cy="480" fill="white" r="4" stroke="orange" stroke-width="1"/>
<path d="M45,495 L45,495 Q45,502.5,37.5,502.5 Q30,502.5,30,510 L30,510" fill="none" stroke="gray" stroke-width="1"/>
<circle cx="45" cy="495" fill="gray" r="4" stroke="gray" stroke-width="1"/>
<line stroke="orange" stroke-width="1" x1="30" x2="30" y1="510" y2="555"/>
<path d="M30,510 L30,510 Q30,517.5,37.5,517.5 Q45,517.5,45,525 L45,525" fill="none" stroke="gray" stroke-width="1"/>
<circle cx="30" cy="510" fill="white" r="4" stroke="orange" stroke-width="1"/>
<line stroke="gray" stroke-width="1" x1="45" x2="45" y1="525" y2="540"/>
<circle cx="45" cy="525" fill="gray" r="4" stroke="gray" stroke-width="1"/>
<path d="M45,540 L45,615 Q45,622.5,37.5,622.5 Q30,622.5,30,630 L30,630" fill="none" stroke="gray" stroke-width="1"/>
<circle cx="45" cy="540" fill="gray" r="4" stroke="gray" stroke-width="1"/>
<line stroke="orange" stroke-width="1" x1="30" x2="30" y1="555" y2="570"/>
<circle cx="30" cy="555" fill="orange" r="4" stroke="orange" stroke-width="1"/>
<line stroke="orange" stroke-width="1" x1="30" x2="30" y1="570" y2="585"/>
<circle cx="30" cy="570" fill="orange" r="4" stroke="orange" stroke-width="1"/>
<line stroke="orange" stroke-width="1" x1="30" x2="30" y1="585" y2="600"/>
<circle cx="30" cy="585" fill="orange" r="4" stroke="orange" stroke-width="1"/>
<line stroke="orange" stroke-width="1" x1="30" x2="30" y1="600" y2="630"/>
<circle cx="30" cy="600" fill="orange" r="4" stroke="orange" stroke-width="1"/>
<line stroke="blue" stroke-width="1" x1="15" x2="15" y1="615" y2="930"/>
<path d="M15,615 L15,615 Q15,622.5,22.5,622.5 Q30,622.5,30,630 L30,630" fill="none" stroke="orange" stroke-width="1"/>
<circle cx="15" cy="615" fill="white" r="4" stroke="blue" stroke-width="1"/>
<line stroke="orange" stroke-width="1" x1="30" x2="30" y1="630" y2="645"/>
<circle cx="30" cy="630" fill="orange" r="4" stroke="orange" stroke-width="1"/>
<line stroke="orange" stroke-width="1" x1="30" x2="30" y1="645" y2="660"/>
<circle cx="30" cy="645" fill="orange" r="4" stroke="orange" stroke-width="1"/>
<line stroke="orange" stroke-width="1" x1="30" x2="30" y1="660" y2="675"/>
<circle cx="30" cy="660" fill="orange" r="4" stroke="orange" stroke-width="1"/>
<line stroke="orange" stroke-width="1" x1="30" x2="30" y1="675" y2="720"/>
<path d="M30,675 L30,675 Q30,682.5,37.5,682.5 Q45,682.5,45,690 L45,690" fill="none" stroke="gray" stroke-width="1"/>
<circle cx="30" cy="675" fill="white" r="4" stroke="orange" stroke-width="1"/>
<line stroke="gray" stroke-width="1" x1="45" x2="45" y1="690" y2="705"/>
<circle cx="45" cy="690" fill="gray" r="4" stroke="gray" stroke-width="1"/>
<path d="M45,705 L45,750 Q45,757.5,37.5,757.5 Q30,757.5,30,765 L30,765" fill="none" stroke="gray" stroke-width="1"/>
<circle cx="45" cy="705" fill="gray" r="4" stroke="gray" stroke-width="1"/>
<line stroke="orange" stroke-width="1" x1="30" x2="30" y1="720" y2="735"/>
<circle cx="30" cy="720" fill="orange" r="4" stroke="orange" stroke-width="1"/>
<line stroke="orange" stroke-width="1" x1="30" x2="30" y1="735" y2="750"/>
<circle cx="30" cy="735" fill="orange" r="4" stroke="orange" stroke-width="1"/>
<line stroke="orange" stroke-width="1" x1="30" x2="30" y1="750" y2="765"/>
<circle cx="30" cy="750" fill="orange" r="4" stroke="orange" stroke-width="1"/>
<line stroke="orange" stroke-width="1" x1="30" x2="30" y1="765" y2="780"/>
<circle cx="30" cy="765" fill="orange" r="4" stroke="orange" stroke-width="1"/>
<line stroke="orange" stroke-width="1" x1="30" x2="30" y1="780" y2="795"/>
<circle cx="30" cy="780" fill="orange" r="4" stroke="orange" stroke-width="1"/>
<line stroke="orange" stroke-width="1" x1="30" x2="30" y1="795" y2="855"/>
<path d="M30,795 L30,795 Q30,802.5,37.5,802.5 Q45,802.5,45,810 L45,810" fill="none" stroke="gray" stroke-width="1"/>
<circle cx="30" cy="795" fill="white" r="4" stroke="orange" stroke-width="1"/>
<line stroke="gray" stroke-width="1" x1="45" x2="45" y1="810" y2="825"/>
<circle cx="45" cy="810" fill="gray" r="4" stroke="gray" stroke-width="1"/>
<line stroke="gray" stroke-width="1" x1="45" x2="45" y1="825" y2="840"/>
<circle cx="45" cy="825" fill="gray" r="4" stroke="gray" stroke-width="1"/>
<path d="M45,840 L45,840 Q45,847.5,37.5,847.5 Q30,847.5,30,855 L30,855" fill="none" stroke="gray" stroke-width="1"/>
<circle cx="45" cy="840" fill="gray" r="4" stroke="gray" stroke-width="1"/>
<line stroke="orange" stroke-width="1" x1="30" x2="30" y1="855" y2="870"/>
<circle cx="30" cy="855" fill="orange" r="4" stroke="orange" stroke-width="1"/>
<line stroke="orange" stroke-width="1" x1="30" x2="30" y1="870" y2="885"/>
<circle cx="30" cy="870" fill="orange" r="4" stroke="orange" stroke-width="1"/>
<line stroke="orange" stroke-width="1" x1="30" x2="30" y1="885" y2="900"/>
<circle cx="30" cy="885" fill="orange" r="4" stroke="orange" stroke-width="1"/>
<line stroke="orange" stroke-width="1" x1="30" x2="30" y1="900" y2="915"/>
<circle cx="30" cy="900" fill="orange" r="4" stroke="orange" stroke-width="1"/>
<path d="M30,915 L30,945 Q30,952.5,22.5,952.5 Q15,952.5,15,960 L15,960" fill="none" stroke="orange" stroke-width="1"/>
<circle cx="30" cy="915" fill="orange" r="4" stroke="orange" stroke-width="1"/>
<line stroke="blue" stroke-width="1" x1="15" x2="15" y1="930" y2="945"/>
<circle cx="15" cy="930" fill="blue" r="4" stroke="blue" stroke-width="1"/>
<line stroke="blue" stroke-width="1" x1="15" x2="15" y1="945" y2="960"/>
<circle cx="15" cy="945" fill="blue" r="4" stroke="blue" stroke-width="1"/>
<line stroke="blue" stroke-width="1" x1="15" x2="15" y1="960" y2="975"/>
<circle cx="15" cy="960" fill="blue" r="4" stroke="blue" stroke-width="1"/>
<line stroke="blue" stroke-width="1" x1="15" x2="15" y1="975" y2="990"/>
<circle cx="15" cy="975" fill="blue" r="4" stroke="blue" stroke-width="1"/>
<line stroke="blue" stroke-width="1" x1="15" x2="15" y1="990" y2="1005"/>
<circle cx="15" cy="990" fill="blue" r="4" stroke="blue" stroke-width="1"/>
<line stroke="blue" stroke-width="1" x1="15" x2="15" y1="1005" y2="1020"/>
<circle cx="15" cy="1005" fill="blue" r="4" stroke="blue" stroke-width="1"/>
<line stroke="blue" stroke-width="1" x1="15" x2="15" y1="1020" y2="1035"/>
<circle cx="15" cy="1020" fill="blue" r="4" stroke="blue" stroke-width="1"/>
<line stroke="blue" stroke-width="1" x1="15" x2="15" y1="1035" y2="1050"/>
<circle cx="15" cy="1035" fill="blue" r="4" stroke="blue" stroke-width="1"/>
<line stroke="blue" stroke-width="1" x1="15" x2="15" y1="1050" y2="1065"/>
<circle cx="15" cy="1050" fill="blue" r="4" stroke="blue" stroke-width="1"/>
<circle cx="15" cy="1065" fill="blue" r="4" stroke="blue" stroke-width="1"/>
</svg>
