<svg height="585" viewBox="0 0 60 585" width="60" xmlns="http://www.w3.org/2000/svg">
<line stroke="blue" stroke-width="1" x1="30" x2="30" y1="15" y2="30"/>
<circle cx="30" cy="15" fill="blue" r="4" stroke="blue" stroke-width="1"/>
<line stroke="blue" stroke-width="1" x1="30" x2="30" y1="30" y2="45"/>
<path d="M30,30 L30,30 Q30,37.5,37.5,37.5 Q45,37.5,45,45 L45,60" fill="none" stroke="purple" stroke-width="1"/>
<circle cx="30" cy="30" fill="white" r="4" stroke="blue" stroke-width="1"/>
<line stroke="blue" stroke-width="1" x1="30" x2="30" y1="45" y2="90"/>
<circle cx="30" cy="45" fill="blue" r="4" stroke="blue" stroke-width="1"/>
<path d="M45,60 L45,60 Q45,67.5,37.5,67.5 Q30,67.5,30,75 L30,90" fill="none" stroke="blue" stroke-width="1"/>
<path d="M45,60 L45,60 Q45,67.5,30,67.5 Q15,67.5,15,75 L15,75" fill="none" stroke="blue" stroke-width="1"/>
<circle cx="45" cy="60" fill="white" r="4" stroke="purple" stroke-width="1"/>
<path d="M15,75 L15,75 Q15,82.5,22.5,82.5 Q30,82.5,30,90 L30,90" fill="none" stroke="blue" stroke-width="1"/>
<circle cx="15" cy="75" fill="blue" r="4" stroke="blue" stroke-width="1"/>
<line stroke="blue" stroke-width="1" x1="30" x2="30" y1="90" y2="105"/>
<circle cx="30" cy="90" fill="blue" r="4" stroke="blue" stroke-width="1"/>
<line stroke="blue" stroke-width="1" x1="30" x2="30" y1="105" y2="120"/>
<circle cx="30" cy="105" fill="blue" r="4" stroke="blue" stroke-width="1"/>
<line stroke="blue" stroke-width="1" x1="30" x2="30" y1="120" y2="150"/>
<path d="M30,120 L30,120 Q30,127.5,37.5,127.5 Q45,127.5,45,135 L45,135" fill="none" stroke="purple" stroke-width="1"/>
<circle cx="30" cy="120" fill="white" r="4" stroke="blue" stroke-width="1"/>
<line stroke="purple" stroke-width="1" x1="45" x2="45" y1="135" y2="165"/>
<path d="M45,135 L45,135 Q45,142.5,37.5,142.5 Q30,142.5,30,150 L30,150" fill="none" stroke="blue" stroke-width="1"/>
<circle cx="45" cy="135" fill="white" r="4" stroke="purple" stroke-width="1"/>
<line stroke="blue" stroke-width="1" x1="30" x2="30" y1="150" y2="180"/>
<circle cx="30" cy="150" fill="blue" r="4" stroke="blue" stroke-width="1"/>
<path d="M45,165 L45,165 Q45,172.5,37.5,172.5 Q30,172.5,30,180 L30,180" fill="none" stroke="purple" stroke-width="1"/>
<circle cx="45" cy="165" fill="purple" r="4" stroke="purple" stroke-width="1"/>
<line stroke="blue" stroke-width="1" x1="30" x2="30" y1="180" y2="195"/>
<circle cx="30" cy="180" fill="blue" r="4" stroke="blue" stroke-width="1"/>
<line stroke="blue" stroke-width="1" x1="30" x2="30" y1="195" y2="210"/>
<circle cx="30" cy="195" fill="blue" r="4" stroke="blue" stroke-width="1"/>
<line stroke="blue" stroke-width="1" x1="30" x2="30" y1="210" y2="225"/>
<circle cx="30" cy="210" fill="blue" r="4" stroke="blue" stroke-width="1"/>
<line stroke="blue" stroke-width="1" x1="30" x2="30" y1="225" y2="240"/>
<circle cx="30" cy="225" fill="blue" r="4" stroke="blue" stroke-width="1"/>
<line stroke="blue" stroke-width="1" x1="30" x2="30" y1="240" y2="255"/>
<circle cx="30" cy="240" fill="blue" r="4" stroke="blue" stroke-width="1"/>
<line stroke="blue" stroke-width="1" x1="30" x2="30" y1="255" y2="270"/>
<circle cx="30" cy="255" fill="blue" r="4" stroke="blue" stroke-width="1"/>
<line stroke="blue" stroke-width="1" x1="30" x2="30" y1="270" y2="285"/>
<circle cx="30" cy="270" fill="blue" r="4" stroke="blue" stroke-width="1"/>
<line stroke="blue" stroke-width="1" x1="30" x2="30" y1="285" y2="300"/>
<circle cx="30" cy="285" fill="blue" r="4" stroke="blue" stroke-width="1"/>
<line stroke="blue" stroke-width="1" x1="30" x2="30" y1="300" y2="315"/>
<circle cx="30" cy="300" fill="blue" r="4" stroke="blue" stroke-width="1"/>
<line stroke="blue" stroke-width="1" x1="30" x2="30" y1="315" y2="330"/>
<circle cx="30" cy="315" fill="blue" r="4" stroke="blue" stroke-width="1"/>
<line stroke="blue" stroke-width="1" x1="30" x2="30" y1="330" y2="345"/>
<circle cx="30" cy="330" fill="blue" r="4" stroke="blue" stroke-width="1"/>
<line stroke="blue" stroke-width="1" x1="30" x2="30" y1="345" y2="360"/>
<path d="M30,345 L30,345 Q30,352.5,37.5,352.5 Q45,352.5,45,360 L45,375" fill="none" stroke="turquoise" stroke-width="1"/>
<circle cx="30" cy="345" fill="white" r="4" stroke="blue" stroke-width="1"/>
<line stroke="blue" stroke-width="1" x1="30" x2="30" y1="360" y2="390"/>
<circle cx="30" cy="360" fill="blue" r="4" stroke="blue" stroke-width="1"/>
<path d="M45,375 L45,375 Q45,382.5,37.5,382.5 Q30,382.5,30,390 L30,390" fill="none" stroke="turquoise" stroke-width="1"/>
<circle cx="45" cy="375" fill="turquoise" r="4" stroke="turquoise" stroke-width="1"/>
<line stroke="blue" stroke-width="1" x1="30" x2="30" y1="390" y2="405"/>
<circle cx="30" cy="390" fill="blue" r="4" stroke="blue" stroke-width="1"/>
<line stroke="blue" stroke-width="1" x1="30" x2="30" y1="405" y2="420"/>
<circle cx="30" cy="405" fill="blue" r="4" stroke="blue" stroke-width="1"/>
<line stroke="blue" stroke-width="1" x1="30" x2="30" y1="420" y2="435"/>
<circle cx="30" cy="420" fill="blue" r="4" stroke="blue" stroke-width="1"/>
<line stroke="blue" stroke-width="1" x1="30" x2="30" y1="435" y2="450"/>
<circle cx="30" cy="435" fill="blue" r="4" stroke="blue" stroke-width="1"/>
<line stroke="blue" stroke-width="1" x1="30" x2="30" y1="450" y2="465"/>
<circle cx="30" cy="450" fill="blue" r="4" stroke="blue" stroke-width="1"/>
<line stroke="blue" stroke-width="1" x1="30" x2="30" y1="465" y2="480"/>
<path d="M30,465 L30,465 Q30,472.5,37.5,472.5 Q45,472.5,45,480 L45,495" fill="none" stroke="purple" stroke-width="1"/>
<circle cx="30" cy="465" fill="white" r="4" stroke="blue" stroke-width="1"/>
<line stroke="blue" stroke-width="1" x1="30" x2="30" y1="480" y2="510"/>
<circle cx="30" cy="480" fill="blue" r="4" stroke="blue" stroke-width="1"/>
<path d="M45,495 L45,495 Q45,502.5,37.5,502.5 Q30,502.5,30,510 L30,510" fill="none" stroke="purple" stroke-width="1"/>
<circle cx="45" cy="495" fill="purple" r="4" stroke="purple" stroke-width="1"/>
<line stroke="blue" stroke-width="1" x1="30" x2="30" y1="510" y2="525"/>
<circle cx="30" cy="510" fill="blue" r="4" stroke="blue" stroke-width="1"/>
<line stroke="blue" stroke-width="1" x1="30" x2="30" y1="525" y2="540"/>
<circle cx="30" cy="525" fill="blue" r="4" stroke="blue" stroke-width="1"/>
<line stroke="blue" stroke-width="1" x1="30" x2="30" y1="540" y2="555"/>
<circle cx="30" cy="540" fill="blue" r="4" stroke="blue" stroke-width="1"/>
<circle cx="30" cy="555" fill="blue" r="4" stroke="blue" stroke-width="1"/>
</svg>
